<svg xmlns="http://www.w3.org/2000/svg">
<defs>
<font id="2555edcrubhuajuckTH" horiz-adv-x="0" >
  <font-face 
    font-family="2555 edcrub huajuckTH"
    font-weight="400"
    font-stretch="normal"
    units-per-em="2048"
    panose-1="2 0 0 0 0 0 0 0 0 0"
    ascent="1638"
    descent="-410"
    bbox="-900 -753.999 1657 1700"
    underline-thickness="72"
    underline-position="-149"
    unicode-range="U+0020-U+25CC"
  />
<missing-glyph horiz-adv-x="1536" 
d="M694 613l-21.501 -2.00195c-7 -0.666992 -13.833 -1 -20.5 -1s-12.667 1 -18 3s-9.66602 5.66699 -12.999 11c4 2.66699 10.167 5.33398 18.5 8.00098s16.5 4.16699 24.5 4.5s15 -1.16699 21 -4.5s9 -9.66602 9 -18.999zM755.999 611.998
c0 -1.33301 -0.166992 -2.16699 -0.5 -2.5s-0.5 -0.833008 -0.5 -1.5c0 -1.33301 1 -2 3 -2c-1.33301 -3.33301 -3.33301 -4 -6 -2s-4.66699 3.66699 -6 5c1.33301 1.33301 2.83301 2 4.5 2s3.5 0.333008 5.5 1zM772.999 598.997c0.666992 -2 0.5 -3.33008 -0.5 -3.99707
s-1.16699 -1.66699 -0.5 -3c4.66699 -6 11.167 -13 19.5 -21s13.833 -16.333 16.5 -25c1.33301 -3.33301 3.83301 -6.33301 7.5 -9s6.16699 -5.66699 7.5 -9c0.666992 -1.33301 0.833984 -3 0.500977 -5s-0.166016 -3.66699 0.500977 -5
c1.33301 -3.33301 3.16602 -7.5 5.49902 -12.5s4.16602 -10.333 5.49902 -16s1.83301 -11 1.5 -16s-2.5 -9.16699 -6.5 -12.5c-3.33301 1.33301 -5.5 3.66602 -6.5 6.99902s-2.16699 6.66602 -3.5 9.99902c-4 -2 -7.66699 -5.5 -11 -10.5s-5.33301 -10.167 -6 -15.5
c0 -1.33301 0.333008 -2.33301 1 -3s0.666992 -1.33398 0 -2.00098c-0.666992 -2 -1.66699 -3.83301 -3 -5.5s-2.66602 -3.5 -3.99902 -5.5c-0.666992 -2 -0.833984 -4.33301 -0.500977 -7s0.166016 -4.66699 -0.500977 -6c-2.66699 -6 -6.33398 -12 -11.001 -18
s-9.66699 -10.667 -15 -14c-0.666992 8 -0.166992 15 1.5 21s2.5 12.667 2.5 20c0.666992 1.33301 0.166992 2 -1.5 2s-2.5 0.666992 -2.5 2c-10.667 -5.33301 -20.5 -11.166 -29.5 -17.499s-19.833 -10.833 -32.5 -13.5c0 5.33301 1.16699 11 3.5 17s4.5 11.833 6.5 17.5

<glyph glyph-name="quotedblleft" unicode="&#x91;&#x91;" horiz-adv-x="541" 
d="M385 1269c16 -3.33301 29.333 -11.333 40 -24s16 -27.667 16 -45c0 -19.333 -6.83301 -36 -20.5 -50s-30.167 -21 -49.5 -21s-36 7 -50 21s-21 30.667 -21 50s7 36 21 50v146c0 9.33301 3 17 9 23s13.667 9 23 9s17 -3 23 -9s9 -13.667 9 -23v-127zM186 1269
c16 -3.33301 29.333 -11.333 40 -24s16 -27.667 16 -45c0 -19.333 -6.83301 -36 -20.5 -50s-30.167 -21 -49.5 -21s-36 7 -50 21s-21 30.667 -21 50s7 36 21 50v146c0 9.33301 3 17 9 23s13.667 9 23 9s17 -3 23 -9s9 -13.667 9 -23v-127z" />
    <glyph glyph-name="quotedblright" unicode="&#x92;&#x92;" horiz-adv-x="540" 
d="M106 1288c-16 3.33301 -29.333 11.333 -40 24s-16 27.667 -16 45c0 19.333 6.83301 36 20.5 50s30.167 21 49.5 21s36 -7 50 -21s21 -30.667 21 -50s-7 -36 -21 -50v-146c0 -9.33301 -3 -17 -9 -23s-13.667 -9 -23 -9s-17 3 -23 9s-9 13.667 -9 23v127zM305 1288
c-16 3.33301 -29.333 11.333 -40 24s-16 27.667 -16 45c0 19.333 6.83301 36 20.5 50s30.167 21 49.5 21s36 -7 50 -21s21 -30.667 21 -50s-7 -36 -21 -50v-146c0 -9.33301 -3 -17 -9 -23s-13.667 -9 -23 -9s-17 3 -23 9s-9 13.667 -9 23v127z" />
    <glyph glyph-name="copyright2" unicode="&#x3b;&#x3b;For&#x20;Education&#x20;Used&#x20;Only&#x3b;&#x3b;" horiz-adv-x="1296" 
 />
    <glyph glyph-name="registered2" unicode="&#x3b;&#x3b;Registered&#x3b;&#x3b;" horiz-adv-x="1296" 
 />
    <glyph glyph-name="trademark2" unicode="&#x3b;&#x3b;Trademark&#x3b;&#x3b;" horiz-adv-x="1938" 
 />
    <glyph glyph-name="multiply2" unicode="&#x3b;&#x3b;Multiply&#x3b;&#x3b;" horiz-adv-x="744" 
d="M524 875c6.66699 6.66699 14.334 10 23.001 10c7.33301 0 15 -3.33301 23 -10c6 -7.33301 9 -15 9 -23c0 -8.66699 -3 -16 -9 -22l-179 -179l194 -193c6 -5.33301 9 -12 9 -20s-3.33301 -16 -10 -24c-6.66699 -6.66699 -14.334 -10 -23.001 -10s-16 3.33301 -22 10
l-193 192l-192 -192c-5.33301 -5.33301 -12.333 -8 -21 -8s-16.334 3 -23.001 9s-10 13.667 -10 23c0 8.66699 3.33301 16 10 22l191 191l-177 177c-6.66699 6 -10 13.667 -10 23c0 8.66699 3.33301 16 10 22c6.66699 6.66699 14.334 10 23.001 10
c8 0 15.333 -3.33301 22 -10l177 -176z" />
    <glyph glyph-name="divide2" unicode="&#x3b;&#x3b;Divide&#x3b;&#x3b;" horiz-adv-x="900" 
d="M718 683c9.33301 0 17 -3 23 -9s9 -13.667 9 -23s-3 -17 -9 -23s-13.667 -9 -23 -9h-588c-8 0 -15 3 -21 9s-9 13.667 -9 23s3 17 9 23s13.667 9 23 9h586zM354 821c0 19.333 6.83301 36 20.5 50s30.167 21 49.5 21s36 -7 50 -21s21 -30.667 21 -50s-7 -35.833 -21 -49.5
s-30.667 -20.5 -50 -20.5s-35.833 6.83301 -49.5 20.5s-20.5 30.167 -20.5 49.5zM353 479c0 19.333 6.83301 36 20.5 50s30.167 21 49.5 21s36 -7 50 -21s21 -30.667 21 -50s-7 -35.833 -21 -49.5s-30.667 -20.5 -50 -20.5s-35.833 6.83301 -49.5 20.5
s-20.5 30.167 -20.5 49.5z" />
    <glyph glyph-name="rulakkhangyao" unicode="&#xc4;&#xd2;" horiz-adv-x="1552" 
d="M350 750c9.33301 0 17 -3 23 -9s9 -13.667 9 -23s-3 -17 -9 -23s-13.667 -9 -23 -9c-26 0 -50.167 -4.83301 -72.5 -14.5s-42 -23 -59 -40s-30.333 -36.667 -40 -59s-14.5 -46.5 -14.5 -72.5v-359h6c19.333 0 36 -7 50 -21s21 -30.667 21 -50s-7 -35.833 -21 -49.5
s-30.667 -20.5 -50 -20.5s-35.833 7 -49.5 21s-20.5 31 -20.5 51v428c0 34.667 6.5 67.167 19.5 97.5s30.833 56.833 53.5 79.5s49.167 40.5 79.5 53.5s62.833 19.5 97.5 19.5zM1136 1100c41.333 0 78.501 -7.83496 111.501 -23.502s61 -37.167 84 -64.5
s40.5 -59.166 52.5 -95.499s18 -75.5 18 -117.5v-1168c0 -9.33301 -3 -17 -9 -23s-13.667 -9 -23 -9s-17 3 -23 9s-9 13.667 -9 23v1168c0 32.667 -4.5 63.334 -13.5 92.001s-22 53.834 -39 75.501s-38.167 38.667 -63.5 51s-54.333 18.5 -87 18.5
c-32 0 -62.333 -6.16699 -91 -18.5s-53.667 -29.833 -75 -52.5s-38.166 -50.167 -50.499 -82.5s-18.5 -68.5 -18.5 -108.5v-1142c0 -9.33301 -3 -17 -9 -23s-13.667 -9 -23 -9s-17 3 -23 9s-9 13.667 -9 23v1118c0 46 -8.83301 86.833 -26.5 122.5s-41.667 65.667 -72 90
s-66 42.666 -107 54.999s-84.5 18.5 -130.5 18.5s-89.5 -6.16699 -130.5 -18.5s-76.667 -30.666 -107 -54.999s-54.333 -54.333 -72 -90s-26.5 -76.5 -26.5 -122.5c0 -9.33301 -3 -17 -9 -23s-13.667 -9 -23 -9s-17 3 -23 9s-9 13.667 -9 23
c0 55.333 10.5 104.666 31.5 147.999s49.5 80 85.5 110s78.333 52.833 127 68.5s100.667 23.5 156 23.5c39.333 0 77.166 -4 113.499 -12s70 -19.833 101 -35.5s58.833 -35 83.5 -58s45 -49.167 61 -78.5c11.333 27.333 26.333 52.333 45 75s40 42 64 58
s50.167 28.5 78.5 37.5s58.166 13.5 89.499 13.5z" />
    <glyph glyph-name="lulakkhangyao" unicode="&#xc6;&#xd2;" horiz-adv-x="1552" 
d="M1136 1100c41.333 0 78.501 -7.83496 111.501 -23.502s61 -37.167 84 -64.5s40.5 -59.166 52.5 -95.499s18 -75.5 18 -117.5v-1168c0 -9.33301 -3 -17 -9 -23s-13.667 -9 -23 -9s-17 3 -23 9s-9 13.667 -9 23v1168c0 32.667 -4.5 63.334 -13.5 92.001
s-22 53.834 -39 75.501s-38.167 38.667 -63.5 51s-54.333 18.5 -87 18.5c-32 0 -62.333 -6.16699 -91 -18.5s-53.667 -29.833 -75 -52.5s-38.166 -50.167 -50.499 -82.5s-18.5 -68.5 -18.5 -108.5v-1142c0 -9.33301 -3 -17 -9 -23s-13.667 -9 -23 -9s-17 3 -23 9
s-9 13.667 -9 23v1118c0 46 -8.83301 86.833 -26.5 122.5s-41.667 65.667 -72 90s-66 42.666 -107 54.999s-84.5 18.5 -130.5 18.5s-89.5 -6.16699 -130.5 -18.5s-76.667 -30.666 -107 -54.999s-54.333 -54.333 -72 -90s-26.5 -76.5 -26.5 -122.5c0 -9.33301 -3 -17 -9 -23
s-13.667 -9 -23 -9s-17 3 -23 9s-9 13.667 -9 23c0 55.333 10.5 104.666 31.5 147.999s49.5 80 85.5 110s78.333 52.833 127 68.5s100.667 23.5 156 23.5c39.333 0 77.166 -4 113.499 -12s70 -19.833 101 -35.5s58.833 -35 83.5 -58s45 -49.167 61 -78.5
c11.333 27.333 26.333 52.333 45 75s40 42 64 58s50.167 28.5 78.5 37.5s58.166 13.5 89.499 13.5zM350.001 749.998c9.33301 0 17 -3 23 -9s9 -13.667 9 -23s-3 -17 -9 -23s-13.667 -9 -23 -9c-26 0 -50.167 -4.83301 -72.5 -14.5s-42 -23 -59 -40s-30.333 -36.667 -40 -59
s-14.5 -46.5 -14.5 -72.5v-430c0 -19.333 -7 -35.833 -21 -49.5s-30.667 -20.5 -50 -20.5s-35.833 6.83301 -49.5 20.5s-20.5 30.167 -20.5 49.5s6.83301 36 20.5 50s30.167 21 49.5 21h7v359c0 34.667 6.5 67.167 19.5 97.5s30.833 56.833 53.5 79.5s49.167 40.5 79.5 53.5
s62.833 19.5 97.5 19.5z" />
    <glyph glyph-name=".notdef" horiz-adv-x="1536" 
d="M694 613l-21.501 -2.00195c-7 -0.666992 -13.833 -1 -20.5 -1s-12.667 1 -18 3s-9.66602 5.66699 -12.999 11c4 2.66699 10.167 5.33398 18.5 8.00098s16.5 4.16699 24.5 4.5s15 -1.16699 21 -4.5s9 -9.66602 9 -18.999zM755.999 611.998
c0 -1.33301 -0.166992 -2.16699 -0.5 -2.5s-0.5 -0.833008 -0.5 -1.5c0 -1.33301 1 -2 3 -2c-1.33301 -3.33301 -3.33301 -4 -6 -2s-4.66699 3.66699 -6 5c1.33301 1.33301 2.83301 2 4.5 2s3.5 0.333008 5.5 1zM772.999 598.997c0.666992 -2 0.5 -3.33008 -0.5 -3.99707
s-1.16699 -1.66699 -0.5 -3c4.66699 -6 11.167 -13 19.5 -21s13.833 -16.333 16.5 -25c1.33301 -3.33301 3.83301 -6.33301 7.5 -9s6.16699 -5.66699 7.5 -9c0.666992 -1.33301 0.833984 -3 0.500977 -5s-0.166016 -3.66699 0.500977 -5
c1.33301 -3.33301 3.16602 -7.5 5.49902 -12.5s4.16602 -10.333 5.49902 -16s1.83301 -11 1.5 -16s-2.5 -9.16699 -6.5 -12.5c-3.33301 1.33301 -5.5 3.66602 -6.5 6.99902s-2.16699 6.66602 -3.5 9.99902c-4 -2 -7.66699 -5.5 -11 -10.5s-5.33301 -10.167 -6 -15.5
c0 -1.33301 0.333008 -2.33301 1 -3s0.666992 -1.33398 0 -2.00098c-0.666992 -2 -1.66699 -3.83301 -3 -5.5s-2.66602 -3.5 -3.99902 -5.5c-0.666992 -2 -0.833984 -4.33301 -0.500977 -7s0.166016 -4.66699 -0.500977 -6c-2.66699 -6 -6.33398 -12 -11.001 -18
s-9.66699 -10.667 -15 -14c-0.666992 8 -0.166992 15 1.5 21s2.5 12.667 2.5 20c0.666992 1.33301 0.166992 2 -1.5 2s-2.5 0.666992 -2.5 2c-10.667 -5.33301 -20.5 -11.166 -29.5 -17.499s-19.833 -10.833 -32.5 -13.5c0 5.33301 1.16699 11 3.5 17s4.5 11.833 6.5 17.5
s2.83301 11 2.5 16s-3.16602 9.16699 -8.49902 12.5c12 3.33301 23.333 2.5 34 -2.5s20 -9.83301 28 -14.5c18 10.667 29 26.334 33 47.001c0.666992 4 -0.666016 6 -3.99902 6c0.666992 1.33301 1.16699 2.66602 1.5 3.99902s1.16602 2.66602 2.49902 3.99902
c-9.33301 14 -18.166 28.333 -26.499 43l-25.5 44c2.66699 1.33301 5.5 2 8.5 2s6.16699 -0.666992 9.5 -2zM907.999 196v-42.998h-149c0 2 1.5 4.66699 4.5 8s1.83301 5.66602 -3.5 6.99902c3.33301 2 6 5 8 9s3.66699 8.33301 5 13s2.83301 9 4.5 13
s4.16699 7.66699 7.5 11c20.667 -2.66699 41 -5.83398 61 -9.50098s40.667 -6.5 62 -8.5zM720.999 153.002l-10 0.00195312c7.33301 8.66699 15.333 16 24 22s15.667 14.333 21 25c2 -2 3.33301 -2.5 4 -1.5s1.16699 2.16699 1.5 3.5s1 2.66602 2 3.99902
s2.83301 1.33301 5.5 0c-5.33301 -11.333 -12.5 -20.833 -21.5 -28.5s-17.833 -15.834 -26.5 -24.501zM325.999 976.004l138.996 0.00195312c-3.33301 -0.666992 -6.16602 -1.5 -8.49902 -2.5s-2.83301 -3.16699 -1.5 -6.5c6 -1.33301 14 -3.33301 24 -6
s19 -4.33398 27 -5.00098c3.33301 0 5.5 -0.833008 6.5 -2.5s2.83301 -3.16699 5.5 -4.5c12.667 0.666992 22.667 -2.16602 30 -8.49902s14.166 -13.333 20.499 -21s13 -15 20 -22s16.5 -10.5 28.5 -10.5c16.667 13.333 34.334 24.666 53.001 33.999s43 14.666 73 15.999
c7.33301 0 16.333 -0.666992 27 -2s18.667 -0.666016 24 2.00098c8 -1.33301 14.667 -2.33301 20 -3s11 -0.333984 17 0.999023c-5.33301 8 -11 15.167 -17 21.5l-18 19.5h112v-255c-3.33301 7.33301 -5.83301 15.666 -7.5 24.999s-3.16699 18.833 -4.5 28.5s-3 19 -5 28
s-5 17.167 -9 24.5c1.33301 4.66699 1.16602 9 -0.500977 13s-4.16699 7.16699 -7.5 9.5s-7 3.33301 -11 3s-8 -2.16602 -12 -5.49902c-0.666992 2.66699 -2.33398 4.5 -5.00098 5.5s-5.5 1.66699 -8.5 2s-5.66699 1.16602 -8 2.49902s-3.5 3.66602 -3.5 6.99902
c-4.66699 2.66699 -9.33398 3.66699 -14.001 3s-9.33398 -1.5 -14.001 -2.5s-8.83398 -1.83301 -12.501 -2.5s-6.83398 0 -9.50098 2c-2 -2 -3.16699 -4.83301 -3.5 -8.5s-2.83301 -5.5 -7.5 -5.5c0 -4.66699 -0.166992 -9.66699 -0.5 -15s-0.833008 -8.66602 -1.5 -9.99902
c0.666992 -3.33301 4 -5 10 -5c-3.33301 -2 -4 -4.16699 -2 -6.5s2.66699 -5.16602 2 -8.49902c1.33301 0 2.16602 0.333008 2.49902 1s1.16602 0.666992 2.49902 0c1.33301 -6 4.16602 -10.5 8.49902 -13.5s9 -5.5 14 -7.5s9.83301 -4.16699 14.5 -6.5
s8.66699 -5.5 12 -9.5c9.33301 0 17.333 -1.66699 24 -5c4.66699 -10.667 11.334 -17.334 20.001 -20.001c0.666992 -2.66699 0.166992 -4 -1.5 -4s-2.16699 -1 -1.5 -3c-14.667 1.33301 -27.334 4.66602 -38.001 9.99902s-23.334 8 -38.001 8
c-4.66699 -1.33301 -8.33398 -2.5 -11.001 -3.5s-6.33398 -0.833008 -11.001 0.5c0.666992 -8.66699 3.66699 -14.834 9 -18.501s11.5 -6.16699 18.5 -7.5s14.167 -2.5 21.5 -3.5s13.333 -3.16699 18 -6.5c-22.667 2 -46.5 6.33301 -71.5 13s-46.167 16 -63.5 28
c-0.666992 1.33301 -1 3.16602 -1 5.49902s-0.666992 4.16602 -2 5.49902s-2.83301 2.33301 -4.5 3s-3.16699 2 -4.5 4c-0.666992 2.66699 -0.166992 4.33398 1.5 5.00098s2.83398 1.66699 3.50098 3c-2 4 -4.5 4.83301 -7.5 2.5s-5.83301 -3.5 -8.5 -3.5
c4.66699 6.66699 7.66699 15 9 25s6 16.667 14 20c1.33301 7.33301 5.33301 13.833 12 19.5s12.334 11.167 17.001 16.5c-1.33301 3.33301 -3.33301 6.33301 -6 9s-6 3 -10 1c2 1.33301 2.33301 2.83301 1 4.5s-2.66602 1.5 -3.99902 -0.5
c-0.666992 1.33301 -0.666992 2.83301 0 4.5s0.333984 3.5 -0.999023 5.5c-3.33301 0 -5.66602 -2 -6.99902 -6c-2 0 -2.16699 0.666992 -0.5 2s1.83398 2.66602 0.500977 3.99902c-3.33301 -1.33301 -6 -1.83301 -8 -1.5s-4.66699 0.833008 -8 1.5
c-1.33301 1.33301 -1.5 2.66602 -0.5 3.99902s0.5 2.66602 -1.5 3.99902c-14.667 -5.33301 -25 -13.333 -31 -24s-7.33301 -25.667 -4 -45c1.33301 -8.66699 3.5 -18.334 6.5 -29.001s6.5 -21.334 10.5 -32.001s8.33301 -20.667 13 -30s9 -16.333 13 -21
c5.33301 -6.66699 13.333 -12.5 24 -17.5s21.667 -9.16699 33 -12.5c25.333 -7.33301 50.666 -11.666 75.999 -12.999s52.333 0.333984 81 5.00098v-9c-0.666992 -3.33301 -2.33398 -5.33301 -5.00098 -6s-4 -2.66699 -4 -6c-19.333 -4 -39.833 -4.83301 -61.5 -2.5
s-41.834 5.16602 -60.501 8.49902c-1.33301 -3.33301 -0.5 -4.66602 2.5 -3.99902s5.16699 0 6.5 -2c-6.66699 -0.666992 -15.334 -0.5 -26.001 0.5s-19.667 3.83301 -27 8.5c1.33301 3.33301 3.5 4 6.5 2s5.16699 -1.66699 6.5 1c-10 4.66699 -19.5 9.66699 -28.5 15
l-26.5 16c-16 17.333 -28.167 38 -36.5 62s-17.166 47.333 -26.499 70c-6 -2 -10.667 -1.5 -14 1.5s-7.33301 3.83301 -12 2.5c-4.66699 0 -8.83398 -2.5 -12.501 -7.5s-6.66699 -10.667 -9 -17s-4 -12.833 -5 -19.5s-0.833008 -11.667 0.5 -15
c0.666992 -4 0.333984 -7.5 -0.999023 -10.5s-2.83301 -5.83301 -4.5 -8.5s-3 -5.16699 -4 -7.5s-0.833008 -4.83301 0.5 -7.5c-2 1.33301 -3.66699 1.33301 -5 0c0 -2 0.333008 -3.83301 1 -5.5s0.666992 -3.5 0 -5.5c-3.33301 0 -5.16602 -1.66699 -5.49902 -5
s-2.16602 -4 -5.49902 -2c-1.33301 -9.33301 -6.16602 -16.833 -14.499 -22.5l-23.5 -16.5c0 -2.66699 1.66699 -3.66699 5 -3s5.66602 1.66699 6.99902 3c2.66699 0 4.33398 -0.833008 5.00098 -2.5s1.66699 -3.16699 3 -4.5c1.33301 0 2 1.33301 2 4
c2.66699 0.666992 5 -0.166016 7 -2.49902s4 -2.5 6 -0.5c1.33301 0 1.83301 -0.833008 1.5 -2.5s-0.5 -3.16699 -0.5 -4.5c3.33301 2 5.5 2.16699 6.5 0.5s2.83301 -2.5 5.5 -2.5c-0.666992 -1.33301 -1.33398 -2.16602 -2.00098 -2.49902s-1 -1.16602 -1 -2.49902
s0.5 -1.83301 1.5 -1.5s2.16699 0.166016 3.5 -0.500977c2 -9.33301 5.33301 -18.833 10 -28.5s9.66699 -18.167 15 -25.5c-3.33301 -4.66699 -6.33301 -9.33398 -9 -14.001s-7 -7.66699 -13 -9c0.666992 -5.33301 -0.5 -8.66602 -3.5 -9.99902s-5.5 -3.33301 -7.5 -6
c1.33301 -4 1 -7 -1 -9s-4.5 -3.83301 -7.5 -5.5l-9.5 -5.5c-3.33301 -2 -5.33301 -5 -6 -9c4.66699 -1.33301 7.83398 -3.83301 9.50098 -7.5s5.16699 -7.16699 10.5 -10.5c2.66699 -0.666992 4.33398 -0.333984 5.00098 0.999023s2.33398 2 5.00098 2
c2 -4 5.33301 -7 10 -9c-2 -4 -1.83301 -7.33301 0.5 -10s1.83301 -5.66699 -1.5 -9c0.666992 -5.33301 3 -9.33301 7 -12s9.33301 -5.33398 16 -8.00098c-3.33301 -4.66699 -7 -7.16699 -11 -7.5s-8.16699 0 -12.5 1s-8.66602 2.16699 -12.999 3.5
s-8.5 1.66602 -12.5 0.999023c-4.66699 -1.33301 -7.16699 -3.33301 -7.5 -6s-1.83301 -5.66699 -4.5 -9c-2 -3.33301 -4.83301 -5.5 -8.5 -6.5s-5.5 -3.83301 -5.5 -8.5c-3.33301 2.66699 -6.66602 5.16699 -9.99902 7.5s-6.66602 4.83301 -9.99902 7.5
c-8.66699 -0.666992 -14 -5 -16 -13c-2 3.33301 -4.5 6.5 -7.5 9.5s-6.16699 4.83301 -9.5 5.5s-6.33301 0 -9 -2s-4 -6.33301 -4 -13c-3.33301 -1.33301 -5.5 -1.33301 -6.5 0s-1.83301 2.66602 -2.5 3.99902c1.33301 -6 4 -12.667 8 -20s7 -14.666 9 -21.999
c5.33301 -1.33301 8.83301 -0.833008 10.5 1.5s4.5 3.16602 8.5 2.49902c1.33301 -5.33301 3.83301 -9.33301 7.5 -12s6.16699 -6.33398 7.5 -11.001c3.33301 1.33301 6.16602 3.33301 8.49902 6s6.16602 4 11.499 4l4 -10c1.33301 -3.33301 2 -6.66602 2 -9.99902
c-1.33301 -1.33301 -2.83301 -1.83301 -4.5 -1.5s-3.16699 0.166016 -4.5 -0.500977c0.666992 1.33301 1.5 2.66602 2.5 3.99902s0.833008 2.66602 -0.5 3.99902c-2 -2 -4.5 -2.83301 -7.5 -2.5s-6 0.5 -9 0.5s-5.66699 -0.166992 -8 -0.5s-3.83301 -1.83301 -4.5 -4.5
c2 -6 5.5 -10.5 10.5 -13.5s8.83301 -7.16699 11.5 -12.5c5.33301 0.666992 9.83301 0.833984 13.5 0.500977s6.16699 -2.83301 7.5 -7.5c5.33301 -0.666992 10.333 -2 15 -4s9.33398 -3.66699 14.001 -5c-1.33301 -3.33301 -2.16602 -5.5 -2.49902 -6.5
s-1.16602 -2.83301 -2.49902 -5.5c-7.33301 2 -15.333 3 -24 3c0 -3.33301 -0.833008 -4.5 -2.5 -3.5s-3.16699 -0.166992 -4.5 -3.5c1.33301 -1.33301 2.66602 -2.16602 3.99902 -2.49902s2.33301 -1.5 3 -3.5c-2 -2 -3.66699 -6.33301 -5 -13
c3.33301 -2.66699 6 -4.66699 8 -6s5.33301 -1.66602 10 -0.999023c-2.66699 -1.33301 -4 -2.66602 -4 -3.99902c1.33301 -2 2.66602 -2.33301 3.99902 -1s3 1.66602 5 0.999023c0 2.66699 -0.333008 4 -1 4c0.666992 0.666992 2.66699 0.666992 6 0s6.33301 -0.666992 9 0
c-0.666992 -0.666992 -1 -2.33398 -1 -5.00098c2.66699 1.33301 5.66699 1.66602 9 0.999023s5 -2.66699 5 -6c2.66699 -0.666992 4 0.333008 4 3s1.66699 3.33398 5 2.00098c0 -2.66699 -0.833008 -4.16699 -2.5 -4.5s-1.83398 -1.83301 -0.500977 -4.5
c3.33301 0 6.33301 1.33301 9 4s5.66699 3.33398 9 2.00098c0 -0.666992 -1.16699 -1 -3.5 -1s-2.16602 -1 0.500977 -3c-3.33301 -1.33301 -7.5 -2.5 -12.5 -3.5s-7.83301 -3.5 -8.5 -7.5c-2 2.66699 -3.5 3.66699 -4.5 3s-2.83301 -1.66699 -5.5 -3
c-1.33301 1.33301 -1.66602 2.83301 -0.999023 4.5s-0.333008 2.16699 -3 1.5c-1.33301 0 -1.83301 -1 -1.5 -3s1.16602 -2.33301 2.49902 -1c-1.33301 -1.33301 -3.33301 -1.66602 -6 -0.999023s-4.66699 1 -6 1v-11
c-3.33301 -1.33301 -5.66602 -1.16602 -6.99902 0.500977s-3.66602 0.833984 -6.99902 -2.49902c0 4 -1.16699 5.33301 -3.5 4s-4.83301 -0.666016 -7.5 2.00098c-1.33301 -2.66699 -2.83301 -5 -4.5 -7s-3.16699 -4.33301 -4.5 -7c-3.33301 0 -5.5 1 -6.5 3
s-3.16699 2 -6.5 0c0 -5.33301 2 -7.33301 6 -6c0 -1.33301 -1 -1.83301 -3 -1.5s-3 0.833008 -3 1.5v-9c0 -2.66699 1.66699 -3.66699 5 -3c-1.33301 -3.33301 -1.16602 -5.83301 0.500977 -7.5s1.16699 -4.16699 -1.5 -7.5c2 -2 3.83301 -4.16699 5.5 -6.5
s4.16699 -4.16602 7.5 -5.49902c2.66699 -1.33301 3.5 -0.666016 2.5 2.00098s-0.5 4 1.5 4c4 -1.33301 7.16699 -3.33301 9.5 -6s5.83301 -4.33398 10.5 -5.00098c-0.666992 -2.66699 -0.5 -4.66699 0.5 -6s1.5 -3 1.5 -5c4.66699 -1.33301 8 -0.666016 10 2.00098
s4.66699 4.66699 8 6c0.666992 -3.33301 -0.166016 -4.83301 -2.49902 -4.5s-3.5 -0.5 -3.5 -2.5c0.666992 -1.33301 1.33398 -2 2.00098 -2s1 -0.666992 1 -2c2.66699 -1.33301 3.83398 -0.833008 3.50098 1.5s0.833984 3.16602 3.50098 2.49902
c0 -4.66699 0.666992 -7 2 -7c2.66699 4.66699 4.5 7.5 5.5 8.5s2.16699 3.83301 3.5 8.5c2 -0.666992 3.66699 -2.66699 5 -6s3 -2.66602 5 2.00098c2 -1.33301 2 -2.66602 0 -3.99902s-2.33301 -3 -1 -5c2.66699 -1.33301 4 -1 4 1s1 2.66699 3 2
c-1.33301 -3.33301 -3 -5.83301 -5 -7.5s-3.33301 -4.16699 -4 -7.5c2.66699 -2 4.5 -2 5.5 0s2.16699 3.66699 3.5 5c0 -1.33301 0.333008 -4 1 -8s-1 -6.66699 -5 -8c0.666992 -2 1.83398 -2.83301 3.50098 -2.5s3.16699 1.33301 4.5 3s2.16602 3.33398 2.49902 5.00098
s-0.5 2.83398 -2.5 3.50098c1.33301 1.33301 3.16602 2 5.49902 2s2.83301 1.66699 1.5 5c2.66699 0 3.5 -1.5 2.5 -4.5l-2.5 -7.5c1.33301 -3.33301 3.5 -5.66602 6.5 -6.99902s5.16699 -3.33301 6.5 -6c5.33301 1.33301 10.666 1.16602 15.999 -0.500977
s9.33301 -4.16699 12 -7.5h-552v10c4.66699 -0.666992 7.66699 1 9 5c16.667 2.66699 33 7.83398 49 15.501s33.333 13.167 52 16.5c24 4 47.333 9 70 15s42.667 15.667 60 29c2 6.66699 1.5 13.5 -1.5 20.5s-7 14.167 -12 21.5s-10.5 14.5 -16.5 21.5
s-10.667 14.167 -14 21.5c-1.33301 2 -1.83301 4 -1.5 6s-0.166992 4 -1.5 6c-6.66699 14.667 -12.334 28.834 -17.001 42.501s-8.33398 30.5 -11.001 50.5c-1.33301 3.33301 -4 5.16602 -8 5.49902s-6.66699 1.83301 -8 4.5c0 6.66699 -2 12.5 -6 17.5
s-6.66699 10.833 -8 17.5c-1.33301 10.667 -0.5 20.167 2.5 28.5s6.5 16.166 10.5 23.499c-0.666992 4 -0.666992 9.33301 0 16s2.66699 11.667 6 15c0 2.66699 -0.5 4.5 -1.5 5.5s-1.16699 2.83301 -0.5 5.5c4.66699 4 8.5 8 11.5 12s4.5 9 4.5 15
c2 0.666992 3.16699 0.5 3.5 -0.5s1.5 -1.16699 3.5 -0.5c2.66699 2 2.83398 3.5 0.500977 4.5s-2.5 2.5 -0.5 4.5c4.66699 1.33301 8.33398 -1.33398 11.001 -8.00098c6 0 11.667 2.66699 17 8c2 -2 3 -5 3 -9c3.33301 1.33301 6.16602 1.5 8.49902 0.5
s4.5 -2.16699 6.5 -3.5s4 -2.5 6 -3.5s4 -0.5 6 1.5c1.33301 0 1.5 -0.833008 0.5 -2.5s-0.833008 -3.5 0.5 -5.5c-1.33301 0 -2.83301 0.166992 -4.5 0.5s-3.16699 -0.166992 -4.5 -1.5c2 -3.33301 4.33301 -5.16602 7 -5.49902s5.33398 -0.333008 8.00098 0l8 1
c2.66699 0.333008 5.66699 -0.166992 9 -1.5c0 1.33301 -0.166992 2.33301 -0.5 3s-0.5 1.66699 -0.5 3c4.66699 -1.33301 6.83398 -0.666016 6.50098 2.00098s1.16699 4.33398 4.5 5.00098c3.33301 0 4.16602 -0.666992 2.49902 -2s-1.5 -2.66602 0.5 -3.99902
c9.33301 6.66699 18.333 13.667 27 21s14 16.666 16 27.999c0 1.33301 1.16699 1.83301 3.5 1.5s3.5 0.5 3.5 2.5c0.666992 2.66699 0 3.66699 -2 3s-3.66699 -0.666992 -5 0c2 3.33301 4.33301 6.5 7 9.5s6 5.16699 10 6.5c-2.66699 3.33301 -3.16699 5.33301 -1.5 6
s3.16699 2.66699 4.5 6c-2 2 -4.5 3.5 -7.5 4.5s-5.83301 1.83301 -8.5 2.5s-5 1.5 -7 2.5s-3 2.83301 -3 5.5c-10.667 1.33301 -20.667 2.5 -30 3.5s-20.666 1.83301 -33.999 2.5c-0.666992 0 -1 -1.33301 -1 -4c-14.667 0 -27.667 -1.33301 -39 -4v5
c-6 1.33301 -10.167 0.666016 -12.5 -2.00098s-5.83301 -2.33398 -10.5 0.999023c-1.33301 0 -2 -1 -2 -3s0.666992 -3 2 -3c0 -2.66699 -0.666992 -2.5 -2 0.5s-2.33301 2.83301 -3 -0.5c-1.33301 2 -1.83301 4.83301 -1.5 8.5s1.16602 7.16699 2.49902 10.5
c3.33301 0.666992 5.83301 0.833984 7.5 0.500977s3.16699 1.16699 4.5 4.5c3.33301 1.33301 7.5 1.16602 12.5 -0.500977s10.833 -1.83398 17.5 -0.500977c-7.33301 4 -14.833 7.16699 -22.5 9.5s-15.167 5.16602 -22.5 8.49902c-1.33301 -6 -4 -15 -8 -27l-11 -33
c-4.66699 9.33301 -8.16699 20.333 -10.5 33s-3.83301 23.334 -4.5 32.001c0.666992 1.33301 0 2 -2 2s-3 0.666992 -3 2c-2.66699 8.66699 -3 18.5 -1 29.5s1.33301 20.167 -2 27.5c6 10 11 19.333 15 28s6 19.667 6 33c0 5.33301 -0.666992 10 -2 14s-2 8 -2 12
c0 14.667 2.83301 27.5 8.5 38.5s13.167 20.5 22.5 28.5c5.33301 4.66699 11.333 7.16699 18 7.5s13.667 2.5 21 6.5c3.33301 2.66699 5.83301 5.83398 7.5 9.50098s4.16699 7.16699 7.5 10.5zM511.995 685.006c-8 1.33301 -16.833 0.99707 -26.5 -1.00293
s-15.167 -8.66699 -16.5 -20c6 0 9.33301 -1 10 -3c2.66699 3.33301 6.16699 5.5 10.5 6.5s8.5 0.833008 12.5 -0.5c1.33301 2.66699 2.5 5.33398 3.5 8.00098s4.16699 3.33398 9.5 2.00098c0.666992 3.33301 0 4.83301 -2 4.5s-2.33301 0.833984 -1 3.50098z
M552.995 195.003c-1.33301 -2.66699 -1.5 -5.16699 -0.5 -7.5s3.16699 -2.83301 6.5 -1.5c0 4.66699 -2 7.66699 -6 9zM562.995 190.003l-0.000976562 -4h4v3c-0.666992 0 -1.16699 0.166992 -1.5 0.5s-1.16602 0.5 -2.49902 0.5zM357.994 588.003v-5
c2.66699 -1.33301 4 -0.5 4 2.5s-1.33301 3.83301 -4 2.5zM443.994 968.003c2 -1.33301 3 -0.667969 3 1.99902s-1 3.33398 -3 2.00098v-4zM380.994 941.001c-2.66699 -0.666992 -5.5 -0.667969 -8.5 -0.000976562s-5.16699 0.333984 -6.5 -0.999023
c2.66699 0 5.5 -0.166992 8.5 -0.5s5.16699 0.166992 6.5 1.5zM307.994 929h3v4h-3v-4zM278.994 921c-0.666992 -1.33301 -1.49902 -2.50098 -2.49902 -3.50098s-1.5 -2.5 -1.5 -4.5c0.666992 -4 0.5 -8.16699 -0.5 -12.5s-2.5 -9 -4.5 -14s-3.66699 -10 -5 -15
s-1.33301 -9.83301 0 -14.5c2.66699 12 7 24 13 36s14.333 21.333 25 28c-4 0.666992 -6.5 -0.166016 -7.5 -2.49902s-3.16699 -3.5 -6.5 -3.5c-0.666992 2.66699 0.666016 4.66699 3.99902 6s3 2.66602 -1 3.99902c-2 -1.33301 -3.83301 -2.66602 -5.5 -3.99902
s-4.16699 -1.33301 -7.5 0zM677.995 906.999c-12.667 -6.66699 -21.667 -17 -27 -31c5.33301 4 9.5 9.33301 12.5 16s7.83301 11.667 14.5 15zM464.995 832.999c2 4 3 7.83008 3 11.4971s1 7.83398 3 12.501c-4 2.66699 -7.16699 5.83398 -9.5 9.50098
s-4.83301 7.16699 -7.5 10.5c-3.33301 -0.666992 -6.66602 -0.166992 -9.99902 1.5s-6.66602 3.16699 -9.99902 4.5c-4 -3.33301 -7.33301 -4.33301 -10 -3s-6.33398 1.33301 -11.001 0c0 -3.33301 -1.33301 -4.83301 -4 -4.5s-4.33398 -1.5 -5.00098 -5.5
c2.66699 0 4.5 0.166992 5.5 0.5s2.16699 -0.5 3.5 -2.5c-2 -1.33301 -3.16699 -2.16602 -3.5 -2.49902s-1.5 0.166992 -3.5 1.5c1.33301 -3.33301 1.16602 -5.83301 -0.500977 -7.5l-5.5 -5.5c-0.666992 -2.66699 -0.166992 -4.66699 1.5 -6s2.5 -3 2.5 -5
c1.33301 0.666992 3.66602 1.33398 6.99902 2.00098s5.33301 -0.666016 6 -3.99902c-1.33301 0 -2.5 -0.5 -3.5 -1.5s-2.16699 -1.83301 -3.5 -2.5c-0.666992 -4.66699 0.5 -7.5 3.5 -8.5s4.5 -3.83301 4.5 -8.5c9.33301 2 16.833 1.5 22.5 -1.5s12.834 -2.83301 21.501 0.5
c-1.33301 3.33301 -2.33301 5.16602 -3 5.49902s0 2.16602 2 5.49902c-1.33301 1.33301 -2.66602 2 -3.99902 2h-4c1.33301 2 1 3.66699 -1 5s-2.33301 2.33301 -1 3c2 -1.33301 4 -2.83301 6 -4.5s4.66699 -2.5 8 -2.5zM772.995 862.996v4h-4c0 -2.66699 1.33301 -4 4 -4z
M833.995 862.996c0 1.33301 -0.667969 1.83203 -2.00098 1.49902s-2.66602 -0.5 -3.99902 -0.5c-1.33301 -2.66699 -0.5 -4.16699 2.5 -4.5s4.16699 0.833984 3.5 3.50098zM257.994 806.995c1.33301 7.33301 2.5 14.5 3.5 21.5s2.16699 14.167 3.5 21.5c0 1.33301 -1 2 -3 2
c-2 -5.33301 -3.5 -12.5 -4.5 -21.5s-0.833008 -16.833 0.5 -23.5zM576.994 842.995c-3.33301 -4 -3.83301 -5.5 -1.5 -4.5s2.83301 2.5 1.5 4.5zM562.994 818.995c1.33301 3.33301 3 5.83203 5 7.49902s3.66699 4.16699 5 7.5c-2.66699 -1.33301 -5 -3.66602 -7 -6.99902
s-3 -6 -3 -8zM552.994 802.994c1.33301 2.66699 3.33301 5.16602 6 7.49902s3 4.83301 1 7.5c-1.33301 -2 -3 -4.66699 -5 -8s-2.66699 -5.66602 -2 -6.99902zM782.994 767.993c6 -0.666992 8.33301 1.99902 7 7.99902h-4l-2 -4c-0.666992 -1.33301 -1 -2.66602 -1 -3.99902
zM788.994 764.992c1.33301 0 2.66602 1.00098 3.99902 3.00098c-1.33301 0 -2.16602 -0.333008 -2.49902 -1s-0.833008 -1.33398 -1.5 -2.00098zM796.994 761.993c1.33301 -1.33301 2.33301 -1.5 3 -0.5s2 1.16699 4 0.5v6c-4.66699 0.666992 -7 -1.33301 -7 -6z
M352.994 749.993c-2.66699 2.66699 -5.16309 3.33691 -7.49609 2.00391s-4.5 -2.66602 -6.5 -3.99902v4c-2.66699 1.33301 -3.66699 0.666016 -3 -2.00098s-0.333008 -3.33398 -3 -2.00098c-1.33301 0 -2 1.33301 -2 4c-12.667 -2 -25.667 -5.66699 -39 -11
c1.33301 -2 3.16602 -2.83301 5.49902 -2.5s4.16602 1.16602 5.49902 2.49902c0 -1.33301 -0.166992 -2.33301 -0.5 -3s-0.5 -1.66699 -0.5 -3c4.66699 -4.66699 12.5 -8.33398 23.5 -11.001s22.833 -4.33398 35.5 -5.00098s24.667 -0.666992 36 0s20 2 26 4
c-2.66699 4 -7.5 6.5 -14.5 7.5s-13.167 0.833008 -18.5 -0.5c1.33301 4 0.166016 5.33301 -3.50098 4s-4.83398 0 -3.50098 4c-2 0.666992 -3.16699 0.166992 -3.5 -1.5s-1.16602 -2.5 -2.49902 -2.5c-0.666992 1.33301 -0.333984 2.33301 0.999023 3s1.66602 2 0.999023 4
c-2.66699 0 -4.66699 -0.333008 -6 -1s-3.66602 -1 -6.99902 -1c-0.666992 2.66699 -1.5 4.5 -2.5 5.5l-3.5 3.5c-2 0 -3.83301 -1 -5.5 -3s-3.16699 -2.33301 -4.5 -1c1.33301 0.666992 2 1.5 2 2.5s0.333008 2.16699 1 3.5zM800.998 665.996
c-3.33301 1.33301 -7.33301 2.66602 -12 3.99902s-8.66699 1.33301 -12 0c3.33301 -1.33301 7.33301 -2.66602 12 -3.99902s8.66699 -1.33301 12 0zM754.998 661.996c3.33301 2.66699 5 3 5 1s1.66699 -3 5 -3c0 3.33301 -1.33301 5 -4 5s-4.66699 0.666992 -6 2v-5z
M814.998 665.996c2.66699 -4 8.66699 -6.83301 18 -8.5s16.333 -1.5 21 0.5c-5.33301 4 -11.333 6.5 -18 7.5s-13.667 1.16699 -21 0.5zM773.998 657.996c1.33301 4 -0.333008 5.33301 -5 4c-0.666992 -2.66699 1 -4 5 -4zM264.999 592.996h3c0 1.33301 0.333008 2 1 2
s0.666992 0.666992 0 2h-4v-4zM315.999 587.996c2 -1.33301 3 -0.667969 3 1.99902s-1 3.33398 -3 2.00098v-4zM325.999 493.994h3.99902c0.666992 2 -0.666016 3 -3.99902 3v-3zM326.998 470.994c4 0 6 2 6 6c-4 0 -6 -2 -6 -6zM328.998 463.994
c2 -1.33301 3 -0.667969 3 1.99902s-1 3.33398 -3 2.00098v-4zM332.998 453.992c2.66699 -0.666992 4 0 4 2s0.666992 3.66699 2 5c-4.66699 0 -6.66699 -2.33301 -6 -7zM335.998 443.992c4 -0.666992 6 1.66699 6 7h-4c0 -1.33301 -0.333008 -2.33301 -1 -3s-1 -2 -1 -4z
M339.998 429.993h5v4h-5v-4zM506.998 311.993c0 -2.66699 2.66309 -3.99902 7.99609 -3.99902c-1.33301 3.33301 -0.666016 4.66602 2.00098 3.99902s3.33398 0.333008 2.00098 3h-4c0.666992 -2.66699 -0.166016 -3.66699 -2.49902 -3s-4.16602 0.666992 -5.49902 0z
M540.994 280.994c1.33301 -1.33301 2 -0.667969 2 1.99902s-0.666992 3.33398 -2 2.00098v-4zM541.994 271.992l3 0.00195312c0 1.33301 0.166992 2.16602 0.5 2.49902s0.5 1.16602 0.5 2.49902h-4v-5zM527.994 266.994h2c0 1.33301 0.333008 2 1 2s1 0.666992 1 2h-4v-4z
M535.994 266.994c2 -1.33301 3 -0.667969 3 1.99902s-1 3.33398 -3 2.00098v-4zM558.994 165.992c2 -1.33301 3 -0.667969 3 1.99902s-1 3.33398 -3 2.00098v-4z" />
    <glyph glyph-name="space" unicode=" " horiz-adv-x="690" 
 />
    <glyph glyph-name="exclam" unicode="!" horiz-adv-x="326" 
d="M233 1381v-1168c-0.666992 -9.33301 -4 -17 -10 -23s-13.667 -9 -23 -9s-17 3 -23 9s-9 13.667 -9 23v1168c0 10 3 18.167 9 24.5s13.667 9.5 23 9.5s17 -3.16699 23 -9.5s9.33301 -14.5 10 -24.5zM128 31c0 -19.333 6.83301 -35.833 20.5 -49.5s30.167 -20.5 49.5 -20.5
s36 6.83301 50 20.5s21 30.167 21 49.5s-7 36 -21 50s-30.667 21 -50 21s-35.833 -7 -49.5 -21s-20.5 -30.667 -20.5 -50z" />
    <glyph glyph-name="quotedbl" unicode="&#x22;" horiz-adv-x="395" 
d="M101 1336c0 9.33301 3 17 9 23s13.667 9 23 9s17 -3 23 -9s9 -13.667 9 -23v-236c0 -9.33301 -3 -17 -9 -23s-13.667 -9 -23 -9s-17 3 -23 9s-9 13.667 -9 23v236zM211 1336c0 9.33301 3 17 9 23s13.667 9 23 9s17 -3 23 -9s9 -13.667 9 -23v-236
c0 -9.33301 -3 -17 -9 -23s-13.667 -9 -23 -9s-17 3 -23 9s-9 13.667 -9 23v236z" />
    <glyph glyph-name="numbersign" unicode="#" horiz-adv-x="1147" 
d="M868 462c9.33301 0 16.998 -3 22.998 -9s9 -13.667 9 -23s-3 -17 -9 -23s-13.667 -9 -23 -9h-229l-120 -203c-3.33301 -4 -7.33301 -7.33301 -12 -10s-9.66699 -4 -15 -4s-10.666 1.66699 -15.999 5c-10.667 6 -16 15 -16 27c0 6.66699 1.33301 12.334 4 17.001l100 168
h-245l-115 -194c-6 -9.33301 -14.667 -14 -26 -14c-4.66699 0 -10.334 1.66699 -17.001 5c-10 6 -15 15 -15 27c0 6.66699 1.33301 12.334 4 17.001l94 159h-114c-8 0 -15 3 -21 9s-9 13.667 -9 23s3 17 9 23s13.667 9 23 9h150l118 200h-173c-8 0 -15 3 -21 9
s-9 13.667 -9 23s3 17 9 23s13.667 9 23 9h209l87 146c6 10 15 15 27 15c6.66699 0 12.334 -1.33301 17.001 -4c10 -6 15 -15 15 -27c0 -6.66699 -1.33301 -12.334 -4 -17.001l-67 -113h245l82 137c6 10 15 15 27 15c6.66699 0 12.334 -1.33301 17.001 -4
c10 -6 15 -15 15 -27c0 -6.66699 -1.33301 -12.334 -4 -17.001l-62 -104h132c9.33301 0 17 -3 23 -9s9 -13.667 9 -23s-3 -17 -9 -23s-13.667 -9 -23 -9h-170l-118 -200h191zM356.998 462h245l118 200h-245z" />
    <glyph glyph-name="dollar" unicode="$" horiz-adv-x="285" 
 />
    <glyph glyph-name="percent" unicode="%" horiz-adv-x="930" 
d="M703 1132c6.66699 12 16 18 28 18c3.33301 0 8.33301 -1.33301 15 -4c11.333 -6 17 -15.333 17 -28c0 -5.33301 -1.33301 -10.333 -4 -15l-600 -1138c-6 -11.333 -15.333 -17 -28 -17c-5.33301 0 -10.333 1.33301 -15 4c-12 6.66699 -18 16 -18 28
c0 3.33301 1.33301 8.33301 4 15zM231 750c0 19.333 6.83301 36 20.5 50s30.167 21 49.5 21s36 -7 50 -21s21 -30.667 21 -50s-7 -35.833 -21 -49.5s-30.667 -20.5 -50 -20.5s-35.833 6.83301 -49.5 20.5s-20.5 30.167 -20.5 49.5zM516 348c0 19.333 6.83301 36 20.5 50
s30.167 21 49.5 21s36 -7 50 -21s21 -30.667 21 -50s-7 -35.833 -21 -49.5s-30.667 -20.5 -50 -20.5s-35.833 6.83301 -49.5 20.5s-20.5 30.167 -20.5 49.5z" />
    <glyph glyph-name="ampersand" unicode="&#x26;" horiz-adv-x="1155" 
 />
    <glyph glyph-name="quotesingle" unicode="'" horiz-adv-x="285" 
d="M101 1336c0 9.33301 3 17 9 23s13.667 9 23 9s17 -3 23 -9s9 -13.667 9 -23v-236c0 -9.33301 -3 -17 -9 -23s-13.667 -9 -23 -9s-17 3 -23 9s-9 13.667 -9 23v236z" />
    <glyph glyph-name="parenleft" unicode="(" horiz-adv-x="413" 
d="M164 32c0 -19.333 6.5 -35.5039 19.5 -48.5039s29.167 -19.5 48.5 -19.5h69c9.33301 0 17 -3 23 -9s9 -13.667 9 -23s-3 -17 -9 -23s-13.667 -9 -23 -9h-73c-18 0 -34.667 3.33301 -50 10s-28.833 15.834 -40.5 27.501s-20.834 25.334 -27.501 41.001s-10 32.5 -10 50.5
v1392c0 18 3.33301 34.833 10 50.5s15.834 29.334 27.501 41.001s25.167 20.834 40.5 27.501s32 10 50 10h73c9.33301 0 17 -3 23 -9s9 -13.667 9 -23s-3 -17 -9 -23s-13.667 -9 -23 -9h-69c-19.333 0 -35.5 -6.5 -48.5 -19.5s-19.5 -29.167 -19.5 -48.5v-1386z" />
    <glyph glyph-name="parenright" unicode=")" horiz-adv-x="483" 
d="M269 1418c0 19.333 -6.5 35.5039 -19.5 48.5039s-29.167 19.5 -48.5 19.5h-69c-9.33301 0 -17 3 -23 9s-9 13.667 -9 23s3 17 9 23s13.667 9 23 9h73c18 0 34.667 -3.33301 50 -10s28.833 -15.834 40.5 -27.501s20.834 -25.334 27.501 -41.001s10 -32.5 10 -50.5v-1392
c0 -18 -3.33301 -34.833 -10 -50.5s-15.834 -29.334 -27.501 -41.001s-25.167 -20.834 -40.5 -27.501s-32 -10 -50 -10h-73c-9.33301 0 -17 3 -23 9s-9 13.667 -9 23s3 17 9 23s13.667 9 23 9h69c19.333 0 35.5 6.5 48.5 19.5s19.5 29.167 19.5 48.5v1386z" />
    <glyph glyph-name="asterisk" unicode="*" horiz-adv-x="609" 
d="M459 1246l-145 -46l92 -124l-34 -24l-93 123l-92 -123l-34 24l92 124l-145 53l14 39l144 -52v161h43v-161l146 45z" />
    <glyph glyph-name="plus" unicode="+" horiz-adv-x="900" 
d="M468 367c0 -9.33301 -3 -17 -9 -23s-13.667 -9 -23 -9s-17 3 -23 9s-9 13.667 -9 23v252h-274c-8 0 -15 3 -21 9s-9 13.667 -9 23s3 17 9 23s13.667 9 23 9h272v272c0 8 3 15 9 21s13.667 9 23 9s17 -3 23 -9s9 -13.667 9 -23v-270h250c9.33301 0 17 -3 23 -9
s9 -13.667 9 -23s-3 -17 -9 -23s-13.667 -9 -23 -9h-250v-252z" />
    <glyph glyph-name="comma" unicode="," horiz-adv-x="438" 
d="M228 111c6 11.333 15.333 17 28 17c6 0 11.333 -1.33301 16 -4c10.667 -6.66699 16 -16 16 -28c0 -5.33301 -1.33301 -10.333 -4 -15l-224 -416c-5.33301 -11.333 -14.333 -17 -27 -17c-6 0 -11.333 1.33301 -16 4c-11.333 6 -17 15.333 -17 28c-0 6 1.33301 11.333 4 16
z" />
    <glyph glyph-name="hyphen" unicode="-" horiz-adv-x="900" 
d="M718 683c9.33301 0 17 -3 23 -9s9 -13.667 9 -23s-3 -17 -9 -23s-13.667 -9 -23 -9h-588c-8 0 -15 3 -21 9s-9 13.667 -9 23s3 17 9 23s13.667 9 23 9h586z" />
    <glyph glyph-name="period" unicode="." horiz-adv-x="299" 
d="M100 70c0 19.333 6.83301 36 20.5 50s30.167 21 49.5 21s36 -7 50 -21s21 -30.667 21 -50s-7 -35.833 -21 -49.5s-30.667 -20.5 -50 -20.5s-35.833 6.83301 -49.5 20.5s-20.5 30.167 -20.5 49.5z" />
    <glyph glyph-name="slash" unicode="/" horiz-adv-x="765" 
d="M605 1132c6.66699 12 16 18 28 18c3.33301 0 8.33301 -1.33301 15 -4c11.333 -6 17 -15.333 17 -28c0 -5.33301 -1.33301 -10.333 -4 -15l-600 -1138c-6 -11.333 -15.333 -17 -28 -17c-5.33301 0 -10.333 1.33301 -15 4c-12 6.66699 -18 16 -18 28
c-0 3.33301 1.33301 8.33301 4 15z" />
    <glyph glyph-name="zero" unicode="0" horiz-adv-x="1050" 
d="M164 350c0 -46 8.83301 -86.8359 26.5 -122.503s41.667 -65.667 72 -90s65.833 -42.666 106.5 -54.999s84.334 -18.5 131.001 -18.5c46 0 89.5 6.16699 130.5 18.5s76.667 30.666 107 54.999s54.333 54.333 72 90s26.5 76.5 26.5 122.5v798
c0 46.667 -8.83301 87.834 -26.5 123.501s-41.834 65.667 -72.501 90s-66.5 42.833 -107.5 55.5s-84.833 19 -131.5 19c-46 0 -89.333 -6.16699 -130 -18.5s-76.167 -30.666 -106.5 -54.999s-54.333 -54.166 -72 -89.499s-26.5 -76 -26.5 -122v-798zM101 352.997v798
c0 54.667 10.5 103.667 31.5 147s49.5 80 85.5 110s78.333 52.833 127 68.5s101 23.5 157 23.5c54.667 0 106.167 -7.83301 154.5 -23.5s90.5 -38.5 126.5 -68.5s64.5 -66.833 85.5 -110.5s31.5 -93.167 31.5 -148.5v-799c0 -55.333 -10.5 -104.666 -31.5 -147.999
s-49.5 -80 -85.5 -110s-78.333 -52.833 -127 -68.5s-100.667 -23.5 -156 -23.5s-107.333 7.83301 -156 23.5s-91 38.5 -127 68.5s-64.5 66.667 -85.5 110s-31.5 92.666 -31.5 147.999z" />
    <glyph glyph-name="one" unicode="1" horiz-adv-x="801" 
d="M679 64c9.33301 0 17.001 -3 23.001 -9s9 -13.667 9 -23s-3 -17 -9 -23s-13.667 -9 -23 -9h-549c-8 0 -15 3 -21 9s-9 13.667 -9 23s3 17 9 23s13.667 9 23 9h254v1327l-155 -154c-5.33301 -5.33301 -12.333 -8 -21 -8s-16.334 3 -23.001 9c-6 6 -9 13.667 -9 23
c0 8.66699 3 16 9 22l208 208c6 6 13.667 9 23 9s17 -3 23 -9s9 -13.667 9 -23v-1404h229v0z" />
    <glyph glyph-name="two" unicode="2" horiz-adv-x="1050" 
d="M198 64l670.004 0.00195312c9.33301 0 17 -3 23 -9s9 -13.667 9 -23s-3 -17 -9 -23s-13.667 -9 -23 -9h-738c-8 0 -15 3 -21 9s-9 13.667 -9 23c0 6.66699 2 13 6 19l690 889c19.333 24 31 49.333 35 76s6 54.334 6 83.001c0 46.667 -8.83301 90.334 -26.5 131.001
s-41.834 76.334 -72.501 107.001s-66.334 54.834 -107.001 72.501s-84.334 26.5 -131.001 26.5s-90.334 -8.83301 -131.001 -26.5s-76.167 -41.834 -106.5 -72.501s-54.333 -66.334 -72 -107.001s-26.5 -84.334 -26.5 -131.001s8.83301 -90.334 26.5 -131.001
s41.834 -76.334 72.501 -107.001c6 -7.33301 9 -15 9 -23c0 -8.66699 -3 -16 -9 -22c-6.66699 -6.66699 -14.334 -10 -23.001 -10c-8 0 -15.333 3.33301 -22 10c-36.667 36.667 -65.5 79.167 -86.5 127.5s-31.5 100.5 -31.5 156.5c0 55.333 10.5 107.333 31.5 156
s49.5 91 85.5 127s78.333 64.5 127 85.5s100.667 31.5 156 31.5s107.333 -10.5 156 -31.5s91 -49.5 127 -85.5s64.5 -78.333 85.5 -127s31.5 -100.667 31.5 -156c0 -34.667 -2.5 -67.834 -7.5 -99.501s-18.5 -62.167 -40.5 -91.5z" />
    <glyph glyph-name="three" unicode="3" horiz-adv-x="1050" 
d="M500 804c-9.33301 0 -17.166 3.00391 -23.499 9.00391s-9.5 13.667 -9.5 23s3 17.166 9 23.499s13.667 9.5 23 9.5c42 0 81.333 5.66699 118 17s68.834 27.833 96.501 49.5s49.5 48.5 65.5 80.5s24 69 24 111v48c0 42 -8 79.167 -24 111.5s-37.833 59.333 -65.5 81
s-59.834 38.167 -96.501 49.5s-76 17 -118 17s-81.5 -5.66699 -118.5 -17s-69.167 -27.833 -96.5 -49.5s-49 -48.667 -65 -81s-24 -69.5 -24 -111.5v-48c-0.666992 -9.33301 -4 -17 -10 -23s-13.667 -9 -23 -9s-17 3 -23 9s-9 13.667 -9 23v48
c0 50.667 9.66699 96.167 29 136.5s45.666 74.333 78.999 102s72.333 48.834 117 63.501s92.667 22 144 22c50.667 0 98.5 -7.33301 143.5 -22s84.167 -35.834 117.5 -63.501s59.666 -61.667 78.999 -102s29 -85.833 29 -136.5v-48c0 -34.667 -4.66699 -66.834 -14 -96.501
s-22.5 -56.667 -39.5 -81s-37.167 -45.833 -60.5 -64.5s-49.333 -34.334 -78 -47.001c33.333 -12.667 63.666 -29 90.999 -49s50.833 -43.333 70.5 -70s35 -56.834 46 -90.501s16.5 -70.167 16.5 -109.5v-169c0 -55.333 -10.5 -104.666 -31.5 -147.999s-49.5 -80 -85.5 -110
s-78.333 -52.833 -127 -68.5s-100.667 -23.5 -156 -23.5s-107.333 7.83301 -156 23.5s-91 38.5 -127 68.5s-64.5 66.667 -85.5 110s-31.5 92.666 -31.5 147.999v50c0 9.33301 3 17 9 23s13.667 9 23 9s17 -3 23 -9s9 -13.667 9 -23v-50c0 -46 8.83301 -86.833 26.5 -122.5
s41.667 -65.667 72 -90s65.833 -42.666 106.5 -54.999s84.334 -18.5 131.001 -18.5c46 0 89.5 6.16699 130.5 18.5s76.667 30.666 107 54.999s54.333 54.333 72 90s26.5 76.5 26.5 122.5v169c0 44.667 -8.16699 84.5 -24.5 119.5s-38.666 64.833 -66.999 89.5
s-61.5 43.5 -99.5 56.5s-79 19.5 -123 19.5h-22v0z" />
    <glyph glyph-name="four" unicode="4" horiz-adv-x="940" 
d="M669 364l0.000976562 267.999c0 9.33301 3 17 9 23s13.667 9 23 9s17 -3 23 -9s9 -13.667 9 -23v-268h75c9.33301 0 17 -3 23 -9s9 -13.667 9 -23s-3 -17 -9 -23s-13.667 -9 -23 -9h-75v-268c0 -9.33301 -3 -17 -9 -23s-13.667 -9 -23 -9s-17 3 -23 9s-9 13.667 -9 23
v268h-388c-33.333 0 -64.666 6.33301 -93.999 19s-54.833 29.834 -76.5 51.501s-38.834 47.334 -51.501 77.001s-19 61.5 -19 95.5c0 25.333 4.33301 50.333 13 75s17 45.667 25 63l467 803c5.33301 10.667 14.666 16 27.999 16c9.33301 0 17 -3 23 -9s9 -13.667 9 -23
c0 -6 -1.66699 -11.667 -5 -17l-465 -801c-9.33301 -16.667 -16.833 -33.834 -22.5 -51.501s-8.5 -37.167 -8.5 -58.5c0 -24.667 4.66699 -47.667 14 -69s22 -40 38 -56s34.667 -28.5 56 -37.5s44.333 -13.5 69 -13.5h388z" />
    <glyph glyph-name="five" unicode="5" horiz-adv-x="1050" 
d="M182 1436c-5.33301 0 -9.66797 -1.66602 -13.001 -4.99902s-5 -7.66602 -5 -12.999v-467c36 48 83.333 84.667 142 110s123.334 38 194.001 38c55.333 0 107.333 -7.83301 156 -23.5s91 -38.5 127 -68.5s64.5 -66.667 85.5 -110s31.5 -92.666 31.5 -147.999v-399
c0 -55.333 -10.5 -104.666 -31.5 -147.999s-49.5 -80 -85.5 -110s-78.333 -52.833 -127 -68.5s-100.667 -23.5 -156 -23.5s-107.333 7.83301 -156 23.5s-91 38.5 -127 68.5s-64.5 66.667 -85.5 110s-31.5 92.666 -31.5 147.999c0 10.667 3 19.167 9 25.5s13.667 9.5 23 9.5
s17 -3 23 -9s9 -13.667 9 -23c0 -47.333 8.83301 -88.833 26.5 -124.5s41.667 -65.834 72 -90.501s66 -43.167 107 -55.5s84.5 -18.5 130.5 -18.5s89.5 6.16699 130.5 18.5s76.667 30.666 107 54.999s54.333 54.333 72 90s26.5 76.5 26.5 122.5v399
c0 46 -8.83301 86.833 -26.5 122.5s-41.667 65.667 -72 90s-66 42.666 -107 54.999s-84.5 18.5 -130.5 18.5s-89.5 -6.16699 -130.5 -18.5s-76.667 -30.666 -107 -54.999s-54.333 -54.333 -72 -90s-26.5 -76.5 -26.5 -122.5c0 -9.33301 -3 -17 -9 -23s-13.667 -9 -23 -9
s-17 3.16699 -23 9.5s-9 14.166 -9 23.499v718c0 9.33301 3.16699 17 9.5 23s14.833 9 25.5 9h730c10.667 0 19.167 -3 25.5 -9s9.5 -13.667 9.5 -23s-3.16699 -17 -9.5 -23s-14.833 -9 -25.5 -9h-683z" />
    <glyph glyph-name="six" unicode="6" horiz-adv-x="1050" 
d="M164 352c0 -46.667 8.83301 -87.833 26.5 -123.5s41.834 -65.667 72.501 -90s66.5 -42.833 107.5 -55.5s84.833 -19 131.5 -19c46 0 89.333 6.16699 130 18.5s76.167 30.666 106.5 54.999s54.333 54.166 72 89.499s26.5 76 26.5 122v336
c0 46 -8.83301 86.833 -26.5 122.5s-41.834 65.667 -72.501 90s-66.667 42.833 -108 55.5s-85.333 19 -132 19c-46 0 -89.333 -6.16699 -130 -18.5s-76 -30.666 -106 -54.999s-53.833 -54.166 -71.5 -89.499s-26.5 -76 -26.5 -122v-335zM100 1150
c0 55.333 10.5 104.665 31.5 147.998s49.5 80 85.5 110s78.333 52.833 127 68.5s100.667 23.5 156 23.5s107.333 -7.83301 156 -23.5s91 -38.5 127 -68.5s64.5 -66.667 85.5 -110s31.5 -92.666 31.5 -147.999l-1 -3c0 -9.33301 -3 -17 -9 -23s-13.667 -9 -23 -9
c-8.66699 0 -16 3 -22 9s-9 14.667 -9 26c0 46 -8.83301 86.833 -26.5 122.5s-41.667 65.667 -72 90s-65.833 42.666 -106.5 54.999s-84.334 18.5 -131.001 18.5c-46 0 -89.333 -6.16699 -130 -18.5s-76.167 -30.666 -106.5 -54.999s-54.333 -54.333 -72 -90
s-26.5 -76.5 -26.5 -122.5v-261c36 48 83.333 84.5 142 109.5s123.334 37.5 194.001 37.5c55.333 0 107.166 -8 155.499 -24s90.5 -39 126.5 -69s64.333 -66.667 85 -110s31 -92.666 31 -147.999v-336c0 -55.333 -10.5 -104.5 -31.5 -147.5s-49.5 -79.5 -85.5 -109.5
s-78.333 -52.833 -127 -68.5s-101 -23.5 -157 -23.5c-55.333 0 -107.166 7.83301 -155.499 23.5s-90.5 38.5 -126.5 68.5s-64.333 66.833 -85 110.5s-31 93.167 -31 148.5v396v403z" />
    <glyph glyph-name="seven" unicode="7" horiz-adv-x="990" 
d="M186 40c-6 -10 -11.166 -17.668 -15.499 -23.001s-8.33301 -9.33301 -12 -12s-7.83398 -4.16699 -12.501 -4.5s-10.667 -0.5 -18 -0.5c-8.66699 0 -15.5 2.83301 -20.5 8.5s-7.5 12.5 -7.5 20.5c0 3.33301 0.666992 6.83301 2 10.5s2.66602 6.83398 3.99902 9.50098
l696 1387h-670c-9.33301 0 -17 3 -23 9s-9 13.667 -9 23s3 17 9 23s13.667 9 23 9h738c8 0 15 -3 21 -9s9 -13.667 9 -23c0 -3.33301 -0.666992 -6.5 -2 -9.5s-2.66602 -6.16699 -3.99902 -9.5z" />
    <glyph glyph-name="eight" unicode="8" horiz-adv-x="1050" 
d="M676 838c33.333 -12.667 63.6699 -28.9961 91.0029 -48.9961s50.833 -43.333 70.5 -70s35 -56.834 46 -90.501s16.5 -70.167 16.5 -109.5v-169c0 -55.333 -10.5 -104.666 -31.5 -147.999s-49.5 -80 -85.5 -110s-78.333 -52.833 -127 -68.5s-100.667 -23.5 -156 -23.5
s-107.333 7.83301 -156 23.5s-91 38.5 -127 68.5s-64.5 66.667 -85.5 110s-31.5 92.666 -31.5 147.999v169c0 39.333 5.33301 75.666 16 108.999s25.834 63.5 45.501 90.5s43.167 50.5 70.5 70.5s57.666 36.333 90.999 49c-28.667 12 -54.834 27.333 -78.501 46
s-44 40.167 -61 64.5s-30.167 51.333 -39.5 81s-14 62.167 -14 97.5v48c0 50.667 9.66699 96.167 29 136.5s45.666 74.333 78.999 102s72.333 48.834 117 63.501s92.667 22 144 22c50.667 0 98.5 -7.33301 143.5 -22s84.167 -35.834 117.5 -63.501
s59.666 -61.667 78.999 -102s29 -85.833 29 -136.5v-48c0 -34.667 -4.66699 -66.834 -14 -96.501s-22.5 -56.667 -39.5 -81s-37.167 -45.833 -60.5 -64.5s-49.333 -34.334 -78 -47.001zM195.004 1127c0 -42 8 -79 24 -111s37.667 -58.833 65 -80.5s59.5 -38.167 96.5 -49.5
s76.5 -17 118.5 -17s81.333 5.66699 118 17s68.834 27.833 96.501 49.5s49.5 48.5 65.5 80.5s24 69 24 111v48c0 42 -8 79.167 -24 111.5s-37.833 59.333 -65.5 81s-59.834 38.167 -96.501 49.5s-76 17 -118 17s-81.5 -5.66699 -118.5 -17s-69.167 -27.833 -96.5 -49.5
s-49 -48.667 -65 -81s-24 -69.5 -24 -111.5v-48zM836.004 519.004c0 44.667 -8.16992 84.5 -24.5029 119.5s-38.666 64.833 -66.999 89.5s-61.5 43.5 -99.5 56.5s-79 19.5 -123 19.5h-45c-35.333 0 -71.5 -6.5 -108.5 -19.5s-70.667 -31.833 -101 -56.5
s-55.166 -54.667 -74.499 -90s-29 -75 -29 -119v-169c0 -46 8.83301 -86.833 26.5 -122.5s41.667 -65.667 72 -90s65.833 -42.666 106.5 -54.999s84.334 -18.5 131.001 -18.5c46 0 89.5 6.16699 130.5 18.5s76.667 30.666 107 54.999s54.333 54.333 72 90
s26.5 76.5 26.5 122.5v169z" />
    <glyph glyph-name="nine" unicode="9" horiz-adv-x="1050" 
d="M836 1148c0 46.667 -8.83301 87.833 -26.5 123.5s-41.834 65.667 -72.501 90s-66.5 42.833 -107.5 55.5s-84.833 19 -131.5 19c-46 0 -89.333 -6.16699 -130 -18.5s-76.167 -30.666 -106.5 -54.999s-54.333 -54.166 -72 -89.499s-26.5 -76 -26.5 -122v-399
c0 -46 8.83301 -86.833 26.5 -122.5s41.834 -65.667 72.501 -90s66.5 -42.833 107.5 -55.5s85.167 -19 132.5 -19c46 0 89.333 6.16699 130 18.5s76 30.666 106 54.999s53.833 54.166 71.5 89.499s26.5 76 26.5 122v398zM900 349.999
c0 -55.333 -10.501 -104.665 -31.501 -147.998s-49.5 -80 -85.5 -110s-78.333 -52.833 -127 -68.5s-100.667 -23.5 -156 -23.5s-107.333 7.83301 -156 23.5s-91 38.5 -127 68.5s-64.5 66.667 -85.5 110s-31.5 92.666 -31.5 147.999l1 3c0 9.33301 3 17 9 23s13.667 9 23 9
c8.66699 0 16 -3 22 -9s9 -14.667 9 -26c0 -46 8.83301 -86.833 26.5 -122.5s41.667 -65.667 72 -90s65.833 -42.666 106.5 -54.999s84.334 -18.5 131.001 -18.5c46 0 89.333 6.16699 130 18.5s76.167 30.666 106.5 54.999s54.333 54.333 72 90s26.5 76.5 26.5 122.5v198
c-36 -48 -83.333 -84.5 -142 -109.5s-123.334 -37.5 -194.001 -37.5c-55.333 0 -107.166 8 -155.499 24s-90.5 39 -126.5 69s-64.333 66.667 -85 110s-31 92.666 -31 147.999v399c0 54.667 10.5 103.667 31.5 147s49.5 80 85.5 110s78.333 52.833 127 68.5
s101 23.5 157 23.5c54.667 0 106.167 -7.83301 154.5 -23.5s90.5 -38.5 126.5 -68.5s64.5 -66.833 85.5 -110.5s31.5 -93.167 31.5 -148.5v-396v-403z" />
    <glyph glyph-name="colon" unicode=":" horiz-adv-x="391" 
d="M100 1070c0 19.333 6.83301 36 20.5 50s30.167 21 49.5 21s36 -7 50 -21s21 -30.667 21 -50s-7 -35.833 -21 -49.5s-30.667 -20.5 -50 -20.5s-35.833 6.83301 -49.5 20.5s-20.5 30.167 -20.5 49.5zM100 30c0 19.333 6.83301 36 20.5 50s30.167 21 49.5 21s36 -7 50 -21
s21 -30.667 21 -50s-7 -35.833 -21 -49.5s-30.667 -20.5 -50 -20.5s-35.833 6.83301 -49.5 20.5s-20.5 30.167 -20.5 49.5z" />
    <glyph glyph-name="semicolon" unicode=";" horiz-adv-x="391" 
d="M156 -40c-16 3.33301 -29.333 11.333 -40 24s-16 27.667 -16 45c0 19.333 6.83301 36 20.5 50s30.167 21 49.5 21s36 -7 50 -21s21 -30.667 21 -50s-7 -36 -21 -50v-146c0 -9.33301 -3 -17 -9 -23s-13.667 -9 -23 -9s-17 3 -23 9s-9 13.667 -9 23v127zM100 1070
c0 19.333 6.83301 36 20.5 50s30.167 21 49.5 21s36 -7 50 -21s21 -30.667 21 -50s-7 -35.833 -21 -49.5s-30.667 -20.5 -50 -20.5s-35.833 6.83301 -49.5 20.5s-20.5 30.167 -20.5 49.5z" />
    <glyph glyph-name="less" unicode="&#x3c;" horiz-adv-x="815" 
d="M100 551c0 8.66699 3.33301 16.334 10 23.001l501 492c6 6 13.333 9 22 9s16.334 -3.33301 23.001 -10c6 -6 9 -13.333 9 -22s-3 -16.334 -9 -23.001l-477 -469l477 -470c6 -7.33301 9 -15 9 -23c0 -8.66699 -3 -16 -9 -22c-6.66699 -6.66699 -14.334 -10 -23.001 -10
s-16 3 -22 9l-501 492c-6.66699 6.66699 -10 14.667 -10 24z" />
    <glyph glyph-name="equal" unicode="=" horiz-adv-x="900" 
d="M718 683c9.33301 0 17 -3 23 -9s9 -13.667 9 -23s-3 -17 -9 -23s-13.667 -9 -23 -9h-588c-8 0 -15 3 -21 9s-9 13.667 -9 23s3 17 9 23s13.667 9 23 9h586zM718 462c9.33301 0 17 -3 23 -9s9 -13.667 9 -23s-3 -17 -9 -23s-13.667 -9 -23 -9h-588c-8 0 -15 3 -21 9
s-9 13.667 -9 23s3 17 9 23s13.667 9 23 9h586z" />
    <glyph glyph-name="greater" unicode="&#x3e;" horiz-adv-x="815" 
d="M665 551c0 -9.33301 -3.33301 -17.333 -10 -24l-501 -492c-6 -6 -13.333 -9 -22 -9s-16.334 3.33301 -23.001 10c-6 6 -9 13.333 -9 22c0 8 3 15.667 9 23l477 470l-477 469c-6 6.66699 -9 14.334 -9 23.001s3 16 9 22c6.66699 6.66699 14.334 10 23.001 10s16 -3 22 -9
l501 -492c6.66699 -6.66699 10 -14.334 10 -23.001z" />
    <glyph glyph-name="question" unicode="?" horiz-adv-x="1051" 
d="M100 900c0 54.667 10.5029 103.662 31.5029 146.995s49.667 80 86 110s78.833 53 127.5 69s100.667 24 156 24s107.333 -7.83301 156 -23.5s91 -38.5 127 -68.5s64.5 -66.667 85.5 -110s31.5 -92.333 31.5 -147c0 -51.333 -9 -98.166 -27 -140.499
s-43 -78.833 -75 -109.5s-69.5 -54.5 -112.5 -71.5s-89.5 -25.5 -139.5 -25.5c-11.333 0 -17 -5.66699 -17 -17v-285c-0.666992 -9.33301 -4 -17 -10 -23s-13.667 -9 -23 -9s-17 3 -23 9s-9 13.667 -9 23v285c0 12.667 1 23.834 3 33.501s6 17.834 12 24.501
s14.333 11.834 25 15.501s24.667 6.16699 42 7.5c40.667 2 78.667 10 114 24s66 33.333 92 58s46.5 54 61.5 88s22.5 72 22.5 114c0 46 -8.83301 86.667 -26.5 122s-41.834 65 -72.501 89s-66.334 42.167 -107.001 54.5s-84.334 18.5 -131.001 18.5
c-46 0 -89.5 -6.16699 -130.5 -18.5s-76.667 -30.666 -107 -54.999s-54.333 -54.333 -72 -90s-26.5 -76.5 -26.5 -122.5c0 -9.33301 -3 -17 -9 -23s-13.667 -9 -23 -9s-17 3 -23 9s-9 13.667 -9 23zM425.003 69.9951c0 -19.333 6.83301 -35.833 20.5 -49.5
s30.167 -20.5 49.5 -20.5s36 6.83301 50 20.5s21 30.167 21 49.5s-7 36 -21 50s-30.667 21 -50 21s-35.833 -7 -49.5 -21s-20.5 -30.667 -20.5 -50z" />
    <glyph glyph-name="at" unicode="@" horiz-adv-x="1317" 
 />
    <glyph glyph-name="A" unicode="A" horiz-adv-x="1128" 
 />
    <glyph glyph-name="B" unicode="B" horiz-adv-x="1253" 
 />
    <glyph glyph-name="C" unicode="C" horiz-adv-x="1192" 
 />
    <glyph glyph-name="D" unicode="D" horiz-adv-x="1253" 
 />
    <glyph glyph-name="E" unicode="E" horiz-adv-x="1014" 
 />
    <glyph glyph-name="F" unicode="F" horiz-adv-x="1010" 
 />
    <glyph glyph-name="G" unicode="G" horiz-adv-x="1253" 
 />
    <glyph glyph-name="H" unicode="H" horiz-adv-x="1253" 
 />
    <glyph glyph-name="I" unicode="I" horiz-adv-x="252" 
 />
    <glyph glyph-name="J" unicode="J" horiz-adv-x="1192" 
 />
    <glyph glyph-name="K" unicode="K" horiz-adv-x="1206" 
 />
    <glyph glyph-name="L" unicode="L" horiz-adv-x="1192" 
 />
    <glyph glyph-name="M" unicode="M" horiz-adv-x="1253" 
 />
    <glyph glyph-name="N" unicode="N" horiz-adv-x="1253" 
 />
    <glyph glyph-name="O" unicode="O" horiz-adv-x="1253" 
 />
    <glyph glyph-name="P" unicode="P" horiz-adv-x="1253" 
 />
    <glyph glyph-name="Q" unicode="Q" horiz-adv-x="1253" 
 />
    <glyph glyph-name="R" unicode="R" horiz-adv-x="1253" 
 />
    <glyph glyph-name="S" unicode="S" horiz-adv-x="1253" 
 />
    <glyph glyph-name="T" unicode="T" horiz-adv-x="1128" 
 />
    <glyph glyph-name="U" unicode="U" horiz-adv-x="1253" 
 />
    <glyph glyph-name="V" unicode="V" horiz-adv-x="1126" 
 />
    <glyph glyph-name="W" unicode="W" horiz-adv-x="1718" 
 />
    <glyph glyph-name="X" unicode="X" horiz-adv-x="954" 
 />
    <glyph glyph-name="Y" unicode="Y" horiz-adv-x="1165" 
 />
    <glyph glyph-name="Z" unicode="Z" horiz-adv-x="1137" 
 />
    <glyph glyph-name="bracketleft" unicode="[" horiz-adv-x="386" 
d="M164 -27c0 -7.33301 3.66699 -11 11 -11h99c9.33301 0 17 -3 23 -9s9 -13.667 9 -23s-3 -17 -9 -23s-13.667 -9 -23 -9h-142c-9.33301 0 -17 3 -23 9s-9 13.667 -9 23v1588c0 9.33301 3 17 9 23s13.667 9 23 9h142c9.33301 0 17 -3 23 -9s9 -13.667 9 -23s-3 -17 -9 -23
s-13.667 -9 -23 -9h-99c-7.33301 0 -11 -3.66699 -11 -11v-1502z" />
    <glyph glyph-name="backslash" unicode="\" horiz-adv-x="765" 
d="M661 -5c2.66699 -6.66699 4 -11.667 4 -15c0 -12 -6 -21.333 -18 -28c-4.66699 -2.66699 -9.66699 -4 -15 -4c-12.667 0 -22 5.66699 -28 17l-600 1138c-2.66699 4.66699 -4 9.66699 -4 15c0 12.667 5.66699 22 17 28c6.66699 2.66699 11.667 4 15 4
c12 0 21.333 -6 28 -18z" />
    <glyph glyph-name="bracketright" unicode="]" horiz-adv-x="456" 
d="M242 1475c0 7.33301 -3.66699 11 -11 11h-99c-9.33301 0 -17 3 -23 9s-9 13.667 -9 23s3 17 9 23s13.667 9 23 9h142c9.33301 0 17 -3 23 -9s9 -13.667 9 -23v-1588c0 -9.33301 -3 -17 -9 -23s-13.667 -9 -23 -9h-142c-9.33301 0 -17 3 -23 9s-9 13.667 -9 23s3 17 9 23
s13.667 9 23 9h99c7.33301 0 11 3.66699 11 11v1502z" />
    <glyph glyph-name="asciicircum" unicode="^" horiz-adv-x="1141" 
d="M546 1249c7.33301 0 13.6689 -2.66699 19.002 -8l418 -426c5.33301 -5.33301 8 -11.666 8 -18.999c0 -6 -2.66699 -12.333 -8 -19c-6.66699 -5.33301 -13 -8 -19 -8c-6.66699 0 -13.334 2.66699 -20.001 8l-398 405l-399 -405c-6.66699 -5.33301 -13.334 -8 -20.001 -8
c-6 0 -12.333 2.66699 -19 8c-5.33301 6.66699 -8 13 -8 19c0 7.33301 2.66699 13.666 8 18.999l418 426c5.33301 5.33301 12 8 20 8z" />
    <glyph glyph-name="underscore" unicode="_" horiz-adv-x="901" 
d="M869 -23c9.33301 0 17 -3 23 -9s9 -13.667 9 -23s-3 -17 -9 -23s-13.667 -9 -23 -9h-839c-8 0 -15 3 -21 9s-9 13.667 -9 23s3 17 9 23s13.667 9 23 9h837z" />
    <glyph glyph-name="grave" unicode="`" horiz-adv-x="455" 
d="M81 1313c-3.33301 4.66699 -5 10.332 -5 16.999c0 5.33301 1.16699 10.333 3.5 15s6.16602 8.66699 11.499 12c4 3.33301 9.66699 5 17 5c5.33301 0 10.333 -1.16699 15 -3.5s8.66699 -6.16602 12 -11.499l126 -200c3.33301 -5.33301 5 -11 5 -17
c0 -5.33301 -1.16699 -10.333 -3.5 -15s-6.16602 -8.66699 -11.499 -12s-11 -5 -17 -5c-12 0 -21 5 -27 15z" />
    <glyph glyph-name="a" unicode="a" horiz-adv-x="1022" 
 />
    <glyph glyph-name="b" unicode="b" horiz-adv-x="1053" 
 />
    <glyph glyph-name="c" unicode="c" horiz-adv-x="989" 
 />
    <glyph glyph-name="d" unicode="d" horiz-adv-x="1053" 
 />
    <glyph glyph-name="e" unicode="e" horiz-adv-x="1022" 
 />
    <glyph glyph-name="f" unicode="f" horiz-adv-x="449" 
 />
    <glyph glyph-name="g" unicode="g" horiz-adv-x="1053" 
 />
    <glyph glyph-name="h" unicode="h" horiz-adv-x="993" 
 />
    <glyph glyph-name="i" unicode="i" horiz-adv-x="254" 
 />
    <glyph glyph-name="j" unicode="j" horiz-adv-x="252" 
 />
    <glyph glyph-name="k" unicode="k" horiz-adv-x="815" 
 />
    <glyph glyph-name="l" unicode="l" horiz-adv-x="252" 
 />
    <glyph glyph-name="m" unicode="m" horiz-adv-x="1150" 
d="M759 1100c33.333 0 64.665 -6.33203 93.998 -18.999s54.833 -29.834 76.5 -51.501s38.834 -47 51.501 -76s19 -60.167 19 -93.5v-828c0 -9.33301 -3 -17 -9 -23s-13.667 -9 -23 -9s-17 3 -23 9s-9 13.667 -9 23v828c0 24.667 -4.66699 47.667 -14 69s-22 40 -38 56
s-34.667 28.5 -56 37.5s-44.333 13.5 -69 13.5s-47.667 -4.5 -69 -13.5s-40 -21.5 -56 -37.5s-28.667 -34.667 -38 -56s-14 -44.333 -14 -69v-828c0 -9.33301 -3 -17 -9 -23s-13.667 -9 -23 -9s-17 3 -23 9s-9 13.667 -9 23v828c0 24.667 -4.66699 47.667 -14 69
s-22 40 -38 56s-34.667 28.5 -56 37.5s-44.333 13.5 -69 13.5s-47.667 -4.5 -69 -13.5s-40 -21.5 -56 -37.5s-28.667 -34.667 -38 -56s-14 -44.333 -14 -69v-828c0 -9.33301 -3 -17 -9 -23s-13.667 -9 -23 -9s-17 3 -23 9s-9 13.667 -9 23v1004c0 9.33301 3 17 9 23
s13.667 9 23 9s17 -3 23 -9s9 -13.667 9 -23v-13c22 23.333 48.167 42 78.5 56s63.166 21 98.499 21c44.667 0 85.334 -11 122.001 -33s65.667 -51 87 -87c21.333 36 50.333 65 87 87s77.334 33 122.001 33z" />
    <glyph glyph-name="n" unicode="n" horiz-adv-x="1050" 
d="M100 1036c0 9.33301 2.99902 17 8.99902 23s13.667 9 23 9s17 -3 23 -9s9 -13.667 9 -23v-120c18 28 39 53.333 63 76s50.333 42 79 58s59.334 28.333 92.001 37s66.667 13 102 13c55.333 0 107.333 -10.5 156 -31.5s91 -49.5 127 -85.5s64.5 -78.333 85.5 -127
s31.5 -100.667 31.5 -156v-668c0 -9.33301 -3 -17 -9 -23s-13.667 -9 -23 -9s-17 3 -23 9s-9 13.667 -9 23v668c0 46 -8.83301 89.5 -26.5 130.5s-41.667 76.667 -72 107s-66 54.333 -107 72s-84.5 26.5 -130.5 26.5s-89.5 -8.83301 -130.5 -26.5s-76.667 -41.667 -107 -72
s-54.333 -66 -72 -107s-26.5 -84.5 -26.5 -130.5v-668c0 -9.33301 -3 -17 -9 -23s-13.667 -9 -23 -9s-17 3 -23 9s-9 13.667 -9 23v1004z" />
    <glyph glyph-name="o" unicode="o" horiz-adv-x="1053" 
 />
    <glyph glyph-name="p" unicode="p" horiz-adv-x="1053" 
 />
    <glyph glyph-name="q" unicode="q" horiz-adv-x="1053" 
 />
    <glyph glyph-name="r" unicode="r" horiz-adv-x="510" 
 />
    <glyph glyph-name="s" unicode="s" horiz-adv-x="1050" 
d="M900 349c0 -55.333 -10.4961 -104.666 -31.4961 -147.999s-49.5 -79.833 -85.5 -109.5s-78.333 -52.334 -127 -68.001s-100.667 -23.5 -156 -23.5s-107.333 7.83301 -156 23.5s-91 38.5 -127 68.5s-64.5 66.667 -85.5 110s-31.5 92.666 -31.5 147.999
c0 9.33301 3 17 9 23s13.667 9 23 9s17 -3 23 -9s9 -13.667 9 -23c0 -46 8.83301 -86.833 26.5 -122.5s41.667 -65.667 72 -90s66 -42.666 107 -54.999s84.5 -18.5 130.5 -18.5s89.5 6.33301 130.5 19s76.667 31 107 55s54.333 53.667 72 89s26.5 76 26.5 122
c0 30.667 -5.83301 59.334 -17.5 86.001s-27.5 50 -47.5 70s-43.333 35.833 -70 47.5s-55.334 17.5 -86.001 17.5c-30 0 -54.833 -0.333008 -74.5 -1s-40 -1.66699 -61 -3l-73.5 -4.5l-111 -6.5h-10c-26 0 -50.167 5.16699 -72.5 15.5s-41.833 24.5 -58.5 42.5
s-29.834 38.833 -39.501 62.5s-14.5 48.5 -14.5 74.5c0 55.333 10.5 104.666 31.5 147.999s49.5 80 85.5 110s78.333 52.833 127 68.5s100.667 23.5 156 23.5s107.333 -7.83301 156 -23.5s91 -38.5 127 -68.5s64.5 -66.667 85.5 -110s31.5 -92.666 31.5 -147.999
c0 -9.33301 -3 -17 -9 -23s-13.667 -9 -23 -9s-17 3 -23 9s-9 13.667 -9 23c0 46 -8.83301 86.833 -26.5 122.5s-41.667 65.667 -72 90s-66 42.666 -107 54.999s-84.5 18.5 -130.5 18.5s-89.5 -6.16699 -130.5 -18.5s-76.667 -30.666 -107 -54.999s-54.333 -54.333 -72 -90
s-26.5 -76.5 -26.5 -122.5c0 -18 3.16699 -35 9.5 -51s15.166 -30 26.499 -42s24.666 -21.5 39.999 -28.5s31.666 -10.5 48.999 -10.5h7c46 2.66699 83 5 111 7s52.5 3.66699 73.5 5s41.333 2.33301 61 3s44.167 1 73.5 1c39.333 0 76.333 -7.5 111 -22.5
s64.834 -35.333 90.501 -61s46 -55.834 61 -90.501s22.5 -71.667 22.5 -111z" />
    <glyph glyph-name="t" unicode="t" horiz-adv-x="449" 
 />
    <glyph glyph-name="u" unicode="u" horiz-adv-x="991" 
 />
    <glyph glyph-name="v" unicode="v" horiz-adv-x="727" 
 />
    <glyph glyph-name="w" unicode="w" horiz-adv-x="1327" 
 />
    <glyph glyph-name="x" unicode="x" horiz-adv-x="631" 
 />
    <glyph glyph-name="y" unicode="y" horiz-adv-x="727" 
 />
    <glyph glyph-name="z" unicode="z" horiz-adv-x="938" 
 />
    <glyph glyph-name="braceleft" unicode="{" horiz-adv-x="581" 
d="M262 32c0 -19.333 6.5 -35.5039 19.5 -48.5039s29.167 -19.5 48.5 -19.5h69c9.33301 0 17 -3 23 -9s9 -13.667 9 -23s-3 -17 -9 -23s-13.667 -9 -23 -9h-73c-18 0 -34.667 3.33301 -50 10s-28.833 15.834 -40.5 27.501s-20.834 25.334 -27.501 41.001s-10 32.5 -10 50.5
v598c0 16 -3 31 -9 45s-14.333 26.333 -25 37s-23 19 -37 25s-29 9 -45 9c-9.33301 0 -17 3 -23 9s-9 13.667 -9 23s3 17 9 23s13.667 9 23 9c16 0 31 3 45 9s26.333 14.167 37 24.5s19 22.5 25 36.5s9 29 9 45v499c0 18 3.33301 34.833 10 50.5
s15.834 29.334 27.501 41.001s25.167 20.834 40.5 27.501s32 10 50 10h73c9.33301 0 17 -3 23 -9s9 -13.667 9 -23s-3 -17 -9 -23s-13.667 -9 -23 -9h-69c-19.333 0 -35.5 -6.5 -48.5 -19.5s-19.5 -29.167 -19.5 -48.5v-498c0 -29.333 -6.33301 -56.333 -19 -81
s-30.667 -45.667 -54 -63c23.333 -17.333 41.333 -38.333 54 -63s19 -51.667 19 -81v-600z" />
    <glyph glyph-name="bar" unicode="|" horiz-adv-x="308" 
d="M94 1468c0 9.33301 3 17 9 23s13.667 9 23 9s17 -3 23 -9s9 -13.667 9 -23v-1536c0 -9.33301 -3 -17 -9 -23s-13.667 -9 -23 -9s-17 3 -23 9s-9 13.667 -9 23v1536z" />
    <glyph glyph-name="braceright" unicode="}" horiz-adv-x="581" 
d="M219 632c0 29.333 6.33301 56.3369 19 81.0039s30.667 45.667 54 63c-23.333 17.333 -41.333 38.333 -54 63s-19 51.667 -19 81v498c0 19.333 -6.5 35.5 -19.5 48.5s-29.167 19.5 -48.5 19.5h-69c-9.33301 0 -17 3 -23 9s-9 13.667 -9 23s3 17 9 23s13.667 9 23 9h73
c18 0 34.667 -3.33301 50 -10s28.833 -15.834 40.5 -27.501s20.834 -25.334 27.501 -41.001s10 -32.5 10 -50.5v-499c0 -16 3 -31 9 -45s14.333 -26.167 25 -36.5s23 -18.5 37 -24.5s29 -9 45 -9c9.33301 0 17 -3 23 -9s9 -13.667 9 -23s-3 -17 -9 -23s-13.667 -9 -23 -9
c-16 0 -31 -3 -45 -9s-26.333 -14.333 -37 -25s-19 -23 -25 -37s-9 -29 -9 -45v-598c0 -18 -3.33301 -34.833 -10 -50.5s-15.834 -29.334 -27.501 -41.001s-25.167 -20.834 -40.5 -27.501s-32 -10 -50 -10h-73c-9.33301 0 -17 3 -23 9s-9 13.667 -9 23s3 17 9 23
s13.667 9 23 9h69c19.333 0 35.5 6.5 48.5 19.5s19.5 29.167 19.5 48.5v600z" />
    <glyph glyph-name="asciitilde" unicode="~" horiz-adv-x="879" 
d="M145 610l-8.50098 -4.99609c-2.33301 -1.33301 -5.16602 -2 -8.49902 -2c-8 0 -15.333 4.33301 -22 13c-1.33301 3.33301 -2.66602 6.5 -3.99902 9.5s-2 6.16699 -2 9.5c0 10 4 18 12 24c23.333 23.333 48.333 40.666 75 51.999s51 17 73 17s43.5 -3.66699 64.5 -11
s41.667 -15.166 62 -23.499s41 -16.166 62 -23.499s42.5 -11 64.5 -11h8c12.667 0 25.667 0.333008 39 1s26.666 3.16699 39.999 7.5s26.666 11.166 39.999 20.499s26.666 22.666 39.999 39.999c2.66699 4 6 7 10 9s8 3 12 3c6.66699 0 12.334 -2.33301 17.001 -7
c6.66699 -6.66699 10 -14.667 10 -24c0 -7.33301 -2 -14 -6 -20c-12 -18.667 -26.5 -33.834 -43.5 -45.501s-34.833 -20.667 -53.5 -27s-37.334 -10.5 -56.001 -12.5s-35.667 -3 -51 -3c-24 0 -46.5 3 -67.5 9s-41.167 12.833 -60.5 20.5l-57.5 22.5
c-19 7.33301 -38.833 12.666 -59.5 15.999c-1.33301 0 -3 0.166992 -5 0.5s-3.66699 0.5 -5 0.5c-17.333 0 -37.166 -5.33301 -59.499 -16s-42.166 -25.334 -59.499 -44.001z" />
    <glyph glyph-name="thothannobasethai" horiz-adv-x="970" 
d="M600 247c0 2.66699 -0.162109 10 -0.495117 22s-4.66602 27.167 -12.999 45.5s-20.333 34.666 -36 48.999s-33.5 24.833 -53.5 31.5l5 -16c0 -12 -1.33301 -23 -4 -33c-4.66699 -12 -12.167 -22.167 -22.5 -30.5s-22.5 -13.166 -36.5 -14.499c-2 -0.666992 -5 -1 -9 -1
s-8 0.333008 -12 1s-7.66699 1.66699 -11 3c-12 4.66699 -22.167 12.167 -30.5 22.5s-13.5 22.833 -15.5 37.5c-0.666992 3.33301 -1 7.66602 -1 12.999c0 4.66699 0.666992 8.33398 2 11.001c7.33301 19.333 16.166 33.5 26.499 42.5s24.166 16.833 41.499 23.5
c4 2 9.83301 3.83301 17.5 5.5s16.167 2.5 25.5 2.5c7.33301 0 15 -0.5 23 -1.5s16 -3.16699 24 -6.5c28 -10.667 47.833 -21.5 59.5 -32.5s18.5 -17.833 20.5 -20.5v87c-2 23.333 -9.16699 43.5 -21.5 60.5s-33.833 25.5 -64.5 25.5c-20 0 -41.333 -1 -64 -3
s-46.334 -4.33301 -71.001 -7s-50 -5 -76 -7s-52 -3 -78 -3h-10c-26 0 -50.167 5.16699 -72.5 15.5s-41.833 24.5 -58.5 42.5s-29.834 38.833 -39.501 62.5s-14.5 48.5 -14.5 74.5c0 55.333 10.5 104.666 31.5 147.999s49.5 80 85.5 110s78.333 52.833 127 68.5
s100.667 23.5 156 23.5s107.333 -7.83301 156 -23.5s91 -38.5 127 -68.5s64.5 -66.667 85.5 -110s31.5 -92.666 31.5 -147.999c0 -9.33301 -3 -17 -9 -23s-13.667 -9 -23 -9s-17 3 -23 9s-9 13.667 -9 23c0 46 -8.83301 86.833 -26.5 122.5s-41.667 65.667 -72 90
s-66 42.666 -107 54.999s-84.5 18.5 -130.5 18.5s-89.5 -6.16699 -130.5 -18.5s-76.667 -30.666 -107 -54.999s-54.333 -54.333 -72 -90s-26.5 -76.5 -26.5 -122.5c0 -18 3.16699 -35 9.5 -51s15.166 -30 26.499 -42s24.666 -21.5 39.999 -28.5s31.666 -10.5 48.999 -10.5h7
c52 0 101.667 3.5 149 10.5s93.666 10.5 138.999 10.5c24 0 45.333 -4.16699 64 -12.5s34.334 -19.333 47.001 -33s22.334 -29.5 29.001 -47.5s10 -37 10 -57v-456c0 -9.33301 -3 -17 -9 -23s-13.667 -9 -23 -9s-17 3 -23 9s-9 13.667 -9 23v215v0z" />
    <glyph glyph-name="thothannobasethai" unicode="&#xf700;" horiz-adv-x="970" 
d="M600 247c0 2.66699 -0.162109 10 -0.495117 22s-4.66602 27.167 -12.999 45.5s-20.333 34.666 -36 48.999s-33.5 24.833 -53.5 31.5l5 -16c0 -12 -1.33301 -23 -4 -33c-4.66699 -12 -12.167 -22.167 -22.5 -30.5s-22.5 -13.166 -36.5 -14.499c-2 -0.666992 -5 -1 -9 -1
s-8 0.333008 -12 1s-7.66699 1.66699 -11 3c-12 4.66699 -22.167 12.167 -30.5 22.5s-13.5 22.833 -15.5 37.5c-0.666992 3.33301 -1 7.66602 -1 12.999c0 4.66699 0.666992 8.33398 2 11.001c7.33301 19.333 16.166 33.5 26.499 42.5s24.166 16.833 41.499 23.5
c4 2 9.83301 3.83301 17.5 5.5s16.167 2.5 25.5 2.5c7.33301 0 15 -0.5 23 -1.5s16 -3.16699 24 -6.5c28 -10.667 47.833 -21.5 59.5 -32.5s18.5 -17.833 20.5 -20.5v87c-2 23.333 -9.16699 43.5 -21.5 60.5s-33.833 25.5 -64.5 25.5c-20 0 -41.333 -1 -64 -3
s-46.334 -4.33301 -71.001 -7s-50 -5 -76 -7s-52 -3 -78 -3h-10c-26 0 -50.167 5.16699 -72.5 15.5s-41.833 24.5 -58.5 42.5s-29.834 38.833 -39.501 62.5s-14.5 48.5 -14.5 74.5c0 55.333 10.5 104.666 31.5 147.999s49.5 80 85.5 110s78.333 52.833 127 68.5
s100.667 23.5 156 23.5s107.333 -7.83301 156 -23.5s91 -38.5 127 -68.5s64.5 -66.667 85.5 -110s31.5 -92.666 31.5 -147.999c0 -9.33301 -3 -17 -9 -23s-13.667 -9 -23 -9s-17 3 -23 9s-9 13.667 -9 23c0 46 -8.83301 86.833 -26.5 122.5s-41.667 65.667 -72 90
s-66 42.666 -107 54.999s-84.5 18.5 -130.5 18.5s-89.5 -6.16699 -130.5 -18.5s-76.667 -30.666 -107 -54.999s-54.333 -54.333 -72 -90s-26.5 -76.5 -26.5 -122.5c0 -18 3.16699 -35 9.5 -51s15.166 -30 26.499 -42s24.666 -21.5 39.999 -28.5s31.666 -10.5 48.999 -10.5h7
c52 0 101.667 3.5 149 10.5s93.666 10.5 138.999 10.5c24 0 45.333 -4.16699 64 -12.5s34.334 -19.333 47.001 -33s22.334 -29.5 29.001 -47.5s10 -37 10 -57v-456c0 -9.33301 -3 -17 -9 -23s-13.667 -9 -23 -9s-17 3 -23 9s-9 13.667 -9 23v215v0z" />
    <glyph glyph-name="thothannobasethai" unicode="&#x20ac;" horiz-adv-x="970" 
d="M600 247c0 2.66699 -0.162109 10 -0.495117 22s-4.66602 27.167 -12.999 45.5s-20.333 34.666 -36 48.999s-33.5 24.833 -53.5 31.5l5 -16c0 -12 -1.33301 -23 -4 -33c-4.66699 -12 -12.167 -22.167 -22.5 -30.5s-22.5 -13.166 -36.5 -14.499c-2 -0.666992 -5 -1 -9 -1
s-8 0.333008 -12 1s-7.66699 1.66699 -11 3c-12 4.66699 -22.167 12.167 -30.5 22.5s-13.5 22.833 -15.5 37.5c-0.666992 3.33301 -1 7.66602 -1 12.999c0 4.66699 0.666992 8.33398 2 11.001c7.33301 19.333 16.166 33.5 26.499 42.5s24.166 16.833 41.499 23.5
c4 2 9.83301 3.83301 17.5 5.5s16.167 2.5 25.5 2.5c7.33301 0 15 -0.5 23 -1.5s16 -3.16699 24 -6.5c28 -10.667 47.833 -21.5 59.5 -32.5s18.5 -17.833 20.5 -20.5v87c-2 23.333 -9.16699 43.5 -21.5 60.5s-33.833 25.5 -64.5 25.5c-20 0 -41.333 -1 -64 -3
s-46.334 -4.33301 -71.001 -7s-50 -5 -76 -7s-52 -3 -78 -3h-10c-26 0 -50.167 5.16699 -72.5 15.5s-41.833 24.5 -58.5 42.5s-29.834 38.833 -39.501 62.5s-14.5 48.5 -14.5 74.5c0 55.333 10.5 104.666 31.5 147.999s49.5 80 85.5 110s78.333 52.833 127 68.5
s100.667 23.5 156 23.5s107.333 -7.83301 156 -23.5s91 -38.5 127 -68.5s64.5 -66.667 85.5 -110s31.5 -92.666 31.5 -147.999c0 -9.33301 -3 -17 -9 -23s-13.667 -9 -23 -9s-17 3 -23 9s-9 13.667 -9 23c0 46 -8.83301 86.833 -26.5 122.5s-41.667 65.667 -72 90
s-66 42.666 -107 54.999s-84.5 18.5 -130.5 18.5s-89.5 -6.16699 -130.5 -18.5s-76.667 -30.666 -107 -54.999s-54.333 -54.333 -72 -90s-26.5 -76.5 -26.5 -122.5c0 -18 3.16699 -35 9.5 -51s15.166 -30 26.499 -42s24.666 -21.5 39.999 -28.5s31.666 -10.5 48.999 -10.5h7
c52 0 101.667 3.5 149 10.5s93.666 10.5 138.999 10.5c24 0 45.333 -4.16699 64 -12.5s34.334 -19.333 47.001 -33s22.334 -29.5 29.001 -47.5s10 -37 10 -57v-456c0 -9.33301 -3 -17 -9 -23s-13.667 -9 -23 -9s-17 3 -23 9s-9 13.667 -9 23v215v0z" />
    <glyph glyph-name="saraileftthai" 
d="M-282 1314c9.33301 0 17 -3 23 -9s9 -13.667 9 -23s-3 -17 -9 -23s-13.667 -9 -23 -9h-588c-8 0 -15 3 -21 9s-9 13.667 -9 23s3 17 9 23s13.667 9 23 9h586z" />
    <glyph glyph-name="saraileftthai" unicode="&#xf701;" 
d="M-282 1314c9.33301 0 17 -3 23 -9s9 -13.667 9 -23s-3 -17 -9 -23s-13.667 -9 -23 -9h-588c-8 0 -15 3 -21 9s-9 13.667 -9 23s3 17 9 23s13.667 9 23 9h586z" />
    <glyph glyph-name="saraiileftthai" 
d="M-323 1314c6 0 9 3 9 9v77c0 9.33301 3 17 9 23s13.667 9 23 9s17 -3 23 -9s9 -13.667 9 -23v-118c0 -9.33301 -3 -17 -9 -23s-13.667 -9 -23 -9h-588c-8 0 -15 3 -21 9s-9 13.667 -9 23s3 17 9 23s13.667 9 23 9h545z" />
    <glyph glyph-name="saraiileftthai" unicode="&#xf702;" 
d="M-323 1314c6 0 9 3 9 9v77c0 9.33301 3 17 9 23s13.667 9 23 9s17 -3 23 -9s9 -13.667 9 -23v-118c0 -9.33301 -3 -17 -9 -23s-13.667 -9 -23 -9h-588c-8 0 -15 3 -21 9s-9 13.667 -9 23s3 17 9 23s13.667 9 23 9h545z" />
    <glyph glyph-name="saraiileftthai" unicode="&#x201a;" 
d="M-323 1314c6 0 9 3 9 9v77c0 9.33301 3 17 9 23s13.667 9 23 9s17 -3 23 -9s9 -13.667 9 -23v-118c0 -9.33301 -3 -17 -9 -23s-13.667 -9 -23 -9h-588c-8 0 -15 3 -21 9s-9 13.667 -9 23s3 17 9 23s13.667 9 23 9h545z" />
    <glyph glyph-name="saraueleftthai" 
d="M-431 1340c0 25.333 8.83301 46.832 26.5 64.499s39.167 26.5 64.5 26.5s46.666 -8.83301 63.999 -26.5s26 -39.167 26 -64.5s-8.66699 -46.666 -26 -63.999s-38.666 -26 -63.999 -26h-530c-8 0 -15 3 -21 9s-9 13.667 -9 23s3 17 9 23s13.667 9 23 9h441
c-1.33301 4 -2.33301 8.16699 -3 12.5s-1 8.83301 -1 13.5z" />
    <glyph glyph-name="saraueleftthai" unicode="&#xf703;" 
d="M-431 1340c0 25.333 8.83301 46.832 26.5 64.499s39.167 26.5 64.5 26.5s46.666 -8.83301 63.999 -26.5s26 -39.167 26 -64.5s-8.66699 -46.666 -26 -63.999s-38.666 -26 -63.999 -26h-530c-8 0 -15 3 -21 9s-9 13.667 -9 23s3 17 9 23s13.667 9 23 9h441
c-1.33301 4 -2.33301 8.16699 -3 12.5s-1 8.83301 -1 13.5z" />
    <glyph glyph-name="saraueleftthai" unicode="&#x192;" 
d="M-431 1340c0 25.333 8.83301 46.832 26.5 64.499s39.167 26.5 64.5 26.5s46.666 -8.83301 63.999 -26.5s26 -39.167 26 -64.5s-8.66699 -46.666 -26 -63.999s-38.666 -26 -63.999 -26h-530c-8 0 -15 3 -21 9s-9 13.667 -9 23s3 17 9 23s13.667 9 23 9h441
c-1.33301 4 -2.33301 8.16699 -3 12.5s-1 8.83301 -1 13.5z" />
    <glyph glyph-name="saraueeleftthai" 
d="M-436 1314c6 0 9 3 9 9v77c0 9.33301 3 17 9 23s13.667 9 23 9s17 -3 23 -9s9 -13.667 9 -23v-118c0 -9.33301 -3 -17 -9 -23s-13.667 -9 -23 -9h-475c-8 0 -15 3 -21 9s-9 13.667 -9 23s3 17 9 23s13.667 9 23 9h432zM-314 1400c0 9.33301 3 17 9 23s13.667 9 23 9
s17 -3 23 -9s9 -13.667 9 -23v-118c0 -9.33301 -3 -17 -9 -23s-13.667 -9 -23 -9s-17 3 -23 9s-9 13.667 -9 23v118z" />
    <glyph glyph-name="saraueeleftthai" unicode="&#xf704;" 
d="M-436 1314c6 0 9 3 9 9v77c0 9.33301 3 17 9 23s13.667 9 23 9s17 -3 23 -9s9 -13.667 9 -23v-118c0 -9.33301 -3 -17 -9 -23s-13.667 -9 -23 -9h-475c-8 0 -15 3 -21 9s-9 13.667 -9 23s3 17 9 23s13.667 9 23 9h432zM-314 1400c0 9.33301 3 17 9 23s13.667 9 23 9
s17 -3 23 -9s9 -13.667 9 -23v-118c0 -9.33301 -3 -17 -9 -23s-13.667 -9 -23 -9s-17 3 -23 9s-9 13.667 -9 23v118z" />
    <glyph glyph-name="saraueeleftthai" unicode="&#x201e;" 
d="M-436 1314c6 0 9 3 9 9v77c0 9.33301 3 17 9 23s13.667 9 23 9s17 -3 23 -9s9 -13.667 9 -23v-118c0 -9.33301 -3 -17 -9 -23s-13.667 -9 -23 -9h-475c-8 0 -15 3 -21 9s-9 13.667 -9 23s3 17 9 23s13.667 9 23 9h432zM-314 1400c0 9.33301 3 17 9 23s13.667 9 23 9
s17 -3 23 -9s9 -13.667 9 -23v-118c0 -9.33301 -3 -17 -9 -23s-13.667 -9 -23 -9s-17 3 -23 9s-9 13.667 -9 23v118z" />
    <glyph glyph-name="ellipsis" unicode="&#x85;" horiz-adv-x="1050" 
d="M759 70c0 19.333 6.83301 36 20.5 50s30.167 21 49.5 21s36 -7 50 -21s21 -30.667 21 -50s-7 -35.833 -21 -49.5s-30.667 -20.5 -50 -20.5s-35.833 6.83301 -49.5 20.5s-20.5 30.167 -20.5 49.5zM430 70c0 19.333 6.83301 36 20.5 50s30.167 21 49.5 21s36 -7 50 -21
s21 -30.667 21 -50s-7 -35.833 -21 -49.5s-30.667 -20.5 -50 -20.5s-35.833 6.83301 -49.5 20.5s-20.5 30.167 -20.5 49.5zM100 70c0 19.333 6.83301 36 20.5 50s30.167 21 49.5 21s36 -7 50 -21s21 -30.667 21 -50s-7 -35.833 -21 -49.5s-30.667 -20.5 -50 -20.5
s-35.833 6.83301 -49.5 20.5s-20.5 30.167 -20.5 49.5z" />
    <glyph glyph-name="ellipsis" unicode="&#x2026;" horiz-adv-x="1050" 
d="M759 70c0 19.333 6.83301 36 20.5 50s30.167 21 49.5 21s36 -7 50 -21s21 -30.667 21 -50s-7 -35.833 -21 -49.5s-30.667 -20.5 -50 -20.5s-35.833 6.83301 -49.5 20.5s-20.5 30.167 -20.5 49.5zM430 70c0 19.333 6.83301 36 20.5 50s30.167 21 49.5 21s36 -7 50 -21
s21 -30.667 21 -50s-7 -35.833 -21 -49.5s-30.667 -20.5 -50 -20.5s-35.833 6.83301 -49.5 20.5s-20.5 30.167 -20.5 49.5zM100 70c0 19.333 6.83301 36 20.5 50s30.167 21 49.5 21s36 -7 50 -21s21 -30.667 21 -50s-7 -35.833 -21 -49.5s-30.667 -20.5 -50 -20.5
s-35.833 6.83301 -49.5 20.5s-20.5 30.167 -20.5 49.5z" />
    <glyph glyph-name="maieklowleftthai" 
d="M-363 1468c0 9.33301 3 17 9 23s13.667 9 23 9s17 -3 23 -9s9 -13.667 9 -23v-236c0 -9.33301 -3 -17 -9 -23s-13.667 -9 -23 -9s-17 3 -23 9s-9 13.667 -9 23v236z" />
    <glyph glyph-name="maieklowleftthai" unicode="&#xf705;" 
d="M-363 1468c0 9.33301 3 17 9 23s13.667 9 23 9s17 -3 23 -9s9 -13.667 9 -23v-236c0 -9.33301 -3 -17 -9 -23s-13.667 -9 -23 -9s-17 3 -23 9s-9 13.667 -9 23v236z" />
    <glyph glyph-name="maieklowleftthai" unicode="&#x2020;" 
d="M-363 1468c0 9.33301 3 17 9 23s13.667 9 23 9s17 -3 23 -9s9 -13.667 9 -23v-236c0 -9.33301 -3 -17 -9 -23s-13.667 -9 -23 -9s-17 3 -23 9s-9 13.667 -9 23v236z" />
    <glyph glyph-name="maitholowleftthai" 
d="M-282 1416c9.33301 0 17 -3 23 -9s9 -13.667 9 -23c0 -25.333 -4.83301 -49.166 -14.5 -71.499s-22.834 -41.833 -39.501 -58.5s-36.167 -29.834 -58.5 -39.501s-46.166 -14.5 -71.499 -14.5h-184c-9.33301 0 -17 3 -23 9s-9 13.667 -9 23s3 17 9 23s13.667 9 23 9h54v46
c-16 3.33301 -29.333 11.333 -40 24s-16 27.667 -16 45c0 19.333 6.83301 36 20.5 50s30.167 21 49.5 21s36 -7 50 -21s21 -30.667 21 -50s-7 -36 -21 -50v-65h66c16.667 0 32.167 3.16699 46.5 9.5s27 15 38 26s19.667 23.667 26 38s9.5 29.833 9.5 46.5
c0 9.33301 3 17 9 23s13.667 9 23 9z" />
    <glyph glyph-name="maitholowleftthai" unicode="&#xf706;" 
d="M-282 1416c9.33301 0 17 -3 23 -9s9 -13.667 9 -23c0 -25.333 -4.83301 -49.166 -14.5 -71.499s-22.834 -41.833 -39.501 -58.5s-36.167 -29.834 -58.5 -39.501s-46.166 -14.5 -71.499 -14.5h-184c-9.33301 0 -17 3 -23 9s-9 13.667 -9 23s3 17 9 23s13.667 9 23 9h54v46
c-16 3.33301 -29.333 11.333 -40 24s-16 27.667 -16 45c0 19.333 6.83301 36 20.5 50s30.167 21 49.5 21s36 -7 50 -21s21 -30.667 21 -50s-7 -36 -21 -50v-65h66c16.667 0 32.167 3.16699 46.5 9.5s27 15 38 26s19.667 23.667 26 38s9.5 29.833 9.5 46.5
c0 9.33301 3 17 9 23s13.667 9 23 9z" />
    <glyph glyph-name="maitholowleftthai" unicode="&#x2021;" 
d="M-282 1416c9.33301 0 17 -3 23 -9s9 -13.667 9 -23c0 -25.333 -4.83301 -49.166 -14.5 -71.499s-22.834 -41.833 -39.501 -58.5s-36.167 -29.834 -58.5 -39.501s-46.166 -14.5 -71.499 -14.5h-184c-9.33301 0 -17 3 -23 9s-9 13.667 -9 23s3 17 9 23s13.667 9 23 9h54v46
c-16 3.33301 -29.333 11.333 -40 24s-16 27.667 -16 45c0 19.333 6.83301 36 20.5 50s30.167 21 49.5 21s36 -7 50 -21s21 -30.667 21 -50s-7 -36 -21 -50v-65h66c16.667 0 32.167 3.16699 46.5 9.5s27 15 38 26s19.667 23.667 26 38s9.5 29.833 9.5 46.5
c0 9.33301 3 17 9 23s13.667 9 23 9z" />
    <glyph glyph-name="maitrilowleftthai" 
d="M-762 1341c19.333 0 36.0029 -7 50.0029 -21s21 -30.667 21 -50s-7 -35.833 -21 -49.5s-30.667 -20.5 -50 -20.5s-35.833 6.83301 -49.5 20.5s-20.5 30.167 -20.5 49.5v55c0 17.333 3.33301 33.5 10 48.5s15.667 28.167 27 39.5s24.5 20.333 39.5 27s31.167 10 48.5 10
c18.667 0 36 -3.66699 52 -11s29.667 -17.333 41 -30c11.333 12.667 25 22.667 41 30s33.333 11 52 11c17.333 0 33.666 -3.33301 48.999 -10s28.666 -15.5 39.999 -26.5s20.166 -24.167 26.499 -39.5s9.5 -31.333 9.5 -48v-53c0 -6 3 -9 9 -9h105c9.33301 0 17 -3 23 -9
s9 -13.667 9 -23s-3 -17 -9 -23s-13.667 -9 -23 -9h-146c-9.33301 0 -17 3 -23 9s-9 13.667 -9 23v94c0 17.333 -5.83301 31.833 -17.5 43.5s-26.167 17.5 -43.5 17.5c-16.667 0 -30.667 -5.5 -42 -16.5s-17.666 -24.167 -18.999 -39.5v-99c0 -9.33301 -3 -17 -9 -23
s-13.667 -9 -23 -9s-17 3 -23 9s-9 13.667 -9 23v98c-1.33301 16 -7.83301 29.5 -19.5 40.5s-25.5 16.5 -41.5 16.5c-14.667 0 -27.334 -4.33301 -38.001 -13s-17.667 -19.667 -21 -33h4z" />
    <glyph glyph-name="maitrilowleftthai" unicode="&#xf707;" 
d="M-762 1341c19.333 0 36.0029 -7 50.0029 -21s21 -30.667 21 -50s-7 -35.833 -21 -49.5s-30.667 -20.5 -50 -20.5s-35.833 6.83301 -49.5 20.5s-20.5 30.167 -20.5 49.5v55c0 17.333 3.33301 33.5 10 48.5s15.667 28.167 27 39.5s24.5 20.333 39.5 27s31.167 10 48.5 10
c18.667 0 36 -3.66699 52 -11s29.667 -17.333 41 -30c11.333 12.667 25 22.667 41 30s33.333 11 52 11c17.333 0 33.666 -3.33301 48.999 -10s28.666 -15.5 39.999 -26.5s20.166 -24.167 26.499 -39.5s9.5 -31.333 9.5 -48v-53c0 -6 3 -9 9 -9h105c9.33301 0 17 -3 23 -9
s9 -13.667 9 -23s-3 -17 -9 -23s-13.667 -9 -23 -9h-146c-9.33301 0 -17 3 -23 9s-9 13.667 -9 23v94c0 17.333 -5.83301 31.833 -17.5 43.5s-26.167 17.5 -43.5 17.5c-16.667 0 -30.667 -5.5 -42 -16.5s-17.666 -24.167 -18.999 -39.5v-99c0 -9.33301 -3 -17 -9 -23
s-13.667 -9 -23 -9s-17 3 -23 9s-9 13.667 -9 23v98c-1.33301 16 -7.83301 29.5 -19.5 40.5s-25.5 16.5 -41.5 16.5c-14.667 0 -27.334 -4.33301 -38.001 -13s-17.667 -19.667 -21 -33h4z" />
    <glyph glyph-name="maitrilowleftthai" unicode="&#x2c6;" 
d="M-762 1341c19.333 0 36.0029 -7 50.0029 -21s21 -30.667 21 -50s-7 -35.833 -21 -49.5s-30.667 -20.5 -50 -20.5s-35.833 6.83301 -49.5 20.5s-20.5 30.167 -20.5 49.5v55c0 17.333 3.33301 33.5 10 48.5s15.667 28.167 27 39.5s24.5 20.333 39.5 27s31.167 10 48.5 10
c18.667 0 36 -3.66699 52 -11s29.667 -17.333 41 -30c11.333 12.667 25 22.667 41 30s33.333 11 52 11c17.333 0 33.666 -3.33301 48.999 -10s28.666 -15.5 39.999 -26.5s20.166 -24.167 26.499 -39.5s9.5 -31.333 9.5 -48v-53c0 -6 3 -9 9 -9h105c9.33301 0 17 -3 23 -9
s9 -13.667 9 -23s-3 -17 -9 -23s-13.667 -9 -23 -9h-146c-9.33301 0 -17 3 -23 9s-9 13.667 -9 23v94c0 17.333 -5.83301 31.833 -17.5 43.5s-26.167 17.5 -43.5 17.5c-16.667 0 -30.667 -5.5 -42 -16.5s-17.666 -24.167 -18.999 -39.5v-99c0 -9.33301 -3 -17 -9 -23
s-13.667 -9 -23 -9s-17 3 -23 9s-9 13.667 -9 23v98c-1.33301 16 -7.83301 29.5 -19.5 40.5s-25.5 16.5 -41.5 16.5c-14.667 0 -27.334 -4.33301 -38.001 -13s-17.667 -19.667 -21 -33h4z" />
    <glyph glyph-name="maichattawalowleftthai" 
d="M-282 1387c9.33301 0 17 -3 23 -9s9 -13.667 9 -23s-3 -17 -9 -23s-13.667 -9 -23 -9h-85v-91c0 -9.33301 -3 -17 -9 -23s-13.667 -9 -23 -9s-17 3 -23 9s-9 13.667 -9 23v91h-87c-9.33301 0 -17 3 -23 9s-9 13.667 -9 23s3 17 9 23s13.667 9 23 9h87v81
c0 9.33301 3 17 9 23s13.667 9 23 9s17 -3 23 -9s9 -13.667 9 -23v-81h85z" />
    <glyph glyph-name="maichattawalowleftthai" unicode="&#xf708;" 
d="M-282 1387c9.33301 0 17 -3 23 -9s9 -13.667 9 -23s-3 -17 -9 -23s-13.667 -9 -23 -9h-85v-91c0 -9.33301 -3 -17 -9 -23s-13.667 -9 -23 -9s-17 3 -23 9s-9 13.667 -9 23v91h-87c-9.33301 0 -17 3 -23 9s-9 13.667 -9 23s3 17 9 23s13.667 9 23 9h87v81
c0 9.33301 3 17 9 23s13.667 9 23 9s17 -3 23 -9s9 -13.667 9 -23v-81h85z" />
    <glyph glyph-name="maichattawalowleftthai" unicode="&#x2030;" 
d="M-282 1387c9.33301 0 17 -3 23 -9s9 -13.667 9 -23s-3 -17 -9 -23s-13.667 -9 -23 -9h-85v-91c0 -9.33301 -3 -17 -9 -23s-13.667 -9 -23 -9s-17 3 -23 9s-9 13.667 -9 23v91h-87c-9.33301 0 -17 3 -23 9s-9 13.667 -9 23s3 17 9 23s13.667 9 23 9h87v81
c0 9.33301 3 17 9 23s13.667 9 23 9s17 -3 23 -9s9 -13.667 9 -23v-81h85z" />
    <glyph glyph-name="thanthakhatlowleftthai" 
d="M-523 1279c0 18.667 3.66895 36.502 11.002 53.502s17.166 31.667 29.499 44s26.833 22.166 43.5 29.499s34.667 11 54 11h153c9.33301 0 17 -3 23 -9s9 -13.667 9 -23s-3 -17 -9 -23s-13.667 -9 -23 -9h-165c-7.33301 0 -14.333 -1.33301 -21 -4s-12.667 -6 -18 -10
c15.333 -4 28.166 -12.333 38.499 -25s15.5 -27.334 15.5 -44.001c0 -19.333 -7 -35.833 -21 -49.5s-30.667 -20.5 -50 -20.5s-35.833 6.83301 -49.5 20.5s-20.5 30.167 -20.5 49.5v9z" />
    <glyph glyph-name="thanthakhatlowleftthai" unicode="&#xf709;" 
d="M-523 1279c0 18.667 3.66895 36.502 11.002 53.502s17.166 31.667 29.499 44s26.833 22.166 43.5 29.499s34.667 11 54 11h153c9.33301 0 17 -3 23 -9s9 -13.667 9 -23s-3 -17 -9 -23s-13.667 -9 -23 -9h-165c-7.33301 0 -14.333 -1.33301 -21 -4s-12.667 -6 -18 -10
c15.333 -4 28.166 -12.333 38.499 -25s15.5 -27.334 15.5 -44.001c0 -19.333 -7 -35.833 -21 -49.5s-30.667 -20.5 -50 -20.5s-35.833 6.83301 -49.5 20.5s-20.5 30.167 -20.5 49.5v9z" />
    <glyph glyph-name="thanthakhatlowleftthai" unicode="&#x160;" 
d="M-523 1279c0 18.667 3.66895 36.502 11.002 53.502s17.166 31.667 29.499 44s26.833 22.166 43.5 29.499s34.667 11 54 11h153c9.33301 0 17 -3 23 -9s9 -13.667 9 -23s-3 -17 -9 -23s-13.667 -9 -23 -9h-165c-7.33301 0 -14.333 -1.33301 -21 -4s-12.667 -6 -18 -10
c15.333 -4 28.166 -12.333 38.499 -25s15.5 -27.334 15.5 -44.001c0 -19.333 -7 -35.833 -21 -49.5s-30.667 -20.5 -50 -20.5s-35.833 6.83301 -49.5 20.5s-20.5 30.167 -20.5 49.5v9z" />
    <glyph glyph-name="maieklowrightthai" 
d="M-214 1468c0 9.33301 3 17 9 23s13.667 9 23 9s17 -3 23 -9s9 -13.667 9 -23v-236c0 -9.33301 -3 -17 -9 -23s-13.667 -9 -23 -9s-17 3 -23 9s-9 13.667 -9 23v236z" />
    <glyph glyph-name="maieklowrightthai" unicode="&#xf70a;" 
d="M-214 1468c0 9.33301 3 17 9 23s13.667 9 23 9s17 -3 23 -9s9 -13.667 9 -23v-236c0 -9.33301 -3 -17 -9 -23s-13.667 -9 -23 -9s-17 3 -23 9s-9 13.667 -9 23v236z" />
    <glyph glyph-name="maieklowrightthai" unicode="&#x2039;" 
d="M-214 1468c0 9.33301 3 17 9 23s13.667 9 23 9s17 -3 23 -9s9 -13.667 9 -23v-236c0 -9.33301 -3 -17 -9 -23s-13.667 -9 -23 -9s-17 3 -23 9s-9 13.667 -9 23v236z" />
    <glyph glyph-name="maitholowrightthai" 
d="M-199 1416c9.33301 0 17 -3 23 -9s9 -13.667 9 -23c0 -25.333 -4.83301 -49.166 -14.5 -71.499s-22.834 -41.833 -39.501 -58.5s-36.167 -29.834 -58.5 -39.501s-46.166 -14.5 -71.499 -14.5h-267c-9.33301 0 -17 3 -23 9s-9 13.667 -9 23s3 17 9 23s13.667 9 23 9h54v46
c-16 3.33301 -29.333 11.333 -40 24s-16 27.667 -16 45c0 19.333 6.83301 36 20.5 50s30.167 21 49.5 21s36 -7 50 -21s21 -30.667 21 -50s-7 -36 -21 -50v-65h149c16.667 0 32.167 3.16699 46.5 9.5s27 15 38 26s19.667 23.667 26 38s9.5 29.833 9.5 46.5
c0 9.33301 3 17 9 23s13.667 9 23 9z" />
    <glyph glyph-name="maitholowrightthai" unicode="&#xf70b;" 
d="M-199 1416c9.33301 0 17 -3 23 -9s9 -13.667 9 -23c0 -25.333 -4.83301 -49.166 -14.5 -71.499s-22.834 -41.833 -39.501 -58.5s-36.167 -29.834 -58.5 -39.501s-46.166 -14.5 -71.499 -14.5h-267c-9.33301 0 -17 3 -23 9s-9 13.667 -9 23s3 17 9 23s13.667 9 23 9h54v46
c-16 3.33301 -29.333 11.333 -40 24s-16 27.667 -16 45c0 19.333 6.83301 36 20.5 50s30.167 21 49.5 21s36 -7 50 -21s21 -30.667 21 -50s-7 -36 -21 -50v-65h149c16.667 0 32.167 3.16699 46.5 9.5s27 15 38 26s19.667 23.667 26 38s9.5 29.833 9.5 46.5
c0 9.33301 3 17 9 23s13.667 9 23 9z" />
    <glyph glyph-name="maitholowrightthai" unicode="&#x152;" 
d="M-199 1416c9.33301 0 17 -3 23 -9s9 -13.667 9 -23c0 -25.333 -4.83301 -49.166 -14.5 -71.499s-22.834 -41.833 -39.501 -58.5s-36.167 -29.834 -58.5 -39.501s-46.166 -14.5 -71.499 -14.5h-267c-9.33301 0 -17 3 -23 9s-9 13.667 -9 23s3 17 9 23s13.667 9 23 9h54v46
c-16 3.33301 -29.333 11.333 -40 24s-16 27.667 -16 45c0 19.333 6.83301 36 20.5 50s30.167 21 49.5 21s36 -7 50 -21s21 -30.667 21 -50s-7 -36 -21 -50v-65h149c16.667 0 32.167 3.16699 46.5 9.5s27 15 38 26s19.667 23.667 26 38s9.5 29.833 9.5 46.5
c0 9.33301 3 17 9 23s13.667 9 23 9z" />
    <glyph glyph-name="maitrilowrightthai" 
d="M-663 1341c19.333 0 36.0029 -7 50.0029 -21s21 -30.667 21 -50s-7 -35.833 -21 -49.5s-30.667 -20.5 -50 -20.5s-35.833 6.83301 -49.5 20.5s-20.5 30.167 -20.5 49.5v55c0 17.333 3.33301 33.5 10 48.5s15.667 28.167 27 39.5s24.5 20.333 39.5 27s31.167 10 48.5 10
c18.667 0 36 -3.66699 52 -11s29.667 -17.333 41 -30c11.333 12.667 25 22.667 41 30s33.333 11 52 11c17.333 0 33.666 -3.33301 48.999 -10s28.666 -15.5 39.999 -26.5s20.166 -24.167 26.499 -39.5s9.5 -31.333 9.5 -48v-53c0 -6 3 -9 9 -9h105c9.33301 0 17 -3 23 -9
s9 -13.667 9 -23s-3 -17 -9 -23s-13.667 -9 -23 -9h-146c-9.33301 0 -17 3 -23 9s-9 13.667 -9 23v94c0 17.333 -5.83301 31.833 -17.5 43.5s-26.167 17.5 -43.5 17.5c-16.667 0 -30.667 -5.5 -42 -16.5s-17.666 -24.167 -18.999 -39.5v-99c0 -9.33301 -3 -17 -9 -23
s-13.667 -9 -23 -9s-17 3 -23 9s-9 13.667 -9 23v98c-1.33301 16 -7.83301 29.5 -19.5 40.5s-25.5 16.5 -41.5 16.5c-14.667 0 -27.334 -4.33301 -38.001 -13s-17.667 -19.667 -21 -33h4z" />
    <glyph glyph-name="maitrilowrightthai" unicode="&#xf70c;" 
d="M-663 1341c19.333 0 36.0029 -7 50.0029 -21s21 -30.667 21 -50s-7 -35.833 -21 -49.5s-30.667 -20.5 -50 -20.5s-35.833 6.83301 -49.5 20.5s-20.5 30.167 -20.5 49.5v55c0 17.333 3.33301 33.5 10 48.5s15.667 28.167 27 39.5s24.5 20.333 39.5 27s31.167 10 48.5 10
c18.667 0 36 -3.66699 52 -11s29.667 -17.333 41 -30c11.333 12.667 25 22.667 41 30s33.333 11 52 11c17.333 0 33.666 -3.33301 48.999 -10s28.666 -15.5 39.999 -26.5s20.166 -24.167 26.499 -39.5s9.5 -31.333 9.5 -48v-53c0 -6 3 -9 9 -9h105c9.33301 0 17 -3 23 -9
s9 -13.667 9 -23s-3 -17 -9 -23s-13.667 -9 -23 -9h-146c-9.33301 0 -17 3 -23 9s-9 13.667 -9 23v94c0 17.333 -5.83301 31.833 -17.5 43.5s-26.167 17.5 -43.5 17.5c-16.667 0 -30.667 -5.5 -42 -16.5s-17.666 -24.167 -18.999 -39.5v-99c0 -9.33301 -3 -17 -9 -23
s-13.667 -9 -23 -9s-17 3 -23 9s-9 13.667 -9 23v98c-1.33301 16 -7.83301 29.5 -19.5 40.5s-25.5 16.5 -41.5 16.5c-14.667 0 -27.334 -4.33301 -38.001 -13s-17.667 -19.667 -21 -33h4z" />
    <glyph glyph-name="maichattawalowrightthai" 
d="M-65 1387c9.33301 0 17 -3 23 -9s9 -13.667 9 -23s-3 -17 -9 -23s-13.667 -9 -23 -9h-85v-91c0 -9.33301 -3 -17 -9 -23s-13.667 -9 -23 -9s-17 3 -23 9s-9 13.667 -9 23v91h-87c-9.33301 0 -17 3 -23 9s-9 13.667 -9 23s3 17 9 23s13.667 9 23 9h87v81
c0 9.33301 3 17 9 23s13.667 9 23 9s17 -3 23 -9s9 -13.667 9 -23v-81h85z" />
    <glyph glyph-name="maichattawalowrightthai" unicode="&#xf70d;" 
d="M-65 1387c9.33301 0 17 -3 23 -9s9 -13.667 9 -23s-3 -17 -9 -23s-13.667 -9 -23 -9h-85v-91c0 -9.33301 -3 -17 -9 -23s-13.667 -9 -23 -9s-17 3 -23 9s-9 13.667 -9 23v91h-87c-9.33301 0 -17 3 -23 9s-9 13.667 -9 23s3 17 9 23s13.667 9 23 9h87v81
c0 9.33301 3 17 9 23s13.667 9 23 9s17 -3 23 -9s9 -13.667 9 -23v-81h85z" />
    <glyph glyph-name="maichattawalowrightthai" unicode="&#x17d;" 
d="M-65 1387c9.33301 0 17 -3 23 -9s9 -13.667 9 -23s-3 -17 -9 -23s-13.667 -9 -23 -9h-85v-91c0 -9.33301 -3 -17 -9 -23s-13.667 -9 -23 -9s-17 3 -23 9s-9 13.667 -9 23v91h-87c-9.33301 0 -17 3 -23 9s-9 13.667 -9 23s3 17 9 23s13.667 9 23 9h87v81
c0 9.33301 3 17 9 23s13.667 9 23 9s17 -3 23 -9s9 -13.667 9 -23v-81h85z" />
    <glyph glyph-name="thanthakhatlowrightthai" 
d="M-323 1279c0 18.667 3.66895 36.502 11.002 53.502s17.166 31.667 29.499 44s26.833 22.166 43.5 29.499s34.667 11 54 11h153c9.33301 0 17 -3 23 -9s9 -13.667 9 -23s-3 -17 -9 -23s-13.667 -9 -23 -9h-165c-7.33301 0 -14.333 -1.33301 -21 -4s-12.667 -6 -18 -10
c15.333 -4 28.166 -12.333 38.499 -25s15.5 -27.334 15.5 -44.001c0 -19.333 -7 -35.833 -21 -49.5s-30.667 -20.5 -50 -20.5s-35.833 6.83301 -49.5 20.5s-20.5 30.167 -20.5 49.5v9z" />
    <glyph glyph-name="thanthakhatlowrightthai" unicode="&#xf70e;" 
d="M-323 1279c0 18.667 3.66895 36.502 11.002 53.502s17.166 31.667 29.499 44s26.833 22.166 43.5 29.499s34.667 11 54 11h153c9.33301 0 17 -3 23 -9s9 -13.667 9 -23s-3 -17 -9 -23s-13.667 -9 -23 -9h-165c-7.33301 0 -14.333 -1.33301 -21 -4s-12.667 -6 -18 -10
c15.333 -4 28.166 -12.333 38.499 -25s15.5 -27.334 15.5 -44.001c0 -19.333 -7 -35.833 -21 -49.5s-30.667 -20.5 -50 -20.5s-35.833 6.83301 -49.5 20.5s-20.5 30.167 -20.5 49.5v9z" />
    <glyph glyph-name="yoyingnobasethai" horiz-adv-x="1550" 
d="M350 750c-34.667 0 -67.167 -6.5 -97.5 -19.5s-56.833 -30.833 -79.5 -53.5s-40.5 -49.167 -53.5 -79.5s-19.5 -62.833 -19.5 -97.5v-428c0 -20 6.83301 -37 20.5 -51s30.167 -21 49.5 -21s36 6.83301 50 20.5s21 30.167 21 49.5s-7 36 -21 50s-30.667 21 -50 21h-6v359
c0 26 4.83301 50.167 14.5 72.5s23 42 40 59s36.667 30.333 59 40s46.5 14.5 72.5 14.5c9.33301 0 17 3 23 9s9 13.667 9 23s-3 17 -9 23s-13.667 9 -23 9zM1400 250c0 -34.667 -6.49902 -67.1699 -19.499 -97.5029s-30.833 -56.833 -53.5 -79.5s-49.167 -40.5 -79.5 -53.5
s-62.5 -19.5 -96.5 -19.5h-251c-9.33301 0 -17 3 -23 9s-9 13.667 -9 23s3 17 9 23s13.667 9 23 9h250c26 0 50.167 4.83301 72.5 14.5s42 22.834 59 39.501s30.333 36.334 40 59.001s14.5 46.667 14.5 72v85c-26 -32 -57.833 -57.167 -95.5 -75.5s-78.5 -27.5 -122.5 -27.5
c-39.333 0 -76 7.33301 -110 22s-63.833 34.834 -89.5 60.501s-45.834 55.5 -60.501 89.5s-22 70.667 -22 110v237c0 46 -8.83301 86.833 -26.5 122.5s-41.667 65.667 -72 90s-66 42.666 -107 54.999s-84.5 18.5 -130.5 18.5s-89.5 -6.16699 -130.5 -18.5
s-76.667 -30.666 -107 -54.999s-54.333 -54.333 -72 -90s-26.5 -76.5 -26.5 -122.5c0 -9.33301 -3 -17 -9 -23s-13.667 -9 -23 -9s-17 3 -23 9s-9 13.667 -9 23c0 55.333 10.5 104.666 31.5 147.999s49.5 80 85.5 110s78.333 52.833 127 68.5s100.667 23.5 156 23.5
s107.333 -7.83301 156 -23.5s91 -38.5 127 -68.5s64.5 -66.667 85.5 -110s31.5 -92.666 31.5 -147.999v-237c0 -30 5.66699 -58.167 17 -84.5s27 -49.5 47 -69.5s43.167 -35.667 69.5 -47s54.5 -17 84.5 -17s58.167 5.66699 84.5 17s49.5 27 69.5 47s35.667 43.167 47 69.5
s17 54.5 17 84.5v555c0 9.33301 3 17 9 23s13.667 9 23 9s17 -3 23 -9s9 -13.667 9 -23v-818z" />
    <glyph glyph-name="yoyingnobasethai" unicode="&#xf70f;" horiz-adv-x="1550" 
d="M350 750c-34.667 0 -67.167 -6.5 -97.5 -19.5s-56.833 -30.833 -79.5 -53.5s-40.5 -49.167 -53.5 -79.5s-19.5 -62.833 -19.5 -97.5v-428c0 -20 6.83301 -37 20.5 -51s30.167 -21 49.5 -21s36 6.83301 50 20.5s21 30.167 21 49.5s-7 36 -21 50s-30.667 21 -50 21h-6v359
c0 26 4.83301 50.167 14.5 72.5s23 42 40 59s36.667 30.333 59 40s46.5 14.5 72.5 14.5c9.33301 0 17 3 23 9s9 13.667 9 23s-3 17 -9 23s-13.667 9 -23 9zM1400 250c0 -34.667 -6.49902 -67.1699 -19.499 -97.5029s-30.833 -56.833 -53.5 -79.5s-49.167 -40.5 -79.5 -53.5
s-62.5 -19.5 -96.5 -19.5h-251c-9.33301 0 -17 3 -23 9s-9 13.667 -9 23s3 17 9 23s13.667 9 23 9h250c26 0 50.167 4.83301 72.5 14.5s42 22.834 59 39.501s30.333 36.334 40 59.001s14.5 46.667 14.5 72v85c-26 -32 -57.833 -57.167 -95.5 -75.5s-78.5 -27.5 -122.5 -27.5
c-39.333 0 -76 7.33301 -110 22s-63.833 34.834 -89.5 60.501s-45.834 55.5 -60.501 89.5s-22 70.667 -22 110v237c0 46 -8.83301 86.833 -26.5 122.5s-41.667 65.667 -72 90s-66 42.666 -107 54.999s-84.5 18.5 -130.5 18.5s-89.5 -6.16699 -130.5 -18.5
s-76.667 -30.666 -107 -54.999s-54.333 -54.333 -72 -90s-26.5 -76.5 -26.5 -122.5c0 -9.33301 -3 -17 -9 -23s-13.667 -9 -23 -9s-17 3 -23 9s-9 13.667 -9 23c0 55.333 10.5 104.666 31.5 147.999s49.5 80 85.5 110s78.333 52.833 127 68.5s100.667 23.5 156 23.5
s107.333 -7.83301 156 -23.5s91 -38.5 127 -68.5s64.5 -66.667 85.5 -110s31.5 -92.666 31.5 -147.999v-237c0 -30 5.66699 -58.167 17 -84.5s27 -49.5 47 -69.5s43.167 -35.667 69.5 -47s54.5 -17 84.5 -17s58.167 5.66699 84.5 17s49.5 27 69.5 47s35.667 43.167 47 69.5
s17 54.5 17 84.5v555c0 9.33301 3 17 9 23s13.667 9 23 9s17 -3 23 -9s9 -13.667 9 -23v-818z" />
    <glyph glyph-name="quoteleft" horiz-adv-x="342" 
d="M186 1269c16 -3.33301 29.333 -11.333 40 -24s16 -27.667 16 -45c0 -19.333 -6.83301 -36 -20.5 -50s-30.167 -21 -49.5 -21s-36 7 -50 21s-21 30.667 -21 50s7 36 21 50v146c0 9.33301 3 17 9 23s13.667 9 23 9s17 -3 23 -9s9 -13.667 9 -23v-127z" />
    <glyph glyph-name="quoteleft" unicode="&#x2018;" horiz-adv-x="342" 
d="M186 1269c16 -3.33301 29.333 -11.333 40 -24s16 -27.667 16 -45c0 -19.333 -6.83301 -36 -20.5 -50s-30.167 -21 -49.5 -21s-36 7 -50 21s-21 30.667 -21 50s7 36 21 50v146c0 9.33301 3 17 9 23s13.667 9 23 9s17 -3 23 -9s9 -13.667 9 -23v-127z" />
    <glyph glyph-name="quoteright" horiz-adv-x="358" 
d="M106 1288c-16 3.33301 -29.333 11.333 -40 24s-16 27.667 -16 45c0 19.333 6.83301 36 20.5 50s30.167 21 49.5 21s36 -7 50 -21s21 -30.667 21 -50s-7 -36 -21 -50v-146c0 -9.33301 -3 -17 -9 -23s-13.667 -9 -23 -9s-17 3 -23 9s-9 13.667 -9 23v127z" />
    <glyph glyph-name="quoteright" unicode="&#x2019;" horiz-adv-x="358" 
d="M106 1288c-16 3.33301 -29.333 11.333 -40 24s-16 27.667 -16 45c0 19.333 6.83301 36 20.5 50s30.167 21 49.5 21s36 -7 50 -21s21 -30.667 21 -50s-7 -36 -21 -50v-146c0 -9.33301 -3 -17 -9 -23s-13.667 -9 -23 -9s-17 3 -23 9s-9 13.667 -9 23v127z" />
    <glyph glyph-name="bullet" horiz-adv-x="800" 
 />
    <glyph glyph-name="bullet" unicode="&#x2022;" horiz-adv-x="800" 
 />
    <glyph glyph-name="endash" horiz-adv-x="600" 
d="M568 751c9.33301 0 17 -3 23 -9s9 -13.667 9 -23s-3 -17 -9 -23s-13.667 -9 -23 -9h-538c-8 0 -15 3 -21 9s-9 13.667 -9 23s3 17 9 23s13.667 9 23 9h536z" />
    <glyph glyph-name="endash" unicode="&#x2013;" horiz-adv-x="600" 
d="M568 751c9.33301 0 17 -3 23 -9s9 -13.667 9 -23s-3 -17 -9 -23s-13.667 -9 -23 -9h-538c-8 0 -15 3 -21 9s-9 13.667 -9 23s3 17 9 23s13.667 9 23 9h536z" />
    <glyph glyph-name="emdash" horiz-adv-x="1051" 
d="M1019 751c9.33301 0 17 -3 23 -9s9 -13.667 9 -23s-3 -17 -9 -23s-13.667 -9 -23 -9h-989c-8 0 -15 3 -21 9s-9 13.667 -9 23s3 17 9 23s13.667 9 23 9h987z" />
    <glyph glyph-name="emdash" unicode="&#x2014;" horiz-adv-x="1051" 
d="M1019 751c9.33301 0 17 -3 23 -9s9 -13.667 9 -23s-3 -17 -9 -23s-13.667 -9 -23 -9h-989c-8 0 -15 3 -21 9s-9 13.667 -9 23s3 17 9 23s13.667 9 23 9h987z" />
    <glyph glyph-name="maihanakatleftthai" 
d="M-618 1250c-18 0 -34.001 5.16797 -48.001 15.501s-23.667 23.5 -29 39.5c-3.33301 8.66699 -5 17.667 -5 27c0.666992 19.333 7.83398 35.666 21.501 48.999s30.167 20 49.5 20s35.833 -7 49.5 -21s20.5 -30.667 20.5 -50c0 -4 -0.666992 -9.33301 -2 -16h778
c9.33301 0 17 -3 23 -9s9 -13.667 9 -23s-3 -17 -9 -23s-13.667 -9 -23 -9h-835z" />
    <glyph glyph-name="maihanakatleftthai" unicode="&#xf710;" 
d="M-618 1250c-18 0 -34.001 5.16797 -48.001 15.501s-23.667 23.5 -29 39.5c-3.33301 8.66699 -5 17.667 -5 27c0.666992 19.333 7.83398 35.666 21.501 48.999s30.167 20 49.5 20s35.833 -7 49.5 -21s20.5 -30.667 20.5 -50c0 -4 -0.666992 -9.33301 -2 -16h778
c9.33301 0 17 -3 23 -9s9 -13.667 9 -23s-3 -17 -9 -23s-13.667 -9 -23 -9h-835z" />
    <glyph glyph-name="maihanakatleftthai" unicode="&#x2dc;" 
d="M-618 1250c-18 0 -34.001 5.16797 -48.001 15.501s-23.667 23.5 -29 39.5c-3.33301 8.66699 -5 17.667 -5 27c0.666992 19.333 7.83398 35.666 21.501 48.999s30.167 20 49.5 20s35.833 -7 49.5 -21s20.5 -30.667 20.5 -50c0 -4 -0.666992 -9.33301 -2 -16h778
c9.33301 0 17 -3 23 -9s9 -13.667 9 -23s-3 -17 -9 -23s-13.667 -9 -23 -9h-835z" />
    <glyph glyph-name="nikhahitleftthai" 
d="M-391 1270c0 19.333 6.83301 36 20.5 50s30.167 21 49.5 21s36 -7 50 -21s21 -30.667 21 -50s-7 -35.833 -21 -49.5s-30.667 -20.5 -50 -20.5s-35.833 6.83301 -49.5 20.5s-20.5 30.167 -20.5 49.5z" />
    <glyph glyph-name="nikhahitleftthai" unicode="&#xf711;" 
d="M-391 1270c0 19.333 6.83301 36 20.5 50s30.167 21 49.5 21s36 -7 50 -21s21 -30.667 21 -50s-7 -35.833 -21 -49.5s-30.667 -20.5 -50 -20.5s-35.833 6.83301 -49.5 20.5s-20.5 30.167 -20.5 49.5z" />
    <glyph glyph-name="nikhahitleftthai" unicode="&#x2122;" 
d="M-391 1270c0 19.333 6.83301 36 20.5 50s30.167 21 49.5 21s36 -7 50 -21s21 -30.667 21 -50s-7 -35.833 -21 -49.5s-30.667 -20.5 -50 -20.5s-35.833 6.83301 -49.5 20.5s-20.5 30.167 -20.5 49.5z" />
    <glyph glyph-name="maitaikhuleftthai" horiz-adv-x="6" 
d="M-260 1531c9.33301 0 16.998 -3 22.998 -9s9 -13.667 9 -23s-3 -17 -9 -23s-13.667 -9 -23 -9h-440c-14 0 -27.167 -2.66699 -39.5 -8s-23.166 -12.666 -32.499 -21.999s-16.666 -20.166 -21.999 -32.499s-8 -25.5 -8 -39.5s2.66699 -27.167 8 -39.5
s12.666 -23 21.999 -32s20.166 -16.167 32.499 -21.5s25.5 -8 39.5 -8c12 0 23.833 2.5 35.5 7.5s21.834 11.667 30.501 20s15.667 18.166 21 29.499s8 23 8 35c0 9.33301 3 17 9 23s13.667 9 23 9s17 -3 23 -9s9 -13.667 9 -23v-4c0 -24.667 8.66699 -45.5 26 -62.5
s38.333 -25.5 63 -25.5c25.333 0 46.333 7.33301 63 22c-13.333 5.33301 -24.333 13.833 -33 25.5s-13 25.167 -13 40.5c0 19.333 6.83301 36 20.5 50s30.167 21 49.5 21s36 -7 50 -21s21 -30.667 21 -50c0 -21.333 -4.16699 -41.333 -12.5 -60s-19.5 -34.834 -33.5 -48.501
s-30.5 -24.334 -49.5 -32.001s-39.167 -11.5 -60.5 -11.5c-25.333 0 -48.666 5.33301 -69.999 16s-39.333 25.334 -54 44.001c-14 -18 -32.167 -32.5 -54.5 -43.5s-46.166 -16.5 -71.499 -16.5c-22.667 0 -44.334 4.33301 -65.001 13s-38.667 20.5 -54 35.5
s-27.666 32.5 -36.999 52.5s-14 41.333 -14 64s4.33301 44.167 13 64.5s20.5 38 35.5 53s32.667 26.833 53 35.5s42.166 13 65.499 13h443v0z" />
    <glyph glyph-name="maitaikhuleftthai" unicode="&#xf712;" horiz-adv-x="6" 
d="M-260 1531c9.33301 0 16.998 -3 22.998 -9s9 -13.667 9 -23s-3 -17 -9 -23s-13.667 -9 -23 -9h-440c-14 0 -27.167 -2.66699 -39.5 -8s-23.166 -12.666 -32.499 -21.999s-16.666 -20.166 -21.999 -32.499s-8 -25.5 -8 -39.5s2.66699 -27.167 8 -39.5
s12.666 -23 21.999 -32s20.166 -16.167 32.499 -21.5s25.5 -8 39.5 -8c12 0 23.833 2.5 35.5 7.5s21.834 11.667 30.501 20s15.667 18.166 21 29.499s8 23 8 35c0 9.33301 3 17 9 23s13.667 9 23 9s17 -3 23 -9s9 -13.667 9 -23v-4c0 -24.667 8.66699 -45.5 26 -62.5
s38.333 -25.5 63 -25.5c25.333 0 46.333 7.33301 63 22c-13.333 5.33301 -24.333 13.833 -33 25.5s-13 25.167 -13 40.5c0 19.333 6.83301 36 20.5 50s30.167 21 49.5 21s36 -7 50 -21s21 -30.667 21 -50c0 -21.333 -4.16699 -41.333 -12.5 -60s-19.5 -34.834 -33.5 -48.501
s-30.5 -24.334 -49.5 -32.001s-39.167 -11.5 -60.5 -11.5c-25.333 0 -48.666 5.33301 -69.999 16s-39.333 25.334 -54 44.001c-14 -18 -32.167 -32.5 -54.5 -43.5s-46.166 -16.5 -71.499 -16.5c-22.667 0 -44.334 4.33301 -65.001 13s-38.667 20.5 -54 35.5
s-27.666 32.5 -36.999 52.5s-14 41.333 -14 64s4.33301 44.167 13 64.5s20.5 38 35.5 53s32.667 26.833 53 35.5s42.166 13 65.499 13h443v0z" />
    <glyph glyph-name="maitaikhuleftthai" unicode="&#x161;" horiz-adv-x="6" 
d="M-260 1531c9.33301 0 16.998 -3 22.998 -9s9 -13.667 9 -23s-3 -17 -9 -23s-13.667 -9 -23 -9h-440c-14 0 -27.167 -2.66699 -39.5 -8s-23.166 -12.666 -32.499 -21.999s-16.666 -20.166 -21.999 -32.499s-8 -25.5 -8 -39.5s2.66699 -27.167 8 -39.5
s12.666 -23 21.999 -32s20.166 -16.167 32.499 -21.5s25.5 -8 39.5 -8c12 0 23.833 2.5 35.5 7.5s21.834 11.667 30.501 20s15.667 18.166 21 29.499s8 23 8 35c0 9.33301 3 17 9 23s13.667 9 23 9s17 -3 23 -9s9 -13.667 9 -23v-4c0 -24.667 8.66699 -45.5 26 -62.5
s38.333 -25.5 63 -25.5c25.333 0 46.333 7.33301 63 22c-13.333 5.33301 -24.333 13.833 -33 25.5s-13 25.167 -13 40.5c0 19.333 6.83301 36 20.5 50s30.167 21 49.5 21s36 -7 50 -21s21 -30.667 21 -50c0 -21.333 -4.16699 -41.333 -12.5 -60s-19.5 -34.834 -33.5 -48.501
s-30.5 -24.334 -49.5 -32.001s-39.167 -11.5 -60.5 -11.5c-25.333 0 -48.666 5.33301 -69.999 16s-39.333 25.334 -54 44.001c-14 -18 -32.167 -32.5 -54.5 -43.5s-46.166 -16.5 -71.499 -16.5c-22.667 0 -44.334 4.33301 -65.001 13s-38.667 20.5 -54 35.5
s-27.666 32.5 -36.999 52.5s-14 41.333 -14 64s4.33301 44.167 13 64.5s20.5 38 35.5 53s32.667 26.833 53 35.5s42.166 13 65.499 13h443v0z" />
    <glyph glyph-name="maiekupperleftthai" 
d="M-314 1668c0 9.33301 3 17 9 23s13.667 9 23 9s17 -3 23 -9s9 -13.667 9 -23v-136c0 -9.33301 -3 -17 -9 -23s-13.667 -9 -23 -9s-17 3 -23 9s-9 13.667 -9 23v136z" />
    <glyph glyph-name="maiekupperleftthai" unicode="&#xf713;" 
d="M-314 1668c0 9.33301 3 17 9 23s13.667 9 23 9s17 -3 23 -9s9 -13.667 9 -23v-136c0 -9.33301 -3 -17 -9 -23s-13.667 -9 -23 -9s-17 3 -23 9s-9 13.667 -9 23v136z" />
    <glyph glyph-name="maiekupperleftthai" unicode="&#x203a;" 
d="M-314 1668c0 9.33301 3 17 9 23s13.667 9 23 9s17 -3 23 -9s9 -13.667 9 -23v-136c0 -9.33301 -3 -17 -9 -23s-13.667 -9 -23 -9s-17 3 -23 9s-9 13.667 -9 23v136z" />
    <glyph glyph-name="maithoupperleftthai" 
d="M-199 1666c9.33301 0 17 -3 23 -9s9 -13.667 9 -23c0 -25.333 -4.83301 -49.166 -14.5 -71.499s-22.834 -41.833 -39.501 -58.5s-36.167 -29.834 -58.5 -39.501s-46.166 -14.5 -71.499 -14.5h-267c-9.33301 0 -17 3 -23 9s-9 13.667 -9 23s3 17 9 23s13.667 9 23 9h54v46
c-16 3.33301 -29.333 11.333 -40 24s-16 27.667 -16 45c0 19.333 6.83301 36 20.5 50s30.167 21 49.5 21s36 -7 50 -21s21 -30.667 21 -50s-7 -36 -21 -50v-65h149c16.667 0 32.167 3.16699 46.5 9.5s27 15 38 26s19.667 23.667 26 38s9.5 29.833 9.5 46.5
c0 9.33301 3 17 9 23s13.667 9 23 9z" />
    <glyph glyph-name="maithoupperleftthai" unicode="&#xf714;" 
d="M-199 1666c9.33301 0 17 -3 23 -9s9 -13.667 9 -23c0 -25.333 -4.83301 -49.166 -14.5 -71.499s-22.834 -41.833 -39.501 -58.5s-36.167 -29.834 -58.5 -39.501s-46.166 -14.5 -71.499 -14.5h-267c-9.33301 0 -17 3 -23 9s-9 13.667 -9 23s3 17 9 23s13.667 9 23 9h54v46
c-16 3.33301 -29.333 11.333 -40 24s-16 27.667 -16 45c0 19.333 6.83301 36 20.5 50s30.167 21 49.5 21s36 -7 50 -21s21 -30.667 21 -50s-7 -36 -21 -50v-65h149c16.667 0 32.167 3.16699 46.5 9.5s27 15 38 26s19.667 23.667 26 38s9.5 29.833 9.5 46.5
c0 9.33301 3 17 9 23s13.667 9 23 9z" />
    <glyph glyph-name="maithoupperleftthai" unicode="&#x153;" 
d="M-199 1666c9.33301 0 17 -3 23 -9s9 -13.667 9 -23c0 -25.333 -4.83301 -49.166 -14.5 -71.499s-22.834 -41.833 -39.501 -58.5s-36.167 -29.834 -58.5 -39.501s-46.166 -14.5 -71.499 -14.5h-267c-9.33301 0 -17 3 -23 9s-9 13.667 -9 23s3 17 9 23s13.667 9 23 9h54v46
c-16 3.33301 -29.333 11.333 -40 24s-16 27.667 -16 45c0 19.333 6.83301 36 20.5 50s30.167 21 49.5 21s36 -7 50 -21s21 -30.667 21 -50s-7 -36 -21 -50v-65h149c16.667 0 32.167 3.16699 46.5 9.5s27 15 38 26s19.667 23.667 26 38s9.5 29.833 9.5 46.5
c0 9.33301 3 17 9 23s13.667 9 23 9z" />
    <glyph glyph-name="maitriupperleftthai" 
d="M-762 1591c19.333 0 36.0029 -7 50.0029 -21s21 -30.667 21 -50s-7 -35.833 -21 -49.5s-30.667 -20.5 -50 -20.5s-35.833 6.83301 -49.5 20.5s-20.5 30.167 -20.5 49.5v55c0 17.333 3.33301 33.5 10 48.5s15.667 28.167 27 39.5s24.5 20.333 39.5 27s31.167 10 48.5 10
c18.667 0 36 -3.66699 52 -11s29.667 -17.333 41 -30c11.333 12.667 25 22.667 41 30s33.333 11 52 11c17.333 0 33.666 -3.33301 48.999 -10s28.666 -15.5 39.999 -26.5s20.166 -24.167 26.499 -39.5s9.5 -31.333 9.5 -48v-53c0 -6 3 -9 9 -9h105c9.33301 0 17 -3 23 -9
s9 -13.667 9 -23s-3 -17 -9 -23s-13.667 -9 -23 -9h-146c-9.33301 0 -17 3 -23 9s-9 13.667 -9 23v94c0 17.333 -5.83301 31.833 -17.5 43.5s-26.167 17.5 -43.5 17.5c-16.667 0 -30.667 -5.5 -42 -16.5s-17.666 -24.167 -18.999 -39.5v-99c0 -9.33301 -3 -17 -9 -23
s-13.667 -9 -23 -9s-17 3 -23 9s-9 13.667 -9 23v98c-1.33301 16 -7.83301 29.5 -19.5 40.5s-25.5 16.5 -41.5 16.5c-14.667 0 -27.334 -4.33301 -38.001 -13s-17.667 -19.667 -21 -33h4z" />
    <glyph glyph-name="maitriupperleftthai" unicode="&#xf715;" 
d="M-762 1591c19.333 0 36.0029 -7 50.0029 -21s21 -30.667 21 -50s-7 -35.833 -21 -49.5s-30.667 -20.5 -50 -20.5s-35.833 6.83301 -49.5 20.5s-20.5 30.167 -20.5 49.5v55c0 17.333 3.33301 33.5 10 48.5s15.667 28.167 27 39.5s24.5 20.333 39.5 27s31.167 10 48.5 10
c18.667 0 36 -3.66699 52 -11s29.667 -17.333 41 -30c11.333 12.667 25 22.667 41 30s33.333 11 52 11c17.333 0 33.666 -3.33301 48.999 -10s28.666 -15.5 39.999 -26.5s20.166 -24.167 26.499 -39.5s9.5 -31.333 9.5 -48v-53c0 -6 3 -9 9 -9h105c9.33301 0 17 -3 23 -9
s9 -13.667 9 -23s-3 -17 -9 -23s-13.667 -9 -23 -9h-146c-9.33301 0 -17 3 -23 9s-9 13.667 -9 23v94c0 17.333 -5.83301 31.833 -17.5 43.5s-26.167 17.5 -43.5 17.5c-16.667 0 -30.667 -5.5 -42 -16.5s-17.666 -24.167 -18.999 -39.5v-99c0 -9.33301 -3 -17 -9 -23
s-13.667 -9 -23 -9s-17 3 -23 9s-9 13.667 -9 23v98c-1.33301 16 -7.83301 29.5 -19.5 40.5s-25.5 16.5 -41.5 16.5c-14.667 0 -27.334 -4.33301 -38.001 -13s-17.667 -19.667 -21 -33h4z" />
    <glyph glyph-name="maichattawaupperleftthai" 
d="M-212 1608c9.33301 0 17 -3 23 -9s9 -13.667 9 -23s-3 -17 -9 -23s-13.667 -9 -23 -9h-56v-62c0 -9.33301 -3 -17 -9 -23s-13.667 -9 -23 -9s-17 3 -23 9s-9 13.667 -9 23v62h-61c-9.33301 0 -17 3 -23 9s-9 13.667 -9 23s3 17 9 23s13.667 9 23 9h61v60
c0 9.33301 3 17 9 23s13.667 9 23 9s17 -3 23 -9s9 -13.667 9 -23v-60h56z" />
    <glyph glyph-name="maichattawaupperleftthai" unicode="&#xf716;" 
d="M-212 1608c9.33301 0 17 -3 23 -9s9 -13.667 9 -23s-3 -17 -9 -23s-13.667 -9 -23 -9h-56v-62c0 -9.33301 -3 -17 -9 -23s-13.667 -9 -23 -9s-17 3 -23 9s-9 13.667 -9 23v62h-61c-9.33301 0 -17 3 -23 9s-9 13.667 -9 23s3 17 9 23s13.667 9 23 9h61v60
c0 9.33301 3 17 9 23s13.667 9 23 9s17 -3 23 -9s9 -13.667 9 -23v-60h56z" />
    <glyph glyph-name="maichattawaupperleftthai" unicode="&#x17e;" 
d="M-212 1608c9.33301 0 17 -3 23 -9s9 -13.667 9 -23s-3 -17 -9 -23s-13.667 -9 -23 -9h-56v-62c0 -9.33301 -3 -17 -9 -23s-13.667 -9 -23 -9s-17 3 -23 9s-9 13.667 -9 23v62h-61c-9.33301 0 -17 3 -23 9s-9 13.667 -9 23s3 17 9 23s13.667 9 23 9h61v60
c0 9.33301 3 17 9 23s13.667 9 23 9s17 -3 23 -9s9 -13.667 9 -23v-60h56z" />
    <glyph glyph-name="thanthakhatupperleftthai" 
d="M-323 1495c0 18.667 3.66895 36.502 11.002 53.502s17.166 31.667 29.499 44s26.833 22.166 43.5 29.499s34.667 11 54 11h153c9.33301 0 17 -3 23 -9s9 -13.667 9 -23s-3 -17 -9 -23s-13.667 -9 -23 -9h-165c-7.33301 0 -14.333 -1.33301 -21 -4s-12.667 -6 -18 -10
c15.333 -4 28.166 -12.333 38.499 -25s15.5 -27.334 15.5 -44.001c0 -19.333 -7 -35.833 -21 -49.5s-30.667 -20.5 -50 -20.5s-35.833 6.83301 -49.5 20.5s-20.5 30.167 -20.5 49.5v9z" />
    <glyph glyph-name="thanthakhatupperleftthai" unicode="&#xf717;" 
d="M-323 1495c0 18.667 3.66895 36.502 11.002 53.502s17.166 31.667 29.499 44s26.833 22.166 43.5 29.499s34.667 11 54 11h153c9.33301 0 17 -3 23 -9s9 -13.667 9 -23s-3 -17 -9 -23s-13.667 -9 -23 -9h-165c-7.33301 0 -14.333 -1.33301 -21 -4s-12.667 -6 -18 -10
c15.333 -4 28.166 -12.333 38.499 -25s15.5 -27.334 15.5 -44.001c0 -19.333 -7 -35.833 -21 -49.5s-30.667 -20.5 -50 -20.5s-35.833 6.83301 -49.5 20.5s-20.5 30.167 -20.5 49.5v9z" />
    <glyph glyph-name="thanthakhatupperleftthai" unicode="&#x178;" 
d="M-323 1495c0 18.667 3.66895 36.502 11.002 53.502s17.166 31.667 29.499 44s26.833 22.166 43.5 29.499s34.667 11 54 11h153c9.33301 0 17 -3 23 -9s9 -13.667 9 -23s-3 -17 -9 -23s-13.667 -9 -23 -9h-165c-7.33301 0 -14.333 -1.33301 -21 -4s-12.667 -6 -18 -10
c15.333 -4 28.166 -12.333 38.499 -25s15.5 -27.334 15.5 -44.001c0 -19.333 -7 -35.833 -21 -49.5s-30.667 -20.5 -50 -20.5s-35.833 6.83301 -49.5 20.5s-20.5 30.167 -20.5 49.5v9z" />
    <glyph glyph-name="uni00A0" unicode="&#xa0;" horiz-adv-x="925" 
 />
    <glyph glyph-name="uni00A0" unicode="&#xe00;" horiz-adv-x="925" 
 />
    <glyph glyph-name="kokaithai" unicode="&#xa1;" horiz-adv-x="1050" 
d="M350 750c9.33301 0 17 -3 23 -9s9 -13.667 9 -23s-3 -17 -9 -23s-13.667 -9 -23 -9c-26 0 -50.167 -4.83301 -72.5 -14.5s-42 -23 -59 -40s-30.333 -36.667 -40 -59s-14.5 -46.5 -14.5 -72.5v-468c0 -9.33301 -3 -17 -9 -23s-13.667 -9 -23 -9s-17 3 -23 9
s-9 13.667 -9 23v468c0 34.667 6.5 67.167 19.5 97.5s30.833 56.833 53.5 79.5s49.167 40.5 79.5 53.5s62.833 19.5 97.5 19.5zM89 750c0 55.333 10.499 104.666 31.499 147.999s49.5 80 85.5 110s78.333 52.833 127 68.5s100.667 23.5 156 23.5
s107.833 -7.83301 157.5 -23.5s93.334 -38.5 131.001 -68.5s67.5 -66.667 89.5 -110s33 -92.666 33 -147.999v-718c0 -9.33301 -3 -17 -9 -23s-13.667 -9 -23 -9s-17 3 -23 9s-9 13.667 -9 23v718c0 46 -9.33301 86.833 -28 122.5s-44 65.667 -76 90s-69 42.666 -111 54.999
s-86 18.5 -132 18.5s-89.5 -6.16699 -130.5 -18.5s-76.667 -30.666 -107 -54.999s-54.333 -54.333 -72 -90s-26.5 -76.5 -26.5 -122.5c0 -9.33301 -3 -17 -9 -23s-13.667 -9 -23 -9s-17 3 -23 9s-9 13.667 -9 23z" />
    <glyph glyph-name="kokaithai" unicode="&#xe01;" horiz-adv-x="1050" 
d="M350 750c9.33301 0 17 -3 23 -9s9 -13.667 9 -23s-3 -17 -9 -23s-13.667 -9 -23 -9c-26 0 -50.167 -4.83301 -72.5 -14.5s-42 -23 -59 -40s-30.333 -36.667 -40 -59s-14.5 -46.5 -14.5 -72.5v-468c0 -9.33301 -3 -17 -9 -23s-13.667 -9 -23 -9s-17 3 -23 9
s-9 13.667 -9 23v468c0 34.667 6.5 67.167 19.5 97.5s30.833 56.833 53.5 79.5s49.167 40.5 79.5 53.5s62.833 19.5 97.5 19.5zM89 750c0 55.333 10.499 104.666 31.499 147.999s49.5 80 85.5 110s78.333 52.833 127 68.5s100.667 23.5 156 23.5
s107.833 -7.83301 157.5 -23.5s93.334 -38.5 131.001 -68.5s67.5 -66.667 89.5 -110s33 -92.666 33 -147.999v-718c0 -9.33301 -3 -17 -9 -23s-13.667 -9 -23 -9s-17 3 -23 9s-9 13.667 -9 23v718c0 46 -9.33301 86.833 -28 122.5s-44 65.667 -76 90s-69 42.666 -111 54.999
s-86 18.5 -132 18.5s-89.5 -6.16699 -130.5 -18.5s-76.667 -30.666 -107 -54.999s-54.333 -54.333 -72 -90s-26.5 -76.5 -26.5 -122.5c0 -9.33301 -3 -17 -9 -23s-13.667 -9 -23 -9s-17 3 -23 9s-9 13.667 -9 23z" />
    <glyph glyph-name="khokhaithai" unicode="&#xa2;" horiz-adv-x="950" 
d="M180 702c-4 -1.33301 -7.50098 -3.16504 -10.501 -5.49805s-4.5 -6.16602 -4.5 -11.499v-336c0 -39.333 7.5 -76.333 22.5 -111s35.333 -64.834 61 -90.501s55.834 -46 90.501 -61s71.667 -22.5 111 -22.5s76.333 7.5 111 22.5s64.834 35.333 90.501 61
s46 55.834 61 90.501s22.5 71.667 22.5 111v719c0.666992 9.33301 4 17 10 23s13.667 9 23 9s17 -3 23 -9s9 -13.667 9 -23v-718c0 -48 -9.16699 -93.333 -27.5 -136s-43.333 -79.834 -75 -111.501s-68.834 -56.667 -111.501 -75s-88 -27.5 -136 -27.5
s-93.333 9.16699 -136 27.5s-79.834 43.333 -111.501 75s-56.667 68.834 -75 111.501s-27.5 88 -27.5 136v335c0 14 1.5 25.5 4.5 34.5s7.83301 16.667 14.5 23s15.5 11.666 26.5 15.999s24.5 8.5 40.5 12.5l149 40c21.333 7.33301 37.5 20.833 48.5 40.5
s16.5 41.5 16.5 65.5c0 16.667 -3.16699 32.167 -9.5 46.5s-14.833 26.833 -25.5 37.5s-23.167 19.167 -37.5 25.5s-29.833 9.5 -46.5 9.5c-33.333 0 -61.333 -8.16699 -84 -24.5s-34 -41.166 -34 -74.499c-0.666992 -0.666992 0.666016 -7.33398 3.99902 -20.001l11 13
c5.33301 5.33301 10.166 8.66602 14.499 9.99902s8.83301 3 13.5 5c6.66699 1.33301 11.667 2 15 2c18.667 0 35.334 -6.33301 50.001 -19l7 -6c7.33301 -9.33301 12 -19 14 -29c1.33301 -6.66699 2 -12 2 -16c0 -16.667 -6 -32.667 -18 -48l-5 -6
c-7.33301 -7.33301 -15 -12 -23 -14c-10.667 -2.66699 -21.334 -4 -32.001 -4c-11.333 0 -21.5 1.83301 -30.5 5.5s-19.167 9.16699 -30.5 16.5c-1.33301 1.33301 -2.66602 2.16602 -3.99902 2.49902s-2.66602 1.16602 -3.99902 2.49902c-7.33301 6 -15 14.833 -23 26.5
s-14.333 26.167 -19 43.5c-1.33301 4.66699 -2.5 9.5 -3.5 14.5s-1.5 11.167 -1.5 18.5v16c0 23.333 5.16699 44.166 15.5 62.499s24 34 41 47s36.5 22.833 58.5 29.5s44.667 10 68 10c24.667 0 48.334 -5 71.001 -15s42.334 -23.333 59.001 -40s30 -36.167 40 -58.5
s15 -45.833 15 -70.5v-7.5c0 -2.33301 -0.333008 -5.16602 -1 -8.49902c-1.33301 -17.333 -4.83301 -33.833 -10.5 -49.5s-12.834 -30 -21.501 -43s-18.5 -24.167 -29.5 -33.5s-22.833 -15.666 -35.5 -18.999z" />
    <glyph glyph-name="khokhaithai" unicode="&#xe02;" horiz-adv-x="950" 
d="M180 702c-4 -1.33301 -7.50098 -3.16504 -10.501 -5.49805s-4.5 -6.16602 -4.5 -11.499v-336c0 -39.333 7.5 -76.333 22.5 -111s35.333 -64.834 61 -90.501s55.834 -46 90.501 -61s71.667 -22.5 111 -22.5s76.333 7.5 111 22.5s64.834 35.333 90.501 61
s46 55.834 61 90.501s22.5 71.667 22.5 111v719c0.666992 9.33301 4 17 10 23s13.667 9 23 9s17 -3 23 -9s9 -13.667 9 -23v-718c0 -48 -9.16699 -93.333 -27.5 -136s-43.333 -79.834 -75 -111.501s-68.834 -56.667 -111.501 -75s-88 -27.5 -136 -27.5
s-93.333 9.16699 -136 27.5s-79.834 43.333 -111.501 75s-56.667 68.834 -75 111.501s-27.5 88 -27.5 136v335c0 14 1.5 25.5 4.5 34.5s7.83301 16.667 14.5 23s15.5 11.666 26.5 15.999s24.5 8.5 40.5 12.5l149 40c21.333 7.33301 37.5 20.833 48.5 40.5
s16.5 41.5 16.5 65.5c0 16.667 -3.16699 32.167 -9.5 46.5s-14.833 26.833 -25.5 37.5s-23.167 19.167 -37.5 25.5s-29.833 9.5 -46.5 9.5c-33.333 0 -61.333 -8.16699 -84 -24.5s-34 -41.166 -34 -74.499c-0.666992 -0.666992 0.666016 -7.33398 3.99902 -20.001l11 13
c5.33301 5.33301 10.166 8.66602 14.499 9.99902s8.83301 3 13.5 5c6.66699 1.33301 11.667 2 15 2c18.667 0 35.334 -6.33301 50.001 -19l7 -6c7.33301 -9.33301 12 -19 14 -29c1.33301 -6.66699 2 -12 2 -16c0 -16.667 -6 -32.667 -18 -48l-5 -6
c-7.33301 -7.33301 -15 -12 -23 -14c-10.667 -2.66699 -21.334 -4 -32.001 -4c-11.333 0 -21.5 1.83301 -30.5 5.5s-19.167 9.16699 -30.5 16.5c-1.33301 1.33301 -2.66602 2.16602 -3.99902 2.49902s-2.66602 1.16602 -3.99902 2.49902c-7.33301 6 -15 14.833 -23 26.5
s-14.333 26.167 -19 43.5c-1.33301 4.66699 -2.5 9.5 -3.5 14.5s-1.5 11.167 -1.5 18.5v16c0 23.333 5.16699 44.166 15.5 62.499s24 34 41 47s36.5 22.833 58.5 29.5s44.667 10 68 10c24.667 0 48.334 -5 71.001 -15s42.334 -23.333 59.001 -40s30 -36.167 40 -58.5
s15 -45.833 15 -70.5v-7.5c0 -2.33301 -0.333008 -5.16602 -1 -8.49902c-1.33301 -17.333 -4.83301 -33.833 -10.5 -49.5s-12.834 -30 -21.501 -43s-18.5 -24.167 -29.5 -33.5s-22.833 -15.666 -35.5 -18.999z" />
    <glyph glyph-name="khokhuatthai" unicode="&#xa3;" horiz-adv-x="1077" 
d="M291 981c0 -9.33301 -2.99707 -17.1641 -8.99707 -23.4971s-13.667 -9.5 -23 -9.5s-17 3 -23 9s-9 13.667 -9 23c-1.33301 16 -7.83301 29.5 -19.5 40.5s-25.5 16.5 -41.5 16.5c-17.333 0 -32.166 -5.5 -44.499 -16.5s-18.5 -25.167 -18.5 -42.5
c0 -12 1.66699 -24.333 5 -37l11 13c5.33301 5.33301 10.166 8.66602 14.499 9.99902s8.83301 3 13.5 5c6.66699 1.33301 11.667 2 15 2c18.667 0 35.334 -6.33301 50.001 -19l7 -6c7.33301 -9.33301 12 -19 14 -29c1.33301 -6.66699 2 -12 2 -16
c0 -16.667 -6 -32.667 -18 -48l-5 -6c-7.33301 -7.33301 -15 -12 -23 -14c-10.667 -2.66699 -21.334 -4 -32.001 -4c-11.333 0 -21.5 1.83301 -30.5 5.5s-19.167 9.16699 -30.5 16.5c-1.33301 1.33301 -2.66602 2.16602 -3.99902 2.49902s-2.66602 1.16602 -3.99902 2.49902
c-7.33301 6 -15 14.833 -23 26.5s-14.333 26.167 -19 43.5c-1.33301 4.66699 -2.5 9.5 -3.5 14.5s-1.5 11.167 -1.5 18.5v16c1.33301 17.333 5.33301 33.5 12 48.5s15.5 28.167 26.5 39.5s23.833 20.333 38.5 27s30.667 10 48 10c18.667 0 36 -3.66699 52 -11
s29.667 -17.333 41 -30c11.333 12.667 25 22.667 41 30s33.333 11 52 11c17.333 0 33.666 -3.33301 48.999 -10s28.666 -15.5 39.999 -26.5s20.166 -24.167 26.499 -39.5s9.5 -31.333 9.5 -48v-143c0 -19.333 -2.33301 -35.666 -7 -48.999s-18.334 -24 -41.001 -32l-122 -35
c-4 -1.33301 -7.5 -3.16602 -10.5 -5.49902s-4.5 -6.16602 -4.5 -11.499v-351c0 -39.333 7.5 -76.333 22.5 -111s35.333 -64.834 61 -90.501s55.834 -46 90.501 -61s71.667 -22.5 111 -22.5s76.333 7.5 111 22.5s65 35.5 91 61.5s46.5 56.333 61.5 91s22.5 71.667 22.5 111
v718c0 9.33301 3 17 9 23s13.667 9 23 9s17 -3 23 -9s9 -13.667 9 -23v-718c0 -48 -9.16699 -93.333 -27.5 -136s-43.333 -79.834 -75 -111.501s-68.834 -56.667 -111.501 -75s-88 -27.5 -136 -27.5s-93.333 9.16699 -136 27.5s-79.834 43.333 -111.501 75
s-56.667 68.834 -75 111.501s-27.5 88 -27.5 136v350c0 14 1.5 25.667 4.5 35s7.83301 17.166 14.5 23.499s15.5 11.5 26.5 15.5s24.5 8 40.5 12l82 20c7.33301 2 12.166 5.16699 14.499 9.5s3.5 10.166 3.5 17.499v143c0 17.333 -5.83301 31.833 -17.5 43.5
s-26.167 17.5 -43.5 17.5c-16.667 0 -30.667 -5.5 -42 -16.5s-17.666 -24.167 -18.999 -39.5z" />
    <glyph glyph-name="khokhuatthai" unicode="&#xe03;" horiz-adv-x="1077" 
d="M291 981c0 -9.33301 -2.99707 -17.1641 -8.99707 -23.4971s-13.667 -9.5 -23 -9.5s-17 3 -23 9s-9 13.667 -9 23c-1.33301 16 -7.83301 29.5 -19.5 40.5s-25.5 16.5 -41.5 16.5c-17.333 0 -32.166 -5.5 -44.499 -16.5s-18.5 -25.167 -18.5 -42.5
c0 -12 1.66699 -24.333 5 -37l11 13c5.33301 5.33301 10.166 8.66602 14.499 9.99902s8.83301 3 13.5 5c6.66699 1.33301 11.667 2 15 2c18.667 0 35.334 -6.33301 50.001 -19l7 -6c7.33301 -9.33301 12 -19 14 -29c1.33301 -6.66699 2 -12 2 -16
c0 -16.667 -6 -32.667 -18 -48l-5 -6c-7.33301 -7.33301 -15 -12 -23 -14c-10.667 -2.66699 -21.334 -4 -32.001 -4c-11.333 0 -21.5 1.83301 -30.5 5.5s-19.167 9.16699 -30.5 16.5c-1.33301 1.33301 -2.66602 2.16602 -3.99902 2.49902s-2.66602 1.16602 -3.99902 2.49902
c-7.33301 6 -15 14.833 -23 26.5s-14.333 26.167 -19 43.5c-1.33301 4.66699 -2.5 9.5 -3.5 14.5s-1.5 11.167 -1.5 18.5v16c1.33301 17.333 5.33301 33.5 12 48.5s15.5 28.167 26.5 39.5s23.833 20.333 38.5 27s30.667 10 48 10c18.667 0 36 -3.66699 52 -11
s29.667 -17.333 41 -30c11.333 12.667 25 22.667 41 30s33.333 11 52 11c17.333 0 33.666 -3.33301 48.999 -10s28.666 -15.5 39.999 -26.5s20.166 -24.167 26.499 -39.5s9.5 -31.333 9.5 -48v-143c0 -19.333 -2.33301 -35.666 -7 -48.999s-18.334 -24 -41.001 -32l-122 -35
c-4 -1.33301 -7.5 -3.16602 -10.5 -5.49902s-4.5 -6.16602 -4.5 -11.499v-351c0 -39.333 7.5 -76.333 22.5 -111s35.333 -64.834 61 -90.501s55.834 -46 90.501 -61s71.667 -22.5 111 -22.5s76.333 7.5 111 22.5s65 35.5 91 61.5s46.5 56.333 61.5 91s22.5 71.667 22.5 111
v718c0 9.33301 3 17 9 23s13.667 9 23 9s17 -3 23 -9s9 -13.667 9 -23v-718c0 -48 -9.16699 -93.333 -27.5 -136s-43.333 -79.834 -75 -111.501s-68.834 -56.667 -111.501 -75s-88 -27.5 -136 -27.5s-93.333 9.16699 -136 27.5s-79.834 43.333 -111.501 75
s-56.667 68.834 -75 111.501s-27.5 88 -27.5 136v350c0 14 1.5 25.667 4.5 35s7.83301 17.166 14.5 23.499s15.5 11.5 26.5 15.5s24.5 8 40.5 12l82 20c7.33301 2 12.166 5.16699 14.499 9.5s3.5 10.166 3.5 17.499v143c0 17.333 -5.83301 31.833 -17.5 43.5
s-26.167 17.5 -43.5 17.5c-16.667 0 -30.667 -5.5 -42 -16.5s-17.666 -24.167 -18.999 -39.5z" />
    <glyph glyph-name="khokhwaithai" unicode="&#xa4;" horiz-adv-x="1050" 
d="M164 32c0 -9.33301 -2.99902 -17.001 -8.99902 -23.001s-13.667 -9 -23 -9s-17 3 -23 9s-9 13.667 -9 23v718c0 55.333 10.5 104.666 31.5 147.999s49.5 80 85.5 110s78.333 52.833 127 68.5s100.667 23.5 156 23.5s107.333 -7.83301 156 -23.5s91 -38.5 127 -68.5
s64.5 -66.667 85.5 -110s31.5 -92.666 31.5 -147.999v-718c0 -9.33301 -3 -17 -9 -23s-13.667 -9 -23 -9s-17 3 -23 9s-9 13.667 -9 23v718c0 46 -8.83301 86.833 -26.5 122.5s-41.667 65.667 -72 90s-66 42.666 -107 54.999s-84.5 18.5 -130.5 18.5
c-44.667 0 -87.167 -6 -127.5 -18s-76 -29.833 -107 -53.5s-55.667 -53.5 -74 -89.5s-27.5 -78 -27.5 -126v-214c27.333 34.667 61 62.334 101 83.001s84 31.334 132 32.001c7.33301 0 15.5 -0.166992 24.5 -0.5s16.833 -2.16602 23.5 -5.49902
c8 -3.33301 15.167 -6.83301 21.5 -10.5s12 -8 17 -13s9.66699 -11 14 -18s8.16602 -15.833 11.499 -26.5c0.666992 -2 1.16699 -3.83301 1.5 -5.5s0.5 -3.5 0.5 -5.5c0 -5.33301 -0.333008 -9.66602 -1 -12.999c-2 -14.667 -7.16699 -27.167 -15.5 -37.5
s-18.5 -17.833 -30.5 -22.5c-3.33301 -1.33301 -7 -2.33301 -11 -3s-8 -1 -12 -1s-7 0.333008 -9 1c-14 1.33301 -26.167 6.16602 -36.5 14.499s-17.833 18.5 -22.5 30.5c-2.66699 10 -4 21 -4 33l5 16c-32.667 -2.66699 -62 -11.334 -88 -26.001s-48 -33 -66 -55
s-31.833 -46.333 -41.5 -73s-14.5 -53 -14.5 -79v-318z" />
    <glyph glyph-name="khokhwaithai" unicode="&#xe04;" horiz-adv-x="1050" 
d="M164 32c0 -9.33301 -2.99902 -17.001 -8.99902 -23.001s-13.667 -9 -23 -9s-17 3 -23 9s-9 13.667 -9 23v718c0 55.333 10.5 104.666 31.5 147.999s49.5 80 85.5 110s78.333 52.833 127 68.5s100.667 23.5 156 23.5s107.333 -7.83301 156 -23.5s91 -38.5 127 -68.5
s64.5 -66.667 85.5 -110s31.5 -92.666 31.5 -147.999v-718c0 -9.33301 -3 -17 -9 -23s-13.667 -9 -23 -9s-17 3 -23 9s-9 13.667 -9 23v718c0 46 -8.83301 86.833 -26.5 122.5s-41.667 65.667 -72 90s-66 42.666 -107 54.999s-84.5 18.5 -130.5 18.5
c-44.667 0 -87.167 -6 -127.5 -18s-76 -29.833 -107 -53.5s-55.667 -53.5 -74 -89.5s-27.5 -78 -27.5 -126v-214c27.333 34.667 61 62.334 101 83.001s84 31.334 132 32.001c7.33301 0 15.5 -0.166992 24.5 -0.5s16.833 -2.16602 23.5 -5.49902
c8 -3.33301 15.167 -6.83301 21.5 -10.5s12 -8 17 -13s9.66699 -11 14 -18s8.16602 -15.833 11.499 -26.5c0.666992 -2 1.16699 -3.83301 1.5 -5.5s0.5 -3.5 0.5 -5.5c0 -5.33301 -0.333008 -9.66602 -1 -12.999c-2 -14.667 -7.16699 -27.167 -15.5 -37.5
s-18.5 -17.833 -30.5 -22.5c-3.33301 -1.33301 -7 -2.33301 -11 -3s-8 -1 -12 -1s-7 0.333008 -9 1c-14 1.33301 -26.167 6.16602 -36.5 14.499s-17.833 18.5 -22.5 30.5c-2.66699 10 -4 21 -4 33l5 16c-32.667 -2.66699 -62 -11.334 -88 -26.001s-48 -33 -66 -55
s-31.833 -46.333 -41.5 -73s-14.5 -53 -14.5 -79v-318z" />
    <glyph glyph-name="khokhonthai" unicode="&#xa5;" horiz-adv-x="1050" 
d="M900 32c0 -9.33301 -2.99707 -17.001 -8.99707 -23.001s-13.667 -9 -23 -9s-17 3 -23 9s-9 13.667 -9 23v742c0 58 -13.5 107.167 -40.5 147.5s-62.5 72.166 -106.5 95.499c-21.333 -30.667 -48.5 -55 -81.5 -73s-69.167 -27 -108.5 -27c-40 0 -76.333 9.16699 -109 27.5
s-59.334 42.5 -80.001 72.5h1l2 1c-44 -22.667 -79.833 -54.5 -107.5 -95.5s-41.5 -93.167 -41.5 -156.5v-231c27.333 34.667 61 62.334 101 83.001s84 31.334 132 32.001c7.33301 0 15.5 -0.166992 24.5 -0.5s16.833 -2.16602 23.5 -5.49902
c8 -3.33301 15.167 -6.83301 21.5 -10.5s12 -8 17 -13s9.66699 -11 14 -18s8.16602 -15.833 11.499 -26.5c0.666992 -2 1.16699 -3.83301 1.5 -5.5s0.5 -3.5 0.5 -5.5c0 -5.33301 -0.333008 -9.66602 -1 -12.999c-2 -14.667 -7.16699 -27.167 -15.5 -37.5
s-18.5 -17.833 -30.5 -22.5c-3.33301 -1.33301 -7 -2.33301 -11 -3s-8 -1 -12 -1s-7 0.333008 -9 1c-14 1.33301 -26.167 6.16602 -36.5 14.499s-17.833 18.5 -22.5 30.5c-2.66699 10 -4 21 -4 33l5 16c-32.667 -2.66699 -62 -11.334 -88 -26.001s-48 -33 -66 -55
s-31.833 -46.333 -41.5 -73s-14.5 -53 -14.5 -79v-318c0 -9.33301 -3 -17 -9 -23s-13.667 -9 -23 -9s-17 3 -23 9s-9 13.667 -9 23v742c0 40.667 5.83301 78.5 17.5 113.5s28 66.167 49 93.5s46.333 51 76 71s62.167 36 97.5 48c4.66699 -18 12.167 -34.333 22.5 -49
s22.5 -27.5 36.5 -38.5s29.5 -19.5 46.5 -25.5s35.167 -9 54.5 -9c38.667 0 72.667 11.333 102 34s49 51.667 59 87c35.333 -12 67.666 -28 96.999 -48s54.5 -44 75.5 -72s37.333 -59.667 49 -95s17.5 -74.333 17.5 -117v-735z" />
    <glyph glyph-name="khokhonthai" unicode="&#xe05;" horiz-adv-x="1050" 
d="M900 32c0 -9.33301 -2.99707 -17.001 -8.99707 -23.001s-13.667 -9 -23 -9s-17 3 -23 9s-9 13.667 -9 23v742c0 58 -13.5 107.167 -40.5 147.5s-62.5 72.166 -106.5 95.499c-21.333 -30.667 -48.5 -55 -81.5 -73s-69.167 -27 -108.5 -27c-40 0 -76.333 9.16699 -109 27.5
s-59.334 42.5 -80.001 72.5h1l2 1c-44 -22.667 -79.833 -54.5 -107.5 -95.5s-41.5 -93.167 -41.5 -156.5v-231c27.333 34.667 61 62.334 101 83.001s84 31.334 132 32.001c7.33301 0 15.5 -0.166992 24.5 -0.5s16.833 -2.16602 23.5 -5.49902
c8 -3.33301 15.167 -6.83301 21.5 -10.5s12 -8 17 -13s9.66699 -11 14 -18s8.16602 -15.833 11.499 -26.5c0.666992 -2 1.16699 -3.83301 1.5 -5.5s0.5 -3.5 0.5 -5.5c0 -5.33301 -0.333008 -9.66602 -1 -12.999c-2 -14.667 -7.16699 -27.167 -15.5 -37.5
s-18.5 -17.833 -30.5 -22.5c-3.33301 -1.33301 -7 -2.33301 -11 -3s-8 -1 -12 -1s-7 0.333008 -9 1c-14 1.33301 -26.167 6.16602 -36.5 14.499s-17.833 18.5 -22.5 30.5c-2.66699 10 -4 21 -4 33l5 16c-32.667 -2.66699 -62 -11.334 -88 -26.001s-48 -33 -66 -55
s-31.833 -46.333 -41.5 -73s-14.5 -53 -14.5 -79v-318c0 -9.33301 -3 -17 -9 -23s-13.667 -9 -23 -9s-17 3 -23 9s-9 13.667 -9 23v742c0 40.667 5.83301 78.5 17.5 113.5s28 66.167 49 93.5s46.333 51 76 71s62.167 36 97.5 48c4.66699 -18 12.167 -34.333 22.5 -49
s22.5 -27.5 36.5 -38.5s29.5 -19.5 46.5 -25.5s35.167 -9 54.5 -9c38.667 0 72.667 11.333 102 34s49 51.667 59 87c35.333 -12 67.666 -28 96.999 -48s54.5 -44 75.5 -72s37.333 -59.667 49 -95s17.5 -74.333 17.5 -117v-735z" />
    <glyph glyph-name="khorakhangthai" unicode="&#xa6;" horiz-adv-x="1100" 
d="M227 700c0 14 1.50098 25.668 4.50098 35.001s7.83301 17.166 14.5 23.499s15.5 11.5 26.5 15.5s24.5 8 40.5 12l82 20c7.33301 2 12.166 5.16699 14.499 9.5s3.5 10.166 3.5 17.499v143c0 17.333 -5.83301 31.833 -17.5 43.5s-26.167 17.5 -43.5 17.5
c-16.667 0 -30.667 -5.5 -42 -16.5s-17.666 -24.167 -18.999 -39.5c0 -9.33301 -3 -17.166 -9 -23.499s-13.667 -9.5 -23 -9.5s-17 3 -23 9s-9 13.667 -9 23c-1.33301 16 -7.83301 29.5 -19.5 40.5s-25.5 16.5 -41.5 16.5c-17.333 0 -32.166 -5.5 -44.499 -16.5
s-18.5 -25.167 -18.5 -42.5c0 -12 1.66699 -24.333 5 -37l11 13c5.33301 5.33301 10.166 8.66602 14.499 9.99902s8.83301 3 13.5 5c6.66699 1.33301 11.667 2 15 2c18.667 0 35.334 -6.33301 50.001 -19l7 -6c7.33301 -9.33301 12 -19 14 -29c1.33301 -6.66699 2 -12 2 -16
c0 -16.667 -6 -32.667 -18 -48l-5 -6c-7.33301 -7.33301 -15 -12 -23 -14c-10.667 -2.66699 -21.334 -4 -32.001 -4c-11.333 0 -21.5 1.83301 -30.5 5.5s-19.167 9.16699 -30.5 16.5c-1.33301 1.33301 -2.66602 2.16602 -3.99902 2.49902s-2.66602 1.16602 -3.99902 2.49902
c-7.33301 6 -15 14.833 -23 26.5s-14.333 26.167 -19 43.5c-1.33301 4.66699 -2.5 9.5 -3.5 14.5s-1.5 11.167 -1.5 18.5v16c1.33301 17.333 5.33301 33.5 12 48.5s15.5 28.167 26.5 39.5s23.833 20.333 38.5 27s30.667 10 48 10c18.667 0 36 -3.66699 52 -11
s29.667 -17.333 41 -30c11.333 12.667 25 22.667 41 30s33.333 11 52 11c17.333 0 33.666 -3.33301 48.999 -10s28.666 -15.5 39.999 -26.5s20.166 -24.167 26.499 -39.5s9.5 -31.333 9.5 -48v-143c0 -19.333 -2.33301 -35.666 -7 -48.999s-18.334 -24 -41.001 -32l-122 -35
c-4 -1.33301 -7.5 -3.16602 -10.5 -5.49902s-4.5 -6.16602 -4.5 -11.499v-339c0 -41.333 7.83301 -80 23.5 -116s36.834 -67.333 63.501 -94s58 -47.834 94 -63.501s74.667 -23.5 116 -23.5c40.667 0 79.167 7.83301 115.5 23.5s67.833 36.834 94.5 63.501
s47.834 58 63.501 94s23.5 74.667 23.5 116v707c0 9.33301 3 17 9 23s13.667 9 23 9s17 -3 23 -9s9 -13.667 9 -23v-707c0 -50 -9.5 -97 -28.5 -141s-44.833 -82.167 -77.5 -114.5s-71 -58 -115 -77s-91 -28.5 -141 -28.5c-62 0 -118.833 14 -170.5 42
s-93.834 65.667 -126.501 113v-107c0 -13.333 -4.83301 -24.666 -14.5 -33.999s-21.167 -14 -34.5 -14s-24.666 4.66699 -33.999 14s-14 20.666 -14 33.999v320c0 9.33301 3.16699 17 9.5 23s14.166 9 23.499 9v300z" />
    <glyph glyph-name="khorakhangthai" unicode="&#xe06;" horiz-adv-x="1100" 
d="M227 700c0 14 1.50098 25.668 4.50098 35.001s7.83301 17.166 14.5 23.499s15.5 11.5 26.5 15.5s24.5 8 40.5 12l82 20c7.33301 2 12.166 5.16699 14.499 9.5s3.5 10.166 3.5 17.499v143c0 17.333 -5.83301 31.833 -17.5 43.5s-26.167 17.5 -43.5 17.5
c-16.667 0 -30.667 -5.5 -42 -16.5s-17.666 -24.167 -18.999 -39.5c0 -9.33301 -3 -17.166 -9 -23.499s-13.667 -9.5 -23 -9.5s-17 3 -23 9s-9 13.667 -9 23c-1.33301 16 -7.83301 29.5 -19.5 40.5s-25.5 16.5 -41.5 16.5c-17.333 0 -32.166 -5.5 -44.499 -16.5
s-18.5 -25.167 -18.5 -42.5c0 -12 1.66699 -24.333 5 -37l11 13c5.33301 5.33301 10.166 8.66602 14.499 9.99902s8.83301 3 13.5 5c6.66699 1.33301 11.667 2 15 2c18.667 0 35.334 -6.33301 50.001 -19l7 -6c7.33301 -9.33301 12 -19 14 -29c1.33301 -6.66699 2 -12 2 -16
c0 -16.667 -6 -32.667 -18 -48l-5 -6c-7.33301 -7.33301 -15 -12 -23 -14c-10.667 -2.66699 -21.334 -4 -32.001 -4c-11.333 0 -21.5 1.83301 -30.5 5.5s-19.167 9.16699 -30.5 16.5c-1.33301 1.33301 -2.66602 2.16602 -3.99902 2.49902s-2.66602 1.16602 -3.99902 2.49902
c-7.33301 6 -15 14.833 -23 26.5s-14.333 26.167 -19 43.5c-1.33301 4.66699 -2.5 9.5 -3.5 14.5s-1.5 11.167 -1.5 18.5v16c1.33301 17.333 5.33301 33.5 12 48.5s15.5 28.167 26.5 39.5s23.833 20.333 38.5 27s30.667 10 48 10c18.667 0 36 -3.66699 52 -11
s29.667 -17.333 41 -30c11.333 12.667 25 22.667 41 30s33.333 11 52 11c17.333 0 33.666 -3.33301 48.999 -10s28.666 -15.5 39.999 -26.5s20.166 -24.167 26.499 -39.5s9.5 -31.333 9.5 -48v-143c0 -19.333 -2.33301 -35.666 -7 -48.999s-18.334 -24 -41.001 -32l-122 -35
c-4 -1.33301 -7.5 -3.16602 -10.5 -5.49902s-4.5 -6.16602 -4.5 -11.499v-339c0 -41.333 7.83301 -80 23.5 -116s36.834 -67.333 63.501 -94s58 -47.834 94 -63.501s74.667 -23.5 116 -23.5c40.667 0 79.167 7.83301 115.5 23.5s67.833 36.834 94.5 63.501
s47.834 58 63.501 94s23.5 74.667 23.5 116v707c0 9.33301 3 17 9 23s13.667 9 23 9s17 -3 23 -9s9 -13.667 9 -23v-707c0 -50 -9.5 -97 -28.5 -141s-44.833 -82.167 -77.5 -114.5s-71 -58 -115 -77s-91 -28.5 -141 -28.5c-62 0 -118.833 14 -170.5 42
s-93.834 65.667 -126.501 113v-107c0 -13.333 -4.83301 -24.666 -14.5 -33.999s-21.167 -14 -34.5 -14s-24.666 4.66699 -33.999 14s-14 20.666 -14 33.999v320c0 9.33301 3.16699 17 9.5 23s14.166 9 23.499 9v300z" />
    <glyph glyph-name="ngonguthai" unicode="&#xa7;" horiz-adv-x="674" 
d="M439 101c0 22 -2.83496 47.501 -8.50195 76.501s-14.667 59 -27 90s-27.833 61.5 -46.5 91.5s-41.167 57 -67.5 81s-56.666 43.5 -90.999 58.5s-72.833 22.833 -115.5 23.5c-9.33301 0 -17.166 3 -23.499 9s-9.5 13.667 -9.5 23s3 17 9 23s13.667 9 23 9
c46 -1.33301 87.5 -8.33301 124.5 -21s70.167 -29.334 99.5 -50.001s55 -44.667 77 -72s40.667 -56 56 -86v603c-16 3.33301 -29.333 11.333 -40 24s-16 27.667 -16 45c0 19.333 6.83301 36 20.5 50s30.167 21 49.5 21s36 -7 50 -21s21 -30.667 21 -50s-7 -36 -21 -50v-946
c0 -9.33301 -3 -17 -9 -23s-13.667 -9 -23 -9s-17 3 -23 9s-9 13.667 -9 23v68z" />
    <glyph glyph-name="ngonguthai" unicode="&#xe07;" horiz-adv-x="674" 
d="M439 101c0 22 -2.83496 47.501 -8.50195 76.501s-14.667 59 -27 90s-27.833 61.5 -46.5 91.5s-41.167 57 -67.5 81s-56.666 43.5 -90.999 58.5s-72.833 22.833 -115.5 23.5c-9.33301 0 -17.166 3 -23.499 9s-9.5 13.667 -9.5 23s3 17 9 23s13.667 9 23 9
c46 -1.33301 87.5 -8.33301 124.5 -21s70.167 -29.334 99.5 -50.001s55 -44.667 77 -72s40.667 -56 56 -86v603c-16 3.33301 -29.333 11.333 -40 24s-16 27.667 -16 45c0 19.333 6.83301 36 20.5 50s30.167 21 49.5 21s36 -7 50 -21s21 -30.667 21 -50s-7 -36 -21 -50v-946
c0 -9.33301 -3 -17 -9 -23s-13.667 -9 -23 -9s-17 3 -23 9s-9 13.667 -9 23v68z" />
    <glyph glyph-name="chochanthai" unicode="&#xa8;" horiz-adv-x="880" 
d="M666 393c-0.666992 18 -5.33301 38.168 -14 60.501s-19.5 43 -32.5 62s-27 35 -42 48s-29.5 19.5 -43.5 19.5l5 -16c0 -12 -1.33301 -23 -4 -33c-4.66699 -12 -12.167 -22.167 -22.5 -30.5s-22.5 -13.166 -36.5 -14.499c-2 -0.666992 -5 -1 -9 -1s-8 0.333008 -12 1
s-7.66699 1.66699 -11 3c-12 4.66699 -22.167 12.167 -30.5 22.5s-13.5 22.833 -15.5 37.5c-0.666992 3.33301 -1 7.66602 -1 12.999c0 2 0.166992 3.83301 0.5 5.5s0.833008 3.5 1.5 5.5c3.33301 10.667 7.16602 19.5 11.499 26.5s9 13 14 18s10.667 9.33301 17 13
s13.5 7.16699 21.5 10.5c6.66699 3.33301 14.5 5.16602 23.5 5.49902s17.167 0.5 24.5 0.5c32 0 62.333 -8.16699 91 -24.5s50 -38.833 64 -67.5v242c0 39.333 -7.5 73.833 -22.5 103.5s-35.5 54.334 -61.5 74.001s-56.5 34.334 -91.5 44.001s-72.167 14.5 -111.5 14.5
s-76.333 -4.83301 -111 -14.5s-64.834 -24.334 -90.501 -44.001s-46 -44.334 -61 -74.001s-22.5 -64.167 -22.5 -103.5c0 -9.33301 -3 -17 -9 -23s-13.667 -9 -23 -9s-17 3 -23 9s-9 13.667 -9 23c0 48 9.16699 90.667 27.5 128s43.333 68.833 75 94.5s68.834 45 111.501 58
s88 19.5 136 19.5s93.333 -6.5 136 -19.5s79.834 -32.333 111.501 -58s56.667 -57.167 75 -94.5s27.5 -80 27.5 -128v-768c0 -9.33301 -3 -17 -9 -23s-13.667 -9 -23 -9s-17 3 -23 9s-9 13.667 -9 23v361z" />
    <glyph glyph-name="chochanthai" unicode="&#xe08;" horiz-adv-x="880" 
d="M666 393c-0.666992 18 -5.33301 38.168 -14 60.501s-19.5 43 -32.5 62s-27 35 -42 48s-29.5 19.5 -43.5 19.5l5 -16c0 -12 -1.33301 -23 -4 -33c-4.66699 -12 -12.167 -22.167 -22.5 -30.5s-22.5 -13.166 -36.5 -14.499c-2 -0.666992 -5 -1 -9 -1s-8 0.333008 -12 1
s-7.66699 1.66699 -11 3c-12 4.66699 -22.167 12.167 -30.5 22.5s-13.5 22.833 -15.5 37.5c-0.666992 3.33301 -1 7.66602 -1 12.999c0 2 0.166992 3.83301 0.5 5.5s0.833008 3.5 1.5 5.5c3.33301 10.667 7.16602 19.5 11.499 26.5s9 13 14 18s10.667 9.33301 17 13
s13.5 7.16699 21.5 10.5c6.66699 3.33301 14.5 5.16602 23.5 5.49902s17.167 0.5 24.5 0.5c32 0 62.333 -8.16699 91 -24.5s50 -38.833 64 -67.5v242c0 39.333 -7.5 73.833 -22.5 103.5s-35.5 54.334 -61.5 74.001s-56.5 34.334 -91.5 44.001s-72.167 14.5 -111.5 14.5
s-76.333 -4.83301 -111 -14.5s-64.834 -24.334 -90.501 -44.001s-46 -44.334 -61 -74.001s-22.5 -64.167 -22.5 -103.5c0 -9.33301 -3 -17 -9 -23s-13.667 -9 -23 -9s-17 3 -23 9s-9 13.667 -9 23c0 48 9.16699 90.667 27.5 128s43.333 68.833 75 94.5s68.834 45 111.501 58
s88 19.5 136 19.5s93.333 -6.5 136 -19.5s79.834 -32.333 111.501 -58s56.667 -57.167 75 -94.5s27.5 -80 27.5 -128v-768c0 -9.33301 -3 -17 -9 -23s-13.667 -9 -23 -9s-17 3 -23 9s-9 13.667 -9 23v361z" />
    <glyph glyph-name="chochingthai" unicode="&#xa9;" horiz-adv-x="1050" 
d="M836 142c-34 -45.333 -77.666 -80.334 -130.999 -105.001s-112.333 -37 -177 -37c-51.333 0 -99.5 8 -144.5 24s-84.333 38.833 -118 68.5s-60.334 65.334 -80.001 107.001s-29.5 88.167 -29.5 139.5v171c-16 3.33301 -29.333 11.333 -40 24s-16 27.667 -16 45
c0 19.333 6.83301 36 20.5 50s30.167 21 49.5 21s36 -7 50 -21s21 -30.667 21 -50s-7 -36 -21 -50v-190c0 -42.667 8 -81 24 -115s38 -62.833 66 -86.5s60.667 -41.834 98 -54.501s77.333 -19 120 -19s82.667 6.33301 120 19s70 30.834 98 54.501s50 52.5 66 86.5
s24 72.333 24 115v411c0 46 -8.83301 86.833 -26.5 122.5s-41.667 65.667 -72 90s-66 42.666 -107 54.999s-84.5 18.5 -130.5 18.5s-89.5 -6.16699 -130.5 -18.5s-76.667 -30.666 -107 -54.999s-54.333 -54.333 -72 -90s-26.5 -76.5 -26.5 -122.5c0 -9.33301 -3 -17 -9 -23
s-13.667 -9 -23 -9s-17 3 -23 9s-9 13.667 -9 23c0 55.333 10.5 104.666 31.5 147.999s49.5 80 85.5 110s78.333 52.833 127 68.5s100.667 23.5 156 23.5s107.333 -7.83301 156 -23.5s91 -38.5 127 -68.5s64.5 -66.667 85.5 -110s31.5 -92.666 31.5 -147.999v-350
c9.33301 0 17.166 -3 23.499 -9s9.5 -13.667 9.5 -23v-320c0 -13.333 -4.66699 -24.666 -14 -33.999s-20.666 -14 -33.999 -14s-24.833 4.66699 -34.5 14s-14.5 20.666 -14.5 33.999v94z" />
    <glyph glyph-name="chochingthai" unicode="&#xe09;" horiz-adv-x="1050" 
d="M836 142c-34 -45.333 -77.666 -80.334 -130.999 -105.001s-112.333 -37 -177 -37c-51.333 0 -99.5 8 -144.5 24s-84.333 38.833 -118 68.5s-60.334 65.334 -80.001 107.001s-29.5 88.167 -29.5 139.5v171c-16 3.33301 -29.333 11.333 -40 24s-16 27.667 -16 45
c0 19.333 6.83301 36 20.5 50s30.167 21 49.5 21s36 -7 50 -21s21 -30.667 21 -50s-7 -36 -21 -50v-190c0 -42.667 8 -81 24 -115s38 -62.833 66 -86.5s60.667 -41.834 98 -54.501s77.333 -19 120 -19s82.667 6.33301 120 19s70 30.834 98 54.501s50 52.5 66 86.5
s24 72.333 24 115v411c0 46 -8.83301 86.833 -26.5 122.5s-41.667 65.667 -72 90s-66 42.666 -107 54.999s-84.5 18.5 -130.5 18.5s-89.5 -6.16699 -130.5 -18.5s-76.667 -30.666 -107 -54.999s-54.333 -54.333 -72 -90s-26.5 -76.5 -26.5 -122.5c0 -9.33301 -3 -17 -9 -23
s-13.667 -9 -23 -9s-17 3 -23 9s-9 13.667 -9 23c0 55.333 10.5 104.666 31.5 147.999s49.5 80 85.5 110s78.333 52.833 127 68.5s100.667 23.5 156 23.5s107.333 -7.83301 156 -23.5s91 -38.5 127 -68.5s64.5 -66.667 85.5 -110s31.5 -92.666 31.5 -147.999v-350
c9.33301 0 17.166 -3 23.499 -9s9.5 -13.667 9.5 -23v-320c0 -13.333 -4.66699 -24.666 -14 -33.999s-20.666 -14 -33.999 -14s-24.833 4.66699 -34.5 14s-14.5 20.666 -14.5 33.999v94z" />
    <glyph glyph-name="chochangthai" unicode="&#xaa;" horiz-adv-x="950" 
d="M736 722c-0.666992 17.333 -7.16699 32.168 -19.5 44.501s-27.166 18.5 -44.499 18.5h-170c-9.33301 0 -17 3 -23 9s-9 13.667 -9 23s3 17 9 23s13.667 9 23 9h170c17.333 0.666992 32.166 7.16699 44.499 19.5s18.5 26.833 18.5 43.5v188c0 9.33301 3 17 9 23
s13.667 9 23 9s17 -3 23 -9s9 -13.667 9 -23v-187c0 -19.333 -3.83301 -37.333 -11.5 -54s-18.167 -30.667 -31.5 -42c28 -25.333 42.667 -57.666 44 -96.999v-370c0 -48 -9.16699 -93.333 -27.5 -136s-43.333 -79.834 -75 -111.501s-68.834 -56.667 -111.501 -75
s-88 -27.5 -136 -27.5s-93.333 9.16699 -136 27.5s-79.834 43.333 -111.501 75s-56.667 68.834 -75 111.501s-27.5 88 -27.5 136v335c0 14 1.5 25.5 4.5 34.5s7.83301 16.667 14.5 23s15.5 11.666 26.5 15.999s24.5 8.5 40.5 12.5l149 40
c21.333 7.33301 37.5 20.833 48.5 40.5s16.5 41.5 16.5 65.5c0 16.667 -3.16699 32.167 -9.5 46.5s-14.833 26.833 -25.5 37.5s-23.167 19.167 -37.5 25.5s-29.833 9.5 -46.5 9.5c-33.333 0 -61.333 -8.16699 -84 -24.5s-34 -41.166 -34 -74.499
c-0.666992 -0.666992 0.666016 -7.33398 3.99902 -20.001l11 13c5.33301 5.33301 10.166 8.66602 14.499 9.99902s8.83301 3 13.5 5c6.66699 1.33301 11.667 2 15 2c18.667 0 35.334 -6.33301 50.001 -19l7 -6c7.33301 -9.33301 12 -19 14 -29c1.33301 -6.66699 2 -12 2 -16
c0 -16.667 -6 -32.667 -18 -48l-5 -6c-7.33301 -7.33301 -15 -12 -23 -14c-10.667 -2.66699 -21.334 -4 -32.001 -4c-11.333 0 -21.5 1.83301 -30.5 5.5s-19.167 9.16699 -30.5 16.5c-1.33301 1.33301 -2.66602 2.16602 -3.99902 2.49902s-2.66602 1.16602 -3.99902 2.49902
c-7.33301 6 -15 14.833 -23 26.5s-14.333 26.167 -19 43.5c-1.33301 4.66699 -2.5 9.5 -3.5 14.5s-1.5 11.167 -1.5 18.5v16c0 23.333 5.16699 44.166 15.5 62.499s24 34 41 47s36.5 22.833 58.5 29.5s44.667 10 68 10c24.667 0 48.334 -5 71.001 -15
s42.334 -23.333 59.001 -40s30 -36.167 40 -58.5s15 -45.833 15 -70.5v-7.5c0 -2.33301 -0.333008 -5.16602 -1 -8.49902c-1.33301 -17.333 -4.83301 -33.833 -10.5 -49.5s-12.834 -30 -21.501 -43s-18.5 -24.167 -29.5 -33.5s-22.833 -15.666 -35.5 -18.999l-190 -53
c-4 -1.33301 -7.5 -3.16602 -10.5 -5.49902s-4.5 -6.16602 -4.5 -11.499v-336c0 -39.333 7.5 -76.333 22.5 -111s35.333 -64.834 61 -90.501s55.834 -46 90.501 -61s71.667 -22.5 111 -22.5s76.333 7.5 111 22.5s65 35.5 91 61.5s46.5 56.333 61.5 91s22.5 71.667 22.5 111
v372z" />
    <glyph glyph-name="chochangthai" unicode="&#xe0a;" horiz-adv-x="950" 
d="M736 722c-0.666992 17.333 -7.16699 32.168 -19.5 44.501s-27.166 18.5 -44.499 18.5h-170c-9.33301 0 -17 3 -23 9s-9 13.667 -9 23s3 17 9 23s13.667 9 23 9h170c17.333 0.666992 32.166 7.16699 44.499 19.5s18.5 26.833 18.5 43.5v188c0 9.33301 3 17 9 23
s13.667 9 23 9s17 -3 23 -9s9 -13.667 9 -23v-187c0 -19.333 -3.83301 -37.333 -11.5 -54s-18.167 -30.667 -31.5 -42c28 -25.333 42.667 -57.666 44 -96.999v-370c0 -48 -9.16699 -93.333 -27.5 -136s-43.333 -79.834 -75 -111.501s-68.834 -56.667 -111.501 -75
s-88 -27.5 -136 -27.5s-93.333 9.16699 -136 27.5s-79.834 43.333 -111.501 75s-56.667 68.834 -75 111.501s-27.5 88 -27.5 136v335c0 14 1.5 25.5 4.5 34.5s7.83301 16.667 14.5 23s15.5 11.666 26.5 15.999s24.5 8.5 40.5 12.5l149 40
c21.333 7.33301 37.5 20.833 48.5 40.5s16.5 41.5 16.5 65.5c0 16.667 -3.16699 32.167 -9.5 46.5s-14.833 26.833 -25.5 37.5s-23.167 19.167 -37.5 25.5s-29.833 9.5 -46.5 9.5c-33.333 0 -61.333 -8.16699 -84 -24.5s-34 -41.166 -34 -74.499
c-0.666992 -0.666992 0.666016 -7.33398 3.99902 -20.001l11 13c5.33301 5.33301 10.166 8.66602 14.499 9.99902s8.83301 3 13.5 5c6.66699 1.33301 11.667 2 15 2c18.667 0 35.334 -6.33301 50.001 -19l7 -6c7.33301 -9.33301 12 -19 14 -29c1.33301 -6.66699 2 -12 2 -16
c0 -16.667 -6 -32.667 -18 -48l-5 -6c-7.33301 -7.33301 -15 -12 -23 -14c-10.667 -2.66699 -21.334 -4 -32.001 -4c-11.333 0 -21.5 1.83301 -30.5 5.5s-19.167 9.16699 -30.5 16.5c-1.33301 1.33301 -2.66602 2.16602 -3.99902 2.49902s-2.66602 1.16602 -3.99902 2.49902
c-7.33301 6 -15 14.833 -23 26.5s-14.333 26.167 -19 43.5c-1.33301 4.66699 -2.5 9.5 -3.5 14.5s-1.5 11.167 -1.5 18.5v16c0 23.333 5.16699 44.166 15.5 62.499s24 34 41 47s36.5 22.833 58.5 29.5s44.667 10 68 10c24.667 0 48.334 -5 71.001 -15
s42.334 -23.333 59.001 -40s30 -36.167 40 -58.5s15 -45.833 15 -70.5v-7.5c0 -2.33301 -0.333008 -5.16602 -1 -8.49902c-1.33301 -17.333 -4.83301 -33.833 -10.5 -49.5s-12.834 -30 -21.501 -43s-18.5 -24.167 -29.5 -33.5s-22.833 -15.666 -35.5 -18.999l-190 -53
c-4 -1.33301 -7.5 -3.16602 -10.5 -5.49902s-4.5 -6.16602 -4.5 -11.499v-336c0 -39.333 7.5 -76.333 22.5 -111s35.333 -64.834 61 -90.501s55.834 -46 90.501 -61s71.667 -22.5 111 -22.5s76.333 7.5 111 22.5s65 35.5 91 61.5s46.5 56.333 61.5 91s22.5 71.667 22.5 111
v372z" />
    <glyph glyph-name="sosothai" unicode="&#xab;" horiz-adv-x="1077" 
d="M927 350c0 -48 -9.16504 -93.333 -27.498 -136s-43.333 -79.834 -75 -111.501s-68.834 -56.667 -111.501 -75s-88 -27.5 -136 -27.5s-93.333 9.16699 -136 27.5s-79.834 43.333 -111.501 75s-56.667 68.834 -75 111.501s-27.5 88 -27.5 136v350v4
c0 13.333 1.5 24.333 4.5 33s7.66699 16 14 22s15 11 26 15s24.5 8 40.5 12l82 20c7.33301 2 12.166 5.16699 14.499 9.5s3.5 10.166 3.5 17.499v143c0 17.333 -5.83301 31.833 -17.5 43.5s-26.167 17.5 -43.5 17.5c-16.667 0 -30.667 -5.5 -42 -16.5
s-17.666 -24.167 -18.999 -39.5c0 -9.33301 -3 -17.166 -9 -23.499s-13.667 -9.5 -23 -9.5s-17 3 -23 9s-9 13.667 -9 23c-1.33301 16 -7.83301 29.5 -19.5 40.5s-25.5 16.5 -41.5 16.5c-17.333 0 -32.166 -5.5 -44.499 -16.5s-18.5 -25.167 -18.5 -42.5
c0 -12 1.66699 -24.333 5 -37l11 13c5.33301 5.33301 10.166 8.66602 14.499 9.99902s8.83301 3 13.5 5c6.66699 1.33301 11.667 2 15 2c18.667 0 35.334 -6.33301 50.001 -19l7 -6c7.33301 -9.33301 12 -19 14 -29c1.33301 -6.66699 2 -12 2 -16
c0 -16.667 -6 -32.667 -18 -48l-5 -6c-7.33301 -7.33301 -15 -12 -23 -14c-10.667 -2.66699 -21.334 -4 -32.001 -4c-11.333 0 -21.5 1.83301 -30.5 5.5s-19.167 9.16699 -30.5 16.5c-1.33301 1.33301 -2.66602 2.16602 -3.99902 2.49902s-2.66602 1.16602 -3.99902 2.49902
c-7.33301 6 -15 14.833 -23 26.5s-14.333 26.167 -19 43.5c-1.33301 4.66699 -2.5 9.5 -3.5 14.5s-1.5 11.167 -1.5 18.5v16c1.33301 17.333 5.33301 33.5 12 48.5s15.5 28.167 26.5 39.5s23.833 20.333 38.5 27s30.667 10 48 10c18.667 0 36 -3.66699 52 -11
s29.667 -17.333 41 -30c11.333 12.667 25 22.667 41 30s33.333 11 52 11c17.333 0 33.666 -3.33301 48.999 -10s28.666 -15.5 39.999 -26.5s20.166 -24.167 26.499 -39.5s9.5 -31.333 9.5 -48v-143c0 -19.333 -2.33301 -35.666 -7 -48.999s-18.334 -24 -41.001 -32l-122 -35
c-3.33301 -1.33301 -6.5 -3.16602 -9.5 -5.49902s-4.5 -6.16602 -4.5 -11.499v-351c0 -39.333 7.5 -76.333 22.5 -111s35.333 -64.834 61 -90.501s55.834 -46 90.501 -61s71.667 -22.5 111 -22.5s76.333 7.5 111 22.5s64.834 35.333 90.501 61s46 55.834 61 90.501
s22.5 71.667 22.5 111v373c0 17.333 -6.16699 32.166 -18.5 44.499s-27.166 18.5 -44.499 18.5h-267c-9.33301 0 -17 3 -23 9s-9 13.667 -9 23s3 17 9 23s13.667 9 23 9h267c17.333 0.666992 32.166 7.16699 44.499 19.5s18.5 26.833 18.5 43.5v188c0 9.33301 3 17 9 23
s13.667 9 23 9s17 -3 23 -9s9 -13.667 9 -23v-187c0 -19.333 -3.83301 -37.333 -11.5 -54s-18.167 -30.667 -31.5 -42c28 -25.333 42.667 -57.666 44 -96.999v-370z" />
    <glyph glyph-name="sosothai" unicode="&#xe0b;" horiz-adv-x="1077" 
d="M927 350c0 -48 -9.16504 -93.333 -27.498 -136s-43.333 -79.834 -75 -111.501s-68.834 -56.667 -111.501 -75s-88 -27.5 -136 -27.5s-93.333 9.16699 -136 27.5s-79.834 43.333 -111.501 75s-56.667 68.834 -75 111.501s-27.5 88 -27.5 136v350v4
c0 13.333 1.5 24.333 4.5 33s7.66699 16 14 22s15 11 26 15s24.5 8 40.5 12l82 20c7.33301 2 12.166 5.16699 14.499 9.5s3.5 10.166 3.5 17.499v143c0 17.333 -5.83301 31.833 -17.5 43.5s-26.167 17.5 -43.5 17.5c-16.667 0 -30.667 -5.5 -42 -16.5
s-17.666 -24.167 -18.999 -39.5c0 -9.33301 -3 -17.166 -9 -23.499s-13.667 -9.5 -23 -9.5s-17 3 -23 9s-9 13.667 -9 23c-1.33301 16 -7.83301 29.5 -19.5 40.5s-25.5 16.5 -41.5 16.5c-17.333 0 -32.166 -5.5 -44.499 -16.5s-18.5 -25.167 -18.5 -42.5
c0 -12 1.66699 -24.333 5 -37l11 13c5.33301 5.33301 10.166 8.66602 14.499 9.99902s8.83301 3 13.5 5c6.66699 1.33301 11.667 2 15 2c18.667 0 35.334 -6.33301 50.001 -19l7 -6c7.33301 -9.33301 12 -19 14 -29c1.33301 -6.66699 2 -12 2 -16
c0 -16.667 -6 -32.667 -18 -48l-5 -6c-7.33301 -7.33301 -15 -12 -23 -14c-10.667 -2.66699 -21.334 -4 -32.001 -4c-11.333 0 -21.5 1.83301 -30.5 5.5s-19.167 9.16699 -30.5 16.5c-1.33301 1.33301 -2.66602 2.16602 -3.99902 2.49902s-2.66602 1.16602 -3.99902 2.49902
c-7.33301 6 -15 14.833 -23 26.5s-14.333 26.167 -19 43.5c-1.33301 4.66699 -2.5 9.5 -3.5 14.5s-1.5 11.167 -1.5 18.5v16c1.33301 17.333 5.33301 33.5 12 48.5s15.5 28.167 26.5 39.5s23.833 20.333 38.5 27s30.667 10 48 10c18.667 0 36 -3.66699 52 -11
s29.667 -17.333 41 -30c11.333 12.667 25 22.667 41 30s33.333 11 52 11c17.333 0 33.666 -3.33301 48.999 -10s28.666 -15.5 39.999 -26.5s20.166 -24.167 26.499 -39.5s9.5 -31.333 9.5 -48v-143c0 -19.333 -2.33301 -35.666 -7 -48.999s-18.334 -24 -41.001 -32l-122 -35
c-3.33301 -1.33301 -6.5 -3.16602 -9.5 -5.49902s-4.5 -6.16602 -4.5 -11.499v-351c0 -39.333 7.5 -76.333 22.5 -111s35.333 -64.834 61 -90.501s55.834 -46 90.501 -61s71.667 -22.5 111 -22.5s76.333 7.5 111 22.5s64.834 35.333 90.501 61s46 55.834 61 90.501
s22.5 71.667 22.5 111v373c0 17.333 -6.16699 32.166 -18.5 44.499s-27.166 18.5 -44.499 18.5h-267c-9.33301 0 -17 3 -23 9s-9 13.667 -9 23s3 17 9 23s13.667 9 23 9h267c17.333 0.666992 32.166 7.16699 44.499 19.5s18.5 26.833 18.5 43.5v188c0 9.33301 3 17 9 23
s13.667 9 23 9s17 -3 23 -9s9 -13.667 9 -23v-187c0 -19.333 -3.83301 -37.333 -11.5 -54s-18.167 -30.667 -31.5 -42c28 -25.333 42.667 -57.666 44 -96.999v-370z" />
    <glyph glyph-name="chochoethai" unicode="&#xac;" horiz-adv-x="1550" 
d="M350 750c-34.667 0 -67.167 -6.5 -97.5 -19.5s-56.833 -30.833 -79.5 -53.5s-40.5 -49.167 -53.5 -79.5s-19.5 -62.833 -19.5 -97.5v-428c0 -20 6.83301 -37 20.5 -51s30.167 -21 49.5 -21s36 6.83301 50 20.5s21 30.167 21 49.5s-7 36 -21 50s-30.667 21 -50 21h-6v359
c0 26 4.83301 50.167 14.5 72.5s23 42 40 59s36.667 30.333 59 40s46.5 14.5 72.5 14.5c9.33301 0 17 3 23 9s9 13.667 9 23s-3 17 -9 23s-13.667 9 -23 9zM836 750c0 46 -8.83203 86.834 -26.499 122.501s-41.667 65.667 -72 90s-66 42.666 -107 54.999
s-84.5 18.5 -130.5 18.5s-89.5 -6.16699 -130.5 -18.5s-76.667 -30.666 -107 -54.999s-54.333 -54.333 -72 -90s-26.5 -76.5 -26.5 -122.5c0 -9.33301 -3 -17 -9 -23s-13.667 -9 -23 -9s-17 3 -23 9s-9 13.667 -9 23c0 55.333 10.5 104.666 31.5 147.999s49.5 80 85.5 110
s78.333 52.833 127 68.5s100.667 23.5 156 23.5s107.333 -7.83301 156 -23.5s91 -38.5 127 -68.5s64.5 -66.667 85.5 -110s31.5 -92.666 31.5 -147.999v-468c0 -30 5.66699 -58.167 17 -84.5s27 -49.5 47 -69.5s43.167 -35.667 69.5 -47s54.5 -17 84.5 -17
s58.167 5.66699 84.5 17s49.5 27 69.5 47s35.667 43.167 47 69.5s17 54.5 17 84.5v786c0 9.33301 3 17 9 23s13.667 9 23 9s17 -3 23 -9s9 -13.667 9 -23v-786c0 -39.333 -7.33301 -76 -22 -110s-34.834 -63.833 -60.501 -89.5s-55.667 -45.834 -90 -60.501
s-70.833 -22 -109.5 -22c-44 0 -84.833 9.16699 -122.5 27.5s-69.5 43.5 -95.5 75.5v-55c0 -13.333 -4.83301 -24.666 -14.5 -33.999s-21.167 -14 -34.5 -14s-24.666 4.66699 -33.999 14s-14 20.666 -14 33.999v320c0 9.33301 3.16699 17 9.5 23s14.166 9 23.499 9v350z" />
    <glyph glyph-name="chochoethai" unicode="&#xe0c;" horiz-adv-x="1550" 
d="M350 750c-34.667 0 -67.167 -6.5 -97.5 -19.5s-56.833 -30.833 -79.5 -53.5s-40.5 -49.167 -53.5 -79.5s-19.5 -62.833 -19.5 -97.5v-428c0 -20 6.83301 -37 20.5 -51s30.167 -21 49.5 -21s36 6.83301 50 20.5s21 30.167 21 49.5s-7 36 -21 50s-30.667 21 -50 21h-6v359
c0 26 4.83301 50.167 14.5 72.5s23 42 40 59s36.667 30.333 59 40s46.5 14.5 72.5 14.5c9.33301 0 17 3 23 9s9 13.667 9 23s-3 17 -9 23s-13.667 9 -23 9zM836 750c0 46 -8.83203 86.834 -26.499 122.501s-41.667 65.667 -72 90s-66 42.666 -107 54.999
s-84.5 18.5 -130.5 18.5s-89.5 -6.16699 -130.5 -18.5s-76.667 -30.666 -107 -54.999s-54.333 -54.333 -72 -90s-26.5 -76.5 -26.5 -122.5c0 -9.33301 -3 -17 -9 -23s-13.667 -9 -23 -9s-17 3 -23 9s-9 13.667 -9 23c0 55.333 10.5 104.666 31.5 147.999s49.5 80 85.5 110
s78.333 52.833 127 68.5s100.667 23.5 156 23.5s107.333 -7.83301 156 -23.5s91 -38.5 127 -68.5s64.5 -66.667 85.5 -110s31.5 -92.666 31.5 -147.999v-468c0 -30 5.66699 -58.167 17 -84.5s27 -49.5 47 -69.5s43.167 -35.667 69.5 -47s54.5 -17 84.5 -17
s58.167 5.66699 84.5 17s49.5 27 69.5 47s35.667 43.167 47 69.5s17 54.5 17 84.5v786c0 9.33301 3 17 9 23s13.667 9 23 9s17 -3 23 -9s9 -13.667 9 -23v-786c0 -39.333 -7.33301 -76 -22 -110s-34.834 -63.833 -60.501 -89.5s-55.667 -45.834 -90 -60.501
s-70.833 -22 -109.5 -22c-44 0 -84.833 9.16699 -122.5 27.5s-69.5 43.5 -95.5 75.5v-55c0 -13.333 -4.83301 -24.666 -14.5 -33.999s-21.167 -14 -34.5 -14s-24.666 4.66699 -33.999 14s-14 20.666 -14 33.999v320c0 9.33301 3.16699 17 9.5 23s14.166 9 23.499 9v350z" />
    <glyph glyph-name="yoyingthai" unicode="&#xad;" horiz-adv-x="1550" 
d="M350 750c-34.667 0 -67.167 -6.5 -97.5 -19.5s-56.833 -30.833 -79.5 -53.5s-40.5 -49.167 -53.5 -79.5s-19.5 -62.833 -19.5 -97.5v-428c0 -20 6.83301 -37 20.5 -51s30.167 -21 49.5 -21s36 6.83301 50 20.5s21 30.167 21 49.5s-7 36 -21 50s-30.667 21 -50 21h-6v359
c0 26 4.83301 50.167 14.5 72.5s23 42 40 59s36.667 30.333 59 40s46.5 14.5 72.5 14.5c9.33301 0 17 3 23 9s9 13.667 9 23s-3 17 -9 23s-13.667 9 -23 9zM1400 19c0 -34.667 -6.49902 -67.1699 -19.499 -97.5029s-30.833 -56.833 -53.5 -79.5s-49.167 -40.5 -79.5 -53.5
s-62.5 -19.5 -96.5 -19.5h-251c-9.33301 0 -17 3 -23 9s-9 13.667 -9 23s3 17 9 23s13.667 9 23 9h250c26 0 50.167 4.83301 72.5 14.5s42 22.834 59 39.501s30.333 36.334 40 59.001s14.5 46.667 14.5 72v85c-26 -32 -57.833 -57.167 -95.5 -75.5s-78.5 -27.5 -122.5 -27.5
c-39.333 0 -76 7.33301 -110 22s-63.833 34.834 -89.5 60.501s-45.834 55.5 -60.501 89.5s-22 70.667 -22 110v468c0 46 -8.83301 86.833 -26.5 122.5s-41.667 65.667 -72 90s-66 42.666 -107 54.999s-84.5 18.5 -130.5 18.5s-89.5 -6.16699 -130.5 -18.5
s-76.667 -30.666 -107 -54.999s-54.333 -54.333 -72 -90s-26.5 -76.5 -26.5 -122.5c0 -9.33301 -3 -17 -9 -23s-13.667 -9 -23 -9s-17 3 -23 9s-9 13.667 -9 23c0 55.333 10.5 104.666 31.5 147.999s49.5 80 85.5 110s78.333 52.833 127 68.5s100.667 23.5 156 23.5
s107.333 -7.83301 156 -23.5s91 -38.5 127 -68.5s64.5 -66.667 85.5 -110s31.5 -92.666 31.5 -147.999v-468c0 -30 5.66699 -58.167 17 -84.5s27 -49.5 47 -69.5s43.167 -35.667 69.5 -47s54.5 -17 84.5 -17s58.167 5.66699 84.5 17s49.5 27 69.5 47s35.667 43.167 47 69.5
s17 54.5 17 84.5v786c0 9.33301 3 17 9 23s13.667 9 23 9s17 -3 23 -9s9 -13.667 9 -23v-1049z" />
    <glyph glyph-name="yoyingthai" unicode="&#xe0d;" horiz-adv-x="1550" 
d="M350 750c-34.667 0 -67.167 -6.5 -97.5 -19.5s-56.833 -30.833 -79.5 -53.5s-40.5 -49.167 -53.5 -79.5s-19.5 -62.833 -19.5 -97.5v-428c0 -20 6.83301 -37 20.5 -51s30.167 -21 49.5 -21s36 6.83301 50 20.5s21 30.167 21 49.5s-7 36 -21 50s-30.667 21 -50 21h-6v359
c0 26 4.83301 50.167 14.5 72.5s23 42 40 59s36.667 30.333 59 40s46.5 14.5 72.5 14.5c9.33301 0 17 3 23 9s9 13.667 9 23s-3 17 -9 23s-13.667 9 -23 9zM1400 19c0 -34.667 -6.49902 -67.1699 -19.499 -97.5029s-30.833 -56.833 -53.5 -79.5s-49.167 -40.5 -79.5 -53.5
s-62.5 -19.5 -96.5 -19.5h-251c-9.33301 0 -17 3 -23 9s-9 13.667 -9 23s3 17 9 23s13.667 9 23 9h250c26 0 50.167 4.83301 72.5 14.5s42 22.834 59 39.501s30.333 36.334 40 59.001s14.5 46.667 14.5 72v85c-26 -32 -57.833 -57.167 -95.5 -75.5s-78.5 -27.5 -122.5 -27.5
c-39.333 0 -76 7.33301 -110 22s-63.833 34.834 -89.5 60.501s-45.834 55.5 -60.501 89.5s-22 70.667 -22 110v468c0 46 -8.83301 86.833 -26.5 122.5s-41.667 65.667 -72 90s-66 42.666 -107 54.999s-84.5 18.5 -130.5 18.5s-89.5 -6.16699 -130.5 -18.5
s-76.667 -30.666 -107 -54.999s-54.333 -54.333 -72 -90s-26.5 -76.5 -26.5 -122.5c0 -9.33301 -3 -17 -9 -23s-13.667 -9 -23 -9s-17 3 -23 9s-9 13.667 -9 23c0 55.333 10.5 104.666 31.5 147.999s49.5 80 85.5 110s78.333 52.833 127 68.5s100.667 23.5 156 23.5
s107.333 -7.83301 156 -23.5s91 -38.5 127 -68.5s64.5 -66.667 85.5 -110s31.5 -92.666 31.5 -147.999v-468c0 -30 5.66699 -58.167 17 -84.5s27 -49.5 47 -69.5s43.167 -35.667 69.5 -47s54.5 -17 84.5 -17s58.167 5.66699 84.5 17s49.5 27 69.5 47s35.667 43.167 47 69.5
s17 54.5 17 84.5v786c0 9.33301 3 17 9 23s13.667 9 23 9s17 -3 23 -9s9 -13.667 9 -23v-1049z" />
    <glyph glyph-name="yoyingthai" unicode="&#xde;" horiz-adv-x="1550" 
d="M350 750c-34.667 0 -67.167 -6.5 -97.5 -19.5s-56.833 -30.833 -79.5 -53.5s-40.5 -49.167 -53.5 -79.5s-19.5 -62.833 -19.5 -97.5v-428c0 -20 6.83301 -37 20.5 -51s30.167 -21 49.5 -21s36 6.83301 50 20.5s21 30.167 21 49.5s-7 36 -21 50s-30.667 21 -50 21h-6v359
c0 26 4.83301 50.167 14.5 72.5s23 42 40 59s36.667 30.333 59 40s46.5 14.5 72.5 14.5c9.33301 0 17 3 23 9s9 13.667 9 23s-3 17 -9 23s-13.667 9 -23 9zM1400 19c0 -34.667 -6.49902 -67.1699 -19.499 -97.5029s-30.833 -56.833 -53.5 -79.5s-49.167 -40.5 -79.5 -53.5
s-62.5 -19.5 -96.5 -19.5h-251c-9.33301 0 -17 3 -23 9s-9 13.667 -9 23s3 17 9 23s13.667 9 23 9h250c26 0 50.167 4.83301 72.5 14.5s42 22.834 59 39.501s30.333 36.334 40 59.001s14.5 46.667 14.5 72v85c-26 -32 -57.833 -57.167 -95.5 -75.5s-78.5 -27.5 -122.5 -27.5
c-39.333 0 -76 7.33301 -110 22s-63.833 34.834 -89.5 60.501s-45.834 55.5 -60.501 89.5s-22 70.667 -22 110v468c0 46 -8.83301 86.833 -26.5 122.5s-41.667 65.667 -72 90s-66 42.666 -107 54.999s-84.5 18.5 -130.5 18.5s-89.5 -6.16699 -130.5 -18.5
s-76.667 -30.666 -107 -54.999s-54.333 -54.333 -72 -90s-26.5 -76.5 -26.5 -122.5c0 -9.33301 -3 -17 -9 -23s-13.667 -9 -23 -9s-17 3 -23 9s-9 13.667 -9 23c0 55.333 10.5 104.666 31.5 147.999s49.5 80 85.5 110s78.333 52.833 127 68.5s100.667 23.5 156 23.5
s107.333 -7.83301 156 -23.5s91 -38.5 127 -68.5s64.5 -66.667 85.5 -110s31.5 -92.666 31.5 -147.999v-468c0 -30 5.66699 -58.167 17 -84.5s27 -49.5 47 -69.5s43.167 -35.667 69.5 -47s54.5 -17 84.5 -17s58.167 5.66699 84.5 17s49.5 27 69.5 47s35.667 43.167 47 69.5
s17 54.5 17 84.5v786c0 9.33301 3 17 9 23s13.667 9 23 9s17 -3 23 -9s9 -13.667 9 -23v-1049z" />
    <glyph glyph-name="dochadathai" unicode="&#xae;" horiz-adv-x="1050" 
d="M350 750c9.33301 0 17 -3 23 -9s9 -13.667 9 -23s-3 -17 -9 -23s-13.667 -9 -23 -9c-26 0 -50.167 -4.83301 -72.5 -14.5s-42 -23 -59 -40s-30.333 -36.667 -40 -59s-14.5 -46.5 -14.5 -72.5v-430c0 -19.333 -7 -35.833 -21 -49.5s-30.667 -20.5 -50 -20.5
s-35.833 6.83301 -49.5 20.5s-20.5 30.167 -20.5 49.5s6.83301 36 20.5 50s30.167 21 49.5 21h7v359c0 34.667 6.5 67.167 19.5 97.5s30.833 56.833 53.5 79.5s49.167 40.5 79.5 53.5s62.833 19.5 97.5 19.5zM650 -336c26 0 50.167 4.83105 72.5 14.498s42 22.834 59 39.501
s30.333 36.334 40 59.001s14.5 46.667 14.5 72v901c0 46 -8.83301 86.833 -26.5 122.5s-41.667 65.667 -72 90s-66 42.666 -107 54.999s-84.5 18.5 -130.5 18.5s-89.5 -6.16699 -130.5 -18.5s-76.667 -30.666 -107 -54.999s-54.333 -54.333 -72 -90
s-26.5 -76.5 -26.5 -122.5c0 -9.33301 -3 -17 -9 -23s-13.667 -9 -23 -9s-17 3 -23 9s-9 13.667 -9 23c0 55.333 10.5 104.666 31.5 147.999s49.5 80 85.5 110s78.333 52.833 127 68.5s100.667 23.5 156 23.5s107.333 -7.83301 156 -23.5s91 -38.5 127 -68.5
s64.5 -66.667 85.5 -110s31.5 -92.666 31.5 -147.999v-900c0 -34.667 -6.5 -67.167 -19.5 -97.5s-30.833 -56.833 -53.5 -79.5s-49.167 -40.5 -79.5 -53.5s-62.5 -19.5 -96.5 -19.5h-489c-9.33301 0 -17 3 -23 9s-9 13.667 -9 23s3 17 9 23s13.667 9 23 9h488z" />
    <glyph glyph-name="dochadathai" unicode="&#xe0e;" horiz-adv-x="1050" 
d="M350 750c9.33301 0 17 -3 23 -9s9 -13.667 9 -23s-3 -17 -9 -23s-13.667 -9 -23 -9c-26 0 -50.167 -4.83301 -72.5 -14.5s-42 -23 -59 -40s-30.333 -36.667 -40 -59s-14.5 -46.5 -14.5 -72.5v-430c0 -19.333 -7 -35.833 -21 -49.5s-30.667 -20.5 -50 -20.5
s-35.833 6.83301 -49.5 20.5s-20.5 30.167 -20.5 49.5s6.83301 36 20.5 50s30.167 21 49.5 21h7v359c0 34.667 6.5 67.167 19.5 97.5s30.833 56.833 53.5 79.5s49.167 40.5 79.5 53.5s62.833 19.5 97.5 19.5zM650 -336c26 0 50.167 4.83105 72.5 14.498s42 22.834 59 39.501
s30.333 36.334 40 59.001s14.5 46.667 14.5 72v901c0 46 -8.83301 86.833 -26.5 122.5s-41.667 65.667 -72 90s-66 42.666 -107 54.999s-84.5 18.5 -130.5 18.5s-89.5 -6.16699 -130.5 -18.5s-76.667 -30.666 -107 -54.999s-54.333 -54.333 -72 -90
s-26.5 -76.5 -26.5 -122.5c0 -9.33301 -3 -17 -9 -23s-13.667 -9 -23 -9s-17 3 -23 9s-9 13.667 -9 23c0 55.333 10.5 104.666 31.5 147.999s49.5 80 85.5 110s78.333 52.833 127 68.5s100.667 23.5 156 23.5s107.333 -7.83301 156 -23.5s91 -38.5 127 -68.5
s64.5 -66.667 85.5 -110s31.5 -92.666 31.5 -147.999v-900c0 -34.667 -6.5 -67.167 -19.5 -97.5s-30.833 -56.833 -53.5 -79.5s-49.167 -40.5 -79.5 -53.5s-62.5 -19.5 -96.5 -19.5h-489c-9.33301 0 -17 3 -23 9s-9 13.667 -9 23s3 17 9 23s13.667 9 23 9h488z" />
    <glyph glyph-name="topatakthai" unicode="&#xaf;" horiz-adv-x="1050" 
d="M350 750c9.33301 0 17 -3 23 -9s9 -13.667 9 -23s-3 -17 -9 -23s-13.667 -9 -23 -9c-26 0 -50.167 -4.83301 -72.5 -14.5s-42 -23 -59 -40s-30.333 -36.667 -40 -59s-14.5 -46.5 -14.5 -72.5v-430c0 -19.333 -7 -35.833 -21 -49.5s-30.667 -20.5 -50 -20.5
s-35.833 6.83301 -49.5 20.5s-20.5 30.167 -20.5 49.5s6.83301 36 20.5 50s30.167 21 49.5 21h7v359c0 34.667 6.5 67.167 19.5 97.5s30.833 56.833 53.5 79.5s49.167 40.5 79.5 53.5s62.833 19.5 97.5 19.5zM410 -160c0 9.33301 3.00195 16.998 9.00195 22.998
s13.667 9 23 9s17 -3 23 -9s9 -13.667 9 -23c0 -24.667 4.66699 -47.667 14 -69s22 -40 38 -56s34.667 -28.5 56 -37.5s44 -13.5 68 -13.5c26 0 50.167 4.83301 72.5 14.5s42 22.834 59 39.501s30.333 36.334 40 59.001s14.5 46.667 14.5 72v901
c0 46 -8.83301 86.833 -26.5 122.5s-41.667 65.667 -72 90s-66 42.666 -107 54.999s-84.5 18.5 -130.5 18.5s-89.5 -6.16699 -130.5 -18.5s-76.667 -30.666 -107 -54.999s-54.333 -54.333 -72 -90s-26.5 -76.5 -26.5 -122.5c0 -9.33301 -3 -17 -9 -23s-13.667 -9 -23 -9
s-17 3 -23 9s-9 13.667 -9 23c0 55.333 10.5 104.666 31.5 147.999s49.5 80 85.5 110s78.333 52.833 127 68.5s100.667 23.5 156 23.5s107.333 -7.83301 156 -23.5s91 -38.5 127 -68.5s64.5 -66.667 85.5 -110s31.5 -92.666 31.5 -147.999v-900
c0 -34.667 -6.5 -67.167 -19.5 -97.5s-30.833 -56.833 -53.5 -79.5s-49.167 -40.5 -79.5 -53.5s-62.5 -19.5 -96.5 -19.5c-44.667 0 -85.334 11 -122.001 33s-65.667 51 -87 87c-21.333 -36 -50.333 -65 -87 -87s-77.334 -33 -122.001 -33h-71c-9.33301 0 -17 3 -23 9
s-9 13.667 -9 23s3 17 9 23s13.667 9 23 9h71c24.667 0 47.667 4.5 69 13.5s40 21.5 56 37.5s28.667 34.667 38 56s14 44.333 14 69z" />
    <glyph glyph-name="topatakthai" unicode="&#xe0f;" horiz-adv-x="1050" 
d="M350 750c9.33301 0 17 -3 23 -9s9 -13.667 9 -23s-3 -17 -9 -23s-13.667 -9 -23 -9c-26 0 -50.167 -4.83301 -72.5 -14.5s-42 -23 -59 -40s-30.333 -36.667 -40 -59s-14.5 -46.5 -14.5 -72.5v-430c0 -19.333 -7 -35.833 -21 -49.5s-30.667 -20.5 -50 -20.5
s-35.833 6.83301 -49.5 20.5s-20.5 30.167 -20.5 49.5s6.83301 36 20.5 50s30.167 21 49.5 21h7v359c0 34.667 6.5 67.167 19.5 97.5s30.833 56.833 53.5 79.5s49.167 40.5 79.5 53.5s62.833 19.5 97.5 19.5zM410 -160c0 9.33301 3.00195 16.998 9.00195 22.998
s13.667 9 23 9s17 -3 23 -9s9 -13.667 9 -23c0 -24.667 4.66699 -47.667 14 -69s22 -40 38 -56s34.667 -28.5 56 -37.5s44 -13.5 68 -13.5c26 0 50.167 4.83301 72.5 14.5s42 22.834 59 39.501s30.333 36.334 40 59.001s14.5 46.667 14.5 72v901
c0 46 -8.83301 86.833 -26.5 122.5s-41.667 65.667 -72 90s-66 42.666 -107 54.999s-84.5 18.5 -130.5 18.5s-89.5 -6.16699 -130.5 -18.5s-76.667 -30.666 -107 -54.999s-54.333 -54.333 -72 -90s-26.5 -76.5 -26.5 -122.5c0 -9.33301 -3 -17 -9 -23s-13.667 -9 -23 -9
s-17 3 -23 9s-9 13.667 -9 23c0 55.333 10.5 104.666 31.5 147.999s49.5 80 85.5 110s78.333 52.833 127 68.5s100.667 23.5 156 23.5s107.333 -7.83301 156 -23.5s91 -38.5 127 -68.5s64.5 -66.667 85.5 -110s31.5 -92.666 31.5 -147.999v-900
c0 -34.667 -6.5 -67.167 -19.5 -97.5s-30.833 -56.833 -53.5 -79.5s-49.167 -40.5 -79.5 -53.5s-62.5 -19.5 -96.5 -19.5c-44.667 0 -85.334 11 -122.001 33s-65.667 51 -87 87c-21.333 -36 -50.333 -65 -87 -87s-77.334 -33 -122.001 -33h-71c-9.33301 0 -17 3 -23 9
s-9 13.667 -9 23s3 17 9 23s13.667 9 23 9h71c24.667 0 47.667 4.5 69 13.5s40 21.5 56 37.5s28.667 34.667 38 56s14 44.333 14 69z" />
    <glyph glyph-name="thothanthai" unicode="&#xb0;" horiz-adv-x="980" 
d="M502 -244c0 -12 2.66504 -23.668 7.99805 -35.001s12.333 -21.166 21 -29.499s18.834 -15 30.501 -20s23.5 -7.5 35.5 -7.5c24.667 0 45.667 8.5 63 25.5s26 37.833 26 62.5v43c-16 4.66699 -29.333 13.334 -40 26.001s-16 27.667 -16 45c0 19.333 6.83301 36 20.5 50
s30.167 21 49.5 21s36 -7 50 -21s21 -30.667 21 -50s-7 -36 -21 -50v-60c0 -21.333 -4.16699 -41.5 -12.5 -60.5s-19.5 -35.5 -33.5 -49.5s-30.5 -25.167 -49.5 -33.5s-39.167 -12.5 -60.5 -12.5c-25.333 0 -48.666 5.5 -69.999 16.5s-39 25.5 -53 43.5
c-14.667 -18.667 -32.5 -33.334 -53.5 -44.001s-44.167 -16 -69.5 -16h-166c-9.33301 0 -17 3 -23 9s-9 13.667 -9 23s3 17 9 23s13.667 9 23 9h167c24.667 0 45.667 8.5 63 25.5s26 37.833 26 62.5v4c0 9.33301 3 17 9 23s13.667 9 23 9s17 -3 23 -9s9 -13.667 9 -23z
M599.998 246.999c0 2.66699 -0.162109 10 -0.495117 22s-4.66602 27.167 -12.999 45.5s-20.333 34.666 -36 48.999s-33.5 24.833 -53.5 31.5l5 -16c0 -12 -1.33301 -23 -4 -33c-4.66699 -12 -12.167 -22.167 -22.5 -30.5s-22.5 -13.166 -36.5 -14.499
c-2 -0.666992 -5 -1 -9 -1s-8 0.333008 -12 1s-7.66699 1.66699 -11 3c-12 4.66699 -22.167 12.167 -30.5 22.5s-13.5 22.833 -15.5 37.5c-0.666992 3.33301 -1 7.66602 -1 12.999c0 4.66699 0.666992 8.33398 2 11.001c7.33301 19.333 16.166 33.5 26.499 42.5
s24.166 16.833 41.499 23.5c4 2 9.83301 3.83301 17.5 5.5s16.167 2.5 25.5 2.5c7.33301 0 15 -0.5 23 -1.5s16 -3.16699 24 -6.5c28 -10.667 47.833 -21.5 59.5 -32.5s18.5 -17.833 20.5 -20.5v87c-2 23.333 -9.16699 43.5 -21.5 60.5s-33.833 25.5 -64.5 25.5
c-20 0 -41.333 -1 -64 -3s-46.334 -4.33301 -71.001 -7s-50 -5 -76 -7s-52 -3 -78 -3h-10c-26 0 -50.167 5.16699 -72.5 15.5s-41.833 24.5 -58.5 42.5s-29.834 38.833 -39.501 62.5s-14.5 48.5 -14.5 74.5c0 55.333 10.5 104.666 31.5 147.999s49.5 80 85.5 110
s78.333 52.833 127 68.5s100.667 23.5 156 23.5s107.333 -7.83301 156 -23.5s91 -38.5 127 -68.5s64.5 -66.667 85.5 -110s31.5 -92.666 31.5 -147.999c0 -9.33301 -3 -17 -9 -23s-13.667 -9 -23 -9s-17 3 -23 9s-9 13.667 -9 23c0 46 -8.83301 86.833 -26.5 122.5
s-41.667 65.667 -72 90s-66 42.666 -107 54.999s-84.5 18.5 -130.5 18.5s-89.5 -6.16699 -130.5 -18.5s-76.667 -30.666 -107 -54.999s-54.333 -54.333 -72 -90s-26.5 -76.5 -26.5 -122.5c0 -18 3.16699 -35 9.5 -51s15.166 -30 26.499 -42s24.666 -21.5 39.999 -28.5
s31.666 -10.5 48.999 -10.5h7c52 0 101.667 3.5 149 10.5s93.666 10.5 138.999 10.5c24 0 45.333 -4.16699 64 -12.5s34.334 -19.333 47.001 -33s22.334 -29.5 29.001 -47.5s10 -37 10 -57v-456c0 -9.33301 -3 -17 -9 -23s-13.667 -9 -23 -9s-17 3 -23 9s-9 13.667 -9 23
v215z" />
    <glyph glyph-name="thothanthai" unicode="&#xe10;" horiz-adv-x="980" 
d="M502 -244c0 -12 2.66504 -23.668 7.99805 -35.001s12.333 -21.166 21 -29.499s18.834 -15 30.501 -20s23.5 -7.5 35.5 -7.5c24.667 0 45.667 8.5 63 25.5s26 37.833 26 62.5v43c-16 4.66699 -29.333 13.334 -40 26.001s-16 27.667 -16 45c0 19.333 6.83301 36 20.5 50
s30.167 21 49.5 21s36 -7 50 -21s21 -30.667 21 -50s-7 -36 -21 -50v-60c0 -21.333 -4.16699 -41.5 -12.5 -60.5s-19.5 -35.5 -33.5 -49.5s-30.5 -25.167 -49.5 -33.5s-39.167 -12.5 -60.5 -12.5c-25.333 0 -48.666 5.5 -69.999 16.5s-39 25.5 -53 43.5
c-14.667 -18.667 -32.5 -33.334 -53.5 -44.001s-44.167 -16 -69.5 -16h-166c-9.33301 0 -17 3 -23 9s-9 13.667 -9 23s3 17 9 23s13.667 9 23 9h167c24.667 0 45.667 8.5 63 25.5s26 37.833 26 62.5v4c0 9.33301 3 17 9 23s13.667 9 23 9s17 -3 23 -9s9 -13.667 9 -23z
M599.998 246.999c0 2.66699 -0.162109 10 -0.495117 22s-4.66602 27.167 -12.999 45.5s-20.333 34.666 -36 48.999s-33.5 24.833 -53.5 31.5l5 -16c0 -12 -1.33301 -23 -4 -33c-4.66699 -12 -12.167 -22.167 -22.5 -30.5s-22.5 -13.166 -36.5 -14.499
c-2 -0.666992 -5 -1 -9 -1s-8 0.333008 -12 1s-7.66699 1.66699 -11 3c-12 4.66699 -22.167 12.167 -30.5 22.5s-13.5 22.833 -15.5 37.5c-0.666992 3.33301 -1 7.66602 -1 12.999c0 4.66699 0.666992 8.33398 2 11.001c7.33301 19.333 16.166 33.5 26.499 42.5
s24.166 16.833 41.499 23.5c4 2 9.83301 3.83301 17.5 5.5s16.167 2.5 25.5 2.5c7.33301 0 15 -0.5 23 -1.5s16 -3.16699 24 -6.5c28 -10.667 47.833 -21.5 59.5 -32.5s18.5 -17.833 20.5 -20.5v87c-2 23.333 -9.16699 43.5 -21.5 60.5s-33.833 25.5 -64.5 25.5
c-20 0 -41.333 -1 -64 -3s-46.334 -4.33301 -71.001 -7s-50 -5 -76 -7s-52 -3 -78 -3h-10c-26 0 -50.167 5.16699 -72.5 15.5s-41.833 24.5 -58.5 42.5s-29.834 38.833 -39.501 62.5s-14.5 48.5 -14.5 74.5c0 55.333 10.5 104.666 31.5 147.999s49.5 80 85.5 110
s78.333 52.833 127 68.5s100.667 23.5 156 23.5s107.333 -7.83301 156 -23.5s91 -38.5 127 -68.5s64.5 -66.667 85.5 -110s31.5 -92.666 31.5 -147.999c0 -9.33301 -3 -17 -9 -23s-13.667 -9 -23 -9s-17 3 -23 9s-9 13.667 -9 23c0 46 -8.83301 86.833 -26.5 122.5
s-41.667 65.667 -72 90s-66 42.666 -107 54.999s-84.5 18.5 -130.5 18.5s-89.5 -6.16699 -130.5 -18.5s-76.667 -30.666 -107 -54.999s-54.333 -54.333 -72 -90s-26.5 -76.5 -26.5 -122.5c0 -18 3.16699 -35 9.5 -51s15.166 -30 26.499 -42s24.666 -21.5 39.999 -28.5
s31.666 -10.5 48.999 -10.5h7c52 0 101.667 3.5 149 10.5s93.666 10.5 138.999 10.5c24 0 45.333 -4.16699 64 -12.5s34.334 -19.333 47.001 -33s22.334 -29.5 29.001 -47.5s10 -37 10 -57v-456c0 -9.33301 -3 -17 -9 -23s-13.667 -9 -23 -9s-17 3 -23 9s-9 13.667 -9 23
v215z" />
    <glyph glyph-name="thonangmonthothai" unicode="&#xb1;" horiz-adv-x="1090" 
d="M474 1006c24 28.667 53.4971 51.502 88.4971 68.502s72.833 25.5 113.5 25.5c36.667 0 71 -6.83301 103 -20.5s60 -32.5 84 -56.5s42.833 -52 56.5 -84s20.5 -66.333 20.5 -103v-805c0 -9.33301 -3 -17 -9 -23s-13.667 -9 -23 -9s-17 3 -23 9s-9 13.667 -9 23v805
c0 27.333 -5.33301 53.166 -16 77.499s-25 45.5 -43 63.5s-39.167 32.333 -63.5 43s-50.166 16 -77.499 16s-53.166 -5.33301 -77.499 -16s-45.5 -25.167 -63.5 -43.5s-32.167 -39.833 -42.5 -64.5s-15.5 -51 -15.5 -79c0 -19.333 -2.33301 -35.666 -7 -48.999
s-18.334 -24 -41.001 -32l-122 -35c-4 -1.33301 -7.5 -3.16602 -10.5 -5.49902s-4.83301 -6.16602 -5.5 -11.499v-668c0 -9.33301 -3 -17 -9 -23s-13.667 -9 -23 -9s-17 3 -23 9s-9 13.667 -9 23v668c0 14 1.5 25.667 4.5 35s7.83301 17.166 14.5 23.499
s15.5 11.5 26.5 15.5s24.5 8 40.5 12l82 20c7.33301 2 12.166 5.16699 14.499 9.5s3.5 11.166 3.5 20.499v140c0 17.333 -5.83301 31.833 -17.5 43.5s-26.167 17.5 -43.5 17.5c-16.667 0 -30.667 -5.5 -42 -16.5s-17.666 -24.167 -18.999 -39.5
c0 -9.33301 -3 -17.166 -9 -23.499s-13.667 -9.5 -23 -9.5s-17 3 -23 9s-9 13.667 -9 23c-1.33301 16 -7.83301 29.5 -19.5 40.5s-25.5 16.5 -41.5 16.5c-17.333 0 -32.166 -5.5 -44.499 -16.5s-18.5 -25.167 -18.5 -42.5c0 -12 1.66699 -24.333 5 -37l11 13
c5.33301 5.33301 10.166 8.66602 14.499 9.99902s8.83301 3 13.5 5c6.66699 1.33301 11.667 2 15 2c18.667 0 35.334 -6.33301 50.001 -19l7 -6c7.33301 -9.33301 12 -19 14 -29c1.33301 -6.66699 2 -12 2 -16c0 -16.667 -6 -32.667 -18 -48l-5 -6
c-7.33301 -7.33301 -15 -12 -23 -14c-10.667 -2.66699 -21.334 -4 -32.001 -4c-11.333 0 -21.5 1.83301 -30.5 5.5s-19.167 9.16699 -30.5 16.5c-1.33301 1.33301 -2.66602 2.16602 -3.99902 2.49902s-2.66602 1.16602 -3.99902 2.49902c-7.33301 6 -15 14.833 -23 26.5
s-14.333 26.167 -19 43.5c-1.33301 4.66699 -2.5 9.5 -3.5 14.5s-1.5 11.167 -1.5 18.5v16c1.33301 17.333 5.33301 33.5 12 48.5s15.5 28.167 26.5 39.5s23.833 20.333 38.5 27s30.667 10 48 10c18.667 0 36 -3.66699 52 -11s29.667 -17.333 41 -30
c11.333 12.667 25 22.667 41 30s33.333 11 52 11c30.667 0 57.167 -8.83301 79.5 -26.5s36.5 -40.167 42.5 -67.5z" />
    <glyph glyph-name="thonangmonthothai" unicode="&#xe11;" horiz-adv-x="1090" 
d="M474 1006c24 28.667 53.4971 51.502 88.4971 68.502s72.833 25.5 113.5 25.5c36.667 0 71 -6.83301 103 -20.5s60 -32.5 84 -56.5s42.833 -52 56.5 -84s20.5 -66.333 20.5 -103v-805c0 -9.33301 -3 -17 -9 -23s-13.667 -9 -23 -9s-17 3 -23 9s-9 13.667 -9 23v805
c0 27.333 -5.33301 53.166 -16 77.499s-25 45.5 -43 63.5s-39.167 32.333 -63.5 43s-50.166 16 -77.499 16s-53.166 -5.33301 -77.499 -16s-45.5 -25.167 -63.5 -43.5s-32.167 -39.833 -42.5 -64.5s-15.5 -51 -15.5 -79c0 -19.333 -2.33301 -35.666 -7 -48.999
s-18.334 -24 -41.001 -32l-122 -35c-4 -1.33301 -7.5 -3.16602 -10.5 -5.49902s-4.83301 -6.16602 -5.5 -11.499v-668c0 -9.33301 -3 -17 -9 -23s-13.667 -9 -23 -9s-17 3 -23 9s-9 13.667 -9 23v668c0 14 1.5 25.667 4.5 35s7.83301 17.166 14.5 23.499
s15.5 11.5 26.5 15.5s24.5 8 40.5 12l82 20c7.33301 2 12.166 5.16699 14.499 9.5s3.5 11.166 3.5 20.499v140c0 17.333 -5.83301 31.833 -17.5 43.5s-26.167 17.5 -43.5 17.5c-16.667 0 -30.667 -5.5 -42 -16.5s-17.666 -24.167 -18.999 -39.5
c0 -9.33301 -3 -17.166 -9 -23.499s-13.667 -9.5 -23 -9.5s-17 3 -23 9s-9 13.667 -9 23c-1.33301 16 -7.83301 29.5 -19.5 40.5s-25.5 16.5 -41.5 16.5c-17.333 0 -32.166 -5.5 -44.499 -16.5s-18.5 -25.167 -18.5 -42.5c0 -12 1.66699 -24.333 5 -37l11 13
c5.33301 5.33301 10.166 8.66602 14.499 9.99902s8.83301 3 13.5 5c6.66699 1.33301 11.667 2 15 2c18.667 0 35.334 -6.33301 50.001 -19l7 -6c7.33301 -9.33301 12 -19 14 -29c1.33301 -6.66699 2 -12 2 -16c0 -16.667 -6 -32.667 -18 -48l-5 -6
c-7.33301 -7.33301 -15 -12 -23 -14c-10.667 -2.66699 -21.334 -4 -32.001 -4c-11.333 0 -21.5 1.83301 -30.5 5.5s-19.167 9.16699 -30.5 16.5c-1.33301 1.33301 -2.66602 2.16602 -3.99902 2.49902s-2.66602 1.16602 -3.99902 2.49902c-7.33301 6 -15 14.833 -23 26.5
s-14.333 26.167 -19 43.5c-1.33301 4.66699 -2.5 9.5 -3.5 14.5s-1.5 11.167 -1.5 18.5v16c1.33301 17.333 5.33301 33.5 12 48.5s15.5 28.167 26.5 39.5s23.833 20.333 38.5 27s30.667 10 48 10c18.667 0 36 -3.66699 52 -11s29.667 -17.333 41 -30
c11.333 12.667 25 22.667 41 30s33.333 11 52 11c30.667 0 57.167 -8.83301 79.5 -26.5s36.5 -40.167 42.5 -67.5z" />
    <glyph glyph-name="thophuthaothai" unicode="&#xb2;" horiz-adv-x="1550" 
d="M164 299c0 -32.667 6.16797 -63.166 18.501 -91.499s29 -53.166 50 -74.499s45.667 -38.166 74 -50.499s58.833 -18.5 91.5 -18.5s63.5 6.16699 92.5 18.5s54.5 29.166 76.5 50.499s39.333 46.166 52 74.499s19 58.833 19 91.5c0.666992 16 -0.833008 32.5 -4.5 49.5
s-11.5 34.167 -23.5 51.5l-7 -15c-5.33301 -9.33301 -12.333 -17.666 -21 -24.999c-13.333 -8.66699 -26.666 -13 -39.999 -13c-11.333 0 -23 3 -35 9c-4.66699 2.66699 -8.83398 5.83398 -12.501 9.50098s-7.16699 7.5 -10.5 11.5c-8.66699 11.333 -13 25 -13 41
c0 12 2.33301 22.667 7 32c4.66699 10 10.334 17.333 17.001 22c10.667 7.33301 20.5 12.666 29.5 15.999s18.5 5 28.5 5c5.33301 0 10.833 -0.5 16.5 -1.5s11.834 -2.16699 18.501 -3.5c7.33301 -2 18.5 -7 33.5 -15s28.167 -20.333 39.5 -37
c17.333 -25.333 28.5 -49.833 33.5 -73.5s7.16699 -44.5 6.5 -62.5c0 -41.333 -7.83301 -80.333 -23.5 -117s-37.167 -68.5 -64.5 -95.5s-59.333 -48.333 -96 -64s-75.667 -23.5 -117 -23.5s-80.333 7.83301 -117 23.5s-68.5 37 -95.5 64s-48.333 58.833 -64 95.5
s-23.5 75.667 -23.5 117v474c0 40.667 5.83301 78.5 17.5 113.5s28 66.167 49 93.5s46.333 51 76 71s62.167 36 97.5 48c4.66699 -18 12.167 -34.333 22.5 -49s22.5 -27.5 36.5 -38.5s29.5 -19.5 46.5 -25.5s35.167 -9 54.5 -9c38.667 0 72.667 11.333 102 34
s49 51.667 59 87c35.333 -12 67.666 -28 96.999 -48s54.5 -44 75.5 -72s37.333 -59.667 49 -95s17.5 -74.333 17.5 -117v-485c0 -30 5.66699 -58.167 17 -84.5s27 -49.5 47 -69.5s43.167 -35.667 69.5 -47s54.5 -17 84.5 -17s58.167 5.66699 84.5 17s49.5 27 69.5 47
s35.667 43.167 47 69.5s17 54.5 17 84.5v786c0 9.33301 3 17 9 23s13.667 9 23 9s17 -3 23 -9s9 -13.667 9 -23v-786c0 -39.333 -7.33301 -76 -22 -110s-34.834 -63.833 -60.501 -89.5s-55.667 -45.834 -90 -60.501s-70.833 -22 -109.5 -22
c-44 0 -84.833 9.16699 -122.5 27.5s-69.5 43.5 -95.5 75.5v-71c0 -9.33301 -3 -17 -9 -23s-13.667 -9 -23 -9s-17 3 -23 9s-9 13.667 -9 23v742c0 58 -13.5 107.167 -40.5 147.5s-62.5 72.166 -106.5 95.499c-21.333 -30.667 -48.5 -55 -81.5 -73s-69.167 -27 -108.5 -27
c-40 0 -76.333 9.16699 -109 27.5s-59.334 42.5 -80.001 72.5h1l2 1c-44 -22.667 -79.833 -54.167 -107.5 -94.5s-41.5 -90.5 -41.5 -150.5v-474z" />
    <glyph glyph-name="thophuthaothai" unicode="&#xe12;" horiz-adv-x="1550" 
d="M164 299c0 -32.667 6.16797 -63.166 18.501 -91.499s29 -53.166 50 -74.499s45.667 -38.166 74 -50.499s58.833 -18.5 91.5 -18.5s63.5 6.16699 92.5 18.5s54.5 29.166 76.5 50.499s39.333 46.166 52 74.499s19 58.833 19 91.5c0.666992 16 -0.833008 32.5 -4.5 49.5
s-11.5 34.167 -23.5 51.5l-7 -15c-5.33301 -9.33301 -12.333 -17.666 -21 -24.999c-13.333 -8.66699 -26.666 -13 -39.999 -13c-11.333 0 -23 3 -35 9c-4.66699 2.66699 -8.83398 5.83398 -12.501 9.50098s-7.16699 7.5 -10.5 11.5c-8.66699 11.333 -13 25 -13 41
c0 12 2.33301 22.667 7 32c4.66699 10 10.334 17.333 17.001 22c10.667 7.33301 20.5 12.666 29.5 15.999s18.5 5 28.5 5c5.33301 0 10.833 -0.5 16.5 -1.5s11.834 -2.16699 18.501 -3.5c7.33301 -2 18.5 -7 33.5 -15s28.167 -20.333 39.5 -37
c17.333 -25.333 28.5 -49.833 33.5 -73.5s7.16699 -44.5 6.5 -62.5c0 -41.333 -7.83301 -80.333 -23.5 -117s-37.167 -68.5 -64.5 -95.5s-59.333 -48.333 -96 -64s-75.667 -23.5 -117 -23.5s-80.333 7.83301 -117 23.5s-68.5 37 -95.5 64s-48.333 58.833 -64 95.5
s-23.5 75.667 -23.5 117v474c0 40.667 5.83301 78.5 17.5 113.5s28 66.167 49 93.5s46.333 51 76 71s62.167 36 97.5 48c4.66699 -18 12.167 -34.333 22.5 -49s22.5 -27.5 36.5 -38.5s29.5 -19.5 46.5 -25.5s35.167 -9 54.5 -9c38.667 0 72.667 11.333 102 34
s49 51.667 59 87c35.333 -12 67.666 -28 96.999 -48s54.5 -44 75.5 -72s37.333 -59.667 49 -95s17.5 -74.333 17.5 -117v-485c0 -30 5.66699 -58.167 17 -84.5s27 -49.5 47 -69.5s43.167 -35.667 69.5 -47s54.5 -17 84.5 -17s58.167 5.66699 84.5 17s49.5 27 69.5 47
s35.667 43.167 47 69.5s17 54.5 17 84.5v786c0 9.33301 3 17 9 23s13.667 9 23 9s17 -3 23 -9s9 -13.667 9 -23v-786c0 -39.333 -7.33301 -76 -22 -110s-34.834 -63.833 -60.501 -89.5s-55.667 -45.834 -90 -60.501s-70.833 -22 -109.5 -22
c-44 0 -84.833 9.16699 -122.5 27.5s-69.5 43.5 -95.5 75.5v-71c0 -9.33301 -3 -17 -9 -23s-13.667 -9 -23 -9s-17 3 -23 9s-9 13.667 -9 23v742c0 58 -13.5 107.167 -40.5 147.5s-62.5 72.166 -106.5 95.499c-21.333 -30.667 -48.5 -55 -81.5 -73s-69.167 -27 -108.5 -27
c-40 0 -76.333 9.16699 -109 27.5s-59.334 42.5 -80.001 72.5h1l2 1c-44 -22.667 -79.833 -54.167 -107.5 -94.5s-41.5 -90.5 -41.5 -150.5v-474z" />
    <glyph glyph-name="nonenthai" unicode="&#xb3;" horiz-adv-x="1550" 
d="M350 750c9.33301 0 17 -3 23 -9s9 -13.667 9 -23s-3 -17 -9 -23s-13.667 -9 -23 -9c-26 0 -50.167 -4.83301 -72.5 -14.5s-42 -23 -59 -40s-30.333 -36.667 -40 -59s-14.5 -46.5 -14.5 -72.5v-359h6c19.333 0 36 -7 50 -21s21 -30.667 21 -50s-7 -35.833 -21 -49.5
s-30.667 -20.5 -50 -20.5s-35.833 7 -49.5 21s-20.5 31 -20.5 51v428c0 34.667 6.5 67.167 19.5 97.5s30.833 56.833 53.5 79.5s49.167 40.5 79.5 53.5s62.833 19.5 97.5 19.5zM1400 400c9.33301 0 17.167 -3.00098 23.5 -9.00098s9.5 -13.667 9.5 -23v-320
c0 -13.333 -4.66699 -24.666 -14 -33.999s-20.666 -14 -33.999 -14s-24.833 4.66699 -34.5 14s-14.5 20.666 -14.5 33.999v55c-26 -32 -57.833 -57.167 -95.5 -75.5s-78.5 -27.5 -122.5 -27.5c-39.333 0 -76 7.33301 -110 22s-63.833 34.834 -89.5 60.501
s-45.834 55.5 -60.501 89.5s-22 70.667 -22 110v468c0 46 -8.83301 86.833 -26.5 122.5s-41.667 65.667 -72 90s-66 42.666 -107 54.999s-84.5 18.5 -130.5 18.5s-89.5 -6.16699 -130.5 -18.5s-76.667 -30.666 -107 -54.999s-54.333 -54.333 -72 -90
s-26.5 -76.5 -26.5 -122.5c0 -9.33301 -3 -17 -9 -23s-13.667 -9 -23 -9s-17 3 -23 9s-9 13.667 -9 23c0 55.333 10.5 104.666 31.5 147.999s49.5 80 85.5 110s78.333 52.833 127 68.5s100.667 23.5 156 23.5s107.333 -7.83301 156 -23.5s91 -38.5 127 -68.5
s64.5 -66.667 85.5 -110s31.5 -92.666 31.5 -147.999v-468c0 -30 5.66699 -58.167 17 -84.5s27 -49.5 47 -69.5s43.167 -35.667 69.5 -47s54.5 -17 84.5 -17s58.167 5.66699 84.5 17s49.5 27 69.5 47s35.667 43.167 47 69.5s17 54.5 17 84.5v786c0 9.33301 3 17 9 23
s13.667 9 23 9s17 -3 23 -9s9 -13.667 9 -23v-668z" />
    <glyph glyph-name="nonenthai" unicode="&#xe13;" horiz-adv-x="1550" 
d="M350 750c9.33301 0 17 -3 23 -9s9 -13.667 9 -23s-3 -17 -9 -23s-13.667 -9 -23 -9c-26 0 -50.167 -4.83301 -72.5 -14.5s-42 -23 -59 -40s-30.333 -36.667 -40 -59s-14.5 -46.5 -14.5 -72.5v-359h6c19.333 0 36 -7 50 -21s21 -30.667 21 -50s-7 -35.833 -21 -49.5
s-30.667 -20.5 -50 -20.5s-35.833 7 -49.5 21s-20.5 31 -20.5 51v428c0 34.667 6.5 67.167 19.5 97.5s30.833 56.833 53.5 79.5s49.167 40.5 79.5 53.5s62.833 19.5 97.5 19.5zM1400 400c9.33301 0 17.167 -3.00098 23.5 -9.00098s9.5 -13.667 9.5 -23v-320
c0 -13.333 -4.66699 -24.666 -14 -33.999s-20.666 -14 -33.999 -14s-24.833 4.66699 -34.5 14s-14.5 20.666 -14.5 33.999v55c-26 -32 -57.833 -57.167 -95.5 -75.5s-78.5 -27.5 -122.5 -27.5c-39.333 0 -76 7.33301 -110 22s-63.833 34.834 -89.5 60.501
s-45.834 55.5 -60.501 89.5s-22 70.667 -22 110v468c0 46 -8.83301 86.833 -26.5 122.5s-41.667 65.667 -72 90s-66 42.666 -107 54.999s-84.5 18.5 -130.5 18.5s-89.5 -6.16699 -130.5 -18.5s-76.667 -30.666 -107 -54.999s-54.333 -54.333 -72 -90
s-26.5 -76.5 -26.5 -122.5c0 -9.33301 -3 -17 -9 -23s-13.667 -9 -23 -9s-17 3 -23 9s-9 13.667 -9 23c0 55.333 10.5 104.666 31.5 147.999s49.5 80 85.5 110s78.333 52.833 127 68.5s100.667 23.5 156 23.5s107.333 -7.83301 156 -23.5s91 -38.5 127 -68.5
s64.5 -66.667 85.5 -110s31.5 -92.666 31.5 -147.999v-468c0 -30 5.66699 -58.167 17 -84.5s27 -49.5 47 -69.5s43.167 -35.667 69.5 -47s54.5 -17 84.5 -17s58.167 5.66699 84.5 17s49.5 27 69.5 47s35.667 43.167 47 69.5s17 54.5 17 84.5v786c0 9.33301 3 17 9 23
s13.667 9 23 9s17 -3 23 -9s9 -13.667 9 -23v-668z" />
    <glyph glyph-name="dodekthai" unicode="&#xb4;" horiz-adv-x="1050" 
d="M638 299c0.666992 16 -0.832031 32.501 -4.49902 49.501s-11.5 34.167 -23.5 51.5l-7 -15c-5.33301 -9.33301 -12.333 -17.666 -21 -24.999c-13.333 -8.66699 -26.666 -13 -39.999 -13c-11.333 0 -23 3 -35 9c-4.66699 2.66699 -8.83398 5.83398 -12.501 9.50098
s-7.16699 7.5 -10.5 11.5c-8.66699 11.333 -13 25 -13 41c0 12 2.33301 22.667 7 32c4.66699 10 10.334 17.333 17.001 22c10.667 7.33301 20.5 12.666 29.5 15.999s18.5 5 28.5 5c5.33301 0 10.833 -0.5 16.5 -1.5s11.834 -2.16699 18.501 -3.5
c7.33301 -2 18.5 -7 33.5 -15s28.167 -20.333 39.5 -37c17.333 -25.333 28.5 -49.833 33.5 -73.5s7.16699 -44.5 6.5 -62.5c0 -41.333 -7.83301 -80.333 -23.5 -117s-37.167 -68.5 -64.5 -95.5s-59.333 -48.333 -96 -64s-75.667 -23.5 -117 -23.5s-80.333 7.83301 -117 23.5
s-68.5 37 -95.5 64s-48.333 58.833 -64 95.5s-23.5 75.667 -23.5 117v450c0 55.333 10.5 104.666 31.5 147.999s49.5 80 85.5 110s78.333 52.833 127 68.5s100.667 23.5 156 23.5s107.333 -7.83301 156 -23.5s91 -38.5 127 -68.5s64.5 -66.667 85.5 -110
s31.5 -92.666 31.5 -147.999v-590c0 -26.667 -3.5 -53 -10.5 -79s-19.167 -49.667 -36.5 -71c-2.66699 -3.33301 -6.66699 -5.83301 -12 -7.5s-9.66602 -2.5 -12.999 -2.5c-10 0 -18.333 3.66699 -25 11c-5.33301 6.66699 -8 13.667 -8 21c0 4.66699 1.16699 9 3.5 13
s5.16602 8 8.49902 12c12.667 14.667 20.667 31.167 24 49.5s5 36.166 5 53.499v590c0 46 -8.83301 86.833 -26.5 122.5s-41.667 65.667 -72 90s-66 42.666 -107 54.999s-84.5 18.5 -130.5 18.5c-44.667 0 -87.334 -6 -128.001 -18s-76.5 -29.833 -107.5 -53.5
s-55.667 -53.5 -74 -89.5s-27.5 -78 -27.5 -126v-450c0 -32.667 6.16699 -63.167 18.5 -91.5s29.166 -53.166 50.499 -74.499s46.166 -38.166 74.499 -50.499s58.833 -18.5 91.5 -18.5s63.5 6.16699 92.5 18.5s54.5 29.166 76.5 50.499s39.333 46.166 52 74.499
s19 58.833 19 91.5z" />
    <glyph glyph-name="dodekthai" unicode="&#xe14;" horiz-adv-x="1050" 
d="M638 299c0.666992 16 -0.832031 32.501 -4.49902 49.501s-11.5 34.167 -23.5 51.5l-7 -15c-5.33301 -9.33301 -12.333 -17.666 -21 -24.999c-13.333 -8.66699 -26.666 -13 -39.999 -13c-11.333 0 -23 3 -35 9c-4.66699 2.66699 -8.83398 5.83398 -12.501 9.50098
s-7.16699 7.5 -10.5 11.5c-8.66699 11.333 -13 25 -13 41c0 12 2.33301 22.667 7 32c4.66699 10 10.334 17.333 17.001 22c10.667 7.33301 20.5 12.666 29.5 15.999s18.5 5 28.5 5c5.33301 0 10.833 -0.5 16.5 -1.5s11.834 -2.16699 18.501 -3.5
c7.33301 -2 18.5 -7 33.5 -15s28.167 -20.333 39.5 -37c17.333 -25.333 28.5 -49.833 33.5 -73.5s7.16699 -44.5 6.5 -62.5c0 -41.333 -7.83301 -80.333 -23.5 -117s-37.167 -68.5 -64.5 -95.5s-59.333 -48.333 -96 -64s-75.667 -23.5 -117 -23.5s-80.333 7.83301 -117 23.5
s-68.5 37 -95.5 64s-48.333 58.833 -64 95.5s-23.5 75.667 -23.5 117v450c0 55.333 10.5 104.666 31.5 147.999s49.5 80 85.5 110s78.333 52.833 127 68.5s100.667 23.5 156 23.5s107.333 -7.83301 156 -23.5s91 -38.5 127 -68.5s64.5 -66.667 85.5 -110
s31.5 -92.666 31.5 -147.999v-590c0 -26.667 -3.5 -53 -10.5 -79s-19.167 -49.667 -36.5 -71c-2.66699 -3.33301 -6.66699 -5.83301 -12 -7.5s-9.66602 -2.5 -12.999 -2.5c-10 0 -18.333 3.66699 -25 11c-5.33301 6.66699 -8 13.667 -8 21c0 4.66699 1.16699 9 3.5 13
s5.16602 8 8.49902 12c12.667 14.667 20.667 31.167 24 49.5s5 36.166 5 53.499v590c0 46 -8.83301 86.833 -26.5 122.5s-41.667 65.667 -72 90s-66 42.666 -107 54.999s-84.5 18.5 -130.5 18.5c-44.667 0 -87.334 -6 -128.001 -18s-76.5 -29.833 -107.5 -53.5
s-55.667 -53.5 -74 -89.5s-27.5 -78 -27.5 -126v-450c0 -32.667 6.16699 -63.167 18.5 -91.5s29.166 -53.166 50.499 -74.499s46.166 -38.166 74.499 -50.499s58.833 -18.5 91.5 -18.5s63.5 6.16699 92.5 18.5s54.5 29.166 76.5 50.499s39.333 46.166 52 74.499
s19 58.833 19 91.5z" />
    <glyph glyph-name="totaothai" unicode="&#xb5;" horiz-adv-x="1050" 
d="M900 160c0 -26.667 -3.49902 -52.999 -10.499 -78.999s-19.167 -49.667 -36.5 -71c-2.66699 -3.33301 -6.66699 -5.83301 -12 -7.5s-9.66602 -2.5 -12.999 -2.5c-10 0 -18.333 3.66699 -25 11c-5.33301 6.66699 -8 13.667 -8 21c0 4.66699 1.16699 9 3.5 13
s5.16602 8 8.49902 12c12.667 14.667 20.667 31.167 24 49.5s5 36.166 5 53.499v614c0 58 -13.5 107.167 -40.5 147.5s-62.5 72.166 -106.5 95.499c-21.333 -30.667 -48.5 -55 -81.5 -73s-69.167 -27 -108.5 -27c-40 0 -76.333 9.16699 -109 27.5s-59.334 42.5 -80.001 72.5
h1c0.666992 0.666992 1.33398 1 2.00098 1c-44 -22.667 -79.833 -54.167 -107.5 -94.5s-41.5 -90.5 -41.5 -150.5l-1 -474c0 -32.667 6.16699 -63.167 18.5 -91.5s29.166 -53.166 50.499 -74.499s46.166 -38.166 74.499 -50.499s58.833 -18.5 91.5 -18.5
s63.5 6.16699 92.5 18.5s54.5 29.166 76.5 50.499s39.333 46.166 52 74.499s19 58.833 19 91.5c0.666992 16 -0.833008 32.5 -4.5 49.5s-11.5 34.167 -23.5 51.5l-7 -15c-5.33301 -9.33301 -12.333 -17.666 -21 -24.999c-13.333 -8.66699 -26.666 -13 -39.999 -13
c-11.333 0 -23 3 -35 9c-4.66699 2.66699 -8.83398 5.83398 -12.501 9.50098s-7.16699 7.5 -10.5 11.5c-8.66699 11.333 -13 25 -13 41c0 12 2.33301 22.667 7 32c4.66699 10 10.334 17.333 17.001 22c10.667 7.33301 20.5 12.666 29.5 15.999s18.5 5 28.5 5
c5.33301 0 10.833 -0.5 16.5 -1.5s11.834 -2.16699 18.501 -3.5c7.33301 -2 18.5 -7 33.5 -15s28.167 -20.333 39.5 -37c17.333 -25.333 28.5 -49.833 33.5 -73.5s7.16699 -44.5 6.5 -62.5c0 -41.333 -7.83301 -80.333 -23.5 -117s-37.167 -68.5 -64.5 -95.5
s-59.333 -48.333 -96 -64s-75.667 -23.5 -117 -23.5s-80.333 7.83301 -117 23.5s-68.5 37 -95.5 64s-48.333 58.833 -64 95.5s-23.5 75.667 -23.5 117l1 474c0 40.667 5.66699 78.5 17 113.5s27.5 66.167 48.5 93.5s46.333 51 76 71s62.167 36 97.5 48
c4.66699 -18 12.167 -34.333 22.5 -49s22.5 -27.5 36.5 -38.5s29.5 -19.5 46.5 -25.5s35.167 -9 54.5 -9c38.667 0 72.667 11.333 102 34s49 51.667 59 87c35.333 -12 67.666 -28 96.999 -48s54.5 -44 75.5 -72s37.333 -59.667 49 -95s17.5 -74.333 17.5 -117v-607z" />
    <glyph glyph-name="totaothai" unicode="&#xe15;" horiz-adv-x="1050" 
d="M900 160c0 -26.667 -3.49902 -52.999 -10.499 -78.999s-19.167 -49.667 -36.5 -71c-2.66699 -3.33301 -6.66699 -5.83301 -12 -7.5s-9.66602 -2.5 -12.999 -2.5c-10 0 -18.333 3.66699 -25 11c-5.33301 6.66699 -8 13.667 -8 21c0 4.66699 1.16699 9 3.5 13
s5.16602 8 8.49902 12c12.667 14.667 20.667 31.167 24 49.5s5 36.166 5 53.499v614c0 58 -13.5 107.167 -40.5 147.5s-62.5 72.166 -106.5 95.499c-21.333 -30.667 -48.5 -55 -81.5 -73s-69.167 -27 -108.5 -27c-40 0 -76.333 9.16699 -109 27.5s-59.334 42.5 -80.001 72.5
h1c0.666992 0.666992 1.33398 1 2.00098 1c-44 -22.667 -79.833 -54.167 -107.5 -94.5s-41.5 -90.5 -41.5 -150.5l-1 -474c0 -32.667 6.16699 -63.167 18.5 -91.5s29.166 -53.166 50.499 -74.499s46.166 -38.166 74.499 -50.499s58.833 -18.5 91.5 -18.5
s63.5 6.16699 92.5 18.5s54.5 29.166 76.5 50.499s39.333 46.166 52 74.499s19 58.833 19 91.5c0.666992 16 -0.833008 32.5 -4.5 49.5s-11.5 34.167 -23.5 51.5l-7 -15c-5.33301 -9.33301 -12.333 -17.666 -21 -24.999c-13.333 -8.66699 -26.666 -13 -39.999 -13
c-11.333 0 -23 3 -35 9c-4.66699 2.66699 -8.83398 5.83398 -12.501 9.50098s-7.16699 7.5 -10.5 11.5c-8.66699 11.333 -13 25 -13 41c0 12 2.33301 22.667 7 32c4.66699 10 10.334 17.333 17.001 22c10.667 7.33301 20.5 12.666 29.5 15.999s18.5 5 28.5 5
c5.33301 0 10.833 -0.5 16.5 -1.5s11.834 -2.16699 18.501 -3.5c7.33301 -2 18.5 -7 33.5 -15s28.167 -20.333 39.5 -37c17.333 -25.333 28.5 -49.833 33.5 -73.5s7.16699 -44.5 6.5 -62.5c0 -41.333 -7.83301 -80.333 -23.5 -117s-37.167 -68.5 -64.5 -95.5
s-59.333 -48.333 -96 -64s-75.667 -23.5 -117 -23.5s-80.333 7.83301 -117 23.5s-68.5 37 -95.5 64s-48.333 58.833 -64 95.5s-23.5 75.667 -23.5 117l1 474c0 40.667 5.66699 78.5 17 113.5s27.5 66.167 48.5 93.5s46.333 51 76 71s62.167 36 97.5 48
c4.66699 -18 12.167 -34.333 22.5 -49s22.5 -27.5 36.5 -38.5s29.5 -19.5 46.5 -25.5s35.167 -9 54.5 -9c38.667 0 72.667 11.333 102 34s49 51.667 59 87c35.333 -12 67.666 -28 96.999 -48s54.5 -44 75.5 -72s37.333 -59.667 49 -95s17.5 -74.333 17.5 -117v-607z" />
    <glyph glyph-name="thothungthai" unicode="&#xb6;" horiz-adv-x="1050" 
d="M350 750c9.33301 0 17 -3 23 -9s9 -13.667 9 -23s-3 -17 -9 -23s-13.667 -9 -23 -9c-26 0 -50.167 -4.83301 -72.5 -14.5s-42 -23 -59 -40s-30.333 -36.667 -40 -59s-14.5 -46.5 -14.5 -72.5v-359h6c19.333 0 36 -7 50 -21s21 -30.667 21 -50s-7 -35.833 -21 -49.5
s-30.667 -20.5 -50 -20.5s-35.833 7 -49.5 21s-20.5 31 -20.5 51v428c0 34.667 6.5 67.167 19.5 97.5s30.833 56.833 53.5 79.5s49.167 40.5 79.5 53.5s62.833 19.5 97.5 19.5zM500 1100c55.333 0 107.333 -7.83301 156 -23.5s91 -38.5 127 -68.5s64.5 -66.667 85.5 -110
s31.5 -92.666 31.5 -147.999v-718c0 -9.33301 -3 -17 -9 -23s-13.667 -9 -23 -9s-17 3 -23 9s-9 13.667 -9 23v718c0 46 -8.83301 86.833 -26.5 122.5s-41.667 65.667 -72 90s-66 42.666 -107 54.999s-84.5 18.5 -130.5 18.5s-89.5 -6.16699 -130.5 -18.5
s-76.667 -30.666 -107 -54.999s-54.333 -54.333 -72 -90s-26.5 -76.5 -26.5 -122.5c0 -9.33301 -3 -17 -9 -23s-13.667 -9 -23 -9s-17 3 -23 9s-9 13.667 -9 23c0 55.333 10.5 104.666 31.5 147.999s49.5 80 85.5 110s78.333 52.833 127 68.5s100.667 23.5 156 23.5z" />
    <glyph glyph-name="thothungthai" unicode="&#xe16;" horiz-adv-x="1050" 
d="M350 750c9.33301 0 17 -3 23 -9s9 -13.667 9 -23s-3 -17 -9 -23s-13.667 -9 -23 -9c-26 0 -50.167 -4.83301 -72.5 -14.5s-42 -23 -59 -40s-30.333 -36.667 -40 -59s-14.5 -46.5 -14.5 -72.5v-359h6c19.333 0 36 -7 50 -21s21 -30.667 21 -50s-7 -35.833 -21 -49.5
s-30.667 -20.5 -50 -20.5s-35.833 7 -49.5 21s-20.5 31 -20.5 51v428c0 34.667 6.5 67.167 19.5 97.5s30.833 56.833 53.5 79.5s49.167 40.5 79.5 53.5s62.833 19.5 97.5 19.5zM500 1100c55.333 0 107.333 -7.83301 156 -23.5s91 -38.5 127 -68.5s64.5 -66.667 85.5 -110
s31.5 -92.666 31.5 -147.999v-718c0 -9.33301 -3 -17 -9 -23s-13.667 -9 -23 -9s-17 3 -23 9s-9 13.667 -9 23v718c0 46 -8.83301 86.833 -26.5 122.5s-41.667 65.667 -72 90s-66 42.666 -107 54.999s-84.5 18.5 -130.5 18.5s-89.5 -6.16699 -130.5 -18.5
s-76.667 -30.666 -107 -54.999s-54.333 -54.333 -72 -90s-26.5 -76.5 -26.5 -122.5c0 -9.33301 -3 -17 -9 -23s-13.667 -9 -23 -9s-17 3 -23 9s-9 13.667 -9 23c0 55.333 10.5 104.666 31.5 147.999s49.5 80 85.5 110s78.333 52.833 127 68.5s100.667 23.5 156 23.5z" />
    <glyph glyph-name="thothahanthai" unicode="&#xb7;" horiz-adv-x="1050" 
d="M500 1100c55.333 0 107.332 -10.5 155.999 -31.5s91 -49.5 127 -85.5s64.5 -78.333 85.5 -127s31.5 -100.667 31.5 -156v-668c0 -9.33301 -3 -17 -9 -23s-13.667 -9 -23 -9s-17 3 -23 9s-9 13.667 -9 23v668c0 46 -8.83301 89.5 -26.5 130.5s-41.667 76.667 -72 107
s-66 54.333 -107 72s-84.5 26.5 -130.5 26.5s-89.5 -8.83301 -130.5 -26.5s-76.667 -41.667 -107 -72s-54.333 -66 -72 -107s-26.5 -84.5 -26.5 -130.5v-668c0 -9.33301 -3 -17 -9 -23s-13.667 -9 -23 -9s-17 3 -23 9s-9 13.667 -9 23v928
c-16 3.33301 -29.333 11.333 -40 24s-16 27.667 -16 45c0 19.333 6.83301 36 20.5 50s30.167 21 49.5 21s36 -7 50 -21s21 -30.667 21 -50s-7 -36 -21 -50v-63c18 28 39 53.333 63 76s50.333 42 79 58s59.334 28.333 92.001 37s66.667 13 102 13z" />
    <glyph glyph-name="thothahanthai" unicode="&#x2219;" horiz-adv-x="1050" 
d="M500 1100c55.333 0 107.332 -10.5 155.999 -31.5s91 -49.5 127 -85.5s64.5 -78.333 85.5 -127s31.5 -100.667 31.5 -156v-668c0 -9.33301 -3 -17 -9 -23s-13.667 -9 -23 -9s-17 3 -23 9s-9 13.667 -9 23v668c0 46 -8.83301 89.5 -26.5 130.5s-41.667 76.667 -72 107
s-66 54.333 -107 72s-84.5 26.5 -130.5 26.5s-89.5 -8.83301 -130.5 -26.5s-76.667 -41.667 -107 -72s-54.333 -66 -72 -107s-26.5 -84.5 -26.5 -130.5v-668c0 -9.33301 -3 -17 -9 -23s-13.667 -9 -23 -9s-17 3 -23 9s-9 13.667 -9 23v928
c-16 3.33301 -29.333 11.333 -40 24s-16 27.667 -16 45c0 19.333 6.83301 36 20.5 50s30.167 21 49.5 21s36 -7 50 -21s21 -30.667 21 -50s-7 -36 -21 -50v-63c18 28 39 53.333 63 76s50.333 42 79 58s59.334 28.333 92.001 37s66.667 13 102 13z" />
    <glyph glyph-name="thothahanthai" unicode="&#xe17;" horiz-adv-x="1050" 
d="M500 1100c55.333 0 107.332 -10.5 155.999 -31.5s91 -49.5 127 -85.5s64.5 -78.333 85.5 -127s31.5 -100.667 31.5 -156v-668c0 -9.33301 -3 -17 -9 -23s-13.667 -9 -23 -9s-17 3 -23 9s-9 13.667 -9 23v668c0 46 -8.83301 89.5 -26.5 130.5s-41.667 76.667 -72 107
s-66 54.333 -107 72s-84.5 26.5 -130.5 26.5s-89.5 -8.83301 -130.5 -26.5s-76.667 -41.667 -107 -72s-54.333 -66 -72 -107s-26.5 -84.5 -26.5 -130.5v-668c0 -9.33301 -3 -17 -9 -23s-13.667 -9 -23 -9s-17 3 -23 9s-9 13.667 -9 23v928
c-16 3.33301 -29.333 11.333 -40 24s-16 27.667 -16 45c0 19.333 6.83301 36 20.5 50s30.167 21 49.5 21s36 -7 50 -21s21 -30.667 21 -50s-7 -36 -21 -50v-63c18 28 39 53.333 63 76s50.333 42 79 58s59.334 28.333 92.001 37s66.667 13 102 13z" />
    <glyph glyph-name="thothongthai" unicode="&#xb8;" horiz-adv-x="1050" 
d="M200 170c0 -30 10.1709 -55.167 30.5039 -75.5s45.5 -30.5 75.5 -30.5h194c46 0 89.5 6.16699 130.5 18.5s76.667 30.5 107 54.5s54.333 53.833 72 89.5s26.5 76.5 26.5 122.5c0 30.667 -5.83301 59.334 -17.5 86.001s-27.5 50 -47.5 70s-43.333 35.833 -70 47.5
s-55.334 17.5 -86.001 17.5c-30 0 -54.833 -0.333008 -74.5 -1s-40 -1.66699 -61 -3l-73.5 -4.5l-111 -6.5h-10c-26 0 -50.167 5.16699 -72.5 15.5s-41.833 24.5 -58.5 42.5s-29.834 38.833 -39.501 62.5s-14.5 48.5 -14.5 74.5c0 55.333 10.5 104.666 31.5 147.999
s49.5 80 85.5 110s78.333 52.833 127 68.5s100.667 23.5 156 23.5s107.333 -7.83301 156 -23.5s91 -38.5 127 -68.5s64.5 -66.667 85.5 -110s31.5 -92.666 31.5 -147.999c0 -9.33301 -3 -17 -9 -23s-13.667 -9 -23 -9s-17 3 -23 9s-9 13.667 -9 23
c0 46 -8.83301 86.833 -26.5 122.5s-41.667 65.667 -72 90s-66 42.666 -107 54.999s-84.5 18.5 -130.5 18.5s-89.5 -6.16699 -130.5 -18.5s-76.667 -30.666 -107 -54.999s-54.333 -54.333 -72 -90s-26.5 -76.5 -26.5 -122.5c0 -18 3.16699 -35 9.5 -51
s15.166 -30 26.499 -42s24.666 -21.5 39.999 -28.5s31.666 -10.5 48.999 -10.5h7c46 2.66699 83 5 111 7s52.5 3.66699 73.5 5s41.333 2.33301 61 3s44.167 1 73.5 1c39.333 0 76.333 -7.5 111 -22.5s64.834 -35.333 90.501 -61s46 -55.834 61 -90.501
s22.5 -71.667 22.5 -111c0 -55.333 -10.5 -104.666 -31.5 -147.999s-49.5 -79.833 -85.5 -109.5s-78.333 -52.334 -127 -68.001s-100.667 -23.5 -156 -23.5h-194c-23.333 0 -45.333 4.5 -66 13.5s-38.667 21.167 -54 36.5s-27.5 33.333 -36.5 54s-13.5 42.667 -13.5 66v219
c0 9.33301 3 17 9 23s13.667 9 23 9s17 -3 23 -9s9 -13.667 9 -23v-219z" />
    <glyph glyph-name="thothongthai" unicode="&#xe18;" horiz-adv-x="1050" 
d="M200 170c0 -30 10.1709 -55.167 30.5039 -75.5s45.5 -30.5 75.5 -30.5h194c46 0 89.5 6.16699 130.5 18.5s76.667 30.5 107 54.5s54.333 53.833 72 89.5s26.5 76.5 26.5 122.5c0 30.667 -5.83301 59.334 -17.5 86.001s-27.5 50 -47.5 70s-43.333 35.833 -70 47.5
s-55.334 17.5 -86.001 17.5c-30 0 -54.833 -0.333008 -74.5 -1s-40 -1.66699 -61 -3l-73.5 -4.5l-111 -6.5h-10c-26 0 -50.167 5.16699 -72.5 15.5s-41.833 24.5 -58.5 42.5s-29.834 38.833 -39.501 62.5s-14.5 48.5 -14.5 74.5c0 55.333 10.5 104.666 31.5 147.999
s49.5 80 85.5 110s78.333 52.833 127 68.5s100.667 23.5 156 23.5s107.333 -7.83301 156 -23.5s91 -38.5 127 -68.5s64.5 -66.667 85.5 -110s31.5 -92.666 31.5 -147.999c0 -9.33301 -3 -17 -9 -23s-13.667 -9 -23 -9s-17 3 -23 9s-9 13.667 -9 23
c0 46 -8.83301 86.833 -26.5 122.5s-41.667 65.667 -72 90s-66 42.666 -107 54.999s-84.5 18.5 -130.5 18.5s-89.5 -6.16699 -130.5 -18.5s-76.667 -30.666 -107 -54.999s-54.333 -54.333 -72 -90s-26.5 -76.5 -26.5 -122.5c0 -18 3.16699 -35 9.5 -51
s15.166 -30 26.499 -42s24.666 -21.5 39.999 -28.5s31.666 -10.5 48.999 -10.5h7c46 2.66699 83 5 111 7s52.5 3.66699 73.5 5s41.333 2.33301 61 3s44.167 1 73.5 1c39.333 0 76.333 -7.5 111 -22.5s64.834 -35.333 90.501 -61s46 -55.834 61 -90.501
s22.5 -71.667 22.5 -111c0 -55.333 -10.5 -104.666 -31.5 -147.999s-49.5 -79.833 -85.5 -109.5s-78.333 -52.334 -127 -68.001s-100.667 -23.5 -156 -23.5h-194c-23.333 0 -45.333 4.5 -66 13.5s-38.667 21.167 -54 36.5s-27.5 33.333 -36.5 54s-13.5 42.667 -13.5 66v219
c0 9.33301 3 17 9 23s13.667 9 23 9s17 -3 23 -9s9 -13.667 9 -23v-219z" />
    <glyph glyph-name="nonuthai" unicode="&#xb9;" horiz-adv-x="1050" 
d="M899 400c9.33301 0 17.168 -3 23.501 -9s9.5 -13.667 9.5 -23v-320c0 -13.333 -4.66699 -24.666 -14 -33.999s-20.666 -14 -33.999 -14s-24.833 4.66699 -34.5 14s-14.5 20.666 -14.5 33.999v134c-18 -27.333 -38.833 -52.166 -62.5 -74.499s-49.834 -41.5 -78.501 -57.5
s-59.334 -28.333 -92.001 -37s-66.667 -13 -102 -13c-55.333 0 -107.333 10.5 -156 31.5s-91 49.5 -127 85.5s-64.5 78.167 -85.5 126.5s-31.5 100.166 -31.5 155.499v561c-16 3.33301 -29.333 11.333 -40 24s-16 27.667 -16 45c0 19.333 6.83301 36 20.5 50
s30.167 21 49.5 21s36 -7 50 -21s21 -30.667 21 -50s-7 -36 -21 -50v-580c0 -46 8.83301 -89.333 26.5 -130s41.667 -76.167 72 -106.5s66 -54.333 107 -72s84.5 -26.5 130.5 -26.5s89.5 8.83301 130.5 26.5s76.667 41.667 107 72s54.333 65.833 72 106.5s26.5 84 26.5 130
v669c0 9.33301 3 17 9 23s13.667 9 23 9s17 -3 23 -9s9 -13.667 9 -23z" />
    <glyph glyph-name="nonuthai" unicode="&#xe19;" horiz-adv-x="1050" 
d="M899 400c9.33301 0 17.168 -3 23.501 -9s9.5 -13.667 9.5 -23v-320c0 -13.333 -4.66699 -24.666 -14 -33.999s-20.666 -14 -33.999 -14s-24.833 4.66699 -34.5 14s-14.5 20.666 -14.5 33.999v134c-18 -27.333 -38.833 -52.166 -62.5 -74.499s-49.834 -41.5 -78.501 -57.5
s-59.334 -28.333 -92.001 -37s-66.667 -13 -102 -13c-55.333 0 -107.333 10.5 -156 31.5s-91 49.5 -127 85.5s-64.5 78.167 -85.5 126.5s-31.5 100.166 -31.5 155.499v561c-16 3.33301 -29.333 11.333 -40 24s-16 27.667 -16 45c0 19.333 6.83301 36 20.5 50
s30.167 21 49.5 21s36 -7 50 -21s21 -30.667 21 -50s-7 -36 -21 -50v-580c0 -46 8.83301 -89.333 26.5 -130s41.667 -76.167 72 -106.5s66 -54.333 107 -72s84.5 -26.5 130.5 -26.5s89.5 8.83301 130.5 26.5s76.667 41.667 107 72s54.333 65.833 72 106.5s26.5 84 26.5 130
v669c0 9.33301 3 17 9 23s13.667 9 23 9s17 -3 23 -9s9 -13.667 9 -23z" />
    <glyph glyph-name="bobaimaithai" unicode="&#xba;" horiz-adv-x="1050" 
d="M341 0c-33.333 0 -64.666 6.16602 -93.999 18.499s-54.833 29.333 -76.5 51s-38.834 46.834 -51.501 75.501s-19 59.334 -19 92.001v723c-16 3.33301 -29.333 11.333 -40 24s-16 27.667 -16 45c0 19.333 6.83301 36 20.5 50s30.167 21 49.5 21s36 -7 50 -21
s21 -30.667 21 -50s-7 -36 -21 -50v-739c0 -24.667 4.66699 -47.667 14 -69s22 -40 38 -56s34.667 -28.5 56 -37.5s44.333 -13.5 69 -13.5h318c24.667 0 47.667 4.66699 69 14s40 22 56 38s28.667 34.667 38 56s14 44.333 14 69v827c0 9.33301 3 17 9 23s13.667 9 23 9
s17 -3 23 -9s9 -13.667 9 -23v-828c0 -33.333 -6.33301 -64.5 -19 -93.5s-29.834 -54.333 -51.501 -76s-47.167 -38.834 -76.5 -51.501s-60.666 -19 -93.999 -19h-318z" />
    <glyph glyph-name="bobaimaithai" unicode="&#xe1a;" horiz-adv-x="1050" 
d="M341 0c-33.333 0 -64.666 6.16602 -93.999 18.499s-54.833 29.333 -76.5 51s-38.834 46.834 -51.501 75.501s-19 59.334 -19 92.001v723c-16 3.33301 -29.333 11.333 -40 24s-16 27.667 -16 45c0 19.333 6.83301 36 20.5 50s30.167 21 49.5 21s36 -7 50 -21
s21 -30.667 21 -50s-7 -36 -21 -50v-739c0 -24.667 4.66699 -47.667 14 -69s22 -40 38 -56s34.667 -28.5 56 -37.5s44.333 -13.5 69 -13.5h318c24.667 0 47.667 4.66699 69 14s40 22 56 38s28.667 34.667 38 56s14 44.333 14 69v827c0 9.33301 3 17 9 23s13.667 9 23 9
s17 -3 23 -9s9 -13.667 9 -23v-828c0 -33.333 -6.33301 -64.5 -19 -93.5s-29.834 -54.333 -51.501 -76s-47.167 -38.834 -76.5 -51.501s-60.666 -19 -93.999 -19h-318z" />
    <glyph glyph-name="poplathai" unicode="&#xbb;" horiz-adv-x="1050" 
d="M341 0c-33.333 0 -64.666 6.16602 -93.999 18.499s-54.833 29.333 -76.5 51s-38.834 46.834 -51.501 75.501s-19 59.334 -19 92.001v723c-16 3.33301 -29.333 11.333 -40 24s-16 27.667 -16 45c0 19.333 6.83301 36 20.5 50s30.167 21 49.5 21s36 -7 50 -21
s21 -30.667 21 -50s-7 -36 -21 -50v-739c0 -24.667 4.66699 -47.667 14 -69s22 -40 38 -56s34.667 -28.5 56 -37.5s44.333 -13.5 69 -13.5h318c24.667 0 47.667 4.66699 69 14s40 22 56 38s28.667 34.667 38 56s14 44.333 14 69v1102c0 9.33301 3 17 9 23s13.667 9 23 9
s17 -3 23 -9s9 -13.667 9 -23v-1103c0 -33.333 -6.33301 -64.5 -19 -93.5s-29.834 -54.333 -51.501 -76s-47.167 -38.834 -76.5 -51.501s-60.666 -19 -93.999 -19h-318z" />
    <glyph glyph-name="poplathai" unicode="&#xe1b;" horiz-adv-x="1050" 
d="M341 0c-33.333 0 -64.666 6.16602 -93.999 18.499s-54.833 29.333 -76.5 51s-38.834 46.834 -51.501 75.501s-19 59.334 -19 92.001v723c-16 3.33301 -29.333 11.333 -40 24s-16 27.667 -16 45c0 19.333 6.83301 36 20.5 50s30.167 21 49.5 21s36 -7 50 -21
s21 -30.667 21 -50s-7 -36 -21 -50v-739c0 -24.667 4.66699 -47.667 14 -69s22 -40 38 -56s34.667 -28.5 56 -37.5s44.333 -13.5 69 -13.5h318c24.667 0 47.667 4.66699 69 14s40 22 56 38s28.667 34.667 38 56s14 44.333 14 69v1102c0 9.33301 3 17 9 23s13.667 9 23 9
s17 -3 23 -9s9 -13.667 9 -23v-1103c0 -33.333 -6.33301 -64.5 -19 -93.5s-29.834 -54.333 -51.501 -76s-47.167 -38.834 -76.5 -51.501s-60.666 -19 -93.999 -19h-318z" />
    <glyph glyph-name="phophungthai" unicode="&#xbc;" horiz-adv-x="1150" 
d="M968 1100c9.33301 0 17.0029 -3 23.0029 -9s9 -13.667 9 -23v-828c0 -33.333 -6.33301 -64.5 -19 -93.5s-29.834 -54.333 -51.501 -76s-47.167 -38.834 -76.5 -51.501s-60.666 -19 -93.999 -19c-44.667 0 -85.334 11 -122.001 33s-65.667 51 -87 87
c-21.333 -36 -50.333 -65 -87 -87s-77.334 -33 -122.001 -33c-33.333 0 -64.666 6.16699 -93.999 18.5s-54.833 29.333 -76.5 51s-38.834 46.834 -51.501 75.501s-19 59.334 -19 92.001v781c0 18 5.16699 34 15.5 48s23.5 23.667 39.5 29c8.66699 3.33301 17.667 5 27 5
c19.333 -0.666992 35.666 -7.83398 48.999 -21.501s20 -30.167 20 -49.5s-7 -35.833 -21 -49.5s-30.667 -20.5 -50 -20.5c-4 0 -9.33301 0.666992 -16 2v-721c0 -24.667 4.66699 -47.667 14 -69s22 -40 38 -56s34.667 -28.5 56 -37.5s44.333 -13.5 69 -13.5
s47.667 4.5 69 13.5s40 21.5 56 37.5s28.667 34.667 38 56s14 44.333 14 69v528c0 9.33301 3 17 9 23s13.667 9 23 9s17 -3 23 -9s9 -13.667 9 -23v-528c0 -24.667 4.66699 -47.667 14 -69s22 -40 38 -56s34.667 -28.5 56 -37.5s44.333 -13.5 69 -13.5s47.667 4.5 69 13.5
s40 21.5 56 37.5s28.667 34.667 38 56s14 44.333 14 69v828c0 9.33301 3 17 9 23s13.667 9 23 9z" />
    <glyph glyph-name="phophungthai" unicode="&#xe1c;" horiz-adv-x="1150" 
d="M968 1100c9.33301 0 17.0029 -3 23.0029 -9s9 -13.667 9 -23v-828c0 -33.333 -6.33301 -64.5 -19 -93.5s-29.834 -54.333 -51.501 -76s-47.167 -38.834 -76.5 -51.501s-60.666 -19 -93.999 -19c-44.667 0 -85.334 11 -122.001 33s-65.667 51 -87 87
c-21.333 -36 -50.333 -65 -87 -87s-77.334 -33 -122.001 -33c-33.333 0 -64.666 6.16699 -93.999 18.5s-54.833 29.333 -76.5 51s-38.834 46.834 -51.501 75.501s-19 59.334 -19 92.001v781c0 18 5.16699 34 15.5 48s23.5 23.667 39.5 29c8.66699 3.33301 17.667 5 27 5
c19.333 -0.666992 35.666 -7.83398 48.999 -21.501s20 -30.167 20 -49.5s-7 -35.833 -21 -49.5s-30.667 -20.5 -50 -20.5c-4 0 -9.33301 0.666992 -16 2v-721c0 -24.667 4.66699 -47.667 14 -69s22 -40 38 -56s34.667 -28.5 56 -37.5s44.333 -13.5 69 -13.5
s47.667 4.5 69 13.5s40 21.5 56 37.5s28.667 34.667 38 56s14 44.333 14 69v528c0 9.33301 3 17 9 23s13.667 9 23 9s17 -3 23 -9s9 -13.667 9 -23v-528c0 -24.667 4.66699 -47.667 14 -69s22 -40 38 -56s34.667 -28.5 56 -37.5s44.333 -13.5 69 -13.5s47.667 4.5 69 13.5
s40 21.5 56 37.5s28.667 34.667 38 56s14 44.333 14 69v828c0 9.33301 3 17 9 23s13.667 9 23 9z" />
    <glyph glyph-name="fofathai" unicode="&#xbd;" horiz-adv-x="1150" 
d="M968 1375c9.33301 0 17.0029 -3 23.0029 -9s9 -13.667 9 -23v-1103c0 -33.333 -6.33301 -64.5 -19 -93.5s-29.834 -54.333 -51.501 -76s-47.167 -38.834 -76.5 -51.501s-60.666 -19 -93.999 -19c-44.667 0 -85.334 11 -122.001 33s-65.667 51 -87 87
c-21.333 -36 -50.333 -65 -87 -87s-77.334 -33 -122.001 -33c-33.333 0 -64.666 6.16699 -93.999 18.5s-54.833 29.333 -76.5 51s-38.834 46.834 -51.501 75.501s-19 59.334 -19 92.001v781c0 18 5.16699 34 15.5 48s23.5 23.667 39.5 29c8.66699 3.33301 17.667 5 27 5
c19.333 -0.666992 35.666 -7.83398 48.999 -21.501s20 -30.167 20 -49.5s-7 -35.833 -21 -49.5s-30.667 -20.5 -50 -20.5c-4 0 -9.33301 0.666992 -16 2v-721c0 -24.667 4.66699 -47.667 14 -69s22 -40 38 -56s34.667 -28.5 56 -37.5s44.333 -13.5 69 -13.5
s47.667 4.5 69 13.5s40 21.5 56 37.5s28.667 34.667 38 56s14 44.333 14 69v528c0 9.33301 3 17 9 23s13.667 9 23 9s17 -3 23 -9s9 -13.667 9 -23v-528c0 -24.667 4.66699 -47.667 14 -69s22 -40 38 -56s34.667 -28.5 56 -37.5s44.333 -13.5 69 -13.5s47.667 4.5 69 13.5
s40 21.5 56 37.5s28.667 34.667 38 56s14 44.333 14 69v1103c0 9.33301 3 17 9 23s13.667 9 23 9z" />
    <glyph glyph-name="fofathai" unicode="&#xe1d;" horiz-adv-x="1150" 
d="M968 1375c9.33301 0 17.0029 -3 23.0029 -9s9 -13.667 9 -23v-1103c0 -33.333 -6.33301 -64.5 -19 -93.5s-29.834 -54.333 -51.501 -76s-47.167 -38.834 -76.5 -51.501s-60.666 -19 -93.999 -19c-44.667 0 -85.334 11 -122.001 33s-65.667 51 -87 87
c-21.333 -36 -50.333 -65 -87 -87s-77.334 -33 -122.001 -33c-33.333 0 -64.666 6.16699 -93.999 18.5s-54.833 29.333 -76.5 51s-38.834 46.834 -51.501 75.501s-19 59.334 -19 92.001v781c0 18 5.16699 34 15.5 48s23.5 23.667 39.5 29c8.66699 3.33301 17.667 5 27 5
c19.333 -0.666992 35.666 -7.83398 48.999 -21.501s20 -30.167 20 -49.5s-7 -35.833 -21 -49.5s-30.667 -20.5 -50 -20.5c-4 0 -9.33301 0.666992 -16 2v-721c0 -24.667 4.66699 -47.667 14 -69s22 -40 38 -56s34.667 -28.5 56 -37.5s44.333 -13.5 69 -13.5
s47.667 4.5 69 13.5s40 21.5 56 37.5s28.667 34.667 38 56s14 44.333 14 69v528c0 9.33301 3 17 9 23s13.667 9 23 9s17 -3 23 -9s9 -13.667 9 -23v-528c0 -24.667 4.66699 -47.667 14 -69s22 -40 38 -56s34.667 -28.5 56 -37.5s44.333 -13.5 69 -13.5s47.667 4.5 69 13.5
s40 21.5 56 37.5s28.667 34.667 38 56s14 44.333 14 69v1103c0 9.33301 3 17 9 23s13.667 9 23 9z" />
    <glyph glyph-name="phophanthai" unicode="&#xbe;" horiz-adv-x="1150" 
d="M968 1100c9.33301 0 17.002 -3.00098 23.002 -9.00098s9 -13.667 9 -23v-828c0 -33.333 -6.33301 -64.5 -19 -93.5s-29.834 -54.333 -51.501 -76s-47.167 -38.834 -76.5 -51.501s-60.666 -19 -93.999 -19c-44.667 0 -85.334 11 -122.001 33s-65.667 51 -87 87
c-21.333 -36 -50.333 -65 -87 -87s-77.334 -33 -122.001 -33c-33.333 0 -64.666 6.16699 -93.999 18.5s-54.833 29.333 -76.5 51s-38.834 46.834 -51.501 75.501s-19 59.334 -19 92.001v723c-16 3.33301 -29.333 11.333 -40 24s-16 27.667 -16 45
c0 19.333 6.83301 36 20.5 50s30.167 21 49.5 21s36 -7 50 -21s21 -30.667 21 -50s-7 -36 -21 -50v-739c0 -24.667 4.66699 -47.667 14 -69s22 -40 38 -56s34.667 -28.5 56 -37.5s44.333 -13.5 69 -13.5s47.667 4.5 69 13.5s40 21.5 56 37.5s28.667 34.667 38 56
s14 44.333 14 69v828c0 9.33301 3 17 9 23s13.667 9 23 9s17 -3 23 -9s9 -13.667 9 -23v-828c0 -24.667 4.66699 -47.667 14 -69s22 -40 38 -56s34.667 -28.5 56 -37.5s44.333 -13.5 69 -13.5s47.667 4.5 69 13.5s40 21.5 56 37.5s28.667 34.667 38 56s14 44.333 14 69v828
c0 9.33301 3 17 9 23s13.667 9 23 9z" />
    <glyph glyph-name="phophanthai" unicode="&#xe1e;" horiz-adv-x="1150" 
d="M968 1100c9.33301 0 17.002 -3.00098 23.002 -9.00098s9 -13.667 9 -23v-828c0 -33.333 -6.33301 -64.5 -19 -93.5s-29.834 -54.333 -51.501 -76s-47.167 -38.834 -76.5 -51.501s-60.666 -19 -93.999 -19c-44.667 0 -85.334 11 -122.001 33s-65.667 51 -87 87
c-21.333 -36 -50.333 -65 -87 -87s-77.334 -33 -122.001 -33c-33.333 0 -64.666 6.16699 -93.999 18.5s-54.833 29.333 -76.5 51s-38.834 46.834 -51.501 75.501s-19 59.334 -19 92.001v723c-16 3.33301 -29.333 11.333 -40 24s-16 27.667 -16 45
c0 19.333 6.83301 36 20.5 50s30.167 21 49.5 21s36 -7 50 -21s21 -30.667 21 -50s-7 -36 -21 -50v-739c0 -24.667 4.66699 -47.667 14 -69s22 -40 38 -56s34.667 -28.5 56 -37.5s44.333 -13.5 69 -13.5s47.667 4.5 69 13.5s40 21.5 56 37.5s28.667 34.667 38 56
s14 44.333 14 69v828c0 9.33301 3 17 9 23s13.667 9 23 9s17 -3 23 -9s9 -13.667 9 -23v-828c0 -24.667 4.66699 -47.667 14 -69s22 -40 38 -56s34.667 -28.5 56 -37.5s44.333 -13.5 69 -13.5s47.667 4.5 69 13.5s40 21.5 56 37.5s28.667 34.667 38 56s14 44.333 14 69v828
c0 9.33301 3 17 9 23s13.667 9 23 9z" />
    <glyph glyph-name="fofanthai" unicode="&#xbf;" horiz-adv-x="1150" 
d="M968 1375c9.33301 0 17.002 -3.00098 23.002 -9.00098s9 -13.667 9 -23v-1103c0 -33.333 -6.33301 -64.5 -19 -93.5s-29.834 -54.333 -51.501 -76s-47.167 -38.834 -76.5 -51.501s-60.666 -19 -93.999 -19c-44.667 0 -85.334 11 -122.001 33s-65.667 51 -87 87
c-21.333 -36 -50.333 -65 -87 -87s-77.334 -33 -122.001 -33c-33.333 0 -64.666 6.16699 -93.999 18.5s-54.833 29.333 -76.5 51s-38.834 46.834 -51.501 75.501s-19 59.334 -19 92.001v723c-16 3.33301 -29.333 11.333 -40 24s-16 27.667 -16 45
c0 19.333 6.83301 36 20.5 50s30.167 21 49.5 21s36 -7 50 -21s21 -30.667 21 -50s-7 -36 -21 -50v-739c0 -24.667 4.66699 -47.667 14 -69s22 -40 38 -56s34.667 -28.5 56 -37.5s44.333 -13.5 69 -13.5s47.667 4.5 69 13.5s40 21.5 56 37.5s28.667 34.667 38 56
s14 44.333 14 69v828c0 9.33301 3 17 9 23s13.667 9 23 9s17 -3 23 -9s9 -13.667 9 -23v-828c0 -24.667 4.66699 -47.667 14 -69s22 -40 38 -56s34.667 -28.5 56 -37.5s44.333 -13.5 69 -13.5s47.667 4.5 69 13.5s40 21.5 56 37.5s28.667 34.667 38 56s14 44.333 14 69v1103
c0 9.33301 3 17 9 23s13.667 9 23 9z" />
    <glyph glyph-name="fofanthai" unicode="&#xe1f;" horiz-adv-x="1150" 
d="M968 1375c9.33301 0 17.002 -3.00098 23.002 -9.00098s9 -13.667 9 -23v-1103c0 -33.333 -6.33301 -64.5 -19 -93.5s-29.834 -54.333 -51.501 -76s-47.167 -38.834 -76.5 -51.501s-60.666 -19 -93.999 -19c-44.667 0 -85.334 11 -122.001 33s-65.667 51 -87 87
c-21.333 -36 -50.333 -65 -87 -87s-77.334 -33 -122.001 -33c-33.333 0 -64.666 6.16699 -93.999 18.5s-54.833 29.333 -76.5 51s-38.834 46.834 -51.501 75.501s-19 59.334 -19 92.001v723c-16 3.33301 -29.333 11.333 -40 24s-16 27.667 -16 45
c0 19.333 6.83301 36 20.5 50s30.167 21 49.5 21s36 -7 50 -21s21 -30.667 21 -50s-7 -36 -21 -50v-739c0 -24.667 4.66699 -47.667 14 -69s22 -40 38 -56s34.667 -28.5 56 -37.5s44.333 -13.5 69 -13.5s47.667 4.5 69 13.5s40 21.5 56 37.5s28.667 34.667 38 56
s14 44.333 14 69v828c0 9.33301 3 17 9 23s13.667 9 23 9s17 -3 23 -9s9 -13.667 9 -23v-828c0 -24.667 4.66699 -47.667 14 -69s22 -40 38 -56s34.667 -28.5 56 -37.5s44.333 -13.5 69 -13.5s47.667 4.5 69 13.5s40 21.5 56 37.5s28.667 34.667 38 56s14 44.333 14 69v1103
c0 9.33301 3 17 9 23s13.667 9 23 9z" />
    <glyph glyph-name="phosamphaothai" unicode="&#xc0;" horiz-adv-x="1050" 
d="M350 750c9.33301 0 17 -3 23 -9s9 -13.667 9 -23s-3 -17 -9 -23s-13.667 -9 -23 -9c-26 0 -50.167 -4.83301 -72.5 -14.5s-42 -23 -59 -40s-30.333 -36.667 -40 -59s-14.5 -46.5 -14.5 -72.5v-430c0 -19.333 -7 -35.833 -21 -49.5s-30.667 -20.5 -50 -20.5
s-35.833 6.83301 -49.5 20.5s-20.5 30.167 -20.5 49.5s6.83301 36 20.5 50s30.167 21 49.5 21h7v359c0 34.667 6.5 67.167 19.5 97.5s30.833 56.833 53.5 79.5s49.167 40.5 79.5 53.5s62.833 19.5 97.5 19.5zM500 1100c55.333 0 107.333 -7.83301 156 -23.5
s91 -38.5 127 -68.5s64.5 -66.667 85.5 -110s31.5 -92.666 31.5 -147.999v-718c0 -9.33301 -3 -17 -9 -23s-13.667 -9 -23 -9s-17 3 -23 9s-9 13.667 -9 23v718c0 46 -8.83301 86.833 -26.5 122.5s-41.667 65.667 -72 90s-66 42.666 -107 54.999s-84.5 18.5 -130.5 18.5
s-89.5 -6.16699 -130.5 -18.5s-76.667 -30.666 -107 -54.999s-54.333 -54.333 -72 -90s-26.5 -76.5 -26.5 -122.5c0 -9.33301 -3 -17 -9 -23s-13.667 -9 -23 -9s-17 3 -23 9s-9 13.667 -9 23c0 55.333 10.5 104.666 31.5 147.999s49.5 80 85.5 110s78.333 52.833 127 68.5
s100.667 23.5 156 23.5z" />
    <glyph glyph-name="phosamphaothai" unicode="&#xe20;" horiz-adv-x="1050" 
d="M350 750c9.33301 0 17 -3 23 -9s9 -13.667 9 -23s-3 -17 -9 -23s-13.667 -9 -23 -9c-26 0 -50.167 -4.83301 -72.5 -14.5s-42 -23 -59 -40s-30.333 -36.667 -40 -59s-14.5 -46.5 -14.5 -72.5v-430c0 -19.333 -7 -35.833 -21 -49.5s-30.667 -20.5 -50 -20.5
s-35.833 6.83301 -49.5 20.5s-20.5 30.167 -20.5 49.5s6.83301 36 20.5 50s30.167 21 49.5 21h7v359c0 34.667 6.5 67.167 19.5 97.5s30.833 56.833 53.5 79.5s49.167 40.5 79.5 53.5s62.833 19.5 97.5 19.5zM500 1100c55.333 0 107.333 -7.83301 156 -23.5
s91 -38.5 127 -68.5s64.5 -66.667 85.5 -110s31.5 -92.666 31.5 -147.999v-718c0 -9.33301 -3 -17 -9 -23s-13.667 -9 -23 -9s-17 3 -23 9s-9 13.667 -9 23v718c0 46 -8.83301 86.833 -26.5 122.5s-41.667 65.667 -72 90s-66 42.666 -107 54.999s-84.5 18.5 -130.5 18.5
s-89.5 -6.16699 -130.5 -18.5s-76.667 -30.666 -107 -54.999s-54.333 -54.333 -72 -90s-26.5 -76.5 -26.5 -122.5c0 -9.33301 -3 -17 -9 -23s-13.667 -9 -23 -9s-17 3 -23 9s-9 13.667 -9 23c0 55.333 10.5 104.666 31.5 147.999s49.5 80 85.5 110s78.333 52.833 127 68.5
s100.667 23.5 156 23.5z" />
    </font>
</defs>
</svg>
