<?xml version="1.0" standalone="no"?>
<!DOCTYPE svg PUBLIC "-//W3C//DTD SVG 1.1//EN" "http://www.w3.org/Graphics/SVG/1.1/DTD/svg11.dtd" >
<svg>
<metadata>
Created by FontForge 20090914 at Thu Mar 12 08:52:32 2015
 By www-data
Copyright (c) 2013 by Arwin Intrungsi. All rights reserved.
</metadata>
<defs>
<font id="PGVIM" horiz-adv-x="0" >
  <font-face 
    font-family="PGVIM"
    font-weight="400"
    font-stretch="normal"
    units-per-em="1000"
    panose-1="2 0 5 6 0 0 0 2 0 4"
    ascent="800"
    descent="-200"
    x-height="320"
    cap-height="456"
    bbox="-439 -378 695 751"
    underline-thickness="30"
    underline-position="-20"
    unicode-range="U+000D-U+FB02"
  />
<missing-glyph horiz-adv-x="243" 
 />
    <glyph glyph-name="uni0E4F.liga" unicode="&#xe4f;&#x22;" horiz-adv-x="453" 
 />
    <glyph glyph-name="uni0E24.liga" unicode="&#xe24;&#xe32;" horiz-adv-x="632" 
d="M585 -160c3.33301 -3.33301 10.666 -5.00391 21.999 -5.00391v-7h-88l1 429v11v17c0 12.667 -3 24.667 -9 36c-6 10 -13.667 18.333 -23 25s-20 11.334 -32 14.001c-13.333 3.33301 -25.333 5 -36 5c-8 0 -15 -1.33301 -21 -4c-6.66699 -2 -14.334 -5 -23.001 -9
c-3.33301 -2 -7 -4 -11 -6s-7.66699 -4 -11 -6c-2.66699 -2 -5.16699 -4 -7.5 -6s-4.83301 -3.66699 -7.5 -5c7.33301 -16.667 11 -37.667 11 -63v-284c0 -34 -4 -61.333 -12 -82c-9.33301 -21.333 -20 -37.666 -32 -48.999c-12.667 -11.333 -26.334 -19 -41.001 -23
c-15.333 -3.33301 -29.333 -4.33301 -42 -3l-17.5 4c-5.66699 1.33301 -11.167 3.33301 -16.5 6c-9.33301 4 -15 9.33301 -17 16c1.33301 5.33301 3 9.33301 5 12c2 5.33301 4.66699 9 8 11c4.66699 3.33301 8.33398 5 11.001 5c4 1.33301 8.66699 0.333008 14 -3
c4 -4 6.66699 -7.33301 8 -10c2.66699 -4 5 -7.66699 7 -11c1.33301 -1.33301 2.83301 -3 4.5 -5s3.16699 -3.66699 4.5 -5c3.33301 -2.66699 8 -4 14 -4c10.667 -0.666992 19.334 3.66602 26.001 12.999c5.33301 7.33301 9.66602 18 12.999 32c1.33301 6 2.33301 12 3 18
s1 12.333 1 19v30v305c0 35.333 -9 61 -27 77s-43 24 -75 24c-17.333 0 -31.666 -1 -42.999 -3s-20.666 -4 -27.999 -6c-8 -2.66699 -14.333 -5.33398 -19 -8.00098c3.33301 -3.33301 5.66602 -7.16602 6.99902 -11.499l4 -12.5c1.33301 -4.66699 2 -9.66699 2 -15v-213
c0 -3.33301 0.333008 -7.83301 1 -13.5s2 -11.334 4 -17.001s5 -10.834 9 -15.501s9.33301 -8 16 -10c9.33301 -3.33301 20.166 -3.66602 32.499 -0.999023s23.166 6.33398 32.499 11.001v-16c-6.66699 -8 -14.667 -15 -24 -21c-8 -5.33301 -17.667 -9.66602 -29 -12.999
s-24.333 -3.66602 -39 -0.999023c-15.333 2.66699 -27.166 8 -35.499 16s-14.5 17 -18.5 27s-6.5 19.833 -7.5 29.5s-1.5 17.5 -1.5 23.5v15.5v28c0 11 0.166992 22.833 0.5 35.5s0.5 25.334 0.5 38.001c0 30 0.333008 63 1 99c0 10.667 -2 17 -6 19
c-4.66699 2.66699 -11.334 4 -20.001 4v6c14.667 11.333 31.334 21.333 50.001 30c16 7.33301 35.333 14.333 58 21s48.667 10 78 10c19.333 0 39.333 -3.33301 60 -10s36.334 -15.667 47.001 -27c5.33301 -6.66699 10 -13.334 14 -20.001
c2 2.66699 5.33301 6.33398 10 11.001c2.66699 2.66699 5.33398 5 8.00098 7l9 7c7.33301 5.33301 14.333 10 21 14s13.667 7.33301 21 10c14.667 5.33301 30.667 8 48 8c41.333 0 72.333 -10.333 93 -31c10.667 -10 19 -22.667 25 -38s9 -33.666 9 -54.999v-6v-402
c0 -12.667 2 -20.334 6 -23.001z" />
    <glyph glyph-name="uni0E26.liga" unicode="&#xe26;&#xe32;" horiz-adv-x="644" 
d="M598 -160c3.33301 -3.33301 10.6611 -4.99609 21.9941 -4.99609v-7h-88l2 429v11v17c0 12.667 -3 24.667 -9 36c-5.33301 8.66699 -13 17 -23 25c-10.667 6.66699 -21.667 11.334 -33 14.001c-13.333 3.33301 -25.333 5 -36 5c-6.66699 0 -13.667 -1.33301 -21 -4
c-8.66699 -2.66699 -16 -5.66699 -22 -9l-11.5 -6l-10.5 -6c-3.33301 -2.66699 -6.33301 -4.83398 -9 -6.50098s-5.33398 -3.5 -8.00098 -5.5c4 -9.33301 6.66699 -19.166 8 -29.499s2 -21.5 2 -33.5v-293c0 -17.333 -1 -31.166 -3 -41.499s-5.33301 -20.833 -10 -31.5
c-8 -20.667 -18.333 -37 -31 -49c-10.667 -10.667 -24.334 -18.334 -41.001 -23.001c-15.333 -3.33301 -29.333 -4.33301 -42 -3c-12.667 2 -24 5 -34 9c-9.33301 5.33301 -15 11 -17 17c0.666992 1.33301 1.33398 3.16602 2.00098 5.49902s1.66699 4.5 3 6.5
c1.33301 3.33301 4 7 8 11c4.66699 3.33301 8.33398 5 11.001 5c4 1.33301 8.66699 0.333008 14 -3c4 -4 6.66699 -7.33301 8 -10c2.66699 -4 5 -7.66699 7 -11c1.33301 -1.33301 2.83301 -3 4.5 -5s3.16699 -3.66699 4.5 -5c3.33301 -2.66699 8 -4 14 -4
c10.667 -0.666992 19.334 3.33301 26.001 12c2.66699 4.66699 5 9.66699 7 15s3.66699 11 5 17c1.33301 6.66699 2.5 13 3.5 19s1.5 12.333 1.5 19v30l1 305c0 36 -9 62 -27 78s-43.333 24 -76 24c-17.333 0 -31.5 -1 -42.5 -3s-20.167 -4 -27.5 -6
c-8 -2.66699 -14.333 -5.66699 -19 -9c3.33301 -3.33301 5.5 -7.16602 6.5 -11.499s2.16699 -8.5 3.5 -12.5c0.666992 -4.66699 1.33398 -9.66699 2.00098 -15l-2 -179l-2 -68c-1.33301 -20 -4 -34.333 -8 -43c-4 -10 -9.66699 -16 -17 -18
c-7.33301 -2.66699 -16.666 -2 -27.999 2c-12.667 4.66699 -25.334 11 -38.001 19l-1 12c2.66699 -2.66699 6 -5 10 -7c5.33301 -1.33301 9 -2 11 -2c4 0 7 2 9 6c1.33301 2.66699 2.33301 5.16699 3 7.5s1.33398 5.16602 2.00098 8.49902s1.16699 6.16602 1.5 8.49902
s0.5 5.16602 0.5 8.49902v12l1 235c0 11.333 -2 18 -6 20s-10.667 3 -20 3v7c14.667 11.333 31.334 21.333 50.001 30c16 7.33301 35.333 14.166 58 20.499s48.667 9.5 78 9.5c20 0 40.333 -3.33301 61 -10s36 -15.667 46 -27c5.33301 -5.33301 10.333 -12 15 -20
c1.33301 2 3 4 5 6l6 6c2.66699 2.66699 5.33398 5 8.00098 7l9 7c7.33301 5.33301 14.5 10 21.5 14s14.167 7.33301 21.5 10c14.667 5.33301 30.334 8 47.001 8c41.333 0 72.333 -10.333 93 -31c22.667 -20.667 34 -51.667 34 -93v-6v-402c0 -12.667 2 -20.334 6 -23.001z
" />
    <glyph glyph-name=".notdef" horiz-adv-x="243" 
 />
    <glyph glyph-name="NULL" 
 />
    <glyph glyph-name="NULL" 
 />
    <glyph glyph-name="nonmarkingreturn" unicode="&#xd;" horiz-adv-x="243" 
 />
    <glyph glyph-name="space" unicode=" " horiz-adv-x="243" 
 />
    <glyph glyph-name="exclam" unicode="!" horiz-adv-x="145" 
d="M62 95l-23 363h70l-23 -363h-24zM74 56c8.66699 0 16 -3 22 -9s9 -13 9 -21c0 -8.66699 -3 -16 -9 -22s-13.333 -9 -22 -9s-15.834 3 -21.501 9s-8.5 13.333 -8.5 22c0 8 2.83301 15 8.5 21s12.834 9 21.501 9z" />
    <glyph glyph-name="quotedbl" unicode="&#x22;" horiz-adv-x="217" 
d="M165 338h-27l-10 161h47zM78 338h-27l-10 161h47z" />
    <glyph glyph-name="numbersign" unicode="#" horiz-adv-x="404" 
d="M297 273l-15 -94h67v-35h-71l-22 -145h-39l22 145h-89l-22 -145h-39l22 145h-71v35h76l14 94h-72v35h77l22 145h38l-22 -145h90l22 145h39l-22 -145h65v-35h-70v0zM169 273l-15 -94h90l14 94h-89v0z" />
    <glyph glyph-name="dollar" unicode="$" horiz-adv-x="344" 
d="M297 156c6.66699 -15.333 10 -31.335 10 -48.002c0 -18 -4.33301 -35 -13 -51c-8 -14.667 -19 -27 -33 -37c-6.66699 -5.33301 -13.834 -9.83301 -21.501 -13.5s-15.5 -7.16699 -23.5 -10.5c-6 -1.33301 -11.833 -2.5 -17.5 -3.5s-11.167 -2.16699 -16.5 -3.5v-48h-28v48
c-14.667 0 -29 2 -43 6l-51 14c-2.66699 0 -5.33398 -1.33301 -8.00098 -4c-2.66699 -2 -4 -4.66699 -4 -8h-8l-2 99h6c8 -18.667 19 -34 33 -46s28 -20.333 42 -25c12 -4 23.667 -6 35 -6v187c-4 2.66699 -7.33301 4.66699 -10 6
c-9.33301 4.66699 -18.166 9.66699 -26.499 15s-16.5 11 -24.5 17c-15.333 11.333 -28 25 -38 41c-10.667 15.333 -16 35 -16 59c0 16 3.66699 31.333 11 46c7.33301 13.333 17 25 29 35c6 4.66699 12.333 8.83398 19 12.501s14 6.83398 22 9.50098c5.33301 2 11 3.5 17 4.5
s11.667 1.83301 17 2.5v40h28v-40c2 -0.666992 4 -1 6 -1s4 -0.333008 6 -1c4.66699 -0.666992 9.16699 -1.5 13.5 -2.5s8.83301 -2.16699 13.5 -3.5l7 -2c2 -1.33301 4.16699 -2.16602 6.5 -2.49902s4.5 -0.833008 6.5 -1.5c2.66699 -0.666992 5 -1.33398 7 -2.00098l6 -2
c2.66699 -0.666992 5 -1 7 -1c6.66699 0 10.667 4 12 12h8l6 -101h-8c-4.66699 16.667 -13.334 30.667 -26.001 42c-12 12 -24.667 20.333 -38 25c-5.33301 2.66699 -10.833 4.5 -16.5 5.5s-11.167 1.83301 -16.5 2.5v-166c2.66699 -1.33301 5.33398 -2.83301 8.00098 -4.5
s5.33398 -3.16699 8.00098 -4.5l-4 2l21 -12l21 -13c12 -7.33301 24 -17 36 -29c10.667 -12 19 -24.667 25 -38zM123 293.998c9.33301 -7.33301 19.665 -14.666 30.998 -21.999v148c-7.33301 -0.666992 -14.666 -2.66699 -21.999 -6
c-13.333 -5.33301 -23.333 -13.333 -30 -24c-8 -11.333 -12 -24.333 -12 -39c0 -12.667 3.33301 -23.334 10 -32.001c3.33301 -4.66699 6.83301 -9 10.5 -13s7.83398 -8 12.501 -12zM237.999 57.998c7.33301 10 10.999 23.666 10.999 40.999c0 18.667 -5 34.667 -15 48
c-5.33301 6.66699 -11.166 12.834 -17.499 18.501s-13.5 11.167 -21.5 16.5l-6.5 4.5l-6.5 4.5v-170c8.66699 2 17 5 25 9c12.667 6.66699 23 16 31 28z" />
    <glyph glyph-name="percent" unicode="%" horiz-adv-x="460" 
d="M409 35c-8 -14.667 -19.668 -26.3359 -35.001 -35.0029c-15.333 -7.33301 -30.666 -11.333 -45.999 -12c-16.667 0 -32 4 -46 12c-14 6.66699 -26 18.334 -36 35.001c-9.33301 15.333 -14 34.666 -14 57.999c0 22.667 4.66699 42.334 14 59.001
c10.667 15.333 22.667 27 36 35c14.667 7.33301 29.667 11 45 11c16 0 31.667 -4 47 -12c14 -7.33301 25.667 -19 35 -35c9.33301 -15.333 14 -34.666 14 -57.999s-4.66699 -42.666 -14 -57.999zM377.999 137.998c-5.33301 12 -13.002 21.3311 -23.002 27.998
c-9.33301 7.33301 -19 11 -29 11c-10 0.666992 -19.667 -2 -29 -8s-16.333 -15.333 -21 -28c-6 -13.333 -8.66699 -29.333 -8 -48c0 -18 3 -33.333 9 -46c7.33301 -12.667 15 -22 23 -28c8.66699 -5.33301 18.334 -8.66602 29.001 -9.99902c10 0 19.667 3 29 9
c8.66699 6 16 15.333 22 28c5.33301 10.667 8 26.334 8 47.001c-1.33301 18.667 -4.66602 33.667 -9.99902 45zM379.997 460.996l-264.002 -473.001h-34l245 435c-11.333 -10 -25.666 -18.5 -42.999 -25.5s-37.666 -7.83301 -60.999 -2.5c4 -12 6 -25.333 6 -40
c0 -22 -4.66699 -41.333 -14 -58c-9.33301 -15.333 -21.333 -27 -36 -35c-14.667 -7.33301 -29.667 -11 -45 -11c-18 0 -33.333 3.66699 -46 11c-14 7.33301 -26 19 -36 35c-9.33301 15.333 -14 34.666 -14 57.999c0 22.667 4.66699 42.334 14 59.001c10 16 22 27.667 36 35
c14 8 29 12 45 12c16.667 0 32 -4 46 -12c10.667 -6 20 -14 28 -24c14 -8 29 -12.667 45 -14c13.333 -1.33301 28.333 1.33398 45 8.00098s33.667 20.667 51 42h32zM185.995 307.995c5.33301 13.333 7.66602 29 6.99902 47c0 17.333 -3 32.666 -9 45.999
c-7.33301 12.667 -15 22 -23 28c-10 6.66699 -19.667 10 -29 10c-10 0.666992 -19.667 -2 -29 -8s-16.333 -15.333 -21 -28c-6 -12.667 -8.66699 -28.667 -8 -48c0 -18 3 -33 9 -45c7.33301 -13.333 15 -22.666 23 -27.999c8.66699 -6.66699 18.334 -10 29.001 -10
c10 -0.666992 19.667 2 29 8c8.66699 6 16 15.333 22 28z" />
    <glyph glyph-name="ampersand" unicode="&#x26;" horiz-adv-x="508" 
d="M232 150l-28 38.002l-28 39c-31.333 -16 -53.333 -34.333 -66 -55c-12 -21.333 -17.667 -41.333 -17 -60c1.33301 -20.667 8 -38 20 -52c6 -7.33301 13 -13.833 21 -19.5s16.667 -9.83398 26 -12.501c12.667 -3.33301 25.5 -3.5 38.5 -0.5s25 7.5 36 13.5s21 13 30 21
s16.5 15 22.5 21c-10.667 11.333 -20.167 22.166 -28.5 32.499zM232 261.002l-11.9941 18.002c13.333 7.33301 25.333 15.666 36 24.999c9.33301 8 17.666 17.667 24.999 29s11 24 11 38c0 15.333 -4 27.666 -12 36.999c-6 8.66699 -15.333 15.334 -28 20.001
c-10.667 2.66699 -22.334 2.66699 -35.001 0c-12.667 -3.33301 -22.667 -9 -30 -17c-8.66699 -10 -14 -22 -16 -36c-2 -15.333 1 -33.333 9 -54c2 -4.66699 4 -9 6 -13l6 -12c2.66699 -4 5.16699 -8 7.5 -12l6.5 -11l15 -23l24 -35.5c8 -11.667 16.333 -23.167 25 -34.5
s16.5 -21.166 23.5 -29.499l24.5 -29.5c0 0.666992 3.5 6.33398 10.5 17.001s14.833 22 23.5 34l33 48h78v-4c-4 -0.666992 -8.5 -1.66699 -13.5 -3s-10.5 -5 -16.5 -11c-7.33301 -7.33301 -15.666 -16.666 -24.999 -27.999l-27 -34
c-8.66699 -11.333 -16.167 -21.666 -22.5 -30.999s-10.5 -15.333 -12.5 -18l21.5 -21c7 -6.66699 14.5 -12.667 22.5 -18c10 -7.33301 19.667 -12.333 29 -15s17.833 -4.16699 25.5 -4.5s14.167 0.333984 19.5 2.00098s8.66602 3.5 9.99902 5.5l6 -4
c-1.33301 -4 -4.33301 -8.33301 -9 -13s-10.334 -9.16699 -17.001 -13.5s-14 -8 -22 -11s-16.333 -4.5 -25 -4.5c-9.33301 0 -19 2.5 -29 7.5s-19.5 10.833 -28.5 17.5s-16.833 13.334 -23.5 20.001s-11 11.334 -13 14.001c-12 -12 -23.333 -21.333 -34 -28
c-5.33301 -4 -10.833 -7.66699 -16.5 -11s-11.5 -6.33301 -17.5 -9s-12.167 -4.83398 -18.5 -6.50098s-12.833 -3.16699 -19.5 -4.5c-13.333 -2 -27.666 -3 -42.999 -3c-20 0 -37.333 3 -52 9c-16 7.33301 -29 15.666 -39 24.999c-11.333 10.667 -19.333 22.667 -24 36
c-6 14 -9 28.333 -9 43c0 7.33301 0.5 14.666 1.5 21.999s3.16699 14.666 6.5 21.999c5.33301 15.333 13.666 29.333 24.999 42c5.33301 7.33301 11.5 13.666 18.5 18.999l21.5 16c8 5.33301 15.833 10.166 23.5 14.499s15.5 8.16602 23.5 11.499
c-4.66699 7.33301 -8.83398 14.666 -12.501 21.999l-10.5 22c-8.66699 18 -13 37 -13 57c0 18.667 4.33301 36 13 52c9.33301 16 21.666 29 36.999 39c16.667 9.33301 36 14 58 14c11.333 0 23.666 -1.66699 36.999 -5c10.667 -3.33301 21 -9 31 -17s17.333 -17 22 -27
c5.33301 -12 8 -24.333 8 -37c0 -21.333 -5.16699 -39 -15.5 -53s-21.5 -25.333 -33.5 -34c-14.667 -10 -31 -17.667 -49 -23z" />
    <glyph glyph-name="quotesingle" unicode="'" horiz-adv-x="130" 
d="M78 338h-27l-10 161h46z" />
    <glyph glyph-name="parenleft" unicode="(" horiz-adv-x="222" 
d="M182 -109c-34.667 27.333 -63.3359 59.3311 -86.0029 95.998c-11.333 18.667 -21 37.667 -29 57s-14.333 39.333 -19 60c-10 40 -12.333 81.667 -7 125c4.66699 42 18.334 82.667 41.001 122c12.667 22.667 27.334 44.334 44.001 65.001c16 21.333 34.667 40 56 56l16 -6
c-25.333 -23.333 -45.666 -50 -60.999 -80c-16 -29.333 -28 -61.666 -36 -96.999s-12 -71 -12 -107c0 -37.333 4 -73 12 -107s20 -66.667 36 -98c16.667 -31.333 37 -58 61 -80z" />
    <glyph glyph-name="parenright" unicode=")" horiz-adv-x="220" 
d="M26 -103c14.667 13.333 27.498 27.999 38.498 43.999s21.167 33.667 30.5 53c17.333 38.667 29 78.334 35 119.001c6 42.667 6.66699 84.334 2 125.001c-5.33301 42.667 -15.666 80.667 -30.999 114c-4.66699 10.667 -9.66699 21 -15 31s-11 20 -17 30
c-11.333 19.333 -25.666 37 -42.999 53l16 6c10.667 -8 20.5 -16.667 29.5 -26s17.833 -19.333 26.5 -30c8 -10 15.5 -20.5 22.5 -31.5l20.5 -33.5c21.333 -38 34.666 -78.667 39.999 -122c4.66699 -42.667 2.66699 -84.334 -6 -125.001
c-9.33301 -41.333 -25.333 -80.333 -48 -117c-23.333 -37.333 -51.666 -69.333 -84.999 -96z" />
    <glyph glyph-name="asterisk" unicode="*" horiz-adv-x="320" 
d="M284 365l-113 -42l113 -42l-13 -22l-13 -23l-93 78l20 -120h-52l21 120l-93 -78l-13 23l-13 22l113 42l-113 42l13 23l13 22l93 -77l-21 119h52l-20 -119l93 77l26 -45v0z" />
    <glyph glyph-name="plus" unicode="+" horiz-adv-x="409" 
d="M228 146v-146h-44v146h-145v44h145v145h44v-145h145v-44h-145v0z" />
    <glyph glyph-name="comma" unicode="," horiz-adv-x="158" 
d="M64 -81l-5.00098 11.999c9.33301 5.33301 17.833 13.333 25.5 24s11.5 21.334 11.5 32.001c0 1.33301 -0.666992 3 -2 5s-2.66602 3.33301 -3.99902 4c-1.33301 0 -2.33301 0.166992 -3 0.5s-1.66699 0.5 -3 0.5l-12 -1c-8 0 -15.667 2.66699 -23 8
c-6.66699 4.66699 -10 12.667 -10 24c0 8 2.66699 15.667 8 23c6 7.33301 15.333 11 28 11s24 -5 34 -15c9.33301 -10.667 14 -24 14 -40c0 -11.333 -2.33301 -21.833 -7 -31.5s-10.167 -18.5 -16.5 -26.5s-12.833 -14.5 -19.5 -19.5s-12 -8.5 -16 -10.5z" />
    <glyph glyph-name="hyphen" unicode="-" horiz-adv-x="239" 
d="M39 175v37h164v-37h-164v0z" />
    <glyph glyph-name="period" unicode="." horiz-adv-x="135" 
d="M100 26c0 -8.66699 -3 -16 -9 -22s-13.333 -9 -22 -9s-16 3 -22 9s-9 13.333 -9 22s3 16 9 22s13.333 9 22 9s16 -3 22 -9s9 -13.333 9 -22z" />
    <glyph glyph-name="slash" unicode="/" horiz-adv-x="252" 
d="M65 -9h-40l163 466h40l-163 -466v0z" />
    <glyph glyph-name="zero" unicode="0" horiz-adv-x="380" 
d="M345 229c0 -32.667 -4 -63.334 -12 -92.001s-18.833 -53.667 -32.5 -75s-29.834 -38.166 -48.501 -50.499s-38.334 -18.5 -59.001 -18.5c-21.333 0 -41.333 6.16699 -60 18.5s-34.834 29.166 -48.501 50.499s-24.5 46.333 -32.5 75s-12 59.334 -12 92.001
s4 63.167 12 91.5s18.833 53.166 32.5 74.499s29.834 38.166 48.501 50.499s38.667 18.5 60 18.5c20.667 0 40.334 -6.16699 59.001 -18.5s34.834 -29.166 48.501 -50.499s24.5 -46.166 32.5 -74.499s12 -58.833 12 -91.5zM193 436c-14 0 -27 -5.5 -39 -16.5
s-22.5 -25.833 -31.5 -44.5s-16 -40.667 -21 -66s-7.5 -52.333 -7.5 -81s2.5 -55.667 7.5 -81s12 -47.333 21 -66s19.5 -33.5 31.5 -44.5s25 -16.5 39 -16.5c13.333 0 26 5.5 38 16.5s22.5 25.833 31.5 44.5s16 40.667 21 66s7.5 52.333 7.5 81s-2.5 55.667 -7.5 81
s-12 47.333 -21 66s-19.5 33.5 -31.5 44.5s-24.667 16.5 -38 16.5z" />
    <glyph glyph-name="one" unicode="1" horiz-adv-x="212" 
d="M102 0v390.999c0 4.66699 -1.66699 9.33398 -5 14.001c-4 4 -8.66699 5 -14 3l-56 -23v6l104 71l22 -1v-424c0 -11.333 2.5 -18.5 7.5 -21.5s8.83301 -4.5 11.5 -4.5h17v-11h-87z" />
    <glyph glyph-name="two" unicode="2" horiz-adv-x="351" 
d="M310 0l-269.999 -0.000976562v22l146 160c2 2 6.66699 7.66699 14 17s15 20.666 23 33.999s15.167 28.333 21.5 45s9.5 33.667 9.5 51c0 10.667 -1.5 21.334 -4.5 32.001s-8 20.334 -15 29.001s-16.167 15.834 -27.5 21.501s-25.333 8.5 -42 8.5
c-16 0 -30.5 -2.16699 -43.5 -6.5s-24.167 -9.5 -33.5 -15.5s-17.166 -11.833 -23.499 -17.5s-10.833 -9.83398 -13.5 -12.501l-4 5c1.33301 2.66699 5.66602 9 12.999 19s17 20.333 29 31s26 20.167 42 28.5s33.333 12.5 52 12.5s35.667 -3.66699 51 -11
s28.5 -16.833 39.5 -28.5s19.333 -24.5 25 -38.5s8.5 -27.667 8.5 -41c0 -20 -3.83301 -39.333 -11.5 -58s-16.167 -35.5 -25.5 -50.5s-18.5 -27.667 -27.5 -38s-14.833 -16.833 -17.5 -19.5l-118 -135l188 1c7.33301 0 13.666 2.5 18.999 7.5s9 9.16699 11 12.5l4 -3z" />
    <glyph glyph-name="three" unicode="3" horiz-adv-x="342" 
d="M114 245c4 0 13.002 1.49121 27.002 4.49121s28.667 8.33301 44 16s29.166 18.334 41.499 32.001s18.5 31.834 18.5 54.501c0 2.66699 -1 8 -3 16s-6.16699 16.333 -12.5 25s-15.5 16.167 -27.5 22.5s-27.667 9.5 -47 9.5c-13.333 0 -25.5 -2 -36.5 -6
s-21 -8.66699 -30 -14s-16.667 -11.166 -23 -17.499s-10.833 -11.5 -13.5 -15.5l-6 1c2 5.33301 6.16699 13.166 12.5 23.499s15.166 20.5 26.499 30.5s25.5 18.667 42.5 26s37.833 11 62.5 11c14 0 27.167 -2.66699 39.5 -8s23.333 -12.666 33 -21.999
s17.167 -20.166 22.5 -32.499s8 -25.5 8 -39.5c0 -17.333 -3.5 -32.166 -10.5 -44.499s-15.167 -22.666 -24.5 -30.999s-18.5 -14.833 -27.5 -19.5s-15.167 -7.66699 -18.5 -9c9.33301 -2 20.166 -6 32.499 -12s23.5 -14.833 33.5 -26.5s17.833 -26 23.5 -43
s6.5 -37.5 2.5 -61.5c-4 -26 -13.667 -47.167 -29 -63.5s-32.166 -28.833 -50.499 -37.5s-36.666 -14.5 -54.999 -17.5s-32.5 -4.16699 -42.5 -3.5c-7.33301 0.666992 -16.166 2 -26.499 4s-20.333 4.83301 -30 8.5s-18.334 8.16699 -26.001 13.5s-12.5 11.666 -14.5 18.999
c-1.33301 4.66699 -0.833008 9.33398 1.5 14.001s5.16602 8.33398 8.49902 11.001c2.66699 2 7 3.66699 13 5c6.66699 0 11 -0.666992 13 -2c3.33301 -2 6.66602 -5.16699 9.99902 -9.5s7.83301 -9 13.5 -14s13.667 -9.33301 24 -13s24.166 -5.5 41.499 -5.5
c3.33301 0 10.5 1.16699 21.5 3.5s22.5 7 34.5 14s22.833 17.167 32.5 30.5s14.834 31 15.501 53c0 19.333 -3.16699 35.166 -9.5 47.499s-14.666 22 -24.999 29s-21.5 11.833 -33.5 14.5s-23.5 4.33398 -34.5 5.00098s-20.5 0.833984 -28.5 0.500977
s-13 -0.166016 -15 0.500977z" />
    <glyph glyph-name="four" unicode="4" horiz-adv-x="387" 
d="M293 111v-111h-47v111h-206v44l211 307h42v-310h71v-27l-71 -14v0zM246 405l-173 -253h173v253v0z" />
    <glyph glyph-name="five" unicode="5" horiz-adv-x="342" 
d="M148 24c20 0 36.833 3.49805 50.5 10.498s24.834 16 33.501 27s15 23.333 19 37s6 27.5 6 41.5c0 20.667 -5.16699 39.334 -15.5 56.001s-24.5 30 -42.5 40s-39.667 16 -65 18s-53 -1.33301 -83 -10l-6 4l49 209h181c8.66699 0 14.334 3.33301 17.001 10l6 -2l-12 -47
c-0.666992 -1.33301 -1.66699 -2.66602 -3 -3.99902c-2 -2 -5 -3 -9 -3h-156l-27 -117c3.33301 0.666992 11.166 1.83398 23.499 3.50098s28.5 1.16699 48.5 -1.5c18.667 -2 36.667 -6.83301 54 -14.5s32.333 -17.667 45 -30s22.834 -27 30.501 -44s11.5 -35.833 11.5 -56.5
c0 -34 -7 -61.333 -21 -82s-30.5 -36.667 -49.5 -48s-38.333 -18.833 -58 -22.5s-35.5 -5.5 -47.5 -5.5c-6.66699 0 -15.334 0.666992 -26.001 2s-21 3.66602 -31 6.99902s-19 7.5 -27 12.5s-12.333 11.5 -13 19.5c-0.666992 10.667 3 19 11 25
c7.33301 5.33301 15.666 7 24.999 5c4 -1.33301 7.5 -4 10.5 -8s7 -8.5 12 -13.5s12 -9.33301 21 -13s21.5 -5.5 37.5 -5.5z" />
    <glyph glyph-name="six" unicode="6" horiz-adv-x="372" 
d="M125 247l-0.000976562 15c10.667 7.33301 24.334 14 41.001 20s32.334 8.66699 47.001 8c24 -0.666992 44 -6.16699 60 -16.5s28.667 -22.666 38 -36.999s16 -29.833 20 -46.5s6 -31.334 6 -44.001c0 -30.667 -5 -55.834 -15 -75.501s-22.5 -35.334 -37.5 -47.001
s-31 -19.667 -48 -24s-32.5 -6.5 -46.5 -6.5c-5.33301 0 -12.666 0.666992 -21.999 2s-19.5 4.16602 -30.5 8.49902s-22.333 11 -34 20s-22.334 21.333 -32.001 37s-17.5 35.167 -23.5 58.5s-9 51.333 -9 84c0 8.66699 0.666992 20.834 2 36.501s4.5 32.5 9.5 50.5
s12.167 36.167 21.5 54.5s21.666 35.166 36.999 50.499c20 20 40.5 35 61.5 45s41 17 60 21s36.333 5.83301 52 5.5s28.5 -1.5 38.5 -3.5l-1 -12c-11.333 1.33301 -27.833 0.833008 -49.5 -1.5s-44 -10 -67 -23s-44.5 -33.167 -64.5 -60.5s-34 -65.333 -42 -114
c-8 -48 -8.33301 -87 -1 -117s17.333 -53.333 30 -70s25.667 -28 39 -34s22 -9.33301 26 -10c19.333 -1.33301 35.166 2.33398 47.499 11.001s22 19.334 29 32.001s11.667 25.834 14 39.501s3.5 24.5 3.5 32.5c0 4 -1 12.667 -3 26s-6.16699 27.333 -12.5 42
s-16 27.5 -29 38.5s-30.5 16.167 -52.5 15.5c-8 -0.666992 -15.833 -1.5 -23.5 -2.5s-14.5 -2.16699 -20.5 -3.5c-7.33301 -2 -13.666 -3.66699 -18.999 -5z" />
    <glyph glyph-name="seven" unicode="7" horiz-adv-x="346" 
d="M168 0h-45.999l139 415h-188c-11.333 0 -20.333 -2.33301 -27 -7s-11.334 -9.66699 -14.001 -15l-6 4l19 62h264v-26z" />
    <glyph glyph-name="eight" unicode="8" horiz-adv-x="360" 
d="M87 111c0 -18 3.66602 -32.666 10.999 -43.999s16 -20.5 26 -27.5s20.333 -11.833 31 -14.5s19.334 -4 26.001 -4c30.667 0 54.167 7.5 70.5 22.5s24.5 32.833 24.5 53.5c0 29.333 -12 53.666 -36 72.999c-24 18.667 -48.333 34.667 -73 48
c-2.66699 -1.33301 -8.33398 -4.33301 -17.001 -9s-17.667 -11.5 -27 -20.5s-17.666 -19.833 -24.999 -32.5s-11 -27.667 -11 -45zM226.999 263.001l-14.998 7.99902c17.333 12.667 30.166 26 38.499 40s12.5 32.333 12.5 55c0 12.667 -3.16699 23.5 -9.5 32.5
s-13.833 16.333 -22.5 22s-17.834 9.66699 -27.501 12s-17.834 3.5 -24.501 3.5c-6 0 -13.667 -1 -23 -3s-18.5 -5.66699 -27.5 -11s-16.833 -12.666 -23.5 -21.999s-10 -21.333 -10 -36s4.16699 -28.167 12.5 -40.5s17.833 -23 28.5 -32s20.834 -16.167 30.501 -21.5
s15.5 -8.33301 17.5 -9c25.333 -10 48.333 -22.333 69 -37c17.333 -12.667 33.333 -28.667 48 -48s22 -41.666 22 -66.999c0 -23.333 -4.66699 -42.5 -14 -57.5s-21 -26.833 -35 -35.5s-29.167 -14.667 -45.5 -18s-31.833 -5 -46.5 -5c-25.333 0 -47 3.66699 -65 11
s-32.833 16.666 -44.5 27.999s-20.167 23.833 -25.5 37.5s-8 26.5 -8 38.5c0 20.667 4.5 38.5 13.5 53.5s19.167 27.5 30.5 37.5s22.333 17.667 33 23s17.667 9 21 11c-2.66699 2 -8.83398 6.16699 -18.501 12.5s-19.667 14.833 -30 25.5s-19.666 23.167 -27.999 37.5
s-12.5 30.166 -12.5 47.499c0 10 2.16699 21.167 6.5 33.5s11.833 24 22.5 35s24.5 20.333 41.5 28s38.5 11.5 64.5 11.5c23.333 0 43 -3.5 59 -10.5s29 -15.667 39 -26s17.167 -21.5 21.5 -33.5s6.5 -23 6.5 -33c0 -17.333 -4.33301 -32.166 -13 -44.499
s-18 -22.5 -28 -30.5c-12 -9.33301 -25.667 -17 -41 -23z" />
    <glyph glyph-name="nine" unicode="9" horiz-adv-x="373" 
d="M251 213l-0.000976562 -15.0029c-10.667 -7.33301 -24.334 -13.833 -41.001 -19.5s-32.334 -8.5 -47.001 -8.5c-24 0.666992 -44 6.16699 -60 16.5s-28.667 22.666 -38 36.999s-16 29.666 -20 45.999s-6 31.166 -6 44.499c0 30.667 5 55.834 15 75.501
s22.5 35.334 37.5 47.001s31 19.667 48 24s32.5 6.5 46.5 6.5c4.66699 0 11.834 -0.666992 21.501 -2s20 -4.16602 31 -8.49902s22.333 -11 34 -20s22.334 -21.333 32.001 -37s17.5 -35 23.5 -58s9 -51.167 9 -84.5c0 -9.33301 -0.666992 -21.666 -2 -36.999
s-4.5 -32 -9.5 -50s-12.167 -36.167 -21.5 -54.5s-22 -35.166 -38 -50.499c-20 -20 -40.333 -35 -61 -45s-40.5 -17 -59.5 -21s-36.333 -5.83301 -52 -5.5s-28.5 1.5 -38.5 3.5l1 12c7.33301 -1.33301 17.166 -1.66602 29.499 -0.999023s25.833 2.83398 40.5 6.50098
s29.834 9.83398 45.501 18.501s30.5 20.5 44.5 35.5s26.5 33.833 37.5 56.5s19.167 50.334 24.5 83.001c8 48 8.5 87 1.5 117s-16.833 53.333 -29.5 70s-25.667 28 -39 34s-22 9.33301 -26 10c-19.333 1.33301 -35.166 -2.33398 -47.499 -11.001s-22 -19.334 -29 -32.001
s-11.667 -25.834 -14 -39.501s-3.5 -24.5 -3.5 -32.5c0 -4 1 -12.667 3 -26s6.16699 -27.333 12.5 -42s16 -27.5 29 -38.5s30.5 -16.167 52.5 -15.5c16.667 1.33301 31 3.33301 43 6c7.33301 1.33301 14 3 20 5z" />
    <glyph glyph-name="colon" unicode=":" horiz-adv-x="136" 
d="M69 254c-8.66699 0 -15.834 3 -21.501 9s-8.5 13.333 -8.5 22s2.83301 16 8.5 22s12.834 9 21.501 9s16 -3 22 -9s9 -13.333 9 -22s-3 -16 -9 -22s-13.333 -9 -22 -9zM69 57c8.66699 0 16 -3 22 -9s9 -13.333 9 -22s-3 -16 -9 -22s-13.333 -9 -22 -9s-15.834 3 -21.501 9
s-8.5 13.333 -8.5 22s2.83301 16 8.5 22s12.834 9 21.501 9z" />
    <glyph glyph-name="semicolon" unicode=";" horiz-adv-x="158" 
d="M109 47c10 -10 15 -23.335 15 -40.002c0 -11.333 -2.33301 -21.833 -7 -31.5s-10.167 -18.5 -16.5 -26.5s-12.833 -14.5 -19.5 -19.5s-12 -8.5 -16 -10.5l-6 12c9.33301 5.33301 17.833 13.333 25.5 24s11.5 21.334 11.5 32.001c0 1.33301 -0.666992 3 -2 5
s-2.66602 3.33301 -3.99902 4c-1.33301 0 -2.33301 0.166992 -3 0.5s-1.33398 0.5 -2.00098 0.5l-13 -1c-8 0 -15.667 2.66699 -23 8c-6.66699 4.66699 -10 12.667 -10 24c0 6.66699 2.66699 14.334 8 23.001c6 7.33301 15.333 11 28 11s24 -5 34 -15zM72 253.998
c-8.66699 0 -16 3 -22 9s-9 13.333 -9 22s3 16 9 22s13.333 9 22 9s16 -3 22 -9s9 -13.333 9 -22s-3 -16 -9 -22s-13.333 -9 -22 -9z" />
    <glyph glyph-name="less" unicode="&#x3c;" horiz-adv-x="412" 
d="M38 147v40l339 153l-1 -44l-285 -129l285 -130l1 -43l-339 153v0z" />
    <glyph glyph-name="equal" unicode="=" horiz-adv-x="408" 
d="M38 79v44h334v-44h-334zM38 255h334v-43h-334v43z" />
    <glyph glyph-name="greater" unicode="&#x3e;" horiz-adv-x="413" 
d="M39 -6l1 43l285 130l-285 129l-1 44l339 -153v-40l-339 -153v0z" />
    <glyph glyph-name="question" unicode="?" horiz-adv-x="305" 
d="M236 430c22 -19.333 32.9951 -45.333 32.9951 -78c0 -27.333 -16.333 -62 -49 -104c-9.33301 -11.333 -17.5 -24.166 -24.5 -38.499s-13 -28.5 -18 -42.5s-8.83301 -27.333 -11.5 -40s-4 -23.334 -4 -32.001h-18c0 32.667 3.83301 64.667 11.5 96
s19.834 62.666 36.501 93.999c2 4 4 8.83301 6 14.5s3.66699 11.667 5 18s2.5 12.333 3.5 18s1.5 10.167 1.5 13.5c0 23.333 -6 44 -18 62s-30.667 27 -56 27c-17.333 0 -31.666 -4.66699 -42.999 -14c-12 -10 -18 -19 -18 -27c0 -5.33301 4.33301 -12.666 13 -21.999
s13 -18.666 13 -27.999c0 -8 -2.66699 -14.333 -8 -19c-5.33301 -5.33301 -11.666 -8 -18.999 -8c-8 0 -15.667 3.66699 -23 11c-7.33301 8.66699 -11 19.667 -11 33c0 21.333 9.66699 42.666 29 63.999c18.667 20 47.334 30 86.001 30c32.667 0 60.334 -9.33301 83.001 -28
zM153.995 57c8.66699 0 15.834 -3 21.501 -9s8.5 -13.333 8.5 -22s-2.83301 -16 -8.5 -22s-12.834 -9 -21.501 -9s-16 3 -22 9s-9 13.333 -9 22s3 16 9 22s13.333 9 22 9z" />
    <glyph glyph-name="at" unicode="@" horiz-adv-x="437" 
d="M234 88c-4.66699 -5.33301 -10.998 -11.3369 -18.998 -18.0039s-17.667 -10 -29 -10c-9.33301 0 -17.333 2 -24 6c-8 4.66699 -13.667 10 -17 16c-2.66699 3.33301 -4.83398 6.83301 -6.50098 10.5s-3.16699 7.5 -4.5 11.5c-2 8 -3 16.333 -3 25c0 16.667 3 32 9 46
c6.66699 16 14 30 22 42c10.667 14 22.334 24.333 35.001 31c12 7.33301 26.667 11 44 11c10.667 0 20 -3 28 -9c8.66699 -6.66699 14 -15 16 -25l25 24h15l-37 -138c-5.33301 -15.333 -3.33301 -24.666 6 -27.999c8 -3.33301 17.667 -1.33301 29 6s22.666 20.333 33.999 39
c10 18 15 41.333 15 70c0 18.667 -4 36 -12 52c-9.33301 15.333 -20.666 28.333 -33.999 39c-12.667 9.33301 -28 17.333 -46 24c-9.33301 2.66699 -18.5 4.66699 -27.5 6s-18.167 1.66602 -27.5 0.999023c-18.667 -1.33301 -36.667 -5.66602 -54 -12.999
c-19.333 -7.33301 -35.666 -18.333 -48.999 -33c-18.667 -20 -31.667 -41.667 -39 -65c-3.33301 -12 -5.33301 -23.833 -6 -35.5s-0.333984 -23.167 0.999023 -34.5c4 -22.667 12 -44 24 -64c6.66699 -9.33301 14 -18.166 22 -26.499s16.667 -15.5 26 -21.5
c10 -6 20.5 -11.167 31.5 -15.5s22.833 -6.83301 35.5 -7.5c20.667 -1.33301 39.167 -0.5 55.5 2.5s30.166 6.66699 41.499 11s20.333 8.66602 27 12.999s10.667 7.5 12 9.5l8 -4c-4.66699 -7.33301 -12 -14.333 -22 -21c-9.33301 -6 -18.333 -11 -27 -15
c-12.667 -6 -25.667 -10.667 -39 -14c-12.667 -2.66699 -26.667 -4 -42 -4c-26 0 -51.333 4.66699 -76 14c-11.333 5.33301 -22.166 11 -32.499 17s-19.833 13 -28.5 21c-16 15.333 -29.333 34 -40 56s-16.334 43.667 -17.001 65c-0.666992 22.667 3.33301 45.334 12 68.001
c8.66699 23.333 23.334 45.333 44.001 66c15.333 15.333 34.666 28.333 57.999 39c22.667 8.66699 45.667 13.667 69 15c24 0.666992 47.333 -2.33301 70 -9c11.333 -3.33301 22 -7.83301 32 -13.5s19.667 -12.834 29 -21.501c16 -14.667 27.667 -30 35 -46
c8.66699 -16.667 13 -35.667 13 -57c0 -19.333 -3 -37 -9 -53s-14 -30 -24 -42c-5.33301 -6 -10.5 -11.5 -15.5 -16.5s-10.5 -9.16699 -16.5 -12.5c-11.333 -7.33301 -22.666 -11.666 -33.999 -12.999s-21.333 0.666992 -30 6c-4.66699 3.33301 -9.5 8.5 -14.5 15.5
s-6.5 14.167 -4.5 21.5c3.33301 9.33301 6.33301 19.5 9 30.5s5 19.5 7 25.5c1.33301 6.66699 2.66602 12.834 3.99902 18.501s2 11.5 2 17.5c0 15.333 -2.33301 25.666 -7 30.999c-5.33301 7.33301 -12 11 -20 11c-7.33301 0 -15.666 -2.66699 -24.999 -8
c-8.66699 -5.33301 -16.667 -12.666 -24 -21.999c-8.66699 -11.333 -15.334 -22.666 -20.001 -33.999c-4.66699 -12 -7 -26 -7 -42s3 -27.333 9 -34c5.33301 -7.33301 12.666 -11 21.999 -11c10 0 22.667 5 38 15z" />
    <glyph glyph-name="A" unicode="A" horiz-adv-x="504" 
d="M242 390l-83 -206.997c19.333 6 39.333 7.66699 60 5c17.333 -2 36.166 -8.16699 56.499 -18.5s39.5 -28.5 57.5 -54.5h-15c-10.667 14 -25.334 24.333 -44.001 31s-37.667 9.83398 -57 9.50098s-37.166 -4.33301 -53.499 -12s-27.5 -18.834 -33.5 -33.501l-28 -67
c-5.33301 -12.667 -7 -21.667 -5 -27c2 -6.66699 10.333 -10 25 -10v-6h-94v6c6.66699 1.33301 11 3 13 5c5.33301 4 9 7 11 9c2.66699 3.33301 5 7.66602 7 12.999c0 0.666992 0.5 2 1.5 4s3.33301 7.16699 7 15.5s9 21.166 16 38.499l30.5 73.5l50 119.5l73 177h37
l180 -432c4.66699 -12.667 14.334 -20.334 29.001 -23.001v-6h-122v6c10 0 17.667 2 23 6c4.66699 4 4.66699 11.667 0 23z" />
    <glyph glyph-name="B" unicode="B" horiz-adv-x="400" 
d="M28 6c4 0 7.32812 0.169922 9.99512 0.50293s5.33398 0.5 8.00098 0.5c4.66699 0 8.33398 1.33301 11.001 4c2.66699 2 4.66699 5 6 9c0.666992 2.66699 1.16699 5.5 1.5 8.5s0.5 6.5 0.5 10.5v417h121c4.66699 0 15.834 -0.5 33.501 -1.5s35.834 -5.16699 54.501 -12.5
s35.5 -19 50.5 -35s22.5 -38.667 22.5 -68c0 -14.667 -3.33301 -27.834 -10 -39.501s-14.667 -21.834 -24 -30.501s-19.166 -15.5 -29.499 -20.5s-18.833 -8.16699 -25.5 -9.5l23 -4.5c12 -2.33301 24.333 -7.33301 37 -15s24 -18.334 34 -32.001s15 -32.5 15 -56.5
c0 -28.667 -7 -51.5 -21 -68.5s-30.167 -30.167 -48.5 -39.5s-36.833 -15.5 -55.5 -18.5s-32.667 -4.5 -42 -4.5h-172v6zM155.995 250.003c12.667 0 26.834 1.83301 42.501 5.5s30.334 9.33398 44.001 17.001s25.167 17 34.5 28s14 23.833 14 38.5
c0 22.667 -5.83301 39.667 -17.5 51s-24.5 19.666 -38.5 24.999c-16.667 6 -35.334 9 -56.001 9h-57v-393h55c6 0 16.167 1 30.5 3s28.666 6.5 42.999 13.5s27 16.833 38 29.5s16.5 30 16.5 52s-5.33301 39.333 -16 52s-23.667 22.167 -39 28.5s-31.5 10.333 -48.5 12
s-32.167 2.5 -45.5 2.5v26z" />
    <glyph glyph-name="C" unicode="C" horiz-adv-x="443" 
d="M265 -9c-20 0 -43.166 3.16895 -69.499 9.50195s-51.166 18.166 -74.499 35.499s-43.166 41.333 -59.499 72s-24.5 70.334 -24.5 119.001c0 45.333 7.5 83.333 22.5 114s34 55.167 57 73.5s47.667 31.333 74 39s51.166 11.5 74.499 11.5c13.333 0 26.333 -1 39 -3
s24.167 -4.33301 34.5 -7l27 -7c7.66699 -2 13.5 -3 17.5 -3c8 0 13.667 4 17 12h7v-102l-4 -1c-8.66699 14 -19 27 -31 39c-10.667 9.33301 -24.167 18.166 -40.5 26.499s-35.833 12.5 -58.5 12.5c-36.667 0 -66.334 -7.5 -89.001 -22.5s-40.334 -33.333 -53.001 -55
s-21.167 -44.167 -25.5 -67.5s-6.5 -43 -6.5 -59c0 -34 4.66699 -63.833 14 -89.5s22 -46.834 38 -63.501s34.833 -29.167 56.5 -37.5s44.834 -12.5 69.501 -12.5c18 0 33.833 2 47.5 6s26 8.83301 37 14.5s20.833 11.667 29.5 18s16.667 11.5 24 15.5l3 -11l-24.5 -22.5
c-9.66699 -9 -21 -17.5 -34 -25.5s-27.333 -14.833 -43 -20.5s-32.834 -8.5 -51.501 -8.5z" />
    <glyph glyph-name="D" unicode="D" horiz-adv-x="471" 
d="M27 6c3.33301 0 6.33203 0.166992 8.99902 0.5s5.33398 0.5 8.00098 0.5c4 0 7.33301 1.33301 10 4c2 2 3.66699 5.33301 5 10c0.666992 3.33301 1 9.33301 1 18v417h123c48 0 88 -6.5 120 -19.5s57.667 -30.333 77 -52s33.166 -46.167 41.499 -73.5
s12.5 -55.333 12.5 -84c0 -34.667 -4.66699 -64.5 -14 -89.5s-21.666 -45.833 -36.999 -62.5s-32.5 -30 -51.5 -40s-38 -17.5 -57 -22.5s-37 -8.33301 -54 -10s-31.167 -2.5 -42.5 -2.5h-151v6zM116.999 31l40.002 -0.000976562c8.66699 0 20.167 0.5 34.5 1.5
s29.666 3.5 45.999 7.5s32.666 10.167 48.999 18.5s31 19.833 44 34.5s23.667 33 32 55s12.5 49 12.5 81c0 62.667 -18.5 110.834 -55.5 144.501s-88.5 50.5 -154.5 50.5h-48v-393z" />
    <glyph glyph-name="E" unicode="E" horiz-adv-x="379" 
d="M339 0l-307.001 -0.000976562v6c13.333 0 22 2 26 6c3.33301 3.33301 5 12.333 5 27v417h269l1 -69h-9c-2.66699 16.667 -8 27 -16 31s-20 6 -36 6h-151v-170h120h9.5c3 0 6.16699 0.333008 9.5 1c3.33301 0 7.66602 1.33301 12.999 4
c2.66699 2 5.33398 5.33301 8.00098 10c0.666992 2.66699 1.33398 5.5 2.00098 8.5s1.33398 6.5 2.00098 10.5h8v-102h-8c-0.666992 4 -1.33398 7.5 -2.00098 10.5s-1.33398 5.83301 -2.00098 8.5c-2.66699 4.66699 -5.33398 8 -8.00098 10
c-5.33301 2.66699 -9.66602 4.33398 -12.999 5.00098c-2.66699 0 -5.66699 0.166992 -9 0.5s-6.66602 0.5 -9.99902 0.5h-120v-176c0 -4 1 -7 3 -9c4 -2.66699 7 -4 9 -4c2 -0.666992 4.33301 -0.833984 7 -0.500977s5 0.5 7 0.5h118
c15.333 0.666992 28.333 2.33398 39 5.00098s19.667 8.66699 27 18c6 6.66699 10.667 15 14 25h11z" />
    <glyph glyph-name="F" unicode="F" horiz-adv-x="358" 
d="M319 387c-1.33301 8.66699 -3.33008 15.3311 -5.99707 19.998c-2 4.66699 -5.33301 8.33398 -10 11.001c-5.33301 2.66699 -10.333 4.33398 -15 5.00098c-2.66699 0 -5.66699 0.166992 -9 0.5s-7.33301 0.5 -12 0.5h-147v-170h112c9.33301 0 15.666 0.333008 18.999 1
c4.66699 0 9 1.33301 13 4c3.33301 2 6.33301 5.33301 9 10c1.33301 4 2.66602 10.333 3.99902 19h9v-102h-9c-1.33301 15.333 -5.33301 25 -12 29c-6 4 -17 6 -33 6h-112v-182c0 -3.33301 0.166992 -6.5 0.5 -9.5s0.5 -5.83301 0.5 -8.5
c0.666992 -3.33301 2.33398 -6.33301 5.00098 -9c1.33301 -2 4.66602 -3.66699 9.99902 -5c2 0 4.5 -0.166992 7.5 -0.5s6.5 -0.5 10.5 -0.5v-6h-124v6c3.33301 0 6.5 0.166992 9.5 0.5s5.5 0.5 7.5 0.5c5.33301 1.33301 8.66602 3 9.99902 5c2.66699 2.66699 4 5.66699 4 9
c0.666992 3.33301 1 9.33301 1 18v417h266l1 -69h-10z" />
    <glyph glyph-name="G" unicode="G" horiz-adv-x="470" 
d="M435 57l-20.0049 -16.5039c-8.66699 -7 -20 -14.167 -34 -21.5s-31 -13.666 -51 -18.999s-43.667 -8 -71 -8c-6.66699 0 -16.834 1 -30.501 3s-28.667 5.83301 -45 11.5s-33.166 13.834 -50.499 24.501s-33.166 24.834 -47.499 42.501s-26 39.334 -35 65.001
s-13.5 56.167 -13.5 91.5c0 45.333 8 83 24 113s35.667 54 59 72s48 30.833 74 38.5s48.667 11.5 68 11.5c11.333 0 24.333 -1 39 -3s28.667 -4.33301 42 -7s25 -5.16699 35 -7.5s16 -3.83301 18 -4.5c3.33301 -0.666992 6.33301 0.166016 9 2.49902s4.66699 5.5 6 9.5h8
v-95l-5 -2c-7.33301 12.667 -16 23.5 -26 32.5s-20.667 16.5 -32 22.5c-21.333 12.667 -46.666 19 -75.999 19c-34.667 0 -63.667 -6.33301 -87 -19s-42 -29 -56 -49s-24 -42.5 -30 -67.5s-9 -49.5 -9 -73.5c0 -31.333 4 -58 12 -80s18.167 -40.5 30.5 -55.5
s25.833 -26.667 40.5 -35s28.834 -14.666 42.501 -18.999s25.834 -7 36.501 -8s18.334 -1.5 23.001 -1.5c16 0 29.833 2 41.5 6s21.334 8.66699 29.001 14s13.667 10.5 18 15.5s6.83301 8.16699 7.5 9.5v144c0 8 -1.33301 13.667 -4 17c-4 4 -7.66699 6.33301 -11 7
c-5.33301 1.33301 -10.333 2 -15 2c-2.66699 -0.666992 -5.33398 -1 -8.00098 -1h-9v10h103v-191z" />
    <glyph glyph-name="H" unicode="H" horiz-adv-x="452" 
d="M340 0l0.000976562 215.999h-220v-216h-91v6c3.33301 0 6.5 0.166992 9.5 0.5s5.5 0.5 7.5 0.5c4.66699 0.666992 8.33398 2.33398 11.001 5.00098c1.33301 1.33301 2.66602 4.33301 3.99902 9c1.33301 6.66699 2 12.667 2 18v417h57v-206h220v206h58v-417
c0 -8.66699 0.333008 -14.667 1 -18c0 -4 1.66699 -7 5 -9c1.33301 -2 4.66602 -3.66699 9.99902 -5c2 0 4.5 -0.166992 7.5 -0.5s6.16699 -0.5 9.5 -0.5v-6h-91z" />
    <glyph glyph-name="I" unicode="I" horiz-adv-x="158" 
d="M40 0v456h58v-417c0 -4 0.166992 -7.5 0.5 -10.5s0.833008 -5.83301 1.5 -8.5c1.33301 -4.66699 3 -7.66699 5 -9c4 -2.66699 7.66699 -4 11 -4c2.66699 0 5.5 -0.166992 8.5 -0.5s6.5 -0.5 10.5 -0.5v-6h-95z" />
    <glyph glyph-name="J" unicode="J" horiz-adv-x="252" 
d="M210 448c-3.33301 0 -6.99707 -1.33008 -10.9971 -3.99707c-2 -2 -3.66699 -5.33301 -5 -10c0 -2 -0.166992 -4.5 -0.5 -7.5s-0.5 -6.5 -0.5 -10.5v-288c0 -40.667 -9 -73.167 -27 -97.5s-45.333 -36.5 -82 -36.5c-18.667 0 -32.667 3.16699 -42 9.5
s-14.333 12.5 -15 18.5c-0.666992 7.33301 0.166016 13.166 2.49902 17.499s5.16602 7.5 8.49902 9.5s6.83301 2.83301 10.5 2.5s6.83398 -1.5 9.50098 -3.5s5.16699 -5.33301 7.5 -10s4.83301 -9.33398 7.5 -14.001s5.83398 -8.83398 9.50098 -12.501
s7.83398 -5.5 12.501 -5.5c7.33301 0 13.666 2.33301 18.999 7s9.66602 11 12.999 19s5.66602 17 6.99902 27s2 20.333 2 31v366h91v-7c-8.66699 0 -14.334 -0.333008 -17.001 -1z" />
    <glyph glyph-name="K" unicode="K" horiz-adv-x="467" 
d="M357 0l-234 215v-215h-91v6c3.33301 0 6.5 0.166992 9.5 0.5s5.5 0.5 7.5 0.5c5.33301 1.33301 8.66602 3 9.99902 5c2 1.33301 3.66699 4.33301 5 9c0.666992 3.33301 1 9.33301 1 18v417h58v-211l209 211h73v-7c-5.33301 -0.666992 -10.166 -1.33398 -14.499 -2.00098
s-7.83301 -1.66699 -10.5 -3c-6 -2 -13 -7 -21 -15l-188 -189l223 -210c7.33301 -7.33301 14 -12.666 20 -15.999c6 -4 14 -6.66699 24 -8v-6h-81z" />
    <glyph glyph-name="L" unicode="L" horiz-adv-x="374" 
d="M331 0l-303.998 -0.00195312v6c3.33301 0 6.5 0.166992 9.5 0.5s5.5 0.5 7.5 0.5c5.33301 1.33301 8.66602 3 9.99902 5c2.66699 2.66699 4.33398 5.66699 5.00098 9c0 2.66699 0.166992 5.5 0.5 8.5s0.5 6.16699 0.5 9.5v417h57v-406c0 -8 3.16699 -13 9.5 -15
s14.166 -3 23.499 -3h98c13.333 0 24.666 0.666992 33.999 2s17.5 3.83301 24.5 7.5s13.333 8.83398 19 15.501s11.167 15.334 16.5 26.001l8 -2z" />
    <glyph glyph-name="M" unicode="M" horiz-adv-x="580" 
d="M467 0l0.000976562 403.999l-173 -404h-23l-172 395v-338v-57h-74v7c9.33301 0 16.666 1 21.999 3s9 5 11 9s3 9 3 15c0.666992 3.33301 1 6.83301 1 10.5v12.5v399h68l164 -373l159 373h71v-416c0 -4 0.166992 -7.5 0.5 -10.5s0.5 -5.5 0.5 -7.5
c1.33301 -5.33301 3 -8.66602 5 -9.99902c2.66699 -2.66699 5.66699 -4 9 -4c3.33301 -0.666992 9.33301 -1 18 -1v-7h-90z" />
    <glyph glyph-name="N" unicode="N" horiz-adv-x="459" 
d="M424 0h-54.999l-270 383v-383h-74v6c9.33301 0 16.666 1 21.999 3s9 4.66699 11 8c2 4 3 9 3 15c0.666992 3.33301 1 6.83301 1 10.5v12.5v401h52c6.66699 -10.667 16.667 -25.5 30 -44.5l45 -64.5l51.5 -75l51.5 -75l45 -64.5c13.333 -19 23.333 -33.833 30 -44.5v368
h57v-456z" />
    <glyph glyph-name="O" unicode="O" horiz-adv-x="502" 
d="M466 228c0 -32.667 -5.66699 -63.334 -17 -92.001s-26.666 -53.834 -45.999 -75.501s-42 -38.667 -68 -51s-54 -18.5 -84 -18.5c-29.333 0 -57 6.16699 -83 18.5s-48.667 29.333 -68 51s-34.666 46.834 -45.999 75.501s-17 59.334 -17 92.001s5.66699 63.334 17 92.001
s26.666 53.834 45.999 75.501s42 38.667 68 51s53.667 18.5 83 18.5c30 0 58 -6.16699 84 -18.5s48.667 -29.333 68 -51s34.666 -46.834 45.999 -75.501s17 -59.334 17 -92.001zM251 433c-21.333 0 -41.333 -5.33301 -60 -16s-34.834 -25.334 -48.501 -44.001
s-24.5 -40.5 -32.5 -65.5s-12 -51.5 -12 -79.5c0 -28.667 4 -55.5 12 -80.5s18.833 -46.667 32.5 -65s29.834 -32.833 48.501 -43.5s38.667 -16 60 -16c20.667 0 40.334 5.33301 59.001 16s35 25.167 49 43.5s25 40 33 65s12 51.833 12 80.5c0 28 -4 54.5 -12 79.5
s-19 46.833 -33 65.5s-30.333 33.334 -49 44.001s-38.334 16 -59.001 16z" />
    <glyph glyph-name="P" unicode="P" horiz-adv-x="372" 
d="M114 39l-0.000976562 -38.999h-89v6c3.33301 0 6.33301 0.166992 9 0.5s5.33398 0.5 8.00098 0.5c4.66699 1.33301 7.66699 3 9 5c2 1.33301 3.66699 4.66602 5 9.99902c0 2 0.166992 4.5 0.5 7.5s0.5 6.16699 0.5 9.5v417h120c48 0 86.5 -11.333 115.5 -34
s43.5 -53.667 43.5 -93c0 -25.333 -4.66699 -46.5 -14 -63.5s-21.833 -30.5 -37.5 -40.5s-33.5 -17.167 -53.5 -21.5s-40.667 -6.5 -62 -6.5l-55 2v-160zM113.999 232.001c9.33301 0 17.668 -0.166016 25.001 -0.499023s17.666 -0.5 30.999 -0.5
c30.667 0 56.167 7.66699 76.5 23s30.5 40.666 30.5 75.999c0 18.667 -3.66699 34 -11 46s-16.5 21.5 -27.5 28.5s-23.167 12 -36.5 15s-26 4.5 -38 4.5h-50v-192z" />
    <glyph glyph-name="Q" unicode="Q" horiz-adv-x="501" 
d="M371 33l18.498 -41.5068c6.33301 -13.667 13 -26.167 20 -37.5s14.667 -20.666 23 -27.999s17.833 -11.333 28.5 -12v-8c-14 -0.666992 -27.667 0.333008 -41 3c-11.333 2.66699 -23.166 7.16699 -35.499 13.5s-22.166 16.5 -29.499 30.5
c-4 6.66699 -8.16699 14.834 -12.5 24.501s-9.16602 19.834 -14.499 30.501c-24 -10 -49.333 -15 -76 -15c-30 0 -58 6.16699 -84 18.5s-48.667 29.333 -68 51s-34.666 46.834 -45.999 75.501s-17 59.334 -17 92.001s5.66699 63.334 17 92.001s26.666 53.834 45.999 75.501
s42 38.667 68 51s54 18.5 84 18.5c29.333 0 57 -6.16699 83 -18.5s48.667 -29.333 68 -51s34.666 -46.834 45.999 -75.501s17 -59.334 17 -92.001c0 -41.333 -8.66699 -79.166 -26 -113.499s-40.333 -62.166 -69 -83.499zM250.998 23.9932
c20 0 40.001 5.33398 60.001 16.001c-5.33301 9.33301 -10.833 17.833 -16.5 25.5s-11.5 14.167 -17.5 19.5c-6.66699 6 -14.667 11.333 -24 16s-19 8.66699 -29 12s-19.833 5.83301 -29.5 7.5s-17.834 2.5 -24.501 2.5c22 6.66699 44 10 66 10c18 0 37 -3.33301 57 -10
s37 -20 51 -40c1.33301 -2.66699 3.33301 -6 6 -10c16.667 18.667 29.834 41.5 39.501 68.5s14.5 56.5 14.5 88.5c0 28 -4 54.5 -12 79.5s-18.833 46.833 -32.5 65.5s-29.834 33.334 -48.501 44.001s-38.667 16 -60 16s-41.166 -5.33301 -59.499 -16
s-34.5 -25.334 -48.5 -44.001s-25 -40.5 -33 -65.5s-12 -51.5 -12 -79.5c0 -28.667 4 -55.5 12 -80.5s19 -46.833 33 -65.5s30.167 -33.334 48.5 -44.001s38.166 -16 59.499 -16z" />
    <glyph glyph-name="R" unicode="R" horiz-adv-x="423" 
d="M146 240c14 0 28.8359 1.99902 44.5029 5.99902s30 10.167 43 18.5s23.833 19 32.5 32s13 28.5 13 46.5c0 18.667 -4 33.5 -12 44.5s-17.833 19.167 -29.5 24.5s-23.834 8.83301 -36.501 10.5s-24 2.5 -34 2.5h-52v-425h-89v7c8.66699 0 16 1.33301 22 4
s9 12.334 9 29.001v417h130c14.667 0 30.667 -1.5 48 -4.5s33.666 -8.83301 48.999 -17.5s28.166 -21 38.499 -37s15.5 -36.667 15.5 -62c0 -22.667 -5.66699 -41.167 -17 -55.5s-24.166 -25.666 -38.499 -33.999s-28 -14.166 -41 -17.499s-21.5 -5 -25.5 -5
c10.667 -4 21.167 -9.16699 31.5 -15.5s20.5 -15.833 30.5 -28.5c12.667 -16 22.667 -31.667 30 -47s13.833 -29.833 19.5 -43.5s11.5 -26.334 17.5 -38.001s14 -21.834 24 -30.501c9.33301 -8 19 -12 29 -12v-9c-16 -2.66699 -31.333 -2.66699 -46 0
c-12.667 2.66699 -25.834 8.5 -39.501 17.5s-25.167 24.167 -34.5 45.5l-20.5 44c-7 14.667 -14.333 28.5 -22 41.5s-15.334 24.5 -23.001 34.5s-15.5 17.333 -23.5 22c-15.333 9.33301 -29.666 14 -42.999 14v21z" />
    <glyph glyph-name="S" unicode="S" horiz-adv-x="346" 
d="M46 2l-9.00879 0.00683594v101h7c2 -5.33301 5.83301 -12.333 11.5 -21s13.5 -17.334 23.5 -26.001s22.333 -16.167 37 -22.5s32 -9.5 52 -9.5c16.667 0 30.334 3.16699 41.001 9.5s19.334 14 26.001 23s11.334 18.167 14.001 27.5s4 16.666 4 21.999
c0 16 -4.66699 30.667 -14 44s-20.166 24.666 -32.499 33.999s-24.333 17.166 -36 23.499s-19.834 10.5 -24.501 12.5l-24.5 14c-11.667 6.66699 -23.667 15.667 -36 27s-23.166 24.666 -32.499 39.999s-14 33 -14 53c0 23.333 5.33301 42.333 16 57
s23.167 26.167 37.5 34.5s28.666 14 42.999 17s25.5 4.5 33.5 4.5c10 0 20.5 -1 31.5 -3s21.333 -4.33301 31 -7s17.667 -5.16699 24 -7.5l9.5 -3.5c6 -1.33301 10.5 -0.333008 13.5 3s4.83301 6.66602 5.5 9.99902h7v-102h-7c-4.66699 16 -12.334 29 -23.001 39
s-21.667 17.833 -33 23.5s-22.166 9.5 -32.499 11.5s-17.5 3 -21.5 3c-3.33301 0 -9.66602 -0.833008 -18.999 -2.5s-18.666 -5 -27.999 -10s-17.666 -12.167 -24.999 -21.5s-11 -22 -11 -38c0 -13.333 5.16699 -26 15.5 -38s22 -22.833 35 -32.5s25.333 -17.667 37 -24
s19.167 -10.5 22.5 -12.5c20 -10 38.333 -22 55 -36c13.333 -12 25.833 -26.667 37.5 -44s17.5 -37.333 17.5 -60c0 -24.667 -5.5 -45 -16.5 -61s-24.167 -28.5 -39.5 -37.5s-31.166 -15.167 -47.499 -18.5s-29.833 -5 -40.5 -5c-21.333 0 -40.666 2.5 -57.999 7.5
s-33.666 9.5 -48.999 13.5c-4.66699 1.33301 -8.16699 0.166016 -10.5 -3.50098s-3.5 -6.5 -3.5 -8.5z" />
    <glyph glyph-name="T" unicode="T" horiz-adv-x="427" 
d="M388 376c-4 18 -9.66602 30.333 -16.999 37c-8.66699 6.66699 -21.667 10 -39 10h-88v-383c0 -6.66699 0.666992 -12.667 2 -18c0 -4.66699 1.66699 -8 5 -10c4 -2.66699 7.66699 -4 11 -4c3.33301 -0.666992 9.66602 -1 18.999 -1v-7h-94v423h-89
c-17.333 0 -30.333 -3.66699 -39 -11c-8 -6 -14 -18 -18 -36h-6l3 81h355l2 -81h-7z" />
    <glyph glyph-name="U" unicode="U" horiz-adv-x="437" 
d="M400 161c0 -19.333 -2.33008 -38.834 -6.99707 -58.501s-13.334 -37.667 -26.001 -54s-30 -29.666 -52 -39.999s-50.333 -15.5 -85 -15.5c-22.667 0 -44.334 3.16699 -65.001 9.5s-38.834 16.166 -54.501 29.499s-28.167 30.833 -37.5 52.5s-14 47.834 -14 78.501v255
c0 10 -1 18 -3 24c-3.33301 6 -10.333 9 -21 9h-10v7h91v-297c0 -46 10.833 -79.833 32.5 -101.5s51.5 -32.5 89.5 -32.5c23.333 0 43 3.66699 59 11s28.833 16.833 38.5 28.5s16.667 25 21 40s6.5 30.5 6.5 46.5v305h37v-297z" />
    <glyph glyph-name="V" unicode="V" horiz-adv-x="481" 
d="M436 446c-4 -5.33301 -7.66699 -11.667 -11 -19l-165 -427h-28l-174 425c-2.66699 8 -7 15 -13 21c-5.33301 5.33301 -12.666 8 -21.999 8v7h83l149 -376l144 376h57v-7c-8.66699 0 -15.334 -2.66699 -20.001 -8z" />
    <glyph glyph-name="W" unicode="W" horiz-adv-x="672" 
d="M628 447c-3.33301 -2.66699 -6.66699 -8.66797 -10 -18.001l-72.5 -215.5l-66.5 -213.5h-29l-112 344l-111 -344h-30l-135 419c-3.33301 8.66699 -7.33301 16.667 -12 24c-5.33301 7.33301 -13.333 11 -24 11v7h80l118 -365l117 365h11l121 -368l119 368h56v-7
c-10 -1.33301 -16.667 -3.66602 -20 -6.99902z" />
    <glyph glyph-name="X" unicode="X" horiz-adv-x="492" 
d="M376 0l-137 199l-150 -199h-63v7c10.667 0.666992 19 3.66699 25 9c2.66699 2 5.5 4.66699 8.5 8l9.5 11l148 196l-131 190c-6 8.66699 -12.667 15.667 -20 21c-6.66699 5.33301 -16 8 -28 8v7h90l125 -179l136 179h67v-7c-12.667 0 -22.667 -2.66699 -30 -8
c-6 -3.33301 -13.333 -11 -22 -23l-129 -172l146 -209c6.66699 -10 12.667 -17 18 -21c5.33301 -4.66699 14 -8 26 -10v-7h-89z" />
    <glyph glyph-name="Y" unicode="Y" horiz-adv-x="476" 
d="M414 423l-142.998 -220.001v-163c0 -9.33301 0.333008 -15.666 1 -18.999s3 -6.33301 7 -9s8 -4 12 -4c3.33301 -0.666992 9.66602 -1 18.999 -1v-7h-97v201l-149 220c-6.66699 10 -12 17 -16 21c-5.33301 5.33301 -13.333 8 -24 8v7h85l143 -219l139 219h64v-7
c-18.667 -2 -32.334 -11 -41.001 -27z" />
    <glyph glyph-name="Z" unicode="Z" horiz-adv-x="418" 
d="M383 0h-345.998v24l276 401h-195c-18.667 0 -32.667 -3.66699 -42 -11c-9.33301 -6 -15.333 -19 -18 -39h-10l8 82h325v-24l-272 -400h215c17.333 0 30.666 4 39.999 12c9.33301 10 15.666 22.667 18.999 38h9z" />
    <glyph glyph-name="bracketleft" unicode="[" horiz-adv-x="171" 
d="M85 -74c0 -5.33301 1.83301 -10.333 5.5 -15s9.5 -7 17.5 -7h40v-13h-109v581h109v-13h-40c-8 0 -13.833 -2.33301 -17.5 -7s-5.5 -9.66699 -5.5 -15v-511z" />
    <glyph glyph-name="backslash" unicode="\" horiz-adv-x="256" 
d="M189 -9l-163 466h43l164 -466h-44v0z" />
    <glyph glyph-name="bracketright" unicode="]" horiz-adv-x="174" 
d="M90 437c0 5.33301 -1.83301 10.333 -5.5 15s-9.5 7 -17.5 7h-40v13h109v-581h-109v13h40c8 0 13.833 2.33301 17.5 7s5.5 9.66699 5.5 15v511z" />
    <glyph glyph-name="asciicircum" unicode="^" horiz-adv-x="354" 
 />
    <glyph glyph-name="underscore" unicode="_" horiz-adv-x="407" 
d="M39 -83v34h332v-34h-332v0z" />
    <glyph glyph-name="grave" unicode="`" horiz-adv-x="216" 
d="M137 386l-94 104h58l68 -104h-32z" />
    <glyph glyph-name="a" unicode="a" horiz-adv-x="331" 
d="M201 34c-2 -4 -5.83008 -8.16406 -11.4971 -12.4971s-12 -8.5 -19 -12.5s-14.667 -7.5 -23 -10.5s-16.5 -4.83301 -24.5 -5.5c-3.33301 0 -9.83301 0.666992 -19.5 2s-19.834 4.83301 -30.501 10.5s-20 14.167 -28 25.5s-12 26.666 -12 45.999
c0 17.333 4.33301 32.333 13 45s19.834 23.5 33.501 32.5s28.334 16.333 44.001 22s30.667 10.167 45 13.5l37 8.5c10.333 2.33301 16.833 4.16602 19.5 5.49902v33c0 10.667 -2.5 20.167 -7.5 28.5s-11.5 15.333 -19.5 21s-17 9.83398 -27 12.501s-20 4 -30 4
c-12 0 -23.333 -1.5 -34 -4.5s-20 -6.5 -28 -10.5s-14.667 -7.83301 -20 -11.5s-8.33301 -5.83398 -9 -6.50098l-8 6c0.666992 1.33301 4 4.83301 10 10.5s14 11.5 24 17.5s22.333 11.5 37 16.5s31.334 7.5 50.001 7.5c37.333 0 64.666 -8.33301 81.999 -25
c18 -17.333 27 -43.333 27 -78v-165c0 -17.333 1.33301 -28.666 4 -33.999s5.66699 -8 9 -8c1.33301 0 4.33301 0.833008 9 2.5s7.66699 3.16699 9 4.5l-1 -10c-10.667 -6 -21 -11.333 -31 -16c-10 -3.33301 -18 -4 -24 -2c-6.66699 3.33301 -11.334 8.66602 -14.001 15.999
c-4 8 -6 20 -6 36l-2 52v77c-26 -4.66699 -49.333 -10.667 -70 -18c-8.66699 -3.33301 -17.334 -7.33301 -26.001 -12s-16.334 -9.83398 -23.001 -15.501s-12 -12.167 -16 -19.5s-6 -15.333 -6 -24c0 -15.333 3 -27 9 -35s13 -13.833 21 -17.5s15.833 -5.5 23.5 -5.5h16.5
c12 1.33301 21.667 4.5 29 9.5s13.666 9.16699 18.999 12.5z" />
    <glyph glyph-name="b" unicode="b" horiz-adv-x="382" 
d="M116 40l0.000976562 -43.001l-74 20v5h10c3.33301 0 6 0.666992 8 2c4.66699 0.666992 7 5.66699 7 15v407c0 4.66699 -2.66699 7.66699 -8 9h-9c-2.66699 0 -5.33398 0.333008 -8.00098 1v7c0.666992 0 4.33398 0.833008 11.001 2.5l22.5 5.5
c8.33301 2 16.333 3.83301 24 5.5s13.167 2.83398 16.5 3.50098v-204c22 35.333 53.333 53 94 53c25.333 0 46.666 -5.16699 63.999 -15.5s31.166 -23.5 41.499 -39.5s17.833 -33.5 22.5 -52.5s7 -37.5 7 -55.5c0 -30 -4.16699 -55.833 -12.5 -77.5
s-19.166 -39.667 -32.499 -54s-28.5 -24.833 -45.5 -31.5s-33.833 -10 -50.5 -10c-14 0 -29.5 4 -46.5 12s-30.833 19.667 -41.5 35zM117.001 125.999c0 -32 8.49902 -57.999 25.499 -77.999s38.167 -30 63.5 -30c10.667 0 21.334 2.83301 32.001 8.5
s20.167 14.167 28.5 25.5s15.166 25.333 20.499 42s8 35.667 8 57c0 18 -2 35.5 -6 52.5s-9.66699 32.167 -17 45.5s-16.666 24.166 -27.999 32.499s-24 12.5 -38 12.5c-26 0 -47.333 -7.66699 -64 -23s-25 -37 -25 -65v-80z" />
    <glyph glyph-name="c" unicode="c" horiz-adv-x="320" 
d="M182 -7c-12 0 -26.333 2.33203 -43 6.99902s-32.5 13 -47.5 25s-27.667 28.667 -38 50s-15.5 48.666 -15.5 81.999c0 32.667 5.5 59.167 16.5 79.5s20.5 34.833 28.5 43.5c10.667 12 22.167 21.333 34.5 28s24 11.5 35 14.5s21.167 4.83301 30.5 5.5s17 0.666992 23 0
c24.667 -1.33301 42.5 -6.66602 53.5 -15.999s18.167 -17.333 21.5 -24c1.33301 -3.33301 2.33301 -8.5 3 -15.5s-3.66602 -11.833 -12.999 -14.5c-4.66699 -1.33301 -8.5 -1.16602 -11.5 0.500977s-5.16699 3.5 -6.5 5.5c-0.666992 0.666992 -1.83398 3.16699 -3.50098 7.5
s-4.5 8.66602 -8.5 12.999s-9.66699 8.33301 -17 12s-17 5.5 -29 5.5c-26.667 0 -47.5 -6.16699 -62.5 -18.5s-26 -26 -33 -41s-11 -29.667 -12 -44s-1.5 -23.5 -1.5 -27.5c0 -27.333 4.16699 -50.166 12.5 -68.499s18.5 -33 30.5 -44s24.5 -18.833 37.5 -23.5
s23.833 -6.66699 32.5 -6c12 0.666992 23.167 3 33.5 7s19.666 8.33301 27.999 13s15 9.16699 20 13.5s7.83301 7.5 8.5 9.5l5 -12c-12.667 -22.667 -29.167 -39.5 -49.5 -50.5s-41.166 -16.5 -62.499 -16.5z" />
    <glyph glyph-name="d" unicode="d" horiz-adv-x="364" 
d="M269 -3l-0.00292969 48.999c-23.333 -35.333 -54.666 -53 -93.999 -53c-16 0 -32.167 3 -48.5 9s-30.833 15.5 -43.5 28.5s-23 29.833 -31 50.5s-12 45.667 -12 75c0 21.333 2.83301 42.333 8.5 63s14.334 39.167 26.001 55.5s26.334 29.5 44.001 39.5s38.5 15 62.5 15
c37.333 0 66.666 -15.667 87.999 -47v152v12c-1.33301 5.33301 -4 8.33301 -8 9h-10c-2.66699 0 -5 0.333008 -7 1v7c0.666992 0 4.33398 0.833008 11.001 2.5l22 5.5c8 2 15.833 3.83301 23.5 5.5s13.167 2.83398 16.5 3.50098v-441c0 -8.66699 2.66699 -13.667 8 -15
c2.66699 -1.33301 8.66699 -2 18 -2v-5zM267.997 195.999c0 11.333 -1.66797 23.3311 -5.00098 35.998s-8.66602 24.334 -15.999 35.001s-16.5 19.5 -27.5 26.5s-24.5 10.5 -40.5 10.5c-25.333 0 -46.5 -12.167 -63.5 -36.5s-25.5 -56.166 -25.5 -95.499
c0 -24 2.83301 -45 8.5 -63s12.667 -33 21 -45s17.833 -21 28.5 -27s21 -9 31 -9c26 0 47.333 7.83301 64 23.5s25 37.167 25 64.5v80z" />
    <glyph glyph-name="e" unicode="e" horiz-adv-x="329" 
d="M190 144c-12 0 -22.3291 0.995117 -30.9961 2.99512s-15.667 4.66699 -21 8c-6.66699 2.66699 -12 6.33398 -16 11.001v16c8.66699 -5.33301 20 -9.16602 34 -11.499s27.667 -2 41 1s25 9.66699 35 20s15 25.833 15 46.5c0 8 -1.5 16.333 -4.5 25
s-7.66699 16.334 -14 23.001s-14.166 11.834 -23.499 15.501s-20 4.83398 -32 3.50098c-24 -3.33301 -44.333 -18.333 -61 -45s-25 -60 -25 -100c0 -24.667 3.83301 -45.167 11.5 -61.5s17.167 -29.5 28.5 -39.5s23.166 -17 35.499 -21s23.166 -6 32.499 -6
c23.333 0 43.333 4.83301 60 14.5s29.667 19.167 39 28.5l5 -7c-2 -5.33301 -6 -12.166 -12 -20.499s-13.833 -16.5 -23.5 -24.5s-21.334 -15 -35.001 -21s-29.167 -9 -46.5 -9c-9.33301 0 -22 1.83301 -38 5.5s-31.667 11.334 -47 23.001s-28.833 28 -40.5 49
s-17.5 48.833 -17.5 83.5c0 11.333 0.666992 22.166 2 32.499s3.33301 20.833 6 31.5c3.33301 10.667 7.16602 20.5 11.499 29.5s9.16602 17.833 14.499 26.5c12 15.333 26.667 28.333 44 39s38.333 16 63 16c19.333 0 36 -3 50 -9s25.667 -13.5 35 -22.5
s16.333 -18.833 21 -29.5s7 -21 7 -31c0 -30.667 -10 -53.834 -30 -69.501s-44.333 -23.5 -73 -23.5z" />
    <glyph glyph-name="f" unicode="f" horiz-adv-x="229" 
d="M214 439c-6 6 -11.167 13.6699 -15.5 23.0029s-10.833 14 -19.5 14c-15.333 0 -26.666 -7.83301 -33.999 -23.5s-11 -35.5 -11 -59.5v-72h70v-10l-70 -11v-268v-32h-81v6h16c4 1.33301 7.33301 2.66602 10 3.99902c2 1.33301 3.66699 4 5 8
c1.33301 5.33301 2 10.666 2 15.999v266h-63v11l63 10v35c0 33.333 5.5 59.166 16.5 77.499s24.833 31.833 41.5 40.5c12.667 6.66699 25.667 10 39 10s21.666 -0.333008 24.999 -1c20 -3.33301 32.333 -8.33301 37 -15s4.66699 -14 0 -22
c-1.33301 -2 -5.33301 -5.16699 -12 -9.5s-13 -3.5 -19 2.5z" />
    <glyph glyph-name="g" unicode="g" horiz-adv-x="338" 
d="M232 213c0 25.333 -7 46.833 -21 64.5s-31 26.5 -51 26.5s-37 -8.83301 -51 -26.5s-21 -39.167 -21 -64.5s7 -46.666 21 -63.999s31 -26 51 -26s37 8.66699 51 26s21 38.666 21 63.999zM313 -34c2 -16.667 -2.17188 -32.165 -12.5049 -46.498s-25 -26.5 -44 -36.5
s-41.5 -17.167 -67.5 -21.5s-53.333 -4.5 -82 -0.5c-26.667 3.33301 -46.667 9.66602 -60 18.999s-22.166 19.333 -26.499 30s-4.83301 21.334 -1.5 32.001s8 19 14 25c10 10 19.5 16 28.5 18s17.167 2.33301 24.5 1c8 -2 15.333 -5.66699 22 -11
c-9.33301 0 -18.5 -2.5 -27.5 -7.5s-14.167 -12.167 -15.5 -21.5s0.666992 -17.333 6 -24s12.5 -12.167 21.5 -16.5s19.333 -7.5 31 -9.5s23.167 -3.33301 34.5 -4s24.166 0 38.499 2s27.833 5.33301 40.5 10s23.5 10.834 32.5 18.501s14.167 17.167 15.5 28.5
c1.33301 10.667 -2.5 19 -11.5 25s-21 10.5 -36 13.5s-32 5 -51 6s-37.5 2.16699 -55.5 3.5c-36 3.33301 -59.667 10.333 -71 21s-16.333 22.667 -15 36c0.666992 7.33301 3.66699 14.333 9 21s11 12.667 17 18c7.33301 6.66699 15.333 13 24 19h1
c-17.333 10 -31.333 23.667 -42 41s-16 36.666 -16 57.999c0 16 3.16699 31 9.5 45s15 26.333 26 37s23.833 19 38.5 25s30.334 9 47.001 9c13.333 0 26 -2 38 -6s23 -9.66699 33 -17l79 16l4 -6l-56 -36l-1 1c15.333 -19.333 23 -42 23 -68c0 -16 -3.16699 -31 -9.5 -45
s-15 -26.333 -26 -37s-23.667 -19 -38 -25s-29.833 -9 -46.5 -9c-14 0 -27 2 -39 6c-8 -3.33301 -16.167 -8.5 -24.5 -15.5s-12.166 -14.833 -11.499 -23.5c0 -5.33301 2.66699 -9.5 8 -12.5s12.333 -5.16699 21 -6.5s18.834 -2.5 30.501 -3.5s23.834 -1.83301 36.501 -2.5
s26.334 -1.83398 41.001 -3.50098s28.5 -4.83398 41.5 -9.50098s24.167 -11.667 33.5 -21s15 -22.333 17 -39z" />
    <glyph glyph-name="h" unicode="h" horiz-adv-x="344" 
d="M301 14c2.66699 -5.33301 7.66895 -8 15.002 -8v-6h-68v210c0 10.667 -0.833008 20.834 -2.5 30.501s-5 18.334 -10 26.001s-12.167 13.834 -21.5 18.501s-21.333 7 -36 7c-14 0 -25.833 -3.33301 -35.5 -10s-17.5 -14.5 -23.5 -23.5s-10.5 -18.5 -13.5 -28.5
s-4.83301 -18.333 -5.5 -25v-205h-49v446c0 4.66699 -2.66699 7.66699 -8 9h-9c-2.66699 0 -5.33398 0.333008 -8.00098 1v7c2 0.666992 4.33301 1.16699 7 1.5s6 1.16602 10 2.49902s8 2.33301 12 3s8.33301 1.66699 13 3c4 1.33301 8.66699 2.5 14 3.5l18 3.5v-212
l10 13.5c4.66699 6.33301 11 12.666 19 18.999s17.5 12.166 28.5 17.499s23.5 8.66602 37.5 9.99902c16.667 1.33301 31.5 -0.5 44.5 -5.5s23.667 -12.667 32 -23s14.666 -22.666 18.999 -36.999s6.5 -29.833 6.5 -46.5v-184c0 -6.66699 1.33301 -12.667 4 -18z" />
    <glyph glyph-name="i" unicode="i" horiz-adv-x="151" 
d="M105 18c0 -3.33301 1 -6.00098 3 -8.00098c1.33301 -0.666992 2.5 -1.33398 3.5 -2.00098s2.16699 -1 3.5 -1c2 -0.666992 6.33301 -1 13 -1v-6h-72v165.5v86.5c0 18.667 -0.166992 30 -0.5 34s-0.5 6.33301 -0.5 7c-0.666992 0.666992 -1.16699 1.33398 -1.5 2.00098
s-0.833008 1.33398 -1.5 2.00098s-1.33398 1 -2.00098 1c-3.33301 0.666992 -6.33301 0.666992 -9 0h-6.5c-2.33301 0 -5.16602 0.666992 -8.49902 2v3l66 23l13 -1v-307zM77 379.999c0 0.666992 -1.5 1.50098 -4.5 2.50098s-6.16699 2.5 -9.5 4.5s-6.5 5 -9.5 9
s-4.5 9 -4.5 15c0 5.33301 1.5 10.666 4.5 15.999s6.16699 10.166 9.5 14.499s6.5 8.16602 9.5 11.499s4.5 5.66602 4.5 6.99902c0 -1.33301 1.5 -3.66602 4.5 -6.99902l10 -11.5c3.66699 -4.33301 7 -9.16602 10 -14.499s4.5 -10.666 4.5 -15.999c0 -6 -1.5 -11 -4.5 -15
s-6.33301 -7 -10 -9s-7 -3.5 -10 -4.5s-4.5 -1.83301 -4.5 -2.5z" />
    <glyph glyph-name="j" unicode="j" horiz-adv-x="141" 
d="M78 380c0 0.666992 -1.5 1.49902 -4.5 2.49902s-6.33301 2.5 -10 4.5s-7 5 -10 9s-4.5 9 -4.5 15c0 5.33301 1.5 10.666 4.5 15.999s6.33301 10.166 10 14.499l10 11.5c3 3.33301 4.5 5.66602 4.5 6.99902c0 -1.33301 1.5 -3.66602 4.5 -6.99902
s6.16699 -7.16602 9.5 -11.499s6.5 -9.16602 9.5 -14.499s4.5 -10.666 4.5 -15.999c0 -6 -1.5 -11 -4.5 -15s-6.16699 -7 -9.5 -9s-6.5 -3.5 -9.5 -4.5s-4.5 -1.83301 -4.5 -2.5zM-38 -114.001c0.666992 0.666992 1.6709 2.00195 3.00391 4.00195s3.33301 3.83301 6 5.5
s5.5 2.83398 8.5 3.50098s6.16699 -0.333008 9.5 -3s7.16602 -7.83398 11.499 -15.501s11.166 -12.167 20.499 -13.5c9.33301 -0.666992 17.666 4.83301 24.999 16.5s11 29.167 11 52.5v24v188v98.5c0 21 -0.166992 33.667 -0.5 38s-0.5 6.83301 -0.5 7.5
c-0.666992 2.66699 -2.33398 4.66699 -5.00098 6c-2.66699 0.666992 -6 0.666992 -10 0c-2 -0.666992 -4 -1 -6 -1s-4.66699 -0.333008 -8 -1v7l66 23l13 -1v-340c0 -27.333 -3.66699 -50 -11 -68c-7.33301 -20 -19 -36 -35 -48s-36 -17 -60 -15
c-14.667 1.33301 -26 5.16602 -34 11.499s-9.33301 13.166 -4 20.499z" />
    <glyph glyph-name="k" unicode="k" horiz-adv-x="355" 
d="M56 446c0 4.66699 -2.66699 7.66602 -8 8.99902h-10c-2.66699 0 -5 0.333008 -7 1v7c0.666992 0 4.33398 0.833008 11.001 2.5l22.5 5.5c8.33301 2 16.333 3.83301 24 5.5s13.167 2.83398 16.5 3.50098v-296l131 137h74v-5c-12.667 0 -23.334 -2.33301 -32.001 -7
c-8 -4 -16.667 -10.667 -26 -20l-103 -112l137 -143c5.33301 -6 12.333 -12.333 21 -19c8 -6 16.667 -9 26 -9v-6h-78l-150 163v-163h-79v6c13.333 0 21.333 1.33301 24 4c4 2.66699 6 10.667 6 24v412z" />
    <glyph glyph-name="l" unicode="l" horiz-adv-x="160" 
d="M57 433v11.999c0 4.66699 -2.66699 7.66699 -8 9h-9c-2.66699 0 -5.33398 0.333008 -8.00098 1v7c0.666992 0 4.33398 0.833008 11.001 2.5l22.5 5.5c8.33301 2 16.333 3.83301 24 5.5s13.167 2.83398 16.5 3.50098v-445c0 -13.333 2 -21.333 6 -24
c3.33301 -3.33301 11.333 -5 24 -5v-5h-79v433z" />
    <glyph glyph-name="m" unicode="m" horiz-adv-x="529" 
d="M504 6l0.00195312 -6.00684h-74v210c0 10.667 -0.833008 20.834 -2.5 30.501s-4.83398 18.334 -9.50098 26.001s-11.334 13.834 -20.001 18.501s-20 7 -34 7c-13.333 0 -24.5 -3.16699 -33.5 -9.5s-16.5 -14 -22.5 -23s-10.5 -18.5 -13.5 -28.5
s-4.83301 -18.333 -5.5 -25v-206h-47v210c0 10.667 -0.833008 20.834 -2.5 30.501s-5 18.334 -10 26.001s-11.833 13.834 -20.5 18.501s-20 7 -34 7s-25.833 -3.66699 -35.5 -11s-17.334 -15.833 -23.001 -25.5s-9.83398 -19.667 -12.501 -30s-4 -18.5 -4 -24.5v-201h-49
v296c0 10.667 -1.66699 17.334 -5 20.001c-2.66699 2.66699 -8.66699 4 -18 4v5h70v-59v-2c0.666992 0.666992 2.83398 4.16699 6.50098 10.5s9.33398 13.166 17.001 20.499s17.167 14.333 28.5 21s25 10.667 41 12c25.333 2.66699 45.833 -2.83301 61.5 -16.5
s26.167 -31.834 31.5 -54.501c0 2 0.666992 3.66699 2 5c0.666992 0.666992 1 1.33398 1 2.00098c6 11.333 13.333 21.333 22 30c7.33301 7.33301 16.833 14.5 28.5 21.5s25.834 11.167 42.501 12.5c16 1.33301 30.167 -0.5 42.5 -5.5s22.666 -12.667 30.999 -23
s14.5 -22.666 18.5 -36.999s6 -29.833 6 -46.5v-184c0 -7.33301 0.333008 -12.333 1 -15c0 -3.33301 1 -6 3 -8c1.33301 -0.666992 4 -1.66699 8 -3h14z" />
    <glyph glyph-name="n" unicode="n" horiz-adv-x="338" 
d="M300 14c2 -5.33301 7.00098 -8.00293 15.001 -8.00293v-6h-68v210c0 10.667 -0.833008 20.834 -2.5 30.501s-5 18.334 -10 26.001s-12.167 13.834 -21.5 18.501s-21.333 7 -36 7c-14 0 -25.833 -3.33301 -35.5 -10s-17.5 -14.5 -23.5 -23.5s-10.5 -18.5 -13.5 -28.5
s-4.83301 -18.333 -5.5 -25v-205h-49v296c0 10 -1.66699 16.667 -5 20c-2.66699 2.66699 -8.66699 4 -18 4v5h70v-59v-2c0.666992 0.666992 3 4.16699 7 10.5s10 13.166 18 20.499s18 14.333 30 21s26 10.667 42 12c16.667 1.33301 31.5 -0.5 44.5 -5.5
s23.667 -12.667 32 -23s14.666 -22.666 18.999 -36.999s6.5 -29.833 6.5 -46.5v-184c0 -6.66699 1.33301 -12.667 4 -18z" />
    <glyph glyph-name="o" unicode="o" horiz-adv-x="381" 
d="M346 160c0 -23.333 -4 -45.166 -12 -65.499s-19 -38.166 -33 -53.499s-30.333 -27.333 -49 -36s-38.667 -13 -60 -13s-41.333 4.33301 -60 13s-34.834 20.667 -48.501 36s-24.5 33.166 -32.5 53.499s-12 42.166 -12 65.499s4 45.333 12 66s18.833 38.667 32.5 54
s29.834 27.333 48.501 36s38.667 13 60 13s41.333 -4.33301 60 -13s35 -20.667 49 -36s25 -33.333 33 -54s12 -42.667 12 -66zM192 302c-14 0 -27.167 -3.66699 -39.5 -11s-23 -17.5 -32 -30.5s-16.167 -28 -21.5 -45s-8 -35.5 -8 -55.5
c0 -19.333 2.66699 -37.666 8 -54.999s12.5 -32.5 21.5 -45.5s19.667 -23.167 32 -30.5s25.5 -11 39.5 -11s27.167 3.66699 39.5 11s23.166 17.5 32.499 30.5s16.666 28.167 21.999 45.5s8 35.666 8 54.999c0 20 -2.66699 38.5 -8 55.5s-12.666 32 -21.999 45
s-20.166 23.167 -32.499 30.5s-25.5 11 -39.5 11z" />
    <glyph glyph-name="p" unicode="p" horiz-adv-x="364" 
d="M100 -110c0 -4 0.165039 -7.33105 0.498047 -9.99805s0.833008 -5 1.5 -7c1.33301 -4.66699 3.33301 -7.33398 6 -8.00098c2 -2 5.33301 -3 10 -3c2 -0.666992 4.33301 -1 7 -1h9v-5h-82v34v167v113c0 30 -0.166992 53.167 -0.5 69.5s-0.5 28.5 -0.5 36.5
s-0.166992 12.833 -0.5 14.5s-0.5 2.83398 -0.5 3.50098c-1.33301 3.33301 -2.66602 5.33301 -3.99902 6c-1.33301 0 -2.5 0.166992 -3.5 0.5s-2.5 0.166016 -4.5 -0.500977s-5.66699 -1 -11 -1v6l58 20h13v-58c3.33301 4.66699 8 10.5 14 17.5s13.333 13.667 22 20
s18.834 11.833 30.501 16.5s24.5 7 38.5 7c22.667 0 42 -4.66699 58 -14s28.833 -22 38.5 -38s16.667 -34.5 21 -55.5s6.5 -43.167 6.5 -66.5c0 -30.667 -5.33301 -56.334 -16 -77.001s-23.334 -37.334 -38.001 -50.001s-29.667 -21.667 -45 -27s-27.666 -8 -36.999 -8
c-27.333 0 -48 5.33301 -62 16s-23.667 20.334 -29 29.001v-147zM188.998 290.002c-8 0 -17.167 -1.50391 -27.5 -4.50391s-20 -8.16699 -29 -15.5s-16.667 -17 -23 -29s-9.5 -26.667 -9.5 -44v-88c0 -23.333 7.5 -44.166 22.5 -62.499s37.167 -27.5 66.5 -27.5
c9.33301 0 19.166 2.33301 29.499 7s19.833 12.334 28.5 23.001s15.834 24.334 21.501 41.001s8.5 37 8.5 61c0 16.667 -1.83301 33.334 -5.5 50.001s-9 31.667 -16 45s-16.167 24 -27.5 32s-24.333 12 -39 12z" />
    <glyph glyph-name="q" unicode="q" horiz-adv-x="363" 
d="M268 280l-0.00195312 44.999h13l58 -20v-6c-5.33301 0 -9 0.333008 -11 1s-3.5 0.833984 -4.5 0.500977s-2.16699 -0.5 -3.5 -0.5c-1.33301 -0.666992 -2.66602 -2.66699 -3.99902 -6c-1.33301 -4 -2 -9 -2 -15v-389c0 -4 0.166992 -7.33301 0.5 -10s0.833008 -5 1.5 -7
c1.33301 -4.66699 3.33301 -7.33398 6 -8.00098c2 -2 5.33301 -3 10 -3c3.33301 -0.666992 8.66602 -1 15.999 -1v-5h-82v34v160c-3.33301 -4.66699 -8.16602 -10.334 -14.499 -17.001s-14 -13 -23 -19s-19 -11.167 -30 -15.5s-22.833 -6.5 -35.5 -6.5
c-40 0 -70.667 15.833 -92 47.5s-32 73.834 -32 126.501c0 16.667 3.16699 34.334 9.5 53.001s15.5 36 27.5 52s26.333 29.333 43 40s35.334 16 56.001 16c26 0 46.333 -5.16699 61 -15.5s24.667 -19.833 30 -28.5zM265.998 122.999l-0.000976562 88.0029
c0 24 -7.83301 45 -23.5 63s-37.5 27 -65.5 27c-15.333 0 -28.5 -4.16699 -39.5 -12.5s-20 -18.833 -27 -31.5s-12.333 -26.834 -16 -42.501s-5.5 -30.834 -5.5 -45.501c0 -22 2.5 -41.667 7.5 -59s11.667 -31.833 20 -43.5s17.833 -20.667 28.5 -27
s21.334 -9.5 32.001 -9.5c28.667 0 50.667 9.16699 66 27.5s23 40.166 23 65.499z" />
    <glyph glyph-name="r" unicode="r" horiz-adv-x="250" 
d="M105 0l-75.999 -0.00585938v6c12 0 19.667 1.66699 23 5c2.66699 2.66699 4 10.334 4 23.001v147v77c0 16.667 -0.166992 26.834 -0.5 30.501s-0.5 5.83398 -0.5 6.50098c-1.33301 3.33301 -2.66602 5 -3.99902 5c-0.666992 0 -2 0.166992 -4 0.5s-4.33301 0.5 -7 0.5
h-10v5l60 19h13v-68c0.666992 2 3.16699 7 7.5 15s10.166 16.167 17.499 24.5s16 15.833 26 22.5s21.667 10 35 10c8.66699 0 15.167 -1.5 19.5 -4.5s7.5 -6.33301 9.5 -10s3 -7.16699 3 -10.5v-6c0 -7.33301 -2.33301 -13.666 -7 -18.999s-8 -8.66602 -10 -9.99902
c-3.33301 -1.33301 -6.33301 -0.5 -9 2.5s-5.5 6.83301 -8.5 11.5s-6 8.83398 -9 12.501s-6.5 5.16699 -10.5 4.5c-8 -2 -15.833 -6 -23.5 -12s-14.334 -12.667 -20.001 -20s-10.167 -14.833 -13.5 -22.5s-5 -14.167 -5 -19.5v-226z" />
    <glyph glyph-name="s" unicode="s" horiz-adv-x="277" 
d="M39 -10l0.00195312 88.9951l5 2c0.666992 -3.33301 2.83398 -8.5 6.50098 -15.5s9 -14 16 -21s15.667 -13.167 26 -18.5s22.5 -8 36.5 -8c21.333 0 38 5.16699 50 15.5s18 23.166 18 38.499c0 10.667 -3.5 20.334 -10.5 29.001s-15 16.334 -24 23.001s-17.667 12 -26 16
s-14.166 6.66699 -17.499 8s-9.33301 4.33301 -18 9s-17.5 10.834 -26.5 18.501s-17 17.167 -24 28.5s-10.5 24.333 -10.5 39c0 18.667 4 33.834 12 45.501s17.5 20.5 28.5 26.5s22.167 10 33.5 12s20 3 26 3s12.667 -0.666992 20 -2s14.5 -3 21.5 -5l18 -5
c5 -1.33301 8.16699 -2 9.5 -2c2.66699 0 5 1.66699 7 5c0.666992 1.33301 1.33398 3 2.00098 5h3v-75h-4c-2 4.66699 -5 10.334 -9 17.001s-9.33301 12.667 -16 18s-14.5 10 -23.5 14s-19.833 6 -32.5 6c-18.667 0 -32.667 -5.33301 -42 -16s-14 -21.667 -14 -33
c0 -9.33301 3.66699 -18.166 11 -26.499s15.666 -15.666 24.999 -21.999s18.5 -11.666 27.5 -15.999s15.167 -7.5 18.5 -9.5s9.5 -5.33301 18.5 -10s18.167 -11 27.5 -19s17.5 -17.667 24.5 -29s10.5 -24.666 10.5 -39.999c0 -18.667 -4 -33.834 -12 -45.501
s-17.833 -20.834 -29.5 -27.501s-23.667 -11.334 -36 -14.001s-22.5 -4 -30.5 -4c-2.66699 0 -6.83398 0.333008 -12.501 1s-11.834 1.5 -18.501 2.5s-12.834 2 -18.501 3s-9.83398 1.5 -12.501 1.5c-6 1.33301 -12 1.83301 -18 1.5s-10 -4.83301 -12 -13.5h-4z" />
    <glyph glyph-name="t" unicode="t" horiz-adv-x="245" 
d="M146 -6c-14 0 -25.334 2.66504 -34.001 7.99805c-9.33301 5.33301 -16.333 12 -21 20c-4.66699 7.33301 -8 17 -10 29c-2 10.667 -3 22 -3 34v219h-50v12l50 6l34 90h15v-90h57v-6l-57 -12v-219v-10c0 -3.33301 0.666992 -6.66602 2 -9.99902
c0.666992 -6.66699 2.66699 -13.667 6 -21c2.66699 -5.33301 6.66699 -10.666 12 -15.999c4.66699 -4 11.334 -6 20.001 -6c12.667 -0.666992 23.5 2.33301 32.5 9s15.167 11 18.5 13l6 -7c-0.666992 -1.33301 -3.16699 -4.33301 -7.5 -9s-10 -9.5 -17 -14.5
s-15.167 -9.5 -24.5 -13.5s-19 -6 -29 -6z" />
    <glyph glyph-name="u" unicode="u" horiz-adv-x="340" 
d="M299 23c2 -0.666992 4.33105 -1.16406 6.99805 -1.49707s6 -0.5 10 -0.5v-6l-61 -17l-6 2v61l-1 -3c-0.666992 -1.33301 -3 -5 -7 -11s-10 -12.667 -18 -20s-18 -14.333 -30 -21s-26.333 -10.667 -43 -12c-17.333 -1.33301 -32.166 0.666992 -44.499 6
s-22.833 13 -31.5 23s-15 22.167 -19 36.5s-6 29.833 -6 46.5v184c0 5.33301 -1.33301 11.333 -4 18c-3.33301 6 -8.66602 9 -15.999 9v5h68v-210c0 -10.667 1 -20.834 3 -30.501s5.5 -18.334 10.5 -26.001s12 -13.834 21 -18.501s20.833 -7 35.5 -7
c14 0 25.833 3.33301 35.5 10s17.5 14.5 23.5 23.5s10.667 18.5 14 28.5s5.33301 18.333 6 25v205h49l-1 -282c0 -9.33301 1.66699 -15 5 -17z" />
    <glyph glyph-name="v" unicode="v" horiz-adv-x="351" 
d="M310 305c-1.33301 -3.33301 -2.66797 -6.5 -4.00098 -9.5s-2.66602 -6.16699 -3.99902 -9.5l-107 -286h-32l-112 294c-2 6 -5 11 -9 15c-3.33301 4 -8.33301 6 -15 6v5h67l93 -260l93 260h46v-5c-8 -2 -13.333 -5.33301 -16 -10z" />
    <glyph glyph-name="w" unicode="w" horiz-adv-x="529" 
d="M497 309c-1.33301 -1.33301 -2.33301 -2.83301 -3 -4.5s-1.66699 -3.5 -3 -5.5l-109 -299h-32l-81 230l-88 -230h-33l-106 294c-1.33301 2.66699 -2.33301 5 -3 7s-1.66699 4.33301 -3 7c-3.33301 4.66699 -7.33301 7 -12 7v5h60l89 -262l99 262h13l87 -260l94 260h40v-5
c-4 -2 -7 -4 -9 -6z" />
    <glyph glyph-name="x" unicode="x" horiz-adv-x="356" 
d="M258 0l-89.001 138c-1.33301 -1.33301 -6.66602 -9.16602 -15.999 -23.499l-31 -47.5l-44 -67h-51v6c6 0 10.667 1.33301 14 4c2.66699 2 6 5.66699 10 11l98 147l-84 130c-3.33301 5.33301 -7.33301 9.66602 -12 12.999s-10.667 5 -18 5v5h73l70 -109l73 109h54v-5
c-14 -1.33301 -24.333 -7.33301 -31 -18l-76 -116l101 -156c1.33301 -2.66699 3 -5 5 -7l7 -7c4.66699 -4 10.667 -6 18 -6v-6h-71z" />
    <glyph glyph-name="y" unicode="y" horiz-adv-x="351" 
d="M316 313c-2.66699 -4 -4.66895 -7.33105 -6.00195 -9.99805l-125 -341c-1.33301 -2.66699 -4.16602 -9.83398 -8.49902 -21.501s-10.5 -23.834 -18.5 -36.501s-17.833 -24 -29.5 -34s-25.5 -15 -41.5 -15c-3.33301 0 -7.66602 0.333008 -12.999 1s-10.666 2 -15.999 4
s-9.83301 4.5 -13.5 7.5s-5.5 6.83301 -5.5 11.5c-0.666992 5.33301 0.833008 11.833 4.5 19.5s8.5 11.834 14.5 12.501c7.33301 0 13 -2 17 -6s7.16699 -8.66699 9.5 -14s4.33301 -10.166 6 -14.499s4.5 -6.5 8.5 -6.5c6.66699 0 14 7 22 21s15.167 29.667 21.5 47
s11.833 33.166 16.5 47.499s7 22.166 7 23.499l-121 296c-0.666992 4.66699 -3 7.66699 -7 9l-12 3v5h67l98 -254l88 254h48v-5c-4.66699 -0.666992 -8.33398 -2 -11.001 -4z" />
    <glyph glyph-name="z" unicode="z" horiz-adv-x="331" 
d="M293 0h-253.999v22l186 271h-132c-12 0 -19.333 -2.66699 -22 -8c-4 -6 -6.33301 -14 -7 -24h-6l1 60h227v-22l-187 -271h147c10.667 0 17.667 0.333008 21 1c5.33301 2 9.33301 4.33301 12 7c2.66699 1.33301 5.33398 5.33301 8.00098 12
c1.33301 2.66699 2.16602 5.5 2.49902 8.5s1.16602 6.83301 2.49902 11.5l6 -2z" />
    <glyph glyph-name="braceleft" unicode="{" horiz-adv-x="210" 
d="M26 189c4.66699 0.666992 9.83398 3.33301 15.501 8s11.334 10.167 17.001 16.5s10.334 12.833 14.001 19.5s5.83398 12 6.50098 16s1 10.833 1 20.5v31.5c0 11.333 -0.166992 22 -0.5 32s-0.5 17.333 -0.5 22c0 27.333 5.16699 48.833 15.5 64.5s22 27.334 35 35.001
s25.167 12.5 36.5 14.5s18 3 20 3v-12c-6 0 -12.667 -1.83301 -20 -5.5s-14 -8.66699 -20 -15s-11 -13.833 -15 -22.5s-6 -18 -6 -28v-115c0 -13.333 -3 -25.333 -9 -36s-12.833 -20.167 -20.5 -28.5s-15.167 -15 -22.5 -20s-12.666 -7.83301 -15.999 -8.5
c3.33301 -1.33301 8.66602 -4.5 15.999 -9.5s14.833 -11.5 22.5 -19.5s14.5 -17.5 20.5 -28.5s9 -23.167 9 -36.5v-114c0 -10 2 -19.333 6 -28s9 -16.167 15 -22.5s12.667 -11.333 20 -15s14 -5.5 20 -5.5v-13c-2 0 -8.66699 1 -20 3s-23.5 7 -36.5 15
s-24.667 19.833 -35 35.5s-15.5 37.167 -15.5 64.5c0 4.66699 0.166992 12 0.5 22s0.5 20.667 0.5 32v31.5c0 9.66699 -0.333008 16.5 -1 20.5s-2.83398 9.16699 -6.50098 15.5s-8.33398 12.666 -14.001 18.999s-11.334 12 -17.001 17s-10.834 7.83301 -15.501 8.5v16z" />
    <glyph glyph-name="bar" unicode="|" horiz-adv-x="119" 
d="M39 -14v488h43v-488h-43v0z" />
    <glyph glyph-name="braceright" unicode="}" horiz-adv-x="213" 
d="M186 188v-14.999c-4.66699 -0.666992 -9.83398 -3.5 -15.501 -8.5s-11.334 -10.667 -17.001 -17s-10.334 -12.666 -14.001 -18.999s-5.83398 -11.5 -6.50098 -15.5s-1.16699 -10.833 -1.5 -20.5s-0.5 -20.167 -0.5 -31.5s0.166992 -22 0.5 -32s0.5 -17.333 0.5 -22
c0 -27.333 -5.16699 -48.833 -15.5 -64.5s-22 -27.5 -35 -35.5s-25 -13 -36 -15s-17.5 -3 -19.5 -3v13c6 0 12.667 1.83301 20 5.5s14 8.66699 20 15s11 13.833 15 22.5s6 18 6 28v114c0 13.333 3 25.5 9 36.5s12.667 20.5 20 28.5s14.666 14.5 21.999 19.5
s12.666 8.16699 15.999 9.5c-3.33301 0.666992 -8.66602 3.5 -15.999 8.5s-14.666 11.667 -21.999 20s-14 17.833 -20 28.5s-9 22.667 -9 36v115c0 10 -2 19.333 -6 28s-9 16.167 -15 22.5s-12.667 11.333 -20 15s-14 5.5 -20 5.5v12c2 0 8.5 -1 19.5 -3
s23 -6.83301 36 -14.5s24.667 -19.334 35 -35.001s15.5 -37.167 15.5 -64.5c0 -4.66699 -0.166992 -12 -0.5 -22s-0.5 -20.667 -0.5 -32s0.166992 -21.833 0.5 -31.5s0.833008 -16.5 1.5 -20.5s2.83398 -9.33301 6.50098 -16s8.33398 -13.167 14.001 -19.5
s11.334 -11.833 17.001 -16.5s10.834 -7.33398 15.501 -8.00098v-1z" />
    <glyph glyph-name="asciitilde" unicode="~" horiz-adv-x="429" 
d="M399 255l0.00195312 -6.99902c0 -17.333 -2.33301 -31.833 -7 -43.5s-10.834 -21.167 -18.501 -28.5s-16.167 -12.666 -25.5 -15.999s-19 -5 -29 -5c-12.667 0 -26.834 2 -42.501 6s-38.5 12.667 -68.5 26l-48 22c-16 7.33301 -32.667 11 -50 11
c-33.333 0 -50 -21.667 -50 -65h-31v7c0 29.333 8.16699 52.166 24.5 68.499s35.166 24.5 56.499 24.5c14.667 0 29.334 -2.33301 44.001 -7s35.667 -13.334 63 -26.001c16 -7.33301 33 -14.5 51 -21.5s35.667 -10.5 53 -10.5c30.667 0 46 21.667 46 65h32z" />
    <glyph glyph-name="nonbreakingspace" unicode="&#xa0;" horiz-adv-x="220" 
 />
    <glyph glyph-name="exclamdown" unicode="&#xa1;" horiz-adv-x="155" 
 />
    <glyph glyph-name="cent" unicode="&#xa2;" horiz-adv-x="382" 
 />
    <glyph glyph-name="sterling" unicode="&#xa3;" horiz-adv-x="382" 
 />
    <glyph glyph-name="currency" unicode="&#xa4;" horiz-adv-x="486" 
 />
    <glyph glyph-name="yen" unicode="&#xa5;" horiz-adv-x="382" 
 />
    <glyph glyph-name="brokenbar" unicode="&#xa6;" horiz-adv-x="158" 
 />
    <glyph glyph-name="section" unicode="&#xa7;" horiz-adv-x="382" 
 />
    <glyph glyph-name="dieresis" unicode="&#xa8;" horiz-adv-x="216" 
 />
    <glyph glyph-name="copyright" unicode="&#xa9;" horiz-adv-x="487" 
 />
    <glyph glyph-name="ordfeminine" unicode="&#xaa;" horiz-adv-x="252" 
 />
    <glyph glyph-name="guillemotleft" unicode="&#xab;" horiz-adv-x="295" 
 />
    <glyph glyph-name="logicalnot" unicode="&#xac;" horiz-adv-x="429" 
 />
    <glyph glyph-name="registered" unicode="&#xae;" horiz-adv-x="367" 
 />
    <glyph glyph-name="macron" unicode="&#xaf;" horiz-adv-x="216" 
 />
    <glyph glyph-name="degree" unicode="&#xb0;" horiz-adv-x="216" 
 />
    <glyph glyph-name="plusminus" unicode="&#xb1;" horiz-adv-x="429" 
 />
    <glyph glyph-name="twosuperior" unicode="&#xb2;" horiz-adv-x="259" 
 />
    <glyph glyph-name="threesuperior" unicode="&#xb3;" horiz-adv-x="245" 
 />
    <glyph glyph-name="acute" unicode="&#xb4;" horiz-adv-x="216" 
 />
    <glyph glyph-name="mu" unicode="&#xb5;" horiz-adv-x="422" 
 />
    <glyph glyph-name="paragraph" unicode="&#xb6;" horiz-adv-x="382" 
 />
    <glyph glyph-name="periodcentered" unicode="&#xb7;" horiz-adv-x="230" 
d="M180 236c0 -18 -6.33301 -33.167 -19 -45.5s-28 -18.5 -46 -18.5c-17.333 0 -32.5 6.16699 -45.5 18.5s-19.5 27.5 -19.5 45.5s6.5 33.333 19.5 46s28.167 19 45.5 19c18 0 33.333 -6.33301 46 -19s19 -28 19 -46z" />
    <glyph glyph-name="cedilla" unicode="&#xb8;" horiz-adv-x="216" 
 />
    <glyph glyph-name="onesuperior" unicode="&#xb9;" horiz-adv-x="216" 
 />
    <glyph glyph-name="ordmasculine" unicode="&#xba;" horiz-adv-x="252" 
 />
    <glyph glyph-name="guillemotright" unicode="&#xbb;" horiz-adv-x="295" 
 />
    <glyph glyph-name="onequarter" unicode="&#xbc;" horiz-adv-x="547" 
 />
    <glyph glyph-name="onehalf" unicode="&#xbd;" horiz-adv-x="547" 
 />
    <glyph glyph-name="threequarters" unicode="&#xbe;" horiz-adv-x="547" 
 />
    <glyph glyph-name="questiondown" unicode="&#xbf;" horiz-adv-x="295" 
 />
    <glyph glyph-name="Agrave" unicode="&#xc0;" horiz-adv-x="428" 
 />
    <glyph glyph-name="Aacute" unicode="&#xc1;" horiz-adv-x="428" 
 />
    <glyph glyph-name="Acircumflex" unicode="&#xc2;" horiz-adv-x="428" 
 />
    <glyph glyph-name="Atilde" unicode="&#xc3;" horiz-adv-x="428" 
 />
    <glyph glyph-name="Adieresis" unicode="&#xc4;" horiz-adv-x="428" 
 />
    <glyph glyph-name="Aring" unicode="&#xc5;" horiz-adv-x="461" 
 />
    <glyph glyph-name="AE" unicode="&#xc6;" horiz-adv-x="581" 
 />
    <glyph glyph-name="Ccedilla" unicode="&#xc7;" horiz-adv-x="461" 
 />
    <glyph glyph-name="Egrave" unicode="&#xc8;" horiz-adv-x="368" 
 />
    <glyph glyph-name="Eacute" unicode="&#xc9;" horiz-adv-x="368" 
 />
    <glyph glyph-name="Ecircumflex" unicode="&#xca;" horiz-adv-x="368" 
 />
    <glyph glyph-name="Edieresis" unicode="&#xcb;" horiz-adv-x="368" 
 />
    <glyph glyph-name="Igrave" unicode="&#xcc;" horiz-adv-x="162" 
 />
    <glyph glyph-name="Iacute" unicode="&#xcd;" horiz-adv-x="162" 
 />
    <glyph glyph-name="Icircumflex" unicode="&#xce;" horiz-adv-x="162" 
 />
    <glyph glyph-name="Idieresis" unicode="&#xcf;" horiz-adv-x="162" 
 />
    <glyph glyph-name="Eth" unicode="&#xd0;" horiz-adv-x="522" 
 />
    <glyph glyph-name="Ntilde" unicode="&#xd1;" horiz-adv-x="508" 
 />
    <glyph glyph-name="Ograve" unicode="&#xd2;" horiz-adv-x="542" 
 />
    <glyph glyph-name="Oacute" unicode="&#xd3;" horiz-adv-x="542" 
 />
    <glyph glyph-name="Ocircumflex" unicode="&#xd4;" horiz-adv-x="542" 
 />
    <glyph glyph-name="Otilde" unicode="&#xd5;" horiz-adv-x="542" 
 />
    <glyph glyph-name="Odieresis" unicode="&#xd6;" horiz-adv-x="542" 
 />
    <glyph glyph-name="multiply" unicode="&#xd7;" horiz-adv-x="429" 
 />
    <glyph glyph-name="Oslash" unicode="&#xd8;" horiz-adv-x="542" 
 />
    <glyph glyph-name="Ugrave" unicode="&#xd9;" horiz-adv-x="498" 
 />
    <glyph glyph-name="Uacute" unicode="&#xda;" horiz-adv-x="498" 
 />
    <glyph glyph-name="Ucircumflex" unicode="&#xdb;" horiz-adv-x="498" 
 />
    <glyph glyph-name="Udieresis" unicode="&#xdc;" horiz-adv-x="498" 
 />
    <glyph glyph-name="Yacute" unicode="&#xdd;" horiz-adv-x="390" 
 />
    <glyph glyph-name="Thorn" unicode="&#xde;" horiz-adv-x="395" 
 />
    <glyph glyph-name="uni00DF" unicode="&#xdf;" horiz-adv-x="402" 
 />
    <glyph glyph-name="agrave" unicode="&#xe0;" horiz-adv-x="357" 
 />
    <glyph glyph-name="aacute" unicode="&#xe1;" horiz-adv-x="357" 
 />
    <glyph glyph-name="acircumflex" unicode="&#xe2;" horiz-adv-x="357" 
 />
    <glyph glyph-name="atilde" unicode="&#xe3;" horiz-adv-x="357" 
 />
    <glyph glyph-name="adieresis" unicode="&#xe4;" horiz-adv-x="357" 
 />
    <glyph glyph-name="aring" unicode="&#xe5;" horiz-adv-x="357" 
 />
    <glyph glyph-name="ae" unicode="&#xe6;" horiz-adv-x="601" 
 />
    <glyph glyph-name="ccedilla" unicode="&#xe7;" horiz-adv-x="359" 
 />
    <glyph glyph-name="egrave" unicode="&#xe8;" horiz-adv-x="387" 
 />
    <glyph glyph-name="eacute" unicode="&#xe9;" horiz-adv-x="387" 
 />
    <glyph glyph-name="ecircumflex" unicode="&#xea;" horiz-adv-x="387" 
 />
    <glyph glyph-name="edieresis" unicode="&#xeb;" horiz-adv-x="387" 
 />
    <glyph glyph-name="igrave" unicode="&#xec;" horiz-adv-x="162" 
 />
    <glyph glyph-name="iacute" unicode="&#xed;" horiz-adv-x="162" 
 />
    <glyph glyph-name="icircumflex" unicode="&#xee;" horiz-adv-x="162" 
 />
    <glyph glyph-name="idieresis" unicode="&#xef;" horiz-adv-x="162" 
 />
    <glyph glyph-name="eth" unicode="&#xf0;" horiz-adv-x="416" 
 />
    <glyph glyph-name="ntilde" unicode="&#xf1;" horiz-adv-x="426" 
 />
    <glyph glyph-name="ograve" unicode="&#xf2;" horiz-adv-x="426" 
 />
    <glyph glyph-name="oacute" unicode="&#xf3;" horiz-adv-x="426" 
 />
    <glyph glyph-name="ocircumflex" unicode="&#xf4;" horiz-adv-x="426" 
 />
    <glyph glyph-name="otilde" unicode="&#xf5;" horiz-adv-x="426" 
 />
    <glyph glyph-name="odieresis" unicode="&#xf6;" horiz-adv-x="426" 
 />
    <glyph glyph-name="divide" unicode="&#xf7;" horiz-adv-x="429" 
 />
    <glyph glyph-name="oslash" unicode="&#xf8;" horiz-adv-x="426" 
 />
    <glyph glyph-name="ugrave" unicode="&#xf9;" horiz-adv-x="422" 
 />
    <glyph glyph-name="uacute" unicode="&#xfa;" horiz-adv-x="422" 
 />
    <glyph glyph-name="ucircumflex" unicode="&#xfb;" horiz-adv-x="422" 
 />
    <glyph glyph-name="udieresis" unicode="&#xfc;" horiz-adv-x="422" 
 />
    <glyph glyph-name="yacute" unicode="&#xfd;" horiz-adv-x="346" 
 />
    <glyph glyph-name="thorn" unicode="&#xfe;" horiz-adv-x="441" 
 />
    <glyph glyph-name="ydieresis" unicode="&#xff;" horiz-adv-x="346" 
 />
    <glyph glyph-name="Lslash" unicode="&#x141;" horiz-adv-x="353" 
 />
    <glyph glyph-name="lslash" unicode="&#x142;" horiz-adv-x="162" 
 />
    <glyph glyph-name="OE" unicode="&#x152;" horiz-adv-x="693" 
 />
    <glyph glyph-name="oe" unicode="&#x153;" horiz-adv-x="688" 
 />
    <glyph glyph-name="Scaron" unicode="&#x160;" horiz-adv-x="364" 
 />
    <glyph glyph-name="scaron" unicode="&#x161;" horiz-adv-x="294" 
 />
    <glyph glyph-name="Ydieresis" unicode="&#x178;" horiz-adv-x="390" 
 />
    <glyph glyph-name="Zcaron" unicode="&#x17d;" horiz-adv-x="436" 
 />
    <glyph glyph-name="zcaron" unicode="&#x17e;" horiz-adv-x="317" 
 />
    <glyph glyph-name="florin" unicode="&#x192;" horiz-adv-x="382" 
 />
    <glyph glyph-name="circumflex" unicode="&#x2c6;" horiz-adv-x="321" 
 />
    <glyph glyph-name="caron" unicode="&#x2c7;" horiz-adv-x="321" 
 />
    <glyph glyph-name="breve" unicode="&#x2d8;" horiz-adv-x="300" 
 />
    <glyph glyph-name="dotaccent" unicode="&#x2d9;" horiz-adv-x="158" 
 />
    <glyph glyph-name="ring" unicode="&#x2da;" horiz-adv-x="278" 
 />
    <glyph glyph-name="ogonek" unicode="&#x2db;" horiz-adv-x="194" 
 />
    <glyph glyph-name="tilde" unicode="&#x2dc;" horiz-adv-x="216" 
 />
    <glyph glyph-name="hungarumlaut" unicode="&#x2dd;" horiz-adv-x="301" 
 />
    <glyph glyph-name="uni0E00" unicode="&#xe00;" horiz-adv-x="400" 
 />
    <glyph glyph-name="uni0E01" unicode="&#xe01;" horiz-adv-x="396" 
d="M211 395c20 0 40.332 -3.33105 60.999 -9.99805s36 -15.667 46 -27c11.333 -13.333 19 -27.333 23 -42s6 -31.334 6 -50.001v-231c0 -12.667 2 -20.334 6 -23.001c4.66699 -3.33301 12 -5 22 -5v-7h-87v258c0 35.333 -8.83301 61 -26.5 77s-42.834 24 -75.501 24
c-17.333 0 -31.5 -1 -42.5 -3s-20.167 -4 -27.5 -6c-8 -2.66699 -14.333 -5.33398 -19 -8.00098c3.33301 -3.33301 5.5 -7.16602 6.5 -11.499s2.16699 -8.5 3.5 -12.5c0.666992 -4.66699 1.33398 -9.66699 2.00098 -15v-303h-59l1 305c0 10.667 -2 17 -6 19
c-5.33301 2.66699 -12 4 -20 4v6c14.667 11.333 31.334 21.333 50.001 30c16 7.33301 35.333 14.333 58 21s48.667 10 78 10z" />
    <glyph glyph-name="uni0E02" unicode="&#xe02;" horiz-adv-x="343" 
d="M322 385l0.000976562 -6.99805c-14 0 -22 -2.33301 -24 -7c-2.66699 -3.33301 -4 -12.333 -4 -27v-213c0 -15.333 -1.83301 -31.166 -5.5 -47.499s-10 -31.166 -19 -44.499s-21.333 -24.5 -37 -33.5s-35.834 -13.5 -60.501 -13.5c-26 0 -47.5 4.5 -64.5 13.5
s-30.667 20.167 -41 33.5s-17.5 28.166 -21.5 44.499s-6 32.166 -6 47.499c0 18.667 3.16699 36 9.5 52s13.166 31 20.499 45l20.5 40.5c6.33301 13 9.5 25.833 9.5 38.5c0 15.333 -3.33301 26.5 -10 33.5s-13.667 11.5 -21 13.5c-9.33301 2.66699 -19.666 3 -30.999 1v19
c12 6.66699 24.833 10.167 38.5 10.5s26.167 -2 37.5 -7s20.666 -12.833 27.999 -23.5s11 -24 11 -40c0 -14.667 -2.83301 -28.834 -8.5 -42.501s-12 -27.834 -19 -42.501s-13.333 -30.334 -19 -47.001s-8.5 -35 -8.5 -55c0 -5.33301 0.333008 -13.666 1 -24.999
s3.33398 -22.5 8.00098 -33.5s12 -20.667 22 -29s24 -12.5 42 -12.5c16.667 0 29.5 4.33301 38.5 13s15.5 18.667 19.5 30s6.33301 22.5 7 33.5s1 18.833 1 23.5v258h86z" />
    <glyph glyph-name="uni0E03" unicode="&#xe03;" horiz-adv-x="343" 
d="M322 385l-0.00292969 -7.00293c-14 0 -22 -2.33301 -24 -7c-2.66699 -3.33301 -4 -12.333 -4 -27v-213c0 -15.333 -1.83301 -31.166 -5.5 -47.499s-10 -31.166 -19 -44.499s-21.333 -24.5 -37 -33.5s-35.5 -13.5 -59.5 -13.5c-26 0 -47.667 4.5 -65 13.5
s-31.166 20.167 -41.499 33.5s-17.5 28.166 -21.5 44.499s-6 32.166 -6 47.499c0 18.667 3.16699 36 9.5 52s13.166 30.833 20.499 44.5l20.5 39c6.33301 12.333 9.5 24.833 9.5 37.5c0.666992 7.33301 0 14.333 -2 21c-1.33301 5.33301 -3.66602 10.333 -6.99902 15
s-8.66602 7 -15.999 7c-10.667 0 -18.167 -4.16699 -22.5 -12.5s-6.83301 -15.5 -7.5 -21.5h-13l6 72h42l25 -25l24 25h24v-73v-1c0 -14.667 -2.83301 -28.667 -8.5 -42s-12 -27.166 -19 -41.499s-13.333 -29.666 -19 -45.999s-8.5 -34.5 -8.5 -54.5
c0 -5.33301 0.333008 -13.666 1 -24.999s3.33398 -22.5 8.00098 -33.5s12 -20.667 22 -29s24 -12.5 42 -12.5c16.667 0 29.5 4.33301 38.5 13s15.5 18.667 19.5 30s6.33301 22.5 7 33.5s1 18.833 1 23.5v258h86z" />
    <glyph glyph-name="uni0E04" unicode="&#xe04;" horiz-adv-x="401" 
d="M358 12c4.66699 -3.33301 12.0039 -5 22.0039 -5v-7h-88l2 258c0 5.33301 -1.33301 13.833 -4 25.5s-7.5 23.334 -14.5 35.001s-17 22 -30 31s-29.5 13.5 -49.5 13.5c-20.667 0 -37.5 -4.5 -50.5 -13.5s-23 -19.5 -30 -31.5s-11.667 -23.833 -14 -35.5
s-3.5 -19.834 -3.5 -24.501v-118c2 4.66699 4.16699 9 6.5 13s5.16602 8.33301 8.49902 13c3.33301 5.33301 6.83301 10.166 10.5 14.499s7.5 8.5 11.5 12.5c10 9.33301 19.333 16 28 20c12 5.33301 24 8 36 8c8 0 15.667 -2.33301 23 -7c8 -4 12.667 -10.667 14 -20v-10
c0 -4.66699 -1 -9.33398 -3 -14.001c-0.666992 -2 -1.5 -4 -2.5 -6s-2.16699 -4 -3.5 -6c-3.33301 -4.66699 -7 -7.33398 -11 -8.00098c-5.33301 -2 -9.33301 -1 -12 3c-3.33301 2.66699 -6.33301 6.66699 -9 12c-2 5.33301 -5 10 -9 14
c-2.66699 4.66699 -7.33398 7 -14.001 7c-5.33301 0 -11 -2 -17 -6c-3.33301 -1.33301 -6.5 -3.16602 -9.5 -5.49902l-9.5 -7.5c-2.66699 -3.33301 -5.33398 -6.16602 -8.00098 -8.49902s-5.33398 -5.16602 -8.00098 -8.49902c-2 -3.33301 -4 -6.16602 -6 -8.49902
s-3.66699 -4.83301 -5 -7.5c-7.33301 -11.333 -11 -23.333 -11 -36v-98h-60l2 254c0 14.667 3 30.334 9 47.001s15.167 31.834 27.5 45.501s28.5 25 48.5 34s44 13.5 72 13.5c28.667 0 52.834 -4.5 72.501 -13.5s35.667 -20.333 48 -34s21.166 -28.834 26.499 -45.501
s8 -32.334 8 -47.001v-219c0 -12.667 2 -20.334 6 -23.001z" />
    <glyph glyph-name="uni0E05" unicode="&#xe05;" horiz-adv-x="400" 
d="M358 12c4.66699 -3.33301 12.3359 -4.99805 23.0029 -4.99805v-7h-89l2 258c0 4 -0.666992 10 -2 18s-4 16.5 -8 25.5s-9.33301 18 -16 27s-15 16.5 -25 22.5l-46 -47l-48 47c-10.667 -6 -19.334 -13.5 -26.001 -22.5s-11.834 -18.167 -15.501 -27.5
s-6.16699 -17.833 -7.5 -25.5s-2 -13.5 -2 -17.5v-118c2 4.66699 4.16699 9 6.5 13s5.16602 8.33301 8.49902 13c3.33301 5.33301 6.83301 10.166 10.5 14.499s7.83398 8.5 12.501 12.5c8.66699 8.66699 18 15.334 28 20.001c10.667 5.33301 22.334 8 35.001 8
c7.33301 0 15.333 -2.33301 24 -7c8 -4 12.667 -10.667 14 -20c0 -4 -0.333008 -7.33301 -1 -10c0 -4.66699 -1 -9.33398 -3 -14.001c-1.33301 -4 -3.33301 -8 -6 -12c-3.33301 -4.66699 -6.66602 -7.33398 -9.99902 -8.00098c-6 -2 -10.333 -1 -13 3
c-3.33301 3.33301 -6 7.33301 -8 12c-1.33301 2.66699 -2.83301 5.16699 -4.5 7.5s-3.5 4.5 -5.5 6.5c-2.66699 4.66699 -7.33398 7 -14.001 7c-5.33301 0 -11 -2 -17 -6c-3.33301 -1.33301 -6.33301 -3.16602 -9 -5.49902l-9 -7.5l-8.5 -8.5
c-2.33301 -2.33301 -4.83301 -5.16602 -7.5 -8.49902c-6 -6.66699 -10 -12 -12 -16c-7.33301 -11.333 -11 -23.333 -11 -36v-98h-60l2 254c0 12.667 2.16699 26.167 6.5 40.5s11.166 27.666 20.499 39.999s21.333 23.5 36 33.5s32 17 52 21l42 -42l42 43
c21.333 -4 39.166 -10.833 53.499 -20.5s26 -20.834 35 -33.501s15.333 -26.167 19 -40.5s5.5 -28.166 5.5 -41.499v-219c0 -12.667 2 -20.334 6 -23.001z" />
    <glyph glyph-name="uni0E06" unicode="&#xe06;" horiz-adv-x="425" 
d="M154 127l-0.00195312 -4.49902c0 -1.66699 0.666992 -4.16699 2 -7.5l3 -7.5c0.666992 -1.66699 1.33398 -3.16699 2.00098 -4.5c6.66699 -20 18.667 -36.667 36 -50c16.667 -12.667 36 -19 58 -19c12.667 0 24.334 2.66699 35.001 8c10 4.66699 18 11.667 24 21
c5.33301 7.33301 9.66602 17 12.999 29c2.66699 10.667 4 22.667 4 36v196v20v41h58v-38v-63v-158c0 -18 -2 -35 -6 -51c-2.66699 -8 -5.5 -15.667 -8.5 -23s-6.83301 -14 -11.5 -20c-8.66699 -12 -20.334 -22 -35.001 -30c-13.333 -6.66699 -30.333 -10 -51 -10
c-29.333 0 -53.666 6.66699 -72.999 20s-37 31.666 -53 54.999v-75h-15l-70 24v8c5.33301 2 10 2.33301 14 1c2.66699 -0.666992 5.66699 -1 9 -1c2.66699 1.33301 4.33398 3 5.00098 5s1 8 1 18v274c0 4.66699 -0.666992 9 -2 13c-1.33301 3.33301 -3.33301 6.33301 -6 9
s-6.66699 4 -12 4c-10.667 0 -18.167 -4.16699 -22.5 -12.5s-6.83301 -15.5 -7.5 -21.5h-12l5 72h43l24 -25l25 25h24v-258v0z" />
    <glyph glyph-name="uni0E07" unicode="&#xe07;" horiz-adv-x="333" 
d="M233 246c6.66699 19.333 10.6699 37.168 12.0029 53.501s-0.166992 30.166 -4.5 41.499s-11.833 19.666 -22.5 24.999s-24.334 6.66602 -41.001 3.99902v16c17.333 8 35.333 10.833 54 8.5s34.5 -9.66602 47.5 -21.999s21.167 -30.166 24.5 -53.499
s-1.33398 -52 -14.001 -86l-83 -233h-38l-62 166l-23 61.5l-20 55.5l-15 41.5c-4 11 -6.33301 17.5 -7 19.5c-2.66699 9.33301 -5.83398 17.5 -9.50098 24.5s-10.167 10.5 -19.5 10.5v7h58l110 -307l53 167v0z" />
    <glyph glyph-name="uni0E08" unicode="&#xe08;" horiz-adv-x="311" 
d="M268 12c4.66699 -3.33301 12.0029 -4.99902 22.0029 -4.99902v-7h-88l1 98c0 12 -3.66699 24.333 -11 37l-12 15c-2.66699 3.33301 -5.16699 6.16602 -7.5 8.49902l-8.5 8.5l-9 7.5c-2.66699 2.33301 -5.66699 4.16602 -9 5.49902c-6 4 -11.667 6 -17 6
c-6.66699 0 -11.334 -2.33301 -14.001 -7c-2 -2 -3.83301 -4.16699 -5.5 -6.5s-3.16699 -4.83301 -4.5 -7.5c-2 -4.66699 -4.66699 -8.66699 -8 -12c-2.66699 -4 -7 -5 -13 -3c-3.33301 0.666992 -6.66602 3.33398 -9.99902 8.00098c-3.33301 4 -5.33301 8 -6 12
c-2 4.66699 -3 9.33398 -3 14.001c-0.666992 2.66699 -1 6 -1 10c1.33301 9.33301 6 16 14 20c8.66699 4.66699 16.667 7 24 7c12.667 0 24.334 -2.66699 35.001 -8c10 -4.66699 19.333 -11.334 28 -20.001c4.66699 -4 8.83398 -8.16699 12.501 -12.5
s7.16699 -9.16602 10.5 -14.499c5.33301 -8 10.333 -16.667 15 -26l1 118v11v16c0 14 -3 26 -9 36c-6.66699 10.667 -14.334 19 -23.001 25c-4.66699 3.33301 -9.66699 6.16602 -15 8.49902s-11 4.5 -17 6.5c-14.667 3.33301 -26.667 5 -36 5
c-3.33301 0 -6.83301 -0.333008 -10.5 -1s-7.16699 -1.66699 -10.5 -3c-4 -1.33301 -8 -2.83301 -12 -4.5l-11 -4.5c-8.66699 -4 -16 -8.33301 -22 -13c-8 -5.33301 -14.333 -9.33301 -19 -12l-7 4c3.33301 3.33301 6.16602 6.33301 8.49902 9s4.83301 5.33398 7.5 8.00098
c3.33301 2.66699 6.16602 5.16699 8.49902 7.5s5.16602 4.5 8.49902 6.5c13.333 10.667 27.666 18.667 42.999 24c14 6 29.667 9 47 9c40 0 71.333 -10.333 94 -31c22 -22 33 -53 33 -93v-6v-231c0 -12.667 2 -20.334 6 -23.001z" />
    <glyph glyph-name="uni0E09" unicode="&#xe09;" horiz-adv-x="400" 
d="M292 257c0 10 -2.1709 20.998 -6.50391 32.998s-11.333 23.167 -21 33.5s-22 19 -37 26s-33.5 10.5 -55.5 10.5c-23.333 0 -43.333 -1.5 -60 -4.5s-30.5 -6.5 -41.5 -10.5s-19.5 -7.83301 -25.5 -11.5s-10 -5.83398 -12 -6.50098l-9 4c6 6.66699 14.333 13.667 25 21
s22.834 14.166 36.501 20.499s28.334 11.5 44.001 15.5s31.834 6 48.501 6c60 0 103.833 -11.667 131.5 -35s41.5 -54 41.5 -92v-226c0 -11.333 1.66699 -17.666 5 -18.999c3.33301 -2.66699 10 -4 20 -4v-6l-72 -20l-8 1v75c-8 -12 -15.667 -22.667 -23 -32
s-16 -17.333 -26 -24c-9.33301 -7.33301 -19.333 -12.666 -30 -15.999s-23.667 -5 -39 -5c-14 0 -27.667 2.83301 -41 8.5s-25.166 13.834 -35.499 24.501s-18.833 24 -25.5 40s-10 34.333 -10 55v66c0 12 -2 20 -6 24c-4.66699 3.33301 -12 5 -22 5v6h87v-93
c0 -5.33301 0.5 -13.166 1.5 -23.499s4.16699 -20.5 9.5 -30.5s13.333 -18.667 24 -26s25.667 -11 45 -11c14 0 26.5 4 37.5 12s20.167 17.5 27.5 28.5s12.833 22 16.5 33s5.5 19.5 5.5 25.5v122z" />
    <glyph glyph-name="uni0E0A" unicode="&#xe0a;" horiz-adv-x="331" 
d="M403 513c8.66699 -4 14.3262 -8.99805 16.9932 -14.998c-1.33301 -5.33301 -2.66602 -9.66602 -3.99902 -12.999c-1.33301 -2.66699 -2.83301 -4.83398 -4.5 -6.50098l-4.5 -4.5c-3.33301 -3.33301 -7 -5 -11 -5c-4 -0.666992 -8.33301 0.333008 -13 3
c-4 4 -7 7.33301 -9 10c-1.33301 1.33301 -2.5 3 -3.5 5s-2.16699 3.66699 -3.5 5c-2 2.66699 -5 6 -9 10c-3.33301 2.66699 -7.66602 4 -12.999 4c-10.667 0.666992 -19.334 -3.66602 -26.001 -12.999c-6 -8.66699 -10.333 -19.334 -13 -32.001
c-1.33301 -5.33301 -2.16602 -10.833 -2.49902 -16.5s-0.833008 -11.5 -1.5 -17.5v-42c0 -33.333 -7 -58 -21 -74s-29.333 -27.333 -46 -34c6.66699 -3.33301 13.5 -7.83301 20.5 -13.5s13.333 -12.5 19 -20.5s10.334 -17.667 14.001 -29s5.5 -24.333 5.5 -39v-44
c0 -15.333 -1.66699 -31.166 -5 -47.499s-9.5 -31.166 -18.5 -44.499s-21.333 -24.5 -37 -33.5s-35.834 -13.5 -60.501 -13.5c-26 0 -47.667 4.5 -65 13.5s-31.166 20.167 -41.499 33.5s-17.5 28.166 -21.5 44.499s-6 32.166 -6 47.499c0 18.667 3.16699 36 9.5 52
s13.166 31 20.499 45l20.5 40.5c6.33301 13 9.5 25.833 9.5 38.5c0 15.333 -3.33301 26.5 -10 33.5s-13.667 11.5 -21 13.5c-9.33301 2.66699 -19.666 3 -30.999 1v19c12 6.66699 24.833 10.167 38.5 10.5s26.334 -2 38.001 -7s21.167 -12.833 28.5 -23.5s11 -24 11 -40
c0 -14.667 -3 -28.834 -9 -42.501l-19.5 -42.5c-7 -14.667 -13.333 -30.334 -19 -47.001s-8.5 -35 -8.5 -55c0 -5.33301 0.333008 -13.666 1 -24.999s3.33398 -22.5 8.00098 -33.5s12 -20.667 22 -29s24 -12.5 42 -12.5c16.667 0 29.5 4.33301 38.5 13s15.5 18.667 19.5 30
s6.33301 22.5 7 33.5s1 18.833 1 23.5v50c0 21.333 -3 38.166 -9 50.499s-12.667 21.5 -20 27.5c-8 7.33301 -17.333 11.666 -28 12.999v22c16.667 -1.33301 29.334 1.83398 38.001 9.50098s15 16.167 19 25.5c4.66699 11.333 7.33398 24.333 8.00098 39
c0 32.667 3.66699 60 11 82c8.66699 22.667 19 39 31 49c13.333 12 27 20 41 24c14.667 2.66699 28.667 3.66699 42 3c12.667 -0.666992 24 -3.66699 34 -9z" />
    <glyph glyph-name="uni0E0B" unicode="&#xe0b;" horiz-adv-x="331" 
d="M395 513c10 -4 15.666 -9.00391 16.999 -15.0039c0 -2 -0.333008 -4 -1 -6s-1.66699 -4.33301 -3 -7c-1.33301 -3.33301 -4 -7 -8 -11c-4.66699 -3.33301 -8.33398 -5 -11.001 -5c-4 -1.33301 -8.66699 -0.333008 -14 3c-4 4 -6.66699 7.33301 -8 10
c-1.33301 1.33301 -2.66602 3 -3.99902 5s-2.66602 3.66699 -3.99902 5c-2 3.33301 -5 6.66602 -9 9.99902c-2.66699 2.66699 -7 4 -13 4c-10.667 0.666992 -19.334 -3.66602 -26.001 -12.999c-6 -9.33301 -10 -20 -12 -32c-2.66699 -10 -4 -21.333 -4 -34v-42
c0 -16 -1.83301 -29.833 -5.5 -41.5s-8.5 -21.834 -14.5 -30.501s-12.667 -15.667 -20 -21s-15 -9.66602 -23 -12.999c6.66699 -3.33301 13.834 -7.66602 21.501 -12.999s14.5 -12.166 20.5 -20.499s11 -18.333 15 -30s6 -25.167 6 -40.5v-44
c0 -15.333 -1.83301 -31.166 -5.5 -47.499s-10 -31.166 -19 -44.499s-21.333 -24.5 -37 -33.5s-35.834 -13.5 -60.501 -13.5c-26 0 -47.5 4.5 -64.5 13.5s-30.667 20.167 -41 33.5s-17.5 28.166 -21.5 44.499s-6 32.166 -6 47.499c0 18.667 3.16699 36 9.5 52
s13.166 30.833 20.499 44.5l20.5 39c6.33301 12.333 9.5 24.833 9.5 37.5c0.666992 7.33301 0 14.333 -2 21c-1.33301 5.33301 -3.83301 10.333 -7.5 15s-9.16699 7 -16.5 7c-10.667 0 -18.167 -4.16699 -22.5 -12.5s-6.83301 -15.5 -7.5 -21.5h-12l6 72h42l25 -25l24 25h24
v-73v-1c0 -14.667 -2.83301 -28.667 -8.5 -42s-12 -27.166 -19 -41.499s-13.333 -29.666 -19 -45.999s-8.5 -34.5 -8.5 -54.5c0 -5.33301 0.333008 -13.666 1 -24.999s3.33398 -22.5 8.00098 -33.5s12 -20.667 22 -29s24 -12.5 42 -12.5c16.667 0 29.5 4.33301 38.5 13
s15.5 18.667 19.5 30s6.33301 22.5 7 33.5s1 18.833 1 23.5v50c0 21.333 -3 38.166 -9 50.499s-12.667 21.5 -20 27.5c-8.66699 7.33301 -18.334 11.666 -29.001 12.999h-8v22c16.667 -1.33301 29.5 1.83398 38.5 9.50098s15.5 16.167 19.5 25.5
c4.66699 11.333 7.33398 24.333 8.00098 39c-0.666992 32.667 3 60 11 82c8.66699 22 18.667 38.333 30 49c12.667 12 26.334 20 41.001 24c14.667 2.66699 28.667 3.66699 42 3c12.667 -0.666992 24 -3.66699 34 -9z" />
    <glyph glyph-name="uni0E0C" unicode="&#xe0c;" horiz-adv-x="607" 
d="M340 211l-0.998047 -83.9971l1 8c0 -20.667 4.33301 -37.667 13 -51c8.66699 -14 20 -25.333 34 -34c6.66699 -4 13.667 -7.33301 21 -10s14.666 -4 21.999 -4c20 0 35.5 4.16699 46.5 12.5s18.5 16.166 22.5 23.499c8.66699 13.333 13 31.666 13 54.999l-1 258h60v-35
v-63v-168c0 -36.667 -9.66699 -67.334 -29 -92.001c-19.333 -24 -48.666 -36 -87.999 -36c-14.667 0 -27 1.66699 -37 5s-19.667 8.66602 -29 15.999c-18 12 -35.333 30.667 -52 56l-1 -75l-7 -1l-72 20v6c10 0 16.667 1.33301 20 4c4 2 6 8.33301 6 19l-1 216
c0 35.333 -8.83301 61 -26.5 77s-42.5 24 -74.5 24c-17.333 0 -31.5 -1 -42.5 -3s-19.5 -4 -25.5 -6c-7.33301 -2.66699 -12.333 -5.33398 -15 -8.00098c3.33301 -3.33301 5.66602 -7.16602 6.99902 -11.499l4 -12.5c1.33301 -4.66699 2 -9.66699 2 -15v-210
c0 -3.33301 0.333008 -7.83301 1 -13.5s2 -11.334 4 -17.001s5 -10.834 9 -15.501s9.33301 -8 16 -10c9.33301 -3.33301 20.166 -3.66602 32.499 -0.999023s23.166 6.33398 32.499 11.001v-16c-6.66699 -8 -14.667 -15 -24 -21c-8 -5.33301 -17.667 -9.66602 -29 -12.999
s-24.333 -3.66602 -39 -0.999023c-15.333 2.66699 -27.166 8 -35.499 16s-14.5 17 -18.5 27s-6.5 19.833 -7.5 29.5s-1.5 17.5 -1.5 23.5v115c0 29.333 0.333008 62 1 98c0 10.667 -2 17 -6 19c-5.33301 2.66699 -11.666 4 -18.999 4v6
c13.333 11.333 28.666 21.333 45.999 30c15.333 7.33301 34 14.333 56 21s47.667 10 77 10c19.333 0 39.333 -3.33301 60 -10s36.334 -15.667 47.001 -27c11.333 -13.333 18.666 -27.333 21.999 -42s5 -31.334 5 -50.001z" />
    <glyph glyph-name="uni0E0D" unicode="&#xe0d;" horiz-adv-x="607" 
d="M571 385l0.000976562 -34.998v-97v-74v-1c0 -30 -0.833008 -54.333 -2.5 -73s-4.83398 -34.334 -9.50098 -47.001c-7.33301 -21.333 -17.666 -37.666 -30.999 -48.999c-18 -15.333 -37.5 -25.5 -58.5 -30.5s-41 -7.16699 -60 -6.5s-36 3.16699 -51 7.5
s-25.833 8.5 -32.5 12.5c-10.667 5.33301 -16.334 10.666 -17.001 15.999c0 2.66699 1.33301 6.66699 4 12c2 5.33301 5 9 9 11c3.33301 3.33301 6.66602 5.33301 9.99902 6c4.66699 0 9.33398 -1.33301 14.001 -4c4 -4 6.66699 -7.33301 8 -10l6 -8
c2 -2.66699 3.66699 -4.66699 5 -6c2 -2 4.83301 -4.5 8.5 -7.5s8.16699 -5.16699 13.5 -6.5c2.66699 -0.666992 9 -1.66699 19 -3s21.333 -0.666016 34 2.00098s25.167 8.83398 37.5 18.501s22.5 25.167 30.5 46.5c-10.667 -6 -23 -10.833 -37 -14.5s-29.667 -5.5 -47 -5.5
c-24.667 0 -46 3.5 -64 10.5s-33 16.333 -45 28s-20.833 24.667 -26.5 39s-8.5 29.166 -8.5 44.499l2 96c0 35.333 -9 61 -27 77s-43 24 -75 24c-17.333 0 -31.333 -1 -42 -3s-19 -4 -25 -6c-7.33301 -2.66699 -12.333 -5.33398 -15 -8.00098
c3.33301 -3.33301 5.5 -7.16602 6.5 -11.499s2.16699 -8.5 3.5 -12.5c0.666992 -4.66699 1.33398 -9.66699 2.00098 -15v-210c0 -3.33301 0.333008 -7.83301 1 -13.5s2.16699 -11.334 4.5 -17.001s5.5 -10.834 9.5 -15.501s9 -8 15 -10
c9.33301 -3.33301 20.166 -3.66602 32.499 -0.999023s23.166 6.33398 32.499 11.001v-16c-6.66699 -8 -14.667 -15 -24 -21c-8 -5.33301 -17.667 -9.66602 -29 -12.999s-24.333 -3.66602 -39 -0.999023c-15.333 2.66699 -27.166 8 -35.499 16s-14.5 17 -18.5 27
s-6.33301 19.833 -7 29.5s-1 17.5 -1 23.5v115c0 29.333 0.333008 62 1 98c0 10.667 -2 17 -6 19c-5.33301 2.66699 -12 4 -20 4v6c13.333 11.333 28.666 21.333 45.999 30c15.333 7.33301 34 14.333 56 21s47.667 10 77 10c19.333 0 39.5 -3.33301 60.5 -10
s36.5 -15.667 46.5 -27c11.333 -13.333 18.833 -27.333 22.5 -42s5.5 -31.334 5.5 -50.001l-1 -108c0 -4.66699 1 -11.667 3 -21s6 -18.5 12 -27.5s14.5 -17 25.5 -24s25.833 -10.5 44.5 -10.5c18 0 32.833 4.16699 44.5 12.5s20.834 18.166 27.501 29.499
s11.167 22.666 13.5 33.999s3.5 19.666 3.5 24.999l-2 210h60z" />
    <glyph glyph-name="uni0E0E" unicode="&#xe0e;" horiz-adv-x="395" 
d="M359 -19c0 -33.333 -3.99902 -60.3359 -11.999 -81.0029c-8.66699 -22.667 -19 -39 -31 -49c-13.333 -12.667 -27 -20.334 -41 -23.001c-4 -0.666992 -8 -1 -12 -1c-3.33301 0 -7.5 0.333008 -12.5 1s-9.83301 2.33398 -14.5 5.00098c-3.33301 2 -7.5 4.83301 -12.5 8.5
l-16.5 12.5c-17.333 -15.333 -35.5 -24.166 -54.5 -26.499s-35.5 -0.5 -49.5 5.5c-14 5.33301 -23.333 13 -28 23s-6.16699 20 -4.5 30s6.16699 19 13.5 27s16.666 12.667 27.999 14c23.333 3.33301 42.666 -0.5 57.999 -11.5s28.666 -23.167 39.999 -36.5
c5.33301 6 8.66602 11.667 9.99902 17c0.666992 2.66699 1 5 1 7c0 3.33301 -0.333008 6 -1 8s-1.66699 4 -3 6c-1.33301 1.33301 -3 2.83301 -5 4.5s-3.66699 3.16699 -5 4.5c-3.33301 1.33301 -7 3.66602 -11 6.99902c-2.66699 1.33301 -6 4 -10 8
c-3.33301 5.33301 -4.33301 10 -3 14c0 2.66699 1.66699 6.33398 5 11.001c4 4 7.66699 6.66699 11 8c5.33301 2.66699 9.33301 4 12 4c6.66699 -1.33301 12 -6.66602 16 -15.999c4.66699 -9.33301 8 -20.666 10 -33.999c0.666992 -6.66699 0.666992 -13.334 0 -20.001
c-0.666992 -6 -2.33398 -12.333 -5.00098 -19s-6.66699 -13.667 -12 -21c6.66699 -7.33301 13 -13.5 19 -18.5s12.667 -7.5 20 -7.5c11.333 0 20 4.33301 26 13c5.33301 8 9 18 11 30c1.33301 6 2.33301 12.167 3 18.5l2 19.5v334c0 36 -9 62 -27 78s-43 24 -75 24
c-17.333 0 -31.666 -1 -42.999 -3s-20.666 -4 -27.999 -6c-8 -2.66699 -14.333 -5.66699 -19 -9c3.33301 -3.33301 5.66602 -7.16602 6.99902 -11.499l4 -12.5c1.33301 -4.66699 2 -9.66699 2 -15l-3 -179l-2 -66c-0.666992 -9.33301 -1.5 -17.5 -2.5 -24.5
s-2.5 -12.833 -4.5 -17.5c-4.66699 -9.33301 -10.667 -15.666 -18 -18.999c-7.33301 -2.66699 -16.666 -2 -27.999 2c-12.667 4.66699 -25.334 11 -38.001 19l-1 12c2.66699 -2.66699 6.33398 -4.66699 11.001 -6c4 -2 7.33301 -3 10 -3c4 0 7 2.33301 9 7
c2 2.66699 3.66699 7.66699 5 15c0.666992 3.33301 1.16699 6.33301 1.5 9s0.5 5.33398 0.5 8.00098c0.666992 3.33301 1 7.33301 1 12v233c0 11.333 -2 18 -6 20s-10.667 3 -20 3v7c14.667 11.333 31.334 21.333 50.001 30c16 7.33301 35.5 14.166 58.5 20.499
s49.167 9.5 78.5 9.5c19.333 0 39.333 -3.33301 60 -10s36.334 -15.667 47.001 -27c11.333 -12.667 18.833 -26.334 22.5 -41.001s5.5 -31.667 5.5 -51v-284zM177.001 -150.003c7.33301 3.33301 13.666 7.66797 18.999 13.001c-9.33301 7.33301 -19.166 14 -29.499 20
s-19.833 9.33301 -28.5 10s-15 -0.333008 -19 -3s-7.33301 -6.33398 -10 -11.001c-3.33301 -6 -3.5 -11.833 -0.5 -17.5s8 -10.167 15 -13.5s15.333 -5 25 -5s19.167 2.33301 28.5 7z" />
    <glyph glyph-name="uni0E0F" unicode="&#xe0f;" horiz-adv-x="396" 
d="M360 -19c0 -33.333 -4.00781 -60.335 -12.0078 -81.002c-8.66699 -22.667 -19 -39 -31 -49c-13.333 -12.667 -27 -20.334 -41 -23.001l-29 35l-28 -35c-7.33301 2.66699 -14 6 -20 10s-11.667 8.33301 -17 13c-9.33301 -8 -18.833 -14 -28.5 -18
s-19.167 -6.33301 -28.5 -7s-18.166 -0.166992 -26.499 1.5s-15.5 4.16699 -21.5 7.5c-12 6 -20.167 14.167 -24.5 24.5s-5.16602 20.333 -2.49902 30s8 18.167 16 25.5s18.333 11.666 31 12.999c20.667 1.33301 38 -3.5 52 -14.5s26.667 -22.167 38 -33.5
c4.66699 8.66699 7 16.334 7 23.001c0.666992 4.66699 -0.666016 9.33398 -3.99902 14.001c-4 4 -7.33301 7 -10 9c-1.33301 1.33301 -3 2.5 -5 3.5s-4 2.16699 -6 3.5c-4.66699 2.66699 -7.66699 5.33398 -9 8.00098c-4 4.66699 -5.33301 9.33398 -4 14.001
c0.666992 2 1.33398 3.83301 2.00098 5.5s1.66699 3.5 3 5.5c3.33301 3.33301 7 6 11 8c2.66699 1.33301 5 2.33301 7 3s4 1 6 1c5.33301 -0.666992 10.666 -6 15.999 -16s8.33301 -20.667 9 -32c0.666992 -8 0.666992 -15.667 0 -23c-0.666992 -6.66699 -2 -13.5 -4 -20.5
s-4.66699 -13.167 -8 -18.5c2.66699 -2.66699 5.16699 -5 7.5 -7s4.83301 -3.66699 7.5 -5l34 42l36 -45l1 1c1.33301 1.33301 2.33301 2.66602 3 3.99902c4.66699 5.33301 8 14.333 10 27c1.33301 6 2.33301 12.167 3 18.5l2 19.5v334c0 36 -9 62 -27 78s-43 24 -75 24
c-17.333 0 -31.666 -1 -42.999 -3s-20.666 -4 -27.999 -6c-8 -2.66699 -14.333 -5.66699 -19 -9c3.33301 -3.33301 5.66602 -7.16602 6.99902 -11.499l4 -12.5c1.33301 -4.66699 2 -9.66699 2 -15l-3 -179l-2 -66c-1.33301 -19.333 -3.66602 -33.666 -6.99902 -42.999
c-5.33301 -9.33301 -11.333 -15.333 -18 -18c-7.33301 -2.66699 -16.666 -2 -27.999 2c-12.667 4.66699 -25.334 11 -38.001 19l-1 12c2.66699 -2.66699 6.33398 -4.66699 11.001 -6c4 -2 7.33301 -3 10 -3c4 0 7 2.33301 9 7c2 2.66699 3.66699 7.66699 5 15
c0.666992 3.33301 1.16699 6.33301 1.5 9s0.5 5.33398 0.5 8.00098c0.666992 3.33301 1 7.33301 1 12v233c0 11.333 -2 18 -6 20s-10.667 3 -20 3v7c14.667 11.333 31.334 21.333 50.001 30c16 7.33301 35.5 14.166 58.5 20.499s49.167 9.5 78.5 9.5
c19.333 0 39.333 -3.33301 60 -10s36.334 -15.667 47.001 -27c11.333 -12.667 18.833 -26.334 22.5 -41.001s5.5 -31.667 5.5 -51v-284zM146.992 -155.002c10 5.33301 18.332 10.6689 24.999 16.002c-8.66699 7.33301 -17 14 -25 20s-16.667 9.66699 -26 11
s-16.5 0.666016 -21.5 -2.00098s-8.83301 -6.33398 -11.5 -11.001c-3.33301 -6 -3.66602 -11.833 -0.999023 -17.5s7.33398 -10.167 14.001 -13.5s14.167 -5.5 22.5 -6.5s16.166 0.166992 23.499 3.5z" />
    <glyph glyph-name="uni0E10" unicode="&#xe10;" horiz-adv-x="314" 
d="M363 514c10.667 -5.33301 16.332 -10.6689 16.999 -16.002c0 -4.66699 -1.33301 -8.66699 -4 -12c-2 -5.33301 -4.66699 -9 -8 -11c-2.66699 -2.66699 -6.33398 -4.66699 -11.001 -6s-9 0 -13 4c-4 2 -7 5 -9 9c-1.33301 2 -2.5 4 -3.5 6s-2.16699 3.66699 -3.5 5
c-2.66699 4 -6 7.33301 -10 10c-2.66699 2.66699 -7 4 -13 4c-11.333 0 -20 -4.33301 -26 -13c-2.66699 -4.66699 -5 -9.66699 -7 -15s-3.66699 -11 -5 -17c-2.66699 -11.333 -4 -24 -4 -38v-29l-1 -137v-223c0 -12 2 -20 6 -24c3.33301 -2.66699 11 -4 23 -4v-7h-89l1 98
c0 12.667 -3.66699 24.667 -11 36c-1.33301 2 -3 4.33301 -5 7s-4.33301 5.33398 -7 8.00098c-4 5.33301 -9.33301 11 -16 17c-3.33301 3.33301 -6.33301 6 -9 8s-5.66699 4 -9 6c-6 4 -11.667 6 -17 6c-6 0 -10.667 -2.33301 -14 -7c-4.66699 -6 -7.66699 -10.667 -9 -14
c-1.33301 -2.66699 -2.83301 -5 -4.5 -7s-3.16699 -4 -4.5 -6c-3.33301 -3.33301 -7.33301 -4.33301 -12 -3c-3.33301 1.33301 -7 4 -11 8c-3.33301 4 -5.33301 8.33301 -6 13c-2 4.66699 -3 9 -3 13c0 2.66699 -0.166992 4.83398 -0.5 6.50098s-0.5 3.16699 -0.5 4.5
c2 10 7 16.667 15 20c8 4 15.667 6 23 6c14 0 25.667 -2.33301 35 -7c5.33301 -2.66699 10.333 -5.66699 15 -9s9.33398 -7 14.001 -11c6.66699 -6.66699 14 -15.667 22 -27c6 -9.33301 11 -18.333 15 -27l1 118v11v17c0 12.667 -3 24.667 -9 36
c-5.33301 8.66699 -13 17 -23 25c-9.33301 6.66699 -20 11.334 -32 14.001c-6 2 -12 3.33301 -18 4s-12 1 -18 1c-7.33301 0 -14.333 -1 -21 -3l-23 -10l-11.5 -6l-10.5 -6c-3.33301 -2.66699 -6.5 -5 -9.5 -7s-5.83301 -4 -8.5 -6l-8 5l8.5 8.5
c2.33301 2.33301 4.83301 5.16602 7.5 8.49902l8.5 7l8.5 7c13.333 10.667 27.666 18.667 42.999 24c14.667 5.33301 30.334 8 47.001 8c26.667 0 50 -4.66699 70 -14c0.666992 24.667 4.33398 46.667 11.001 66c8 20.667 18.333 37 31 49c6 6 12.5 10.833 19.5 14.5
s14.167 6.5 21.5 8.5c13.333 4 27 5.33301 41 4c12.667 -0.666992 24 -3.66699 34 -9zM263.998 -21.0029c10 -2 16.6699 -7.00098 20.0029 -15.001c4.66699 -7.33301 7 -15 7 -23c0 -12.667 -2.66699 -24.334 -8 -35.001c-3.33301 -9.33301 -8.33301 -18.666 -15 -27.999
c-5.33301 -8 -12.333 -16.5 -21 -25.5s-19.334 -17.167 -32.001 -24.5l-28 35l-29 -35c-6.66699 2.66699 -13 6 -19 10s-11.667 8.33301 -17 13c-18 -16.667 -37 -25.167 -57 -25.5s-36.333 2.83398 -49 9.50098c-12 6 -20 14.167 -24 24.5s-4.83301 20.333 -2.5 30
s7.66602 18.167 15.999 25.5s18.833 11.666 31.5 12.999c20 1.33301 37.167 -3.5 51.5 -14.5s26.833 -22.167 37.5 -33.5c2.66699 4.66699 4.5 8.83398 5.5 12.501s1.83301 7.16699 2.5 10.5c0.666992 4.66699 -0.666016 9.33398 -3.99902 14.001
c-1.33301 1.33301 -3 2.83301 -5 4.5s-3.66699 3.16699 -5 4.5c-3.33301 1.33301 -7 3.66602 -11 6.99902c-2.66699 1.33301 -6 4 -10 8c-3.33301 5.33301 -4.33301 10 -3 14s3 7.66699 5 11c4 4 7.66699 6.66699 11 8c2 1.33301 4.16699 2.33301 6.5 3
s4.16602 1.33398 5.49902 2.00098c6 -2 11.667 -7.66699 17 -17c4 -10.667 7 -21.334 9 -32.001c0 -8 -0.333008 -15.667 -1 -23c-0.666992 -6.66699 -1.83398 -13.5 -3.50098 -20.5s-4.5 -13.167 -8.5 -18.5l8.5 -7c2.33301 -2 4.5 -3.66699 6.5 -5l35 42l36 -44
c8.66699 7.33301 15.167 14.666 19.5 21.999s7.5 13.666 9.5 18.999c2.66699 6.66699 4 13 4 19c0 6.66699 -2.33301 11.334 -7 14.001c-4 4 -8.66699 7 -14 9c-5.33301 2.66699 -9.33301 5.66699 -12 9c-4 2.66699 -5 6.66699 -3 12c2 4.66699 4.66699 8.33398 8 11.001
c4 3.33301 8.33301 5.33301 13 6c4 2 8.33301 3 13 3c2 0 3.83301 0.166992 5.5 0.5s3.16699 0.5 4.5 0.5zM86.001 -155.004c10.667 4.66699 19.001 10.002 25.001 16.002c-8 7.33301 -16 14 -24 20s-17 9.66699 -27 11c-8.66699 1.33301 -15.5 0.666016 -20.5 -2.00098
s-8.83301 -6.33398 -11.5 -11.001c-3.33301 -6 -3.66602 -11.833 -0.999023 -17.5s7.16699 -10.167 13.5 -13.5s13.666 -5.5 21.999 -6.5s16.166 0.166992 23.499 3.5z" />
    <glyph glyph-name="uni0E11" unicode="&#xe11;" horiz-adv-x="442" 
d="M394 14c2.66699 -4.66699 10.6689 -6.99805 24.002 -6.99805v-7h-86v258c0 13.333 -1.33301 25 -4 35c-2 10.667 -6.33301 20.667 -13 30c-6 8.66699 -14 15.667 -24 21c-10.667 5.33301 -22.334 8 -35.001 8c-22 0 -41.333 -6.33301 -58 -19
s-28.667 -29.334 -36 -50.001c-0.666992 -1.33301 -1.33398 -2.83301 -2.00098 -4.5l-3 -7.5c-2 -6 -3 -10 -3 -12v-259h-58v322c0 4.66699 -0.666992 9 -2 13c-1.33301 3.33301 -3.33301 6.33301 -6 9s-6.66699 4 -12 4c-11.333 0 -19.166 -4.16699 -23.499 -12.5
s-6.83301 -15.833 -7.5 -22.5h-12l6 72h42l25 -24l24 24h22v-66c16 23.333 33.667 41.666 53 54.999c20 14 44.333 21 73 21c18.667 0 36 -3.66699 52 -11c15.333 -8.66699 26.666 -18.667 33.999 -30c9.33301 -12.667 16 -27 20 -43c4.66699 -14.667 7 -32 7 -52v-218
c0 -14 1 -23 3 -27z" />
    <glyph glyph-name="uni0E12" unicode="&#xe12;" horiz-adv-x="639" 
d="M602 384l0.00195312 -265c0 -36.667 -9.66699 -67.334 -29 -92.001c-19.333 -24 -48.666 -36 -87.999 -36c-10 0 -20.667 1.83301 -32 5.5s-22.333 8.5 -33 14.5c-10 6 -19.333 14 -28 24s-16.667 21 -24 33l-1 -75l-7 -2l-72 21v6c8 0 14.667 1 20 3
c2 1.33301 3.5 4.33301 4.5 9s1.5 9.66699 1.5 15l-1 189c0 28.667 -3.83301 53.5 -11.5 74.5s-20.834 36.167 -39.501 45.5l-52 -56l-57 51c-3.33301 -1.33301 -5.66602 -2.66602 -6.99902 -3.99902c-16 -11.333 -29 -28.666 -39 -51.999c-10.667 -22 -16 -51.333 -16 -88
c0 -39.333 5.33301 -71 16 -95c10 -25.333 23 -44 39 -56c8 -6.66699 16.333 -12 25 -16s17.667 -6 27 -6c14 0 24.5 2 31.5 6s13.167 8.66699 18.5 14v-16c-4 -8 -12 -17 -24 -27s-28 -15 -48 -15c-6 0 -14.5 0.833008 -25.5 2.5s-21.833 5.16699 -32.5 10.5
c-20.667 10 -37.334 24 -50.001 42c-12 16.667 -21.667 37.667 -29 63c-6 22.667 -9 47.334 -9 74.001s3.33301 52 10 76c7.33301 26 17.666 48 30.999 66c7.33301 10 15.333 18.833 24 26.5s18.334 14.5 29.001 20.5c5.33301 3.33301 10.833 5.83301 16.5 7.5
s12.167 3.16699 19.5 4.5l50 -45l46 49c22 -2.66699 40.333 -7.83398 55 -15.501s26.5 -17.167 35.5 -28.5s15.5 -24 19.5 -38s6 -28.667 6 -44l1 -14l-1 -66v-51c0 -18 4.33301 -34.667 13 -50c5.33301 -10 13.666 -19.667 24.999 -29s26 -15.666 44 -18.999
c7.33301 -2 14.666 -2.33301 21.999 -1s14.333 3.66602 21 6.99902c14 6 25 16 33 30c8.66699 13.333 13 31.666 13 54.999l-1 257h60z" />
    <glyph glyph-name="uni0E13" unicode="&#xe13;" horiz-adv-x="621" 
d="M341 265l0.00390625 -138.003c0 -23.333 4.33301 -41.666 13 -54.999c8 -14 19 -24 33 -30c13.333 -6 27.666 -8 42.999 -6c6.66699 0.666992 13.667 2.83398 21 6.50098s14.166 8 20.499 13s12 10 17 15s8.5 9.5 10.5 13.5c8.66699 13.333 13 30 13 50v250h60l-1 -343
c0 -11.333 2 -18 6 -20s10.333 -3 19 -3v-6l-72 -21l-7 2l-1 75c-14.667 -23.333 -32 -42.333 -52 -57c-9.33301 -6.66699 -19.833 -11.667 -31.5 -15s-22.834 -5 -33.501 -5c-40 0 -69.333 12 -88 36c-19.333 24.667 -29 55.334 -29 92.001l1 137c0 36 -9 62 -27 78
s-43 24 -75 24c-17.333 0 -31.333 -1 -42 -3s-19 -4 -25 -6c-7.33301 -2.66699 -12.333 -5.33398 -15 -8.00098c3.33301 -3.33301 5.5 -7.16602 6.5 -11.499s2.16699 -8.5 3.5 -12.5c0.666992 -4.66699 1.33398 -9.66699 2.00098 -15v-210
c0 -3.33301 0.333008 -7.83301 1 -13.5s2.16699 -11.334 4.5 -17.001s5.5 -11 9.5 -16s9 -8.5 15 -10.5c9.33301 -2.66699 20.166 -2.66699 32.499 0s23.166 6.33398 32.499 11.001v-16c-6.66699 -8 -14.667 -15 -24 -21c-8 -5.33301 -17.667 -9.66602 -29 -12.999
s-24.333 -3.66602 -39 -0.999023c-15.333 2 -27.166 7.16699 -35.499 15.5s-14.5 17.5 -18.5 27.5s-6.33301 19.833 -7 29.5s-1 17.5 -1 23.5v115c0 29.333 0.333008 62 1 98c0 10.667 -2 17 -6 19s-10.667 3 -20 3v7c13.333 11.333 28.666 21.333 45.999 30
c15.333 7.33301 34 14.333 56 21s47.667 10 77 10c19.333 0 39.5 -3.5 60.5 -10.5s36.5 -16.167 46.5 -27.5c11.333 -12.667 18.833 -26.334 22.5 -41.001s5.5 -31.334 5.5 -50.001z" />
    <glyph glyph-name="uni0E14" unicode="&#xe14;" horiz-adv-x="416" 
d="M364 252v-217c0 -12 2 -20 6 -24c3.33301 -2.66699 11 -4 23 -4v-7h-89v235c0 38 -8 69 -24 93s-40.667 36 -74 36c-9.33301 0 -19.666 -1.5 -30.999 -4.5s-21 -7.5 -29 -13.5c-16 -11.333 -29 -28.666 -39 -51.999c-10.667 -22 -16 -51.333 -16 -88
c0 -39.333 5.33301 -71 16 -95c10 -25.333 23 -44 39 -56c8 -6.66699 16.333 -12 25 -16s17.667 -6 27 -6c14 0 24.5 2 31.5 6s13.167 8.66699 18.5 14l1 -16c-4.66699 -8 -13 -17 -25 -27s-27.667 -15 -47 -15c-6.66699 0 -15.5 0.833008 -26.5 2.5
s-21.833 5.16699 -32.5 10.5c-20.667 10 -37.334 24 -50.001 42c-12 16.667 -21.667 37.667 -29 63c-6 22.667 -9 47.334 -9 74.001s3.33301 52 10 76c7.33301 26 17.666 48 30.999 66c7.33301 10 15.333 18.833 24 26.5s18.334 14.5 29.001 20.5
c11.333 6 24.5 10.5 39.5 13.5s29.833 4.5 44.5 4.5c28 0 51.833 -3.33301 71.5 -10s35.667 -15.834 48 -27.501s21.333 -25.334 27 -41.001s8.5 -32.167 8.5 -49.5z" />
    <glyph glyph-name="uni0E15" unicode="&#xe15;" horiz-adv-x="427" 
d="M373 252v-217c0 -12 2 -20 6 -24c4.66699 -2.66699 12.334 -4 23.001 -4v-7h-88v235c0 28.667 -4 53.5 -12 74.5s-21 36.167 -39 45.5l-53 -56l-57 51c-2.66699 -1.33301 -4.66699 -2.66602 -6 -3.99902c-16 -10.667 -29.333 -28 -40 -52
c-10.667 -24.667 -16 -54 -16 -88c0 -19.333 1.33301 -36.833 4 -52.5s6.66699 -29.834 12 -42.501c11.333 -26 24.666 -44.667 39.999 -56c8 -6.66699 16.167 -12 24.5 -16s17.166 -6 26.499 -6c14 0 24.5 2 31.5 6s13.5 8.66699 19.5 14v-16c-4 -8 -12 -17 -24 -27
s-28 -15 -48 -15c-6.66699 0 -15.5 0.833008 -26.5 2.5s-21.5 5.16699 -31.5 10.5c-20 9.33301 -36.667 23.333 -50 42s-23 39.667 -29 63c-6 22.667 -9 47.334 -9 74.001s3.33301 52 10 76c6 23.333 16.333 45.333 31 66c7.33301 10 15.333 18.833 24 26.5
s18.334 14.5 29.001 20.5c10 6 21.667 10 35 12l50 -45l47 49c21.333 -2.66699 39.5 -7.83398 54.5 -15.501s27 -17.167 36 -28.5s15.5 -24 19.5 -38s6 -28.667 6 -44v-14z" />
    <glyph glyph-name="uni0E16" unicode="&#xe16;" horiz-adv-x="400" 
d="M290 257c0 36 -9.00098 62 -27.001 78s-43 24 -75 24c-17.333 0 -31.666 -1 -42.999 -3s-20.666 -4 -27.999 -6c-8 -2.66699 -14.333 -5.33398 -19 -8.00098c3.33301 -3.33301 5.66602 -7.16602 6.99902 -11.499l4 -12.5c1.33301 -4.66699 2 -9.66699 2 -15v-210
c0 -3.33301 0.333008 -7.83301 1 -13.5s2 -11.334 4 -17.001s5 -10.834 9 -15.501s9.33301 -8 16 -10c9.33301 -3.33301 20.166 -3.66602 32.499 -0.999023s23.166 6.33398 32.499 11.001v-16c-6.66699 -8 -14.667 -15 -24 -21c-8 -5.33301 -17.667 -9.66602 -29 -12.999
s-24.333 -3.66602 -39 -0.999023c-15.333 2 -27.166 7.16699 -35.499 15.5s-14.5 17.5 -18.5 27.5s-6.5 19.833 -7.5 29.5s-1.5 17.5 -1.5 23.5v115c0 29.333 0.333008 62 1 98c0 10.667 -2 17 -6 19s-10.333 3 -19 3v7c14.667 11.333 31.334 21.333 50.001 30
c16 7.33301 35.333 14.333 58 21s48.667 10 78 10c19.333 0 39.333 -3.5 60 -10.5s36.334 -16.167 47.001 -27.5c11.333 -12.667 18.833 -26.334 22.5 -41.001s5.5 -31.334 5.5 -50.001h1v-231c0 -12 2 -20 6 -24c3.33301 -2.66699 10.666 -4 21.999 -4v-7h-88z" />
    <glyph glyph-name="uni0E17" unicode="&#xe17;" horiz-adv-x="397" 
d="M352 13c2.66699 -4 10.665 -5.99902 23.998 -5.99902v-7h-86v258c0 13.333 -1.33301 25 -4 35c-2 9.33301 -6.33301 19.333 -13 30c-6 8.66699 -14 15.667 -24 21c-9.33301 4.66699 -21 7 -35 7c-23.333 0 -42.666 -6.33301 -57.999 -19
c-16.667 -12 -28.667 -28.333 -36 -49c-1.33301 -1.33301 -2.16602 -3 -2.49902 -5s-1.16602 -4.66699 -2.49902 -8c-2 -5.33301 -3 -9.33301 -3 -12v-128v-92v-38h-58v41v52v252c0 13.333 -1.33301 22.333 -4 27s-10.667 7 -24 7v6h84v-66c14 22 31.667 40.333 53 55
c20.667 13.333 45 20 73 20c20.667 0 38 -3.66699 52 -11c13.333 -6.66699 24.666 -16.334 33.999 -29.001c9.33301 -14 16 -28.333 20 -43c2 -8 3.66699 -16.333 5 -25s2 -17.667 2 -27v-218c0 -14 1 -23.333 3 -28z" />
    <glyph glyph-name="uni0E18" unicode="&#xe18;" horiz-adv-x="348" 
d="M319 133c0 -15.333 -1.83203 -31.3359 -5.49902 -48.0029s-10.667 -32 -21 -46s-24.5 -25.667 -42.5 -35s-41.333 -14 -70 -14c-24.667 0 -45.834 4.5 -63.501 13.5s-32.334 20.167 -44.001 33.5s-20.167 28.166 -25.5 44.499s-8 32.166 -8 47.499v61h58v-64
c0 -5.33301 0.833008 -13.5 2.5 -24.5s5.33398 -22.167 11.001 -33.5s14 -21.333 25 -30s25.5 -13 43.5 -13c18.667 0 33.334 4.33301 44.001 13s18.834 18.834 24.501 30.501s9.33398 23.334 11.001 35.001s2.5 20.5 2.5 26.5c0 25.333 -7.33301 43.833 -22 55.5
s-32.667 21.167 -54 28.5c-10 3.33301 -23.167 6.83301 -39.5 10.5s-32.5 8.83398 -48.5 15.501s-29.667 15.334 -41 26.001s-17 25 -17 43c0 26.667 12.167 47.334 36.5 62.001s58.5 22 102.5 22c22.667 0 43.667 -2.83301 63 -8.5s33.666 -8.5 42.999 -8.5l7 13h4v-90h-6
c-2.66699 6 -6.83398 12.833 -12.501 20.5s-13 15 -22 22s-19.833 13 -32.5 18s-27 7.5 -43 7.5c-28 0 -48.667 -4.66699 -62 -14s-20 -21 -20 -35c0 -10 3.5 -17.833 10.5 -23.5s16.167 -10.5 27.5 -14.5s24.166 -7.5 38.499 -10.5s28.5 -6.83301 42.5 -11.5
c23.333 -8 41.833 -17.167 55.5 -27.5s24 -21 31 -32s11.5 -22.167 13.5 -33.5s3 -22 3 -32z" />
    <glyph glyph-name="uni0E19" unicode="&#xe19;" horiz-adv-x="401" 
d="M305 -10l-6.99902 1.99805l-1 75c-16 -24.667 -33.333 -43.667 -52 -57c-19.333 -13.333 -43.666 -20 -72.999 -20c-40 0 -69.333 12 -88 36c-19.333 24.667 -29 55.334 -29 92.001v231c0 12 -2 19.667 -6 23c-4.66699 3.33301 -12 5 -22 5v6h88l-2 -257
c0 -21.333 4.33301 -39.666 13 -54.999c9.33301 -14 20.666 -24 33.999 -30c12.667 -6 27 -8 43 -6c15.333 1.33301 29.666 6 42.999 14c14 8 25.333 19.333 34 34c8.66699 13.333 13 30 13 50v250h60l-2 -343c0 -11.333 2 -18 6 -20s10.667 -3 20 -3v-6z" />
    <glyph glyph-name="uni0E1A" unicode="&#xe1a;" horiz-adv-x="389" 
d="M203 -10c-28.667 0 -52.5029 4.49805 -71.5029 13.498s-34.167 20.333 -45.5 34s-19.333 28.667 -24 45s-7 32.166 -7 47.499v219c0 12 -2 19.667 -6 23c-4.66699 3.33301 -12 5 -22 5v6h88l-1 -257c0 -6 1.16699 -14.5 3.5 -25.5s6.83301 -22.167 13.5 -33.5
s15.834 -21.166 27.501 -29.499s26.5 -12.5 44.5 -12.5c18.667 0 33.834 4.33301 45.501 13s20.834 18.834 27.501 30.501s11.167 23 13.5 34s3.5 18.833 3.5 23.5v257h60l-1 -253c0 -15.333 -3.16699 -31.166 -9.5 -47.499s-15.833 -31.333 -28.5 -45
s-28.167 -25 -46.5 -34s-39.833 -13.5 -64.5 -13.5z" />
    <glyph glyph-name="uni0E1B" unicode="&#xe1b;" horiz-adv-x="386" 
d="M352 383l-1.00098 -253.002c0 -15.333 -3.16699 -31.166 -9.5 -47.499s-15.833 -31.333 -28.5 -45s-28.334 -25 -47.001 -34s-40 -13.5 -64 -13.5c-28.667 0 -52.5 4.5 -71.5 13.5s-34.167 20.333 -45.5 34s-19.333 28.667 -24 45s-7 32.166 -7 47.499v219
c0 12 -2 19.667 -6 23c-4.66699 3.33301 -12 5 -22 5v6h88l-1 -257c0 -6 1.16699 -14.5 3.5 -25.5s6.66602 -22.167 12.999 -33.5s15.333 -21.166 27 -29.499s26.834 -12.5 45.501 -12.5s33.834 4.33301 45.501 13s20.834 18.834 27.501 30.501s11.167 23 13.5 34
s3.5 18.833 3.5 23.5v192v204c0 10 -0.333008 16 -1 18c-1.33301 4 -3 6 -5 6c-2 1.33301 -4.66699 1.33301 -8 0c-2 0 -4 0.166992 -6 0.5s-4.33301 0.833008 -7 1.5v5l70 21h15v-191h2z" />
    <glyph glyph-name="uni0E1C" unicode="&#xe1c;" horiz-adv-x="478" 
d="M453 385l-0.000976562 -6.99707c-13.333 0 -21 -2 -23 -6c-2.66699 -3.33301 -4 -11 -4 -23v-58v-135c0 -15.333 -1.66699 -32 -5 -50s-9.5 -34.833 -18.5 -50.5s-21.167 -28.834 -36.5 -39.501s-35.333 -16 -60 -16l-78 263l-77 -263h-39l-65 204
c-13.333 36 -18.5 65.833 -15.5 89.5s10.167 42.167 21.5 55.5s24.833 22.666 40.5 27.999s29.834 8 42.501 8v-16c-14.667 -4 -25.5 -10.5 -32.5 -19.5s-11.667 -19.167 -14 -30.5s-2.66602 -23.333 -0.999023 -36s4.16699 -25 7.5 -37l44 -170l89 309h27l93 -329
c4 8 7.33301 17 10 27s4.66699 19.5 6 28.5s2.16602 17.167 2.49902 24.5s0.5 12.666 0.5 15.999v233h85z" />
    <glyph glyph-name="uni0E1D" unicode="&#xe1d;" horiz-adv-x="462" 
d="M426 156c0 -15.333 -1.66406 -31.998 -4.99707 -49.998s-9.5 -34.833 -18.5 -50.5s-21.167 -28.834 -36.5 -39.501s-35.333 -16 -60 -16l-78 263l-77 -263h-39l-65 204c-13.333 36 -18.333 65.667 -15 89s10.666 41.833 21.999 55.5s24.833 23.167 40.5 28.5
s29.834 8 42.501 8v-16c-14.667 -4 -25.667 -10.5 -33 -19.5s-12 -19.167 -14 -30.5s-2.33301 -23.333 -1 -36s3.66602 -25 6.99902 -37l45 -170l88 309h27l93 -329c4.66699 8 8.16699 17 10.5 27s4.16602 19.5 5.49902 28.5s2.16602 17.167 2.49902 24.5
s0.5 12.666 0.5 15.999v371c0 8.66699 -0.666992 15 -2 19c0 2.66699 -1.33301 4.66699 -4 6h-9h-5c-2 0 -4.66699 0.666992 -8 2v4l70 22l16 -1v-419z" />
    <glyph glyph-name="uni0E1E" unicode="&#xe1e;" horiz-adv-x="462" 
d="M426 156c0 -15.333 -1.66797 -31.998 -5.00098 -49.998s-9.5 -34.833 -18.5 -50.5s-21.167 -28.834 -36.5 -39.501s-35.333 -16 -60 -16l-78 263l-77 -263c-19.333 4 -35.333 11.667 -48 23s-22.667 24.5 -30 39.5s-12.333 30.833 -15 47.5s-4 32 -4 46l-1 189
c0 12.667 -1 21.667 -3 27c-3.33301 4.66699 -11.333 7 -24 7v6h85l1 -233c0 -4 0.166992 -9.5 0.5 -16.5s1.5 -14.5 3.5 -22.5s5 -16.167 9 -24.5s9.66699 -15.5 17 -21.5l87 318h27l87 -339l-3 -4c6.66699 7.33301 11.834 16.5 15.501 27.5s6.5 22 8.5 33
s3.16699 21.167 3.5 30.5s0.5 15.666 0.5 18.999v233h58v-229z" />
    <glyph glyph-name="uni0E1F" unicode="&#xe1f;" horiz-adv-x="462" 
d="M426 156c0 -15.333 -1.66797 -31.998 -5.00098 -49.998s-9.5 -34.833 -18.5 -50.5s-21.167 -28.834 -36.5 -39.501s-35.333 -16 -60 -16l-78 263l-77 -263c-19.333 4 -35.333 11.667 -48 23s-22.667 24.5 -30 39.5s-12.333 30.833 -15 47.5s-4 32 -4 46v189
c0 11.333 -1.33301 20.333 -4 27c-3.33301 4.66699 -11.333 7 -24 7v6h86v-233c0 -4 0.166992 -9.5 0.5 -16.5s1.5 -14.5 3.5 -22.5s5 -16.167 9 -24.5s9.66699 -15.5 17 -21.5l87 318h27l87 -339l-3 -4c6.66699 7.33301 11.834 16.5 15.501 27.5s6.5 22 8.5 33
s3.16699 21.167 3.5 30.5s0.5 15.666 0.5 18.999v372c0 8 -0.666992 14 -2 18c0 2.66699 -1.33301 4.66699 -4 6h-9c-1.33301 0 -3 0.166992 -5 0.5s-4.66699 0.833008 -8 1.5v4l70 22l16 -1v-419z" />
    <glyph glyph-name="uni0E20" unicode="&#xe20;" horiz-adv-x="413" 
d="M303 257c0 36 -9.00879 62.0029 -27.0088 78.0029s-43 24 -75 24c-17.333 0 -31.666 -1 -42.999 -3s-20.666 -4 -27.999 -6c-8 -2.66699 -14.333 -5.66699 -19 -9c3.33301 -3.33301 5.5 -7.16602 6.5 -11.499s2.16699 -8.5 3.5 -12.5
c0.666992 -4.66699 1.33398 -9.66699 2.00098 -15l-2 -182l-2 -63c-1.33301 -19.333 -3.66602 -33.666 -6.99902 -42.999c-5.33301 -10 -11.333 -16 -18 -18c-7.33301 -2.66699 -16.666 -2 -27.999 2c-12.667 4.66699 -25.334 11 -38.001 19l-1 12
c2.66699 -2.66699 6 -5 10 -7c2.66699 -0.666992 4.83398 -1.16699 6.50098 -1.5s3.16699 -0.5 4.5 -0.5c4 0 7 2 9 6c1.33301 2.66699 2.33301 5.16699 3 7.5s1.33398 5.16602 2.00098 8.49902s1.16699 6.16602 1.5 8.49902s0.5 5.16602 0.5 8.49902
c0 2.66699 0.166992 5 0.5 7s0.5 3.66699 0.5 5v233c0 11.333 -2 18 -6 20s-10.667 3 -20 3v7c14.667 11.333 31.334 21.333 50.001 30c16 7.33301 35.5 14.166 58.5 20.499s49.167 9.5 78.5 9.5c19.333 0 39.333 -3.33301 60 -10s36.334 -15.667 47.001 -27
c11.333 -12.667 18.833 -26.334 22.5 -41.001s5.5 -31.667 5.5 -51v-230c0 -12 2 -20 6 -24c4.66699 -3.33301 12.334 -5 23.001 -5v-6h-89z" />
    <glyph glyph-name="uni0E21" unicode="&#xe21;" horiz-adv-x="397" 
d="M361 345l0.000976562 -63v-157c0 -9.33301 -0.5 -18.333 -1.5 -27s-2.83301 -17 -5.5 -25c-2 -8 -4.66699 -15.5 -8 -22.5s-7 -13.833 -11 -20.5c-9.33301 -12 -21 -21.667 -35 -29c-14.667 -7.33301 -31.667 -11 -51 -11c-30 0 -54.333 7 -73 21
c-19.333 12.667 -37 30.667 -53 54v-74l-16 -1l-69 24v8c2.66699 1.33301 5.16699 2 7.5 2h6.5c2.66699 -0.666992 5.66699 -1 9 -1c1.33301 0 2.66602 1.66699 3.99902 5c1.33301 2 2 7.66699 2 17v298c0 13.333 -1.33301 22.333 -4 27s-10.334 7 -23.001 7v6h85v-38v-18
v-201c0 -2 1 -6 3 -12c1.33301 -3.33301 2.16602 -5.83301 2.49902 -7.5s0.833008 -3.16699 1.5 -4.5c7.33301 -20 19.333 -36.667 36 -50c16.667 -12.667 36.334 -19 59.001 -19c14.667 0 26.334 2.66699 35.001 8c9.33301 5.33301 17 12 23 20s10.667 18 14 30
c1.33301 5.33301 2.33301 11 3 17s1 12.333 1 19v196v20v40h58v-38z" />
    <glyph glyph-name="uni0E22" unicode="&#xe22;" horiz-adv-x="397" 
d="M374 383l-0.000976562 -7.00586c-12 0 -19.667 -1.33301 -23 -4c-4 -4 -6 -12 -6 -24v-114v-105c0 -15.333 -3.16699 -31.166 -9.5 -47.499s-15.833 -31.166 -28.5 -44.499s-28.334 -24.5 -47.001 -33.5s-40 -13.5 -64 -13.5c-28.667 0 -52.5 3.66699 -71.5 11
s-34.167 17 -45.5 29s-19.333 25.667 -24 41s-7 31 -7 47c0 26.667 5 47.667 15 63s21.667 27 35 35c-18 6.66699 -33.167 17.167 -45.5 31.5s-18.833 31.5 -19.5 51.5c0 6 0.833008 13.833 2.5 23.5s5.16699 19.334 10.5 29.001s13.166 18.334 23.499 26.001
s24.166 12.5 41.499 14.5c13.333 1.33301 24.833 0.5 34.5 -2.5s18.167 -6.83301 25.5 -11.5c8 -5.33301 15.333 -11.666 22 -18.999v-16c-9.33301 4.66699 -20.333 8.66699 -33 12s-25.667 1.33301 -39 -6c-11.333 -5.33301 -19.166 -13.166 -23.499 -23.499
s-6.5 -21.166 -6.5 -32.499c1.33301 -14.667 6.83301 -25.834 16.5 -33.501s21 -13 34 -16s26.333 -3.83301 40 -2.5s24.5 4 32.5 8v-18c-4 -4 -9 -7.33301 -15 -10c-5.33301 -2.66699 -11.333 -5 -18 -7s-14.667 -3.66699 -24 -5v-1
c-9.33301 -2 -17.666 -6.33301 -24.999 -13c-6.66699 -5.33301 -12.5 -13.5 -17.5 -24.5s-7.5 -25.833 -7.5 -44.5c0 -6.66699 1.16699 -15.667 3.5 -27s6.66602 -22.5 12.999 -33.5s15.333 -20.5 27 -28.5s26.834 -12 45.501 -12s33.834 4.33301 45.501 13
s20.834 18.667 27.501 30s11.167 22.5 13.5 33.5s3.5 19.167 3.5 24.5v109l-1 148h89z" />
    <glyph glyph-name="uni0E23" unicode="&#xe23;" horiz-adv-x="310" 
d="M38 -7l0.99707 102l7 1c4 -16.667 11 -30.334 21 -41.001s22 -19.334 36 -26.001c14 -5.33301 28 -8 42 -8c7.33301 -0.666992 14.333 -0.333984 21 0.999023s13 3 19 5c11.333 4.66699 21.333 12 30 22c8 10 12 22.333 12 37s-4.66699 27.667 -14 39
c-5.33301 5.33301 -10.666 10.333 -15.999 15s-11.666 9 -18.999 13c-14 8.66699 -29 16.667 -45 24c-8.66699 4 -16.667 8 -24 12s-14.666 8.66699 -21.999 14c-14 11.333 -25.333 23.333 -34 36c-10 14 -15 31 -15 51c0 15.333 3.33301 30.333 10 45
c6.66699 13.333 15.334 24.333 26.001 33c5.33301 4.66699 11.333 8.5 18 11.5s13.667 5.83301 21 8.5c7.33301 2 14.833 3.66699 22.5 5s15.167 2 22.5 2c19.333 0 36.833 -2.5 52.5 -7.5s27.5 -8.16699 35.5 -9.5l6 13h4v-90h-6c-9.33301 23.333 -23.333 40 -42 50
c-18 10 -36 15 -54 15c-18.667 0 -34.334 -5.33301 -47.001 -16c-13.333 -10 -20 -24.333 -20 -43c0 -14 5 -26 15 -36c8.66699 -10 20.667 -19 36 -27l22.5 -12.5c7.66699 -4.33301 15.5 -8.5 23.5 -12.5c18.667 -8.66699 34.334 -18 47.001 -28
c14 -9.33301 26 -21.666 36 -36.999c10 -14 15 -31.333 15 -52c0 -32.667 -12 -59 -36 -79c-12.667 -10.667 -27.334 -18.667 -44.001 -24c-8 -2.66699 -16.167 -4.5 -24.5 -5.5s-16.5 -1.5 -24.5 -1.5c-12.667 0 -25.334 1 -38.001 3c-6 1.33301 -12.167 2.5 -18.5 3.5
s-12.5 2.16699 -18.5 3.5c-2 0.666992 -4.16699 1.33398 -6.5 2.00098s-4.5 1.33398 -6.5 2.00098c-5.33301 1.33301 -9.66602 2 -12.999 2c-2 0 -4 -3 -6 -9c-0.666992 -1.33301 -1 -2.5 -1 -3.5s-0.666992 -1.83301 -2 -2.5h-5z" />
    <glyph glyph-name="uni0E24" unicode="&#xe24;" horiz-adv-x="387" 
d="M292 259c0 36 -9 62.0029 -27 78.0029s-43 24 -75 24c-17.333 0 -31.666 -1 -42.999 -3s-20.666 -4 -27.999 -6c-8 -2.66699 -14.333 -5.33398 -19 -8.00098c3.33301 -3.33301 5.66602 -7.16602 6.99902 -11.499l4 -12.5c1.33301 -4.66699 2 -9.66699 2 -15v-213
c0 -3.33301 0.333008 -7.83301 1 -13.5s2 -11.334 4 -17.001s5 -11 9 -16s9.33301 -8.5 16 -10.5c9.33301 -2.66699 20.166 -2.83398 32.499 -0.500977s23.166 6.16602 32.499 11.499v-16c-6.66699 -8 -14.667 -15 -24 -21c-8 -5.33301 -17.667 -9.66602 -29 -12.999
s-24.333 -3.66602 -39 -0.999023c-15.333 2 -27.166 7.16699 -35.499 15.5s-14.5 17.5 -18.5 27.5s-6.5 19.833 -7.5 29.5s-1.5 17.5 -1.5 23.5v15.5v28c0 11 0.166992 22.833 0.5 35.5s0.5 25.334 0.5 38.001c0 30 0.333008 63 1 99c0 10.667 -2 17 -6 19s-10.667 3 -20 3
v7c14.667 11.333 31.334 21.333 50.001 30c16 7.33301 35.333 14.333 58 21s48.667 10 78 10c19.333 0 39.333 -3.5 60 -10.5s36.334 -16.167 47.001 -27.5c11.333 -12.667 19 -26.334 23 -41.001s6 -31.334 6 -50.001v-285c0 -33.333 -4 -60.333 -12 -81
c-8 -21.333 -18.667 -37.666 -32 -48.999c-10.667 -10.667 -24.334 -18.334 -41.001 -23.001c-15.333 -3.33301 -29 -4.33301 -41 -3c-14 1.33301 -25.333 4.33301 -34 9c-10.667 5.33301 -16.334 10.666 -17.001 15.999c0 2 0.333008 4 1 6s1.66699 4.33301 3 7
c2 4 4.66699 7.66699 8 11c2.66699 2 6.33398 3.66699 11.001 5s9.33398 0 14.001 -4c3.33301 -2.66699 6 -5.66699 8 -9l4 -6c1.33301 -2 2.66602 -3.66699 3.99902 -5c1.33301 -2.66699 4 -6 8 -10c3.33301 -2.66699 8 -4 14 -4c11.333 -1.33301 20 2.66699 26 12
c5.33301 8 9.66602 18.667 12.999 32c1.33301 6.66699 2.33301 13 3 19s1 12.333 1 19v29v305z" />
    <glyph glyph-name="uni0E25" unicode="&#xe25;" horiz-adv-x="378" 
d="M215 36c-5.33301 -8.66699 -14.835 -17.8281 -28.502 -27.4951s-30.167 -15.167 -49.5 -16.5c-13.333 -0.666992 -27.333 1.66602 -42 6.99902c-14 5.33301 -25.333 12 -34 20c-5.33301 4.66699 -9.66602 9.66699 -12.999 15s-6.66602 11 -9.99902 17
c-5.33301 11.333 -8 25.333 -8 42c0 16 2.66699 30.333 8 43c6 11.333 14 21.666 24 30.999c10.667 9.33301 22 17.333 34 24l19.5 9.5l20.5 9.5c25.333 10.667 46.666 17.334 63.999 20.001c10 2 19.833 4.16699 29.5 6.5s19.5 5.16602 29.5 8.49902v40
c0 6.66699 -0.666992 13 -2 19s-3.66602 11.667 -6.99902 17c-9.33301 14.667 -20.5 25.667 -33.5 33s-32.167 11 -57.5 11c-14.667 0 -28.334 -2 -41.001 -6s-23.834 -8.33301 -33.501 -13s-17.5 -9.16699 -23.5 -13.5s-9.66699 -6.83301 -11 -7.5l-10 7l12.5 12
c7 6.66699 16.667 13.834 29 21.501s27.166 14.5 44.499 20.5s37.333 9 60 9c44.667 0 77.334 -10.333 98.001 -31c21.333 -20 32 -51 32 -93v-202v-13c0.666992 -2.66699 1 -5.33398 1 -8.00098s0.333008 -5.66699 1 -9c1.33301 -5.33301 3 -10.333 5 -15c2 -4 5 -6 9 -6
c4.66699 0 8.33398 0.666992 11.001 2c4 2 7.33301 4.33301 10 7l-1 -13l-20 -11c-6 -3.33301 -11.667 -6 -17 -8c-10 -4 -19.333 -4.66699 -28 -2c-8 3.33301 -14 9.66602 -18 18.999c-4.66699 11.333 -7 25.666 -7 42.999l-3 67v93l-50 -13
c-6 -2 -12.167 -3.83301 -18.5 -5.5s-13.166 -3.83398 -20.499 -6.50098c-13.333 -4 -26 -9.66699 -38 -17s-22 -16.333 -30 -27c-7.33301 -10.667 -11 -23.667 -11 -39c0 -18.667 4.33301 -33.334 13 -44.001c8.66699 -11.333 19 -18.666 31 -21.999c12 -4 25.333 -5 40 -3
c13.333 2 27 6.66699 41 14z" />
    <glyph glyph-name="uni0E26" unicode="&#xe26;" horiz-adv-x="397" 
d="M303 259c0 35.333 -9 60.9971 -27 76.9971s-43 24 -75 24c-17.333 0 -31.666 -1 -42.999 -3s-20.666 -4 -27.999 -6c-8 -2.66699 -14.333 -5.33398 -19 -8.00098c3.33301 -3.33301 5.66602 -7.16602 6.99902 -11.499l4 -12.5c1.33301 -4.66699 2 -9.66699 2 -15l-3 -180
l-2 -67c0 -17.333 -2.33301 -31.666 -7 -42.999c-5.33301 -10 -11.333 -16.333 -18 -19c-8.66699 -2 -18 -1.33301 -28 2c-5.33301 2 -11.166 4.66699 -17.499 8l-20.5 11v12c1.33301 -1.33301 4.66602 -3.33301 9.99902 -6c4 -2 7.66699 -3 11 -3
c2.66699 0 5.66699 2.33301 9 7c1.33301 2.66699 2.66602 7.66699 3.99902 15c1.33301 3.33301 2 6.33301 2 9v8c0.666992 3.33301 1 5.83301 1 7.5v4.5l1 236c0 10 -2.33301 16.333 -7 19c-3.33301 2.66699 -9.66602 4 -18.999 4v6c14.667 11.333 31.334 21.333 50.001 30
c16 7.33301 35.333 14.333 58 21s48.667 10 78 10c19.333 0 39.333 -3.33301 60 -10s36.334 -15.667 47.001 -27c11.333 -13.333 19 -27.333 23 -42s6 -31.334 6 -50.001l-1 -293c0 -17.333 -1 -31.166 -3 -41.499s-5 -20.833 -9 -31.5
c-8 -21.333 -18.333 -37.666 -31 -48.999c-12 -11.333 -26 -19 -42 -23c-7.33301 -1.33301 -14.333 -2.5 -21 -3.5s-13.334 -0.833008 -20.001 0.5c-12.667 0.666992 -24 3.66699 -34 9c-10.667 5.33301 -16.334 10.666 -17.001 15.999c0 2 0.333008 4 1 6
s1.66699 4.33301 3 7c4 5.33301 7 9 9 11c3.33301 2.66699 7 4.33398 11 5.00098c4 1.33301 8.33301 0 13 -4l4.5 -4.5l4.5 -4.5c2.66699 -5.33301 5 -9 7 -11c2 -3.33301 5 -6.66602 9 -9.99902c2.66699 -2.66699 7 -4 13 -4c11.333 -1.33301 20 2.66699 26 12
c5.33301 8 9.66602 18.667 12.999 32c2.66699 11.333 4 24 4 38c0.666992 6 1 11.5 1 16.5v12.5v306z" />
    <glyph glyph-name="uni0E27" unicode="&#xe27;" horiz-adv-x="361" 
d="M160 391c27.333 0 52.668 -5.33301 76.001 -16c22 -11.333 39.667 -25.666 53 -42.999c14.667 -16.667 25.667 -37.334 33 -62.001c7.33301 -25.333 11 -50.333 11 -75c0 -28.667 -4.33301 -55 -13 -79c-8 -25.333 -21.667 -48.333 -41 -69
c-12.667 -13.333 -27.334 -25 -44.001 -35c-8.66699 -4.66699 -17.334 -8.83398 -26.001 -12.501s-17.667 -6.16699 -27 -7.5c-16 -2.66699 -33 -2.83398 -51 -0.500977s-35.667 8.83301 -53 19.5c-6 3.33301 -11 7.33301 -15 12s-6.66699 8.66699 -8 12
c-4 6.66699 -5.33301 13.334 -4 20.001c1.33301 6 6.66602 10.667 15.999 14c7.33301 2 12.333 0.666992 15 -4c1.33301 -2.66699 2.83301 -5.5 4.5 -8.5s3.83398 -6.16699 6.50098 -9.5l8.5 -10.5c3 -3.66699 7.16699 -6.5 12.5 -8.5
c6.66699 -3.33301 14.334 -5.33301 23.001 -6s17.167 -0.5 25.5 0.5s16.166 2.66699 23.499 5s13 4.5 17 6.5c16 8 29.667 19.667 41 35c10.667 14 18.667 30.667 24 50c5.33301 20 8 39.667 8 59c0 20.667 -3 41 -9 61c-6 21.333 -14.667 39.666 -26 54.999
c-11.333 16 -25.333 29 -42 39c-17.333 10 -37.333 15 -60 15c-8.66699 0 -18 -1 -28 -3c-12 -3.33301 -22.667 -6.66602 -32 -9.99902c-10.667 -5.33301 -20 -10.666 -28 -15.999c-9.33301 -8 -15.666 -15.333 -18.999 -22l-6 14c30 53.333 74.667 80 134 80z" />
    <glyph glyph-name="uni0E28" unicode="&#xe28;" horiz-adv-x="401" 
d="M452 514c9.33301 -4.66699 15 -9.99805 17 -15.998c0 -2 -0.333008 -4 -1 -6s-1.66699 -4.33301 -3 -7l-4 -6c-1.33301 -2 -3 -3.66699 -5 -5c-4 -2.66699 -7.33301 -4.33398 -10 -5.00098c-4.66699 -1.33301 -9.33398 0 -14.001 4c-3.33301 2 -6 5 -8 9
c-1.33301 2 -2.66602 3.83301 -3.99902 5.5s-2.66602 3.5 -3.99902 5.5c-2.66699 4 -5.66699 7.33301 -9 10c-4 2.66699 -8.33301 4 -13 4c-11.333 0 -20 -4.33301 -26 -13s-10 -19.334 -12 -32.001c-2.66699 -11.333 -4 -24 -4 -38
c-0.666992 -12.667 -0.666992 -22.334 0 -29.001l-1 -137v-4v-219c0 -12 2 -20 6 -24c4.66699 -3.33301 12 -5 22 -5v-6h-88l2 257c0 6 -1.33301 14.833 -4 26.5s-7.5 23.334 -14.5 35.001s-17 21.834 -30 30.501s-29.5 13 -49.5 13c-20.667 0 -37.5 -4.5 -50.5 -13.5
s-23 -19.5 -30 -31.5s-11.667 -23.833 -14 -35.5s-3.5 -19.834 -3.5 -24.501v-117l6.5 12.5c2.33301 4.33301 5.16602 8.5 8.49902 12.5c3.33301 5.33301 6.83301 10.333 10.5 15s7.5 9 11.5 13c4.66699 4 9.16699 7.5 13.5 10.5s9.16602 6.16699 14.499 9.5
c10 4.66699 22 7 36 7c7.33301 0 15 -2 23 -6c8.66699 -4.66699 13.334 -11.334 14.001 -20.001v-11c0 -4.66699 -1 -9 -3 -13c-0.666992 -2.66699 -1.5 -5 -2.5 -7s-2.16699 -4 -3.5 -6c-4 -4 -7.66699 -6.66699 -11 -8c-5.33301 -1.33301 -9.33301 -0.333008 -12 3
c-1.33301 2 -2.83301 4 -4.5 6s-3.16699 4.33301 -4.5 7c-2.66699 4.66699 -5.66699 9.33398 -9 14.001s-8 7 -14 7c-5.33301 0 -11 -2 -17 -6c-8 -4.66699 -14 -9.33398 -18 -14.001c-6 -5.33301 -11.667 -11 -17 -17c-2 -3.33301 -4 -6.16602 -6 -8.49902
s-3.66699 -4.5 -5 -6.5c-7.33301 -11.333 -11 -23.333 -11 -36v-98h-60l2 254c0 14.667 3 30.334 9 47.001s15.167 31.667 27.5 45s28.5 24.5 48.5 33.5s44 13.5 72 13.5c21.333 0 40 -2.33301 56 -7s30 -11.334 42 -20.001c-0.666992 32 3 59 11 81c8 20.667 18 37 30 49
c12 11.333 25.667 19 41 23c14 4 28 5.33301 42 4c12.667 -0.666992 24 -3.66699 34 -9z" />
    <glyph glyph-name="uni0E29" unicode="&#xe29;" horiz-adv-x="417" 
d="M392 193l1.99512 -0.00292969v-11l-26 -32h-1h-15v-21c0 -15.333 -3.16699 -31.166 -9.5 -47.499s-15.833 -31.166 -28.5 -44.499s-28.167 -24.5 -46.5 -33.5s-39.833 -13.5 -64.5 -13.5c-28.667 0 -52.5 4.5 -71.5 13.5s-34 20.167 -45 33.5
s-18.833 28.166 -23.5 44.499s-7 32.166 -7 47.499v219c0 12 -2 20 -6 24c-4.66699 3.33301 -12.334 5 -23.001 5v6h89l-2 -257c0 -6 1.16699 -14.5 3.5 -25.5s6.83301 -22.167 13.5 -33.5s15.834 -21.166 27.501 -29.499s26.5 -12.5 44.5 -12.5
c18.667 0 33.834 4.33301 45.501 13s20.834 18.667 27.501 30s11.334 22.5 14.001 33.5s4 19.167 4 24.5v22c-34 0.666992 -59.167 7.83398 -75.5 21.501s-24.5 30.167 -24.5 49.5c0 11.333 1.66699 20.666 5 27.999s7.33301 13.666 12 18.999
c4.66699 6 10.334 10.667 17.001 14c12.667 -1.33301 21.5 -4.33301 26.5 -9s7 -10.167 6 -16.5s-4.33301 -12.666 -10 -18.999s-12.834 -11.833 -21.501 -16.5c-5.33301 -3.33301 -6.66602 -8.16602 -3.99902 -14.499s10 -10.166 22 -11.499
c6.66699 0 13.834 -0.166992 21.501 -0.5s16.167 -0.5 25.5 -0.5v191h59l-1 -190h40z" />
    <glyph glyph-name="uni0E2A" unicode="&#xe2a;" horiz-adv-x="388" 
d="M425 514c10.667 -5.33301 16.3301 -10.6621 16.9971 -15.9951c0 -4.66699 -1.33301 -8.66699 -4 -12c-2 -5.33301 -4.66699 -9 -8 -11c-2.66699 -2.66699 -6.33398 -4.66699 -11.001 -6c-4 -0.666992 -8.33301 0.666016 -13 3.99902
c-3.33301 1.33301 -6.33301 4.33301 -9 9c-1.33301 2 -2.5 4 -3.5 6s-2.16699 3.66699 -3.5 5c-2.66699 4 -6 7.33301 -10 10c-2.66699 2.66699 -7 4 -13 4c-11.333 0 -20 -4.33301 -26 -13c-2.66699 -4.66699 -5 -9.66699 -7 -15s-3.66699 -11 -5 -17
c-2.66699 -11.333 -4 -24 -4 -38v-29l-1 -117v-7v-202c0 -1.33301 0.166992 -3 0.5 -5s0.5 -4.33301 0.5 -7s0.166992 -5.33398 0.5 -8.00098s0.833008 -5.66699 1.5 -9c0.666992 -5.33301 2.33398 -10.333 5.00098 -15c2 -4.66699 5 -7 9 -7c2 0 5.66699 1 11 3
c3.33301 0.666992 6.66602 2.66699 9.99902 6l-1 -12c-12.667 -8 -25.334 -14.333 -38.001 -19c-11.333 -4 -20.666 -4.66699 -27.999 -2s-13.333 8.66699 -18 18c-3.33301 9.33301 -5.66602 23.666 -6.99902 42.999l-2 68v92l-50 -13
c-6.66699 -1.33301 -13.167 -3 -19.5 -5s-13.166 -4 -20.499 -6c-14 -5.33301 -26.667 -11.333 -38 -18c-12.667 -7.33301 -22.334 -16.333 -29.001 -27c-7.33301 -9.33301 -11 -22.333 -11 -39c0 -18.667 4 -33.334 12 -44.001c8.66699 -10.667 19 -18 31 -22
c12.667 -4 26.334 -5 41.001 -3c7.33301 1.33301 14.333 3.16602 21 5.49902s13 5.5 19 9.5l-1 -17c-5.33301 -8.66699 -14.666 -17.834 -27.999 -27.501s-29.666 -15.167 -48.999 -16.5c-7.33301 -0.666992 -14.5 -0.166992 -21.5 1.5s-13.833 3.5 -20.5 5.5
c-13.333 5.33301 -24.666 12 -33.999 20c-10 9.33301 -17.667 20 -23 32c-6 12.667 -9 26.667 -9 42c0 16.667 3 31 9 43c6 12.667 13.667 23 23 31c10.667 9.33301 22 17.333 34 24c6.66699 3.33301 13.334 6.5 20.001 9.5l21 9.5c23.333 10 44.666 17 63.999 21
c19.333 3.33301 39 8.33301 59 15v39c0 14 -3 26 -9 36c-10 14.667 -21.5 25.667 -34.5 33s-31.833 11 -56.5 11c-14.667 0 -28.334 -1.83301 -41.001 -5.5s-23.834 -8 -33.501 -13s-17.667 -9.66699 -24 -14s-10.166 -6.83301 -11.499 -7.5l-10 7l12.5 12
c7 6.66699 16.667 13.834 29 21.501s27.166 14.5 44.499 20.5s37.333 9 60 9c30.667 0 55 -4.66699 73 -14c0.666992 24.667 4.33398 46.667 11.001 66c8 20.667 18.333 37 31 49c12 12 25.667 19.667 41 23c13.333 4 27 5.33301 41 4c12.667 -0.666992 24 -3.66699 34 -9z
" />
    <glyph glyph-name="uni0E2B" unicode="&#xe2b;" horiz-adv-x="404" 
d="M359 11c4.66699 -3.33301 12.332 -5 22.999 -5v-6h-89l2 137c0 24 -4.33301 42.333 -13 55c-8 12 -18.5 22.333 -31.5 31s-30.167 13 -51.5 13c-23.333 0 -41.5 -1.66699 -54.5 -5s-22.5 -6.33301 -28.5 -9v-222h-60v350c0 12.667 -2 20.667 -6 24
c-4.66699 3.33301 -12 5 -22 5v6h88v-127l14.5 4l15.5 4c9.33301 3.33301 23 6.33301 41 9s35.833 6 53.5 10s33.167 9.5 46.5 16.5s20 16.5 20 28.5c0 8.66699 -3 15.5 -9 20.5s-13.833 8.33301 -23.5 10s-20.334 1.5 -32.001 -0.5s-22.834 -6 -33.501 -12v13
c6 6.66699 13 12.667 21 18c7.33301 4.66699 16 8.66699 26 12s21.667 4.33301 35 3c16.667 -2 29.834 -5.83301 39.501 -11.5s17 -12 22 -19s8 -14.333 9 -22s1.16699 -14.167 0.5 -19.5c-1.33301 -15.333 -8.16602 -28.333 -20.499 -39s-28.166 -18.667 -47.499 -24
c14.667 -6.66699 25 -14 31 -22c18.667 -23.333 28 -54 28 -92v-110c0 -12 2 -20 6 -24z" />
    <glyph glyph-name="uni0E2C" unicode="&#xe2c;" horiz-adv-x="463" 
d="M427 525c0.666992 -8.66699 0.666992 -17.3359 0 -26.0029c-0.666992 -7.33301 -2 -15.166 -4 -23.499s-5.66699 -16.166 -11 -23.499c10 -21.333 15 -47.666 15 -78.999v-217c0 -15.333 -1.66699 -32 -5 -50s-9.5 -34.833 -18.5 -50.5s-21.167 -28.834 -36.5 -39.501
s-35.333 -16 -60 -16l-78 263l-78 -263c-19.333 4 -35.333 11.667 -48 23s-22.667 24.5 -30 39.5s-12.333 30.833 -15 47.5s-4 32 -4 46v189c0 13.333 -1.33301 22.333 -4 27s-10.334 7 -23.001 7v6h85v-233c0 -4 0.333008 -9.5 1 -16.5s2 -14.5 4 -22.5s5 -16.167 9 -24.5
s9.66699 -15.5 17 -21.5l87 318h27l86 -339l-3 -3c6.66699 7.33301 11.834 16.5 15.501 27.5s6.5 22 8.5 33s3.16699 21 3.5 30s0.5 15.167 0.5 18.5v208v29.5c0 9.66699 -0.333008 18.5 -1 26.5c-14 -6 -27.667 -9 -41 -9s-25.333 1.66699 -36 5
c-16 5.33301 -26.833 13.333 -32.5 24s-6.66699 21.5 -3 32.5s11.5 20.5 23.5 28.5s27.667 12 47 12c35.333 0 61.666 -14 78.999 -42c2 4 3.33301 8 4 12s1.33398 7.66699 2.00098 11s1 7 1 11c0 5.33301 -1.66699 9.66602 -5 12.999c-3.33301 4 -6.33301 7 -9 9
c-4 2.66699 -7.66699 5 -11 7c-2.66699 2 -6 5 -10 9c-2.66699 4.66699 -4 9 -4 13c1.33301 4.66699 3.33301 8.33398 6 11.001c2 2.66699 5.66699 5.66699 11 9c5.33301 2.66699 9.33301 4 12 4c6 -2 11.333 -7.66699 16 -17s8 -20.666 10 -33.999zM289 459.998
c-4 -7.33301 -4 -13.667 0 -19s10 -9.5 18 -12.5s17.333 -4.5 28 -4.5s20.667 2 30 6c-2.66699 12 -6.66699 22 -12 30s-13.666 12.667 -24.999 14c-8.66699 1.33301 -16.834 0.5 -24.501 -2.5s-12.5 -6.83301 -14.5 -11.5z" />
    <glyph glyph-name="uni0E2D" unicode="&#xe2d;" horiz-adv-x="405" 
d="M202 -10c-10 0 -21.0039 0.665039 -33.0039 1.99805s-24.167 4.16602 -36.5 8.49902s-24.5 10.333 -36.5 18s-22.667 17.834 -32 30.501c-9.33301 12 -15.833 25.333 -19.5 40s-4.5 29.334 -2.5 44.001s6.5 28.167 13.5 40.5s17.167 22.5 30.5 30.5
c11.333 7.33301 23.166 11.833 35.499 13.5s23.833 1.83398 34.5 0.500977c12 -1.33301 23.667 -4 35 -8l-1 -18c-9.33301 0 -18.666 -1 -27.999 -3c-8 -1.33301 -16.333 -3.83301 -25 -7.5s-16 -8.83398 -22 -15.501c-7.33301 -7.33301 -12 -16.833 -14 -28.5
s-2 -23.667 0 -36s6.16699 -24.166 12.5 -35.499s14.166 -20 23.499 -26c12.667 -8 24.667 -13.167 36 -15.5s22.333 -3.5 33 -3.5s22.167 3 34.5 9s23.833 15.833 34.5 29.5s19.334 31.167 26.001 52.5s10 47.333 10 78c0 8.66699 -0.666992 19.834 -2 33.501
s-4.16602 27.5 -8.49902 41.5s-10.666 27.5 -18.999 40.5s-19.166 23.833 -32.499 32.5c-12 8 -29.667 13.667 -53 17s-50 -1.66699 -80 -15c-10.667 -4.66699 -20 -9.83398 -28 -15.501s-15 -11.167 -21 -16.5c-7.33301 -6.66699 -13.666 -13 -18.999 -19l-9 14
c16.667 28.667 39 51 67 67c29.333 14.667 58.666 22 87.999 22c31.333 0 60.666 -7.66699 87.999 -23c27.333 -14.667 50 -37 68 -67s27 -67.333 27 -112c0 -44 -9 -81 -27 -111c-9.33301 -15.333 -19.666 -28.333 -30.999 -39s-23.666 -20 -36.999 -28
s-27 -13.667 -41 -17s-27 -5 -39 -5z" />
    <glyph glyph-name="uni0E2E" unicode="&#xe2e;" horiz-adv-x="412" 
d="M321 340c5.33301 -5.33301 10.4951 -11.167 15.4951 -17.5s9.5 -13.166 13.5 -20.499c18 -30 27 -67 27 -111c0 -44.667 -9 -82 -27 -112c-18 -28.667 -40.667 -50.667 -68 -66c-13.333 -8 -27 -13.833 -41 -17.5s-27 -5.5 -39 -5.5c-10 0 -21 0.666992 -33 2
s-24.167 4.16602 -36.5 8.49902s-24.5 10.5 -36.5 18.5s-22.667 18.333 -32 31c-9.33301 12 -15.833 25.167 -19.5 39.5s-4.5 28.833 -2.5 43.5s6.5 28.334 13.5 41.001s17.167 23 30.5 31c11.333 7.33301 23.333 11.666 36 12.999s24 1.33301 34 0
c12 -1.33301 23.667 -3.66602 35 -6.99902l-1 -19c-10 0.666992 -19.333 0 -28 -2c-8 -1.33301 -16.167 -3.83301 -24.5 -7.5s-15.5 -8.83398 -21.5 -15.501c-7.33301 -8 -12.166 -17.833 -14.499 -29.5s-2.5 -23.667 -0.5 -36s6.16699 -24.166 12.5 -35.499
s14.166 -20 23.499 -26c12.667 -8 24.667 -13.167 36 -15.5s22.333 -3.5 33 -3.5s22.167 3.16699 34.5 9.5s23.833 16.166 34.5 29.499s19.334 30.833 26.001 52.5s10 47.834 10 78.501c0 8.66699 -0.666992 19.667 -2 33s-4.16602 27 -8.49902 41
s-10.666 27.667 -18.999 41s-19.166 24.333 -32.499 33c-6 4 -13.333 7.5 -22 10.5s-18.667 5 -30 6s-23.833 0.333008 -37.5 -2s-28.167 -6.83301 -43.5 -13.5c-10.667 -4.66699 -20 -9.83398 -28 -15.501s-15 -11.167 -21 -16.5
c-7.33301 -6.66699 -13.666 -13 -18.999 -19l-9 14c18 30 40.667 52.333 68 67c26.667 14.667 55.667 22 87 22s60.333 -7.33301 87 -22l92 22l4 -10l-56 -42v0z" />
    <glyph glyph-name="uni0E2F" unicode="&#xe2f;" horiz-adv-x="328" 
d="M303 0l-91 -0.000976562v38v81v115v39c-4 -4.66699 -9.33301 -8.33398 -16 -11.001c-5.33301 -2.66699 -12 -5 -20 -7s-17.333 -3 -28 -3c-36 0 -63.167 10.333 -81.5 31s-27.5 45.334 -27.5 74.001c0 6.66699 2 14.667 6 24c5.33301 8.66699 12.333 13.334 21 14.001
h4.5c1.66699 0 3.5 -0.333008 5.5 -1c3.33301 0 7.66602 -0.666992 12.999 -2c5.33301 -2 9.66602 -4.33301 12.999 -7c4.66699 -3.33301 7.33398 -6.66602 8.00098 -9.99902c2 -6 1 -10.333 -3 -13c-3.33301 -3.33301 -7.33301 -6 -12 -8
c-2.66699 -1.33301 -5.16699 -2.83301 -7.5 -4.5s-4.5 -3.5 -6.5 -5.5c-4.66699 -2.66699 -7 -7.33398 -7 -14.001c0 -14 6.5 -26.667 19.5 -38s28.167 -17 45.5 -17c18 0 35.167 7 51.5 21s24.5 34.667 24.5 62v32l15 1l72 -25v-4
c-3.33301 -0.666992 -6.16602 -1.16699 -8.49902 -1.5s-4.5 -0.5 -6.5 -0.5h-9c-3.33301 -1.33301 -5.33301 -3.33301 -6 -6s-1 -8.66699 -1 -18v-296c0 -14 1.66699 -23.333 5 -28c4 -4 13 -6 27 -6v-6z" />
    <glyph glyph-name="uni0E30" unicode="&#xe30;" horiz-adv-x="252" 
d="M40 291c0 11.333 1.66504 20.6689 4.99805 28.002s7.33301 13.666 12 18.999c4.66699 6 10.334 10.667 17.001 14c12.667 -1.33301 21.5 -4.33301 26.5 -9s7 -10.167 6 -16.5s-4.33301 -12.833 -10 -19.5s-12.834 -12 -21.501 -16
c-5.33301 -3.33301 -6.66602 -8.33301 -3.99902 -15s10 -10.334 22 -11.001c15.333 -1.33301 31.5 -1.83301 48.5 -1.5s32.5 0.833008 46.5 1.5c16.667 0.666992 33 1.66699 49 3l-1 -11l-64 -33l-12 -2c-3.33301 -0.666992 -6.66602 -1.16699 -9.99902 -1.5
s-6.33301 -0.5 -9 -0.5c-34 0 -59.333 6.83301 -76 20.5s-25 30.5 -25 50.5zM40.998 104.003c-0.666992 11.333 0.833008 20.8301 4.5 28.4971s7.5 14.167 11.5 19.5c4.66699 6 10.334 10.667 17.001 14c12.667 -1.33301 21.5 -4.5 26.5 -9.5s7.16699 -10.667 6.5 -17
s-3.83398 -12.666 -9.50098 -18.999s-12.834 -11.833 -21.501 -16.5c-6 -3.33301 -7.66699 -8.16602 -5 -14.499s10 -10.166 22 -11.499c15.333 -1.33301 31.5 -1.83301 48.5 -1.5s32.5 0.833008 46.5 1.5c16.667 0.666992 33 1.66699 49 3v-11l-65 -33l-12 -2
c-3.33301 -0.666992 -6.66602 -1.16699 -9.99902 -1.5s-6 -0.5 -8 -0.5c-34.667 0 -60.167 7 -76.5 21s-24.5 30.667 -24.5 50z" />
    <glyph glyph-name="uni0E31" unicode="&#xe31;" 
d="M-200 522c0 11.333 1.66602 20.6689 4.99902 28.002s7.33301 13.666 12 18.999c4.66699 6 10.334 10.667 17.001 14c12.667 -1.33301 21.5 -4.33301 26.5 -9s7 -10.167 6 -16.5s-4.33301 -12.833 -10 -19.5s-12.834 -12 -21.501 -16
c-5.33301 -3.33301 -6.66602 -8.33301 -3.99902 -15s10 -10.334 22 -11.001c15.333 -1.33301 35.333 -2 60 -2h72c27.333 0 56 0.333008 86 1v-11l-65 -33h-105c-34 0 -59.333 6.83301 -76 20.5s-25 30.5 -25 50.5z" />
    <glyph glyph-name="uni0E32" unicode="&#xe32;" horiz-adv-x="313" 
d="M261 265v-231.001c0 -12.667 2 -20.334 6 -23.001c5.33301 -3.33301 13 -5 23 -5v-6h-88l1 257v11v17c0 13.333 -3 25 -9 35c-3.33301 5.33301 -6.66602 10 -9.99902 14s-7.66602 7.66699 -12.999 11c-8.66699 6.66699 -19.334 11.667 -32.001 15
c-13.333 3.33301 -25.333 5 -36 5c-3.33301 0 -6.83301 -0.333008 -10.5 -1s-7.16699 -1.66699 -10.5 -3c-4 -1.33301 -7.83301 -2.83301 -11.5 -4.5s-7.5 -3.16699 -11.5 -4.5c-3.33301 -2 -7 -4 -11 -6s-7.66699 -4.33301 -11 -7c-3.33301 -2 -6.5 -4.16699 -9.5 -6.5
s-5.83301 -4.16602 -8.5 -5.49902l-8 4c3.33301 3.33301 6.16602 6.33301 8.49902 9s5.16602 5.33398 8.49902 8.00098c5.33301 5.33301 11 10 17 14c13.333 10 27.333 18.333 42 25c14.667 5.33301 30.334 8 47.001 8c40 0 71.333 -10.333 94 -31c22 -22 33 -53 33 -93v-6z
" />
    <glyph glyph-name="uni0E33" unicode="&#xe33;" horiz-adv-x="313" 
d="M-59 482c0 -15.333 -7.66699 -28.166 -23 -38.499s-33.666 -15.5 -54.999 -15.5s-39.5 5.16699 -54.5 15.5s-22.5 23.166 -22.5 38.499s7.5 28.333 22.5 39s33.167 16 54.5 16s39.666 -5.33301 54.999 -16s23 -23.667 23 -39zM-137 511
c-7.33301 0 -13.833 -2.83301 -19.5 -8.5s-8.5 -12.5 -8.5 -20.5c0 -7.33301 2.83301 -13.833 8.5 -19.5s12.167 -8.5 19.5 -8.5c8 0 14.667 2.83301 20 8.5s8 12.167 8 19.5c0 8 -2.66699 14.833 -8 20.5s-12 8.5 -20 8.5zM263 265l0.000976562 -231
c0 -12.667 2 -20.334 6 -23.001c4.66699 -3.33301 12 -5 22 -5v-6h-88l2 257v11v17c0 13.333 -3 25 -9 35c-6.66699 10.667 -14.334 19 -23.001 25c-10.667 7.33301 -21.667 12.333 -33 15c-13.333 3.33301 -25.333 5 -36 5c-3.33301 0 -6.66602 -0.333008 -9.99902 -1
s-7 -1.66699 -11 -3l-11 -4.5l-11 -4.5c-8.66699 -4 -16 -8.33301 -22 -13c-3.33301 -2 -6.5 -4.16699 -9.5 -6.5s-6.16699 -4.16602 -9.5 -5.49902l-7 4c2.66699 3.33301 5.33398 6.33301 8.00098 9l8 8c3.33301 2.66699 6.16602 5.16699 8.49902 7.5
s5.16602 4.5 8.49902 6.5c13.333 10.667 27.666 19 42.999 25c14.667 5.33301 30.334 8 47.001 8c40 0 71 -10.333 93 -31c22.667 -21.333 34 -52.333 34 -93v-6z" />
    <glyph glyph-name="uni0E34" unicode="&#xe34;" 
d="M-51 448h-298v12l64 32h234v-44z" />
    <glyph glyph-name="uni0E35" unicode="&#xe35;" 
d="M-95 494v42l38 46h8v-132h-298v11l64 33h188v0z" />
    <glyph glyph-name="uni0E36" unicode="&#xe36;" 
d="M-110 450l-236 -0.00195312v11l64 33h165c4.66699 0 9.66699 1.83301 15 5.5s8 9.5 8 17.5c0 6 -2.16699 11.333 -6.5 16s-9.5 7 -15.5 7c-8.66699 0 -15 -2.83301 -19 -8.5s-5.33301 -12.167 -4 -19.5l-10 -6c-7.33301 8.66699 -9.5 19.834 -6.5 33.501
s11.833 23.167 26.5 28.5c10 3.33301 19.667 4.33301 29 3s17.833 -4.66602 25.5 -9.99902s13.667 -12.333 18 -21s6.5 -18 6.5 -28c0 -18 -6.5 -32.833 -19.5 -44.5s-26.5 -17.5 -40.5 -17.5z" />
    <glyph glyph-name="uni0E37" unicode="&#xe37;" 
d="M-56 582h8v-132h-1h-297v11l63 33v0h118v42l38 46h8v-88h25v42l38 46v0z" />
    <glyph glyph-name="uni0E38" unicode="&#xe38;" 
d="M-102 -212v110c0 12 -2 19.667 -6 23c-4.66699 3.33301 -12 5 -22 5v6h83v-144h-55z" />
    <glyph glyph-name="uni0E39" unicode="&#xe39;" 
d="M-206 -102c0 12 -2.00098 20 -6.00098 24c-4.66699 3.33301 -12 5 -22 5v6h83v-90c0 -7.33301 2.33301 -13.166 7 -17.499s10.667 -6.5 18 -6.5c6.66699 0 12.334 2.16699 17.001 6.5s7 10.166 7 17.499v90h55v-66c0 -22 -7.83301 -40.667 -23.5 -56
s-34.167 -23 -55.5 -23c-22 0 -40.833 7.66699 -56.5 23s-23.5 34 -23.5 56v31z" />
    <glyph glyph-name="uni0E3A" unicode="&#xe3a;" 
d="M-61 -79c0 -19.333 -9.66699 -29 -29 -29s-29 9.66699 -29 29s9.66699 29 29 29s29 -9.66699 29 -29z" />
    <glyph glyph-name="uni0E3F" unicode="&#xe3f;" horiz-adv-x="395" 
 />
    <glyph glyph-name="uni0E40" unicode="&#xe40;" horiz-adv-x="161" 
d="M137 0h-98v40v243v102h58v-347c0 -12 3.33301 -20.333 10 -25c7.33301 -4.66699 17.333 -7 30 -7v-6z" />
    <glyph glyph-name="uni0E41" unicode="&#xe41;" horiz-adv-x="296" 
d="M137 0h-98.001v40v243v102h59v-347c0 -12 3.33301 -20.333 10 -25s16.334 -7 29.001 -7v-6zM271.999 0h-98.001v40v243v102h59v-347c0 -12 3.33301 -20.333 10 -25s16.334 -7 29.001 -7v-6z" />
    <glyph glyph-name="uni0E42" unicode="&#xe42;" horiz-adv-x="161" 
d="M78 578c-15.333 7.33301 -28.832 11.166 -40.499 11.499s-21.167 -1.16699 -28.5 -4.5c-8.66699 -3.33301 -16.334 -8.33301 -23.001 -15c22 -8 40.167 -17 54.5 -27s25.5 -20.333 33.5 -31s13.667 -21.334 17 -32.001s5 -20.334 5 -29.001v-413
c0 -12 3.66699 -20 11 -24c6.66699 -4.66699 16.334 -7 29.001 -7v-7h-98v41v243v176c0 19.333 -6.16699 35 -18.5 47s-26 21.5 -41 28.5s-29.333 11.833 -43 14.5s-21.5 4 -23.5 4v6c8.66699 11.333 19.667 21.333 33 30c11.333 7.33301 25.833 14.333 43.5 21
s39.167 10 64.5 10c18 0 34.333 -2.16699 49 -6.5s27.667 -8 39 -11s21.5 -4.16699 30.5 -3.5s17.167 6.33398 24.5 17.001h14c0 -12 -3.33301 -22.667 -10 -32s-15.834 -16.166 -27.501 -20.499s-25.5 -5.66602 -41.5 -3.99902s-33.667 7.5 -53 17.5z" />
    <glyph glyph-name="uni0E43" unicode="&#xe43;" horiz-adv-x="161" 
d="M137 0l-98.002 0.00488281v41v206v253c0 6.66699 -0.666992 16 -2 28s-4.5 23.667 -9.5 35s-12 21.166 -21 29.499s-21.167 12.5 -36.5 12.5c-23.333 0 -39.833 -6.5 -49.5 -19.5s-14.5 -27.167 -14.5 -42.5c0 -18 4.5 -30.833 13.5 -38.5s16.167 -11.5 21.5 -11.5
c4.66699 0 9.33398 1.66699 14.001 5c4 4 6.66699 7 8 9l4 6c1.33301 2 2.66602 3.66699 3.99902 5c1.33301 2.66699 4 6 8 10c6 3.33301 10.667 4.66602 14 3.99902c2.66699 -0.666992 6.33398 -2.66699 11.001 -6c2.66699 -2 5.33398 -5.33301 8.00098 -10
c1.33301 -2.66699 2.33301 -5 3 -7l2 -6c-2 -5.33301 -7.66699 -10.666 -17 -15.999c-8.66699 -4.66699 -20.334 -8 -35.001 -10c-6 -0.666992 -13.333 -0.833984 -22 -0.500977s-16 1.5 -22 3.5c-6.66699 2 -13.167 5.33301 -19.5 10s-12 10.334 -17 17.001
s-8.5 14.5 -10.5 23.5s-2 19.167 0 30.5s6.5 21.166 13.5 29.499s15.167 15 24.5 20s19.5 8.5 30.5 10.5s21.833 3 32.5 3c18.667 0 34.667 -2.83301 48 -8.5s24.5 -12.334 33.5 -20.001s15.833 -15.5 20.5 -23.5s8 -14.667 10 -20c4 -10.667 6.66699 -23.334 8 -38.001
s2 -30.334 2 -47.001v-429c0 -12 3.66699 -20 11 -24c6.66699 -4.66699 16.334 -7 29.001 -7v-7z" />
    <glyph glyph-name="uni0E44" unicode="&#xe44;" horiz-adv-x="158" 
d="M38 467c0 19.333 0.499023 35.499 1.49902 48.499s2.16699 24.167 3.5 33.5c2 10 4 18.667 6 26l-60 -61l-38 38l-30 29.5l-20 19.5c-3.33301 3.33301 -6.66602 5.83301 -9.99902 7.5s-6 2.83398 -8 3.50098c-2.66699 0.666992 -5 1 -7 1v8h62l65 -65l68 65h25v-154v-429
c0 -12 3.33301 -20 10 -24c6.66699 -4.66699 16.667 -7 30 -7v-7h-98v41v243v183v0z" />
    <glyph glyph-name="uni0E45" unicode="&#xe45;" horiz-adv-x="315" 
 />
    <glyph glyph-name="uni0E46" unicode="&#xe46;" horiz-adv-x="368" 
d="M129 391l49.001 -48.999l49 49c21.333 -3.33301 38.833 -9.5 52.5 -18.5s24.334 -19.667 32.001 -32s13 -25.666 16 -39.999s4.5 -27.833 4.5 -40.5v-279c0 -17.333 -0.833008 -32.666 -2.5 -45.999s-4.83398 -25.333 -9.50098 -36c-8 -20.667 -18.333 -37 -31 -49
c-10.667 -10.667 -24.334 -18.334 -41.001 -23.001c-15.333 -3.33301 -29.333 -4.33301 -42 -3c-12.667 0.666992 -24 3.66699 -34 9c-9.33301 5.33301 -15 11 -17 17c0.666992 1.33301 1.33398 3 2.00098 5s1.66699 4.33301 3 7c1.33301 3.33301 4 7 8 11
c2.66699 2 6.33398 3.66699 11.001 5c4 1.33301 8.66699 0.333008 14 -3c4 -4 6.66699 -7.33301 8 -10c1.33301 -2 2.5 -4 3.5 -6s2.16699 -3.66699 3.5 -5c2 -2.66699 5 -6 9 -10c3.33301 -2.66699 8 -4 14 -4c11.333 -1.33301 19.666 2.66699 24.999 12
c6.66699 10 11 20.667 13 32c1.33301 6.66699 2.5 13 3.5 19s1.5 12.333 1.5 19v29l1 48v234c0 28.667 -2.66699 53.167 -8 73.5s-17.333 35.166 -36 44.499l-53 -53l-54 53c-7.33301 -4 -14 -9.33301 -20 -16c-5.33301 -5.33301 -10 -12 -14 -20s-6 -17.333 -6 -28
c0 -11.333 1.83301 -21 5.5 -29s7.83398 -14.5 12.501 -19.5s9.5 -8.83301 14.5 -11.5s9.16699 -4 12.5 -4c5.33301 0 9.66602 1.66699 12.999 5c4 3.33301 7 6.66602 9 9.99902c1.33301 1.33301 2.5 3 3.5 5s2.16699 4 3.5 6l4.5 4.5l4.5 4.5c4.66699 4 9 5.33301 13 4
c4 -0.666992 7.66699 -2.33398 11 -5.00098c2 -2 5 -5.66699 9 -11c1.33301 -2.66699 2.33301 -5 3 -7s1 -4 1 -6c-0.666992 -5.33301 -6.33398 -10.666 -17.001 -15.999c-10 -5.33301 -21.333 -8.33301 -34 -9c-13.333 -2 -27.333 -1 -42 3
c-6 1.33301 -13 4.16602 -21 8.49902s-15.833 10 -23.5 17s-14.167 15.5 -19.5 25.5s-8 22 -8 36c0 16 3.5 29.5 10.5 40.5s15.5 20.333 25.5 28s20 13.334 30 17.001s18 6.16699 24 7.5z" />
    <glyph glyph-name="uni0E47" unicode="&#xe47;" 
d="M-95 560c7.33301 0 12.333 3.33301 15 10c1.33301 2.66699 2 6.33398 2 11.001h35c0 -17.333 -4.33301 -30 -13 -38s-18.667 -12 -30 -12h-61c-2 0 -5.16699 -0.333008 -9.5 -1s-8.5 -1.83398 -12.5 -3.50098s-7.66699 -4.16699 -11 -7.5s-5 -8 -5 -14
s0.833008 -10.667 2.5 -14s3.83398 -6 6.50098 -8c2.66699 -2.66699 5.66699 -4.33398 9 -5.00098l31 31l30 -30c4 -0.666992 7.66699 -0.333984 11 0.999023c2.66699 1.33301 5.16699 2.83301 7.5 4.5s3.5 4.5 3.5 8.5c0 5.33301 -3.33301 8.66602 -10 9.99902
s-12.667 2 -18 2v13c2 0.666992 4.33301 1.33398 7 2.00098c2 0.666992 4.16699 1.33398 6.5 2.00098s5.16602 1 8.49902 1c9.33301 0 18.833 -2.66699 28.5 -8s14.5 -12.666 14.5 -21.999c0 -11.333 -3.5 -20 -10.5 -26s-14.833 -10.333 -23.5 -13
c-10 -3.33301 -21 -5 -33 -5l-22 23l-23 -23c-12 1.33301 -22.667 4 -32 8c-8 3.33301 -15.333 8.83301 -22 16.5s-10 18.167 -10 31.5c0 10.667 2.5 19.5 7.5 26.5s11.333 12.667 19 17s16.167 7.33301 25.5 9s18.333 2.5 27 2.5h49z" />
    <glyph glyph-name="uni0E48" unicode="&#xe48;" 
d="M-94 621l-4 98h55l-4 -98h-47v0z" />
    <glyph glyph-name="uni0E49" unicode="&#xe49;" 
d="M6 720c-0.666992 -18.667 -4.66699 -35.335 -12 -50.002c-6 -12.667 -15.833 -24.167 -29.5 -34.5s-33.5 -15.5 -59.5 -15.5h-92v7c12 0 20 2 24 6c4.66699 2.66699 7 11.334 7 26.001v22c0 14.667 -2.33301 23.334 -7 26.001c-3.33301 3.33301 -11.333 5 -24 5v8h83v-80
c10 0 19 2.66699 27 8c7.33301 4.66699 13.833 12.5 19.5 23.5s8.5 27.167 8.5 48.5h55z" />
    <glyph glyph-name="uni0E4A" unicode="&#xe4a;" 
d="M-152 720l17.001 -15.9971l16 16c8.66699 -2 16.667 -5 24 -9c6 -3.33301 11.667 -8.33301 17 -15s8 -15.334 8 -26.001v-25c4 0.666992 7.66699 3 11 7c2.66699 3.33301 5.16699 8.33301 7.5 15s3.5 16 3.5 28v25h52v-5c-2 0 -3.66699 -0.666992 -5 -2
c-3.33301 -2 -5 -5 -5 -9c0 -26 -7.83301 -46.5 -23.5 -61.5s-40.5 -22.5 -74.5 -22.5v49c0 5.33301 -0.833008 9.5 -2.5 12.5s-3.16699 5.5 -4.5 7.5c-2 2.66699 -4 4.33398 -6 5.00098l-18 -19l-17 17c-3.33301 -1.33301 -6.33301 -3 -9 -5
c-2 -2 -3.83301 -4.33301 -5.5 -7s-2.5 -6.33398 -2.5 -11.001c0 -11.333 4.66699 -19.333 14 -24s18 -3.33398 26 3.99902l7 -7c-2 -4.66699 -4.66699 -8.33398 -8 -11.001c-3.33301 -3.33301 -7.33301 -6 -12 -8s-10.667 -3 -18 -3c-12 0 -22 4.83301 -30 14.5
s-12 21.167 -12 34.5c0 12 2.5 21.333 7.5 28s10.833 11.667 17.5 15c7.33301 4 15.666 6.66699 24.999 8z" />
    <glyph glyph-name="uni0E4B" unicode="&#xe4b;" 
d="M-1 707v-46l-47 5l4 -46h-45l4 46l-47 -5v46l47 -4l-4 48h45l-4 -48l47 4v0z" />
    <glyph glyph-name="uni0E4C" unicode="&#xe4c;" 
d="M71 702l-0.999023 -10.9971l-64 -33h-106h-48c-12 -0.666992 -19.333 -4.33398 -22 -11.001s-1.33398 -11.667 3.99902 -15c8.66699 -4 15.834 -9.33301 21.501 -16s9 -13.167 10 -19.5s-1 -12 -6 -17s-13.833 -7.83301 -26.5 -8.5
c-6.66699 3.33301 -12.334 8 -17.001 14c-4.66699 5.33301 -8.66699 11.666 -12 18.999s-5 16.666 -5 27.999c0 20 8.16699 36.833 24.5 50.5s41.833 20.5 76.5 20.5z" />
    <glyph glyph-name="uni0E4D" unicode="&#xe4d;" 
d="M-59 482c0 -15.333 -7.66699 -28.166 -23 -38.499s-33.666 -15.5 -54.999 -15.5s-39.5 5.16699 -54.5 15.5s-22.5 23.166 -22.5 38.499s7.5 28.333 22.5 39s33.167 16 54.5 16s39.666 -5.33301 54.999 -16s23 -23.667 23 -39zM-137 511
c-7.33301 0 -13.833 -2.83301 -19.5 -8.5s-8.5 -12.5 -8.5 -20.5c0 -7.33301 2.83301 -13.833 8.5 -19.5s12.167 -8.5 19.5 -8.5c8 0 14.667 2.83301 20 8.5s8 12.167 8 19.5c0 8 -2.66699 14.833 -8 20.5s-12 8.5 -20 8.5z" />
    <glyph glyph-name="uni0E4E" unicode="&#xe4e;" 
 />
    <glyph glyph-name="uni0E4F" unicode="&#xe4f;" horiz-adv-x="450" 
 />
    <glyph glyph-name="uni0E50" unicode="&#xe50;" horiz-adv-x="441" 
d="M378 61c-17.333 -22 -40 -39.334 -68 -52.001c-28 -11.333 -57.333 -17 -88 -17c-32.667 0 -62.334 5.66699 -89.001 17c-27.333 11.333 -50 28.333 -68 51s-27 51.334 -27 86.001s9 63.667 27 87c17.333 22 40 39.333 68 52c28.667 11.333 58 17 88 17
c32 0 61.667 -6 89 -18c26.667 -10.667 49.334 -28 68.001 -52c18 -23.333 27 -52 27 -86c0 -34.667 -9 -63 -27 -85zM323 216.999c-11.333 18 -26.666 32.3301 -45.999 42.9971c-16.667 10 -36.334 15.667 -59.001 17c-19.333 0.666992 -38.666 -3.66602 -57.999 -12.999
c-16.667 -8.66699 -31 -23 -43 -43c-11.333 -18.667 -17 -43.667 -17 -75c0.666992 -26.667 7.33398 -50.334 20.001 -71.001c13.333 -19.333 29 -33.666 47 -42.999c17.333 -9.33301 36.666 -14.666 57.999 -15.999c20.667 -0.666992 40 3.66602 58 12.999
c19.333 10.667 34 25.334 44 44.001c12 18.667 17.333 43 16 73c-0.666992 26.667 -7.33398 50.334 -20.001 71.001z" />
    <glyph glyph-name="uni0E51" unicode="&#xe51;" horiz-adv-x="441" 
d="M267 -8l-0.00878906 13.999c6.66699 2.66699 14.334 7.83398 23.001 15.501s17 17.5 25 29.5s14.667 26 20 42s8 33.667 8 53c0 14 -1.83301 26.833 -5.5 38.5s-8.5 22.5 -14.5 32.5c-11.333 18 -26.666 32.333 -45.999 43c-16.667 10 -36.334 15.667 -59.001 17
c-19.333 0.666992 -38.666 -3.66602 -57.999 -12.999c-17.333 -9.33301 -31.666 -23.666 -42.999 -42.999c-11.333 -21.333 -16.666 -46.333 -15.999 -75c0 -27.333 6.33301 -51 19 -71c9.33301 -13.333 19 -22.5 29 -27.5s19.333 -7.33301 28 -7
s16.334 2.16602 23.001 5.49902s11.667 7 15 11c2 2.66699 3.33301 5.5 4 8.5s1 5.83301 1 8.5c0 6 -2 10.667 -6 14c-5.33301 4 -10.333 7 -15 9l-6.5 4.5c-2.33301 1.66699 -4.16602 3.16699 -5.49902 4.5c-4 2.66699 -5 7 -3 13c2 4 4.66699 7.33301 8 10
s7.66602 5 12.999 7c5.33301 1.33301 9.66602 2 12.999 2c2.66699 0.666992 6.33398 1 11.001 1c8 -0.666992 14.667 -5.33398 20 -14.001c4 -9.33301 6 -17.333 6 -24c0 -14 -2.33301 -25.667 -7 -35c-7.33301 -14.667 -16.666 -27 -27.999 -37
c-9.33301 -8.66699 -21.166 -15.667 -35.499 -21s-31.166 -5 -50.499 1c-8 2 -17.5 6.33301 -28.5 13s-21.5 15.5 -31.5 26.5s-18.333 24.5 -25 40.5s-10 35 -10 57c0 34.667 9 63.667 27 87c18 22.667 40.667 40 68 52c28 11.333 57 17 87 17c32 0 61.667 -6 89 -18
c26.667 -10.667 49.334 -28 68.001 -52c18 -23.333 27 -52 27 -86c0 -26 -5 -48.667 -15 -68s-22.167 -35.333 -36.5 -48s-29.5 -22.167 -45.5 -28.5s-29.667 -9.5 -41 -9.5z" />
    <glyph glyph-name="uni0E52" unicode="&#xe52;" horiz-adv-x="573" 
d="M242 198c0 14.667 3.50586 27.6621 10.5059 38.9951s15.5 20.833 25.5 28.5s20 13.5 30 17.5s18 6.66699 24 8l49 -49l49 49c21.333 -2.66699 39 -8.66699 53 -18s25 -20.333 33 -33s13.5 -26.167 16.5 -40.5s4.5 -27.833 4.5 -40.5c0 -13.333 -1.66699 -29.5 -5 -48.5
s-11.333 -37.167 -24 -54.5s-31.334 -32.333 -56.001 -45s-58.334 -19 -101.001 -19s-77.334 5.16699 -104.001 15.5s-47.5 23.833 -62.5 40.5s-25.167 35.667 -30.5 57s-8 42.666 -8 63.999c0 9.33301 -0.166992 19.5 -0.5 30.5s-0.5 21.5 -0.5 31.5v36v29
c0 6.66699 -0.333008 13.167 -1 19.5s-1.66699 12.5 -3 18.5s-3.16602 11.667 -5.49902 17s-4.83301 10.333 -7.5 15c-6 8.66699 -14.667 13 -26 13c-4.66699 0 -9.33398 -1.66699 -14.001 -5c-4 -4 -7 -7.33301 -9 -10c-1.33301 -1.33301 -2.5 -3 -3.5 -5
s-2.16699 -4 -3.5 -6c-2.66699 -4.66699 -5.33398 -7.66699 -8.00098 -9c-4.66699 -4 -9.33398 -5.33301 -14.001 -4c-2 0.666992 -3.83301 1.33398 -5.5 2.00098s-3.5 1.66699 -5.5 3c-3.33301 3.33301 -6 7 -8 11c-1.33301 2.66699 -2.33301 5 -3 7l-2 6
c2 5.33301 7.66699 10.666 17 15.999c10 5.33301 21.333 8.33301 34 9c12.667 2 26.667 1 42 -3c14.667 -3.33301 28.334 -11 41.001 -23c12 -10 22.333 -26.333 31 -49c4.66699 -10.667 7.83398 -22.667 9.50098 -36s2.5 -28.333 2.5 -45v-59
c0 -18 1.66699 -36.167 5 -54.5s10.166 -35.166 20.499 -50.499s25.166 -27.833 44.499 -37.5s45.333 -14.5 78 -14.5s57.667 6.16699 75 18.5s30 26.166 38 41.499c9.33301 17.333 14.666 37.333 15.999 60c0 28.667 -3 51.834 -9 69.501s-18.333 31.167 -37 40.5l-53 -53
l-53 53c-8 -4 -15 -9.33301 -21 -16c-5.33301 -5.33301 -10 -12 -14 -20s-6 -17.333 -6 -28c0 -11.333 2 -20.666 6 -27.999s8.83301 -13 14.5 -17s11.167 -6.83301 16.5 -8.5s9.33301 -2.5 12 -2.5c6.66699 0 11.334 2.33301 14.001 7c4.66699 5.33301 7.66699 10 9 14
c1.33301 2.66699 2.83301 5 4.5 7s3.16699 4 4.5 6c2.66699 2.66699 6.66699 3.66699 12 3c4 -1.33301 7.66699 -4.33301 11 -9c2.66699 -3.33301 4.66699 -7.33301 6 -12c2 -5.33301 3 -9.66602 3 -12.999c1.33301 -8 0.5 -14.667 -2.5 -20s-6.83301 -9 -11.5 -11
c-6.66699 -3.33301 -14.334 -5.66602 -23.001 -6.99902c-7.33301 -0.666992 -17.833 -0.166992 -31.5 1.5s-27.167 5.83398 -40.5 12.501s-24.833 16.834 -34.5 30.501s-14.5 32.5 -14.5 56.5z" />
    <glyph glyph-name="uni0E53" unicode="&#xe53;" horiz-adv-x="454" 
d="M146 254c-11.333 -8.66699 -20.9971 -19.6729 -28.9971 -33.0059c-10.667 -19.333 -16 -44.333 -16 -75c0 -19.333 1.83301 -37.166 5.5 -53.499s8.5 -30.166 14.5 -41.499s12.5 -20.166 19.5 -26.499s13.833 -9.5 20.5 -9.5c3.33301 0 6.33301 0.833008 9 2.5
s5 3.5 7 5.5c4 4 5.66699 9 5 15c0 3.33301 -0.333008 6.16602 -1 8.49902s-1.33398 5.16602 -2.00098 8.49902c-2 4.66699 -3 9.33398 -3 14.001c0 5.33301 2.33301 9 7 11s9 2.66699 13 2c5.33301 -1.33301 10 -2.66602 14 -3.99902c4 -2 7.66699 -4.66699 11 -8
c1.33301 -1.33301 2.66602 -2.5 3.99902 -3.5s2.66602 -2.16699 3.99902 -3.5c5.33301 -7.33301 6.66602 -15.333 3.99902 -24s-6.66699 -16 -12 -22c-8 -8 -18.333 -14.333 -31 -19c-5.33301 -2 -10.5 -3.5 -15.5 -4.5s-11.167 -1.5 -18.5 -1.5
c-10 0 -21.667 2.16699 -35 6.5s-26 12.333 -38 24s-22.333 27.334 -31 47.001s-13 45.167 -13 76.5c0 34.667 9 63.667 27 87c17.333 22 40 39.333 68 52c3.33301 1.33301 6.83301 2.5 10.5 3.5s7.16699 2.16699 10.5 3.5l67 -67l68 67c6 -2 12.667 -4.66699 20 -8
c14 -5.33301 26.5 -12.5 37.5 -21.5s21.167 -19.167 30.5 -30.5s15.5 -24.166 18.5 -38.499s4.5 -30.166 4.5 -47.499v-1v-110c0 -13.333 2 -21.333 6 -24c4.66699 -3.33301 12.334 -5 23.001 -5v-6h-90v146c0 14 -1.16699 26.833 -3.5 38.5s-6.83301 22.5 -13.5 32.5
c-8 13.333 -17.667 24 -29 32l-72 -71z" />
    <glyph glyph-name="uni0E54" unicode="&#xe54;" horiz-adv-x="431" 
d="M286 91c0 -8 2.33301 -17.0049 7 -27.0049s11.5 -18 20.5 -24s20.167 -8.83301 33.5 -8.5s29 7.16602 47 20.499v-16c-5.33301 -9.33301 -14.5 -17.333 -27.5 -24s-27.167 -10.5 -42.5 -11.5s-30.5 1.16699 -45.5 6.5s-27.167 15.666 -36.5 30.999
c-8 -11.333 -19.167 -21.666 -33.5 -30.999s-33.833 -14 -58.5 -14c-21.333 0 -38.333 3.66699 -51 11c-13.333 6.66699 -25 16.334 -35 29.001c-4.66699 6 -8.5 12.667 -11.5 20s-5.83301 15 -8.5 23c-4 16 -6 33 -6 51v28c1.33301 25.333 7.33301 48 18 68
c4.66699 8.66699 10.334 17 17.001 25s14.834 15.333 24.501 22s21.167 12 34.5 16s29 6 47 6c14 0 26.5 -0.5 37.5 -1.5s21.167 -2.16699 30.5 -3.5s18.166 -2.66602 26.499 -3.99902s16.833 -2.33301 25.5 -3c18.667 -1.33301 33.167 -0.166016 43.5 3.50098
s17.833 7.16699 22.5 10.5c8.66699 6 13 14.333 13 25c0 4.66699 -1.66699 9.33398 -5 14.001l-9 9c-2 1.33301 -3.83301 2.5 -5.5 3.5s-3.5 2.16699 -5.5 3.5c-2.66699 2 -6 5 -10 9c-2.66699 4.66699 -3.66699 9 -3 13s2.33398 7.66699 5.00098 11c2 2 5.66699 5 11 9
c3.33301 1.33301 7.66602 2.66602 12.999 3.99902c5.33301 -2 10.666 -7.66699 15.999 -17c4.66699 -10 7.66699 -21.333 9 -34c1.33301 -14 0 -28 -4 -42c-2 -7.33301 -5.5 -15.166 -10.5 -23.499s-12.5 -15.166 -22.5 -20.499c-12 -6.66699 -24.167 -10.834 -36.5 -12.501
s-24.833 -2.16699 -37.5 -1.5s-26 1.83398 -40 3.50098s-28.667 2.5 -44 2.5c-19.333 0 -35.666 -2.83301 -48.999 -8.5s-24 -13 -32 -22s-13.667 -19.167 -17 -30.5s-5 -22.666 -5 -33.999v-26c0 -13.333 1.33301 -25.333 4 -36c3.33301 -12 7.66602 -21.667 12.999 -29
c6 -9.33301 14 -16.333 24 -21c10.667 -5.33301 22.334 -8 35.001 -8c5.33301 0 11.166 1 17.499 3s12.333 5 18 9s10.334 9 14.001 15s5.5 12.667 5.5 20h1c0 3.33301 -0.166992 6.33301 -0.5 9s-0.5 5.66699 -0.5 9v68h88v-7c-10.667 0 -18.334 -1.66699 -23.001 -5
c-4 -3.33301 -6 -11 -6 -23v-42v0z" />
    <glyph glyph-name="uni0E55" unicode="&#xe55;" horiz-adv-x="431" 
d="M288 91c0 -8 2.33008 -17.001 6.99707 -27.001s11.5 -18 20.5 -24s20.167 -8.83301 33.5 -8.5s29 7.16602 47 20.499v-16c-5.33301 -9.33301 -14.666 -17.333 -27.999 -24s-27.666 -10.5 -42.999 -11.5s-30.5 1.33301 -45.5 7s-26.833 16.167 -35.5 31.5
c-8 -12 -19.333 -22.667 -34 -32s-34.334 -14 -59.001 -14c-9.33301 0 -18.333 0.833008 -27 2.5s-16.667 4.5 -24 8.5c-14.667 7.33301 -26 17 -34 29c-9.33301 12 -16 26.333 -20 43c-4.66699 14.667 -7 31.667 -7 51v28c1.33301 25.333 7.33301 48 18 68
c4.66699 8.66699 10.334 17 17.001 25s15 15.333 25 22s21.667 12 35 16s29 6 47 6c17.333 0 33.666 -1 48.999 -3c4.66699 0 9.5 1.83301 14.5 5.5s7.5 9.5 7.5 17.5c0 6 -2 11.333 -6 16s-9.33301 7 -16 7c-8.66699 0 -15 -2.83301 -19 -8.5s-5.33301 -12.167 -4 -19.5
l-9 -6c-4 4 -6.66699 9.16699 -8 15.5s-1.16602 12.5 0.500977 18.5s4.66699 11.667 9 17s10.166 9.33301 17.499 12c10 3.33301 19.5 4.16602 28.5 2.49902s16.833 -5.16699 23.5 -10.5s12 -12.166 16 -20.499s6 -17.5 6 -27.5c0 -10.667 -3 -19.334 -9 -26.001
c3.33301 -0.666992 6.5 -1 9.5 -1s6.16699 -0.333008 9.5 -1c18.667 -1.33301 33 -0.166016 43 3.50098s17.333 7.16699 22 10.5c8.66699 6 13 14.333 13 25c0 6 -1.33301 10.667 -4 14c-4 4 -7.33301 7 -10 9c-1.33301 1.33301 -3 2.5 -5 3.5s-4 2.16699 -6 3.5l-4.5 4.5
l-4.5 4.5c-3.33301 6 -4.66602 10.333 -3.99902 13c1.33301 4.66699 3.33301 8.33398 6 11.001c2 2.66699 5.66699 5.66699 11 9c2 1.33301 4.16699 2.16602 6.5 2.49902s4.16602 0.833008 5.49902 1.5c6.66699 -2 12 -7.66699 16 -17c4.66699 -10 7.66699 -21.333 9 -34
c1.33301 -14 0 -28 -4 -42c-1.33301 -7.33301 -4.66602 -15.166 -9.99902 -23.499s-12.666 -15.166 -21.999 -20.499c-12 -6.66699 -24.167 -10.834 -36.5 -12.501s-25 -2.16699 -38 -1.5s-26.333 1.83398 -40 3.50098s-28.5 2.5 -44.5 2.5
c-19.333 0 -35.5 -2.83301 -48.5 -8.5s-23.5 -13 -31.5 -22s-13.833 -19.167 -17.5 -30.5s-5.5 -22.666 -5.5 -33.999v-26c0 -6 0.333008 -12 1 -18s1.66699 -12 3 -18c2.66699 -10.667 7.33398 -20.334 14.001 -29.001c6 -9.33301 14 -16.333 24 -21
c9.33301 -5.33301 20.666 -8 33.999 -8c6 0 12.167 1 18.5 3s12.333 5 18 9s10.334 9 14.001 15s5.5 12.667 5.5 20h1c0 3.33301 -0.166992 6.33301 -0.5 9s-0.5 5.66699 -0.5 9v68h88v-7c-10.667 0 -18.334 -1.66699 -23.001 -5c-4 -3.33301 -6 -11 -6 -23v-42v0z" />
    <glyph glyph-name="uni0E56" unicode="&#xe56;" horiz-adv-x="413" 
d="M182 274c32 4.66699 59.8271 4.00586 83.4941 -1.99414s43.334 -15.333 59.001 -28s27.667 -27.667 36 -45s13.166 -35 14.499 -53c2 -20.667 -0.833008 -40.334 -8.5 -59.001s-18.834 -35 -33.501 -49s-32.334 -25.167 -53.001 -33.5s-43 -12.5 -67 -12.5
c-5.33301 0 -13.166 0.5 -23.499 1.5s-21.833 3.5 -34.5 7.5s-25.5 9.66699 -38.5 17s-24.5 17.666 -34.5 30.999c-6.66699 8.66699 -11 18 -13 28s-1.5 20 1.5 30s8.33301 19.5 16 28.5s18.167 16.5 31.5 22.5c11.333 5.33301 22.5 8.5 33.5 9.5s21.167 0.833008 30.5 -0.5
c10.667 -1.33301 20.667 -3.33301 30 -6l-1 -18c-8 1.33301 -15.667 1.33301 -23 0c-6.66699 -1.33301 -13.834 -3.33301 -21.501 -6s-15.167 -7 -22.5 -13c-8.66699 -8 -14 -18 -16 -30s-0.333008 -23.5 5 -34.5s14.5 -20.5 27.5 -28.5s30.5 -12 52.5 -12
c11.333 0 23 2.33301 35 7s22.833 12 32.5 22s17.334 22.667 23.001 38s7.83398 34 6.50098 56c-0.666992 6.66699 -2.16699 14.167 -4.5 22.5s-6.16602 16.666 -11.499 24.999s-12.5 16.5 -21.5 24.5s-20.5 15 -34.5 21c-21.333 9.33301 -43.5 12.166 -66.5 8.49902
s-43.833 -9.83398 -62.5 -18.501v17c10.667 10.667 17.834 22.667 21.501 36s5.66699 26.166 6 38.499s-0.666992 23.166 -3 32.499s-4.16602 15 -5.49902 17c-6 8.66699 -14.667 13 -26 13c-5.33301 0 -9.66602 -1.66699 -12.999 -5
c-3.33301 -1.33301 -6.33301 -4.33301 -9 -9c-1.33301 -2 -2.66602 -3.83301 -3.99902 -5.5s-2.66602 -3.5 -3.99902 -5.5c-1.33301 -2.66699 -4 -6 -8 -10c-5.33301 -3.33301 -10 -4.33301 -14 -3c-2.66699 0.666992 -6 2.33398 -10 5.00098c-2 1.33301 -3.66699 3 -5 5
l-4 6c-1.33301 2.66699 -2.33301 5 -3 7s-1 4 -1 6c2 6 7.66699 11.333 17 16c10 5.33301 21.333 8.33301 34 9c14 1.33301 28 0 42 -4c7.33301 -2 14.5 -4.83301 21.5 -8.5s13.5 -8.5 19.5 -14.5c9.33301 -10 16.5 -22.833 21.5 -38.5s4.83301 -34.167 -0.5 -55.5z" />
    <glyph glyph-name="uni0E57" unicode="&#xe57;" horiz-adv-x="641" 
d="M283 0l-0.00683594 12.9893c10 7.33301 18.667 17 26 29c6.66699 10.667 12.667 24.334 18 41.001s8 37.667 8 63c0 8.66699 -1.83301 20.167 -5.5 34.5s-8.5 26.5 -14.5 36.5c-9.33301 14 -19.333 24.667 -30 32l-68 -67l-72 72c-10.667 -7.33301 -20 -18.333 -28 -33
c-10.667 -19.333 -16 -44.333 -16 -75c0 -19.333 1.83301 -37.166 5.5 -53.499s8.33398 -30.166 14.001 -41.499s12 -20.166 19 -26.499s13.833 -9.5 20.5 -9.5c4 0 7.33301 0.833008 10 2.5s5 3.5 7 5.5c4 4 5.66699 9 5 15
c-1.33301 6.66699 -2.66602 12.334 -3.99902 17.001c-1.33301 6.66699 -2 11.334 -2 14.001c-1.33301 5.33301 0.666992 9 6 11s10 2.66699 14 2c2 -0.666992 4.16699 -1.16699 6.5 -1.5s4.5 -1.16602 6.5 -2.49902c4 -2 7.66699 -4.66699 11 -8
c2.66699 -2 5.33398 -4.33301 8.00098 -7c5.33301 -6.66699 7 -14.667 5 -24c-3.33301 -9.33301 -7.66602 -16.666 -12.999 -21.999c-8.66699 -8.66699 -18.667 -15 -30 -19c-5.33301 -2 -10.5 -3.5 -15.5 -4.5s-11.167 -1.5 -18.5 -1.5c-10 0 -21.667 2.16699 -35 6.5
s-26.166 12.333 -38.499 24s-22.666 27.334 -30.999 47.001s-12.5 45.167 -12.5 76.5c0 34.667 9 63.667 27 87c18 22.667 40.667 40 68 52c3.33301 1.33301 6.66602 2.5 9.99902 3.5s6.66602 2.16699 9.99902 3.5l64 -63l63 63l10.5 -4l10.5 -4
c26.667 -10.667 49.334 -28 68.001 -52c9.33301 -11.333 16.166 -24.166 20.499 -38.499s6.5 -31.833 6.5 -52.5c0 -19.333 -2.83301 -36.166 -8.5 -50.499s-11.834 -26.166 -18.501 -35.499c-8 -11.333 -17 -20.666 -27 -27.999c18.667 0 34.167 4.66699 46.5 14
s22.333 21.166 30 35.499s13 30.5 16 48.5s4.5 36 4.5 54v59c0 32.667 4 59.667 12 81s18.333 37.666 31 48.999c13.333 12.667 27.333 20.334 42 23.001c14.667 4 28.334 5 41.001 3c14 -1.33301 25.333 -4.33301 34 -9c10.667 -5.33301 16.334 -10.666 17.001 -15.999
c0 -2 -0.333008 -4 -1 -6s-1.66699 -4.33301 -3 -7l-4 -6c-1.33301 -2 -3 -3.66699 -5 -5c-3.33301 -2.66699 -7 -4.33398 -11 -5.00098c-4 -1.33301 -8.33301 0 -13 4c-2.66699 1.33301 -5.33398 4.33301 -8.00098 9l-4 6c-1.33301 2 -2.66602 3.66699 -3.99902 5
c-2 3.33301 -5 6.66602 -9 9.99902c-3.33301 3.33301 -7.66602 5 -12.999 5c-11.333 0 -20 -4.33301 -26 -13c-5.33301 -8 -9.66602 -18.667 -12.999 -32c-1.33301 -6 -2.33301 -12.167 -3 -18.5s-1 -12.833 -1 -19.5c-0.666992 -6 -1 -11.5 -1 -16.5v-12.5v-98
c0 -21.333 -2.33301 -42.166 -7 -62.499s-12.5 -38.333 -23.5 -54s-25.667 -28.334 -44 -38.001s-41.5 -14.5 -69.5 -14.5h-71z" />
    <glyph glyph-name="uni0E58" unicode="&#xe58;" horiz-adv-x="430" 
d="M205 -8c-3.33301 0 -9.83301 0.333984 -19.5 1.00098s-20.667 2.5 -33 5.5s-25.333 7.5 -39 13.5s-26.167 14 -37.5 24s-20.666 22.333 -27.999 37s-11 32.667 -11 54v28c1.33301 25.333 7.33301 48 18 68c4.66699 8.66699 10.334 17 17.001 25s15 15.333 25 22
s21.667 12 35 16s29 6 47 6c27.333 0 49.833 -1.83301 67.5 -5.5s35.167 -5.83398 52.5 -6.50098c18.667 -1.33301 33 -0.166016 43 3.50098s17.333 7.16699 22 10.5c8.66699 6 13 14.333 13 25c0 6 -1.33301 10.667 -4 14c-4 4 -7.33301 7 -10 9
c-1.33301 1.33301 -3 2.5 -5 3.5s-4 2.16699 -6 3.5l-4.5 4.5l-4.5 4.5c-3.33301 6 -4.66602 10.333 -3.99902 13c1.33301 4.66699 3.33301 8.33398 6 11.001c2 2.66699 5.66699 5.66699 11 9c2.66699 1.33301 6.66699 2.66602 12 3.99902c6.66699 -2 12 -7.66699 16 -17
c4.66699 -10 7.66699 -21.333 9 -34c1.33301 -14 0 -28 -4 -42c-1.33301 -7.33301 -4.66602 -15.166 -9.99902 -23.499s-12.666 -15.166 -21.999 -20.499c-12 -6.66699 -24.167 -10.834 -36.5 -12.501s-25 -2.16699 -38 -1.5s-26.333 1.83398 -40 3.50098
s-28.5 2.5 -44.5 2.5c-19.333 0 -35.666 -2.83301 -48.999 -8.5s-24 -13 -32 -22s-13.667 -19.167 -17 -30.5s-5 -22.666 -5 -33.999v-26c0 -19.333 4.83301 -35.333 14.5 -48s20.667 -22.667 33 -30s24.166 -12.5 35.499 -15.5s18.666 -4.5 21.999 -4.5l54 53l53 -53
c7.33301 4 14 9.33301 20 16c5.33301 5.33301 10.166 12 14.499 20s6.5 17.333 6.5 28c0 11.333 -2 20.666 -6 27.999s-8.83301 13 -14.5 17s-11.167 6.83301 -16.5 8.5s-9.33301 2.5 -12 2.5c-6.66699 0 -11.334 -2.33301 -14.001 -7c-4 -5.33301 -7.33301 -10 -10 -14
c-1.33301 -3.33301 -4 -7.66602 -8 -12.999c-2.66699 -2.66699 -7 -3.66699 -13 -3c-4.66699 2.66699 -8 5.66699 -10 9c-2.66699 2.66699 -5 6.66699 -7 12c-0.666992 3.33301 -1.66699 7.66602 -3 12.999c-0.666992 8 0.5 14.667 3.5 20s6.5 9 10.5 11
c8 3.33301 16 5.66602 24 6.99902c7.33301 0.666992 17.666 0.166992 30.999 -1.5s26.666 -5.83398 39.999 -12.501s25 -16.834 35 -30.501s15 -32.5 15 -56.5c0 -14.667 -3.66699 -27.667 -11 -39s-15.833 -20.833 -25.5 -28.5s-19.5 -13.667 -29.5 -18
s-18 -6.83301 -24 -7.5l-49 49z" />
    <glyph glyph-name="uni0E59" unicode="&#xe59;" horiz-adv-x="418" 
d="M355 22c1.33301 -2.66699 3.33301 -5.00977 6 -7.00977c4.66699 -4.66699 11.667 -7 21 -7v-8h-60l-181 247l-12 -10c-4 -3.33301 -8 -8.66602 -12 -15.999c-10.667 -19.333 -16 -44.333 -16 -75c0 -19.333 1.83301 -37.166 5.5 -53.499s8.5 -30.166 14.5 -41.499
s12.5 -20.166 19.5 -26.499s13.833 -9.5 20.5 -9.5c3.33301 0 6.33301 0.833008 9 2.5s5 3.5 7 5.5c4 4 5.66699 9 5 15c-0.666992 3.33301 -1.16699 6.16602 -1.5 8.49902s-0.833008 5.16602 -1.5 8.49902c-2 4.66699 -3 9.33398 -3 14.001c-1.33301 5.33301 1 9 7 11
c4.66699 2 9 2.66699 13 2c2 -0.666992 4.16699 -1.16699 6.5 -1.5s4.5 -1.16602 6.5 -2.49902c2.66699 -1.33301 4.83398 -2.66602 6.50098 -3.99902s3.5 -2.66602 5.5 -3.99902l7 -7c6 -7.33301 7.66699 -15.333 5 -24
c-3.33301 -9.33301 -7.66602 -16.666 -12.999 -21.999c-8.66699 -8.66699 -18.667 -15 -30 -19c-5.33301 -2 -10.5 -3.5 -15.5 -4.5s-11.167 -1.5 -18.5 -1.5c-10 0 -21.667 2.16699 -35 6.5s-26 12.333 -38 24s-22.333 27.334 -31 47.001s-13 45.167 -13 76.5
c0 34.667 9 63.667 27 87c18 22.667 40.667 40 68 52c3.33301 1.33301 6.66602 2.5 9.99902 3.5s6.66602 2.16699 9.99902 3.5l45 -60c0.666992 17.333 7.5 31.666 20.5 42.999s27.167 17 42.5 17c8 0 15.5 -1.33301 22.5 -4s13.167 -5.66699 18.5 -9
c6 -3.33301 11.667 -7.33301 17 -12c5.33301 2 10.666 5.33301 15.999 10c4 4 8.16699 9.16699 12.5 15.5s7.5 14.833 9.5 25.5s-1 20 -9 28c-4 4 -8.33301 6 -13 6c-4.66699 1.33301 -9 1.33301 -13 0c-5.33301 -1.33301 -9.66602 -2.33301 -12.999 -3
c-2 0 -4.16699 -0.166992 -6.5 -0.5s-4.5 -0.166016 -6.5 0.500977c-5.33301 1.33301 -9.33301 3.66602 -12 6.99902c-2 2.66699 -3 6.33398 -3 11.001c-0.666992 2.66699 -0.333984 7.33398 0.999023 14.001c2 4.66699 4 8.66699 6 12c6 2.66699 14 2.33398 24 -0.999023
c10 -4 20 -10 30 -18c9.33301 -8 18.333 -18.667 27 -32c8 -13.333 12 -28.333 12 -45c0 -14.667 -3.33301 -27.167 -10 -37.5s-13.667 -18.833 -21 -25.5c-9.33301 -7.33301 -19.666 -13.666 -30.999 -18.999c-6.66699 9.33301 -16 17.166 -28 23.499
s-23.667 6.83301 -35 1.5c-6 -3.33301 -10.5 -7.83301 -13.5 -13.5s-5 -11.667 -6 -18s-1 -12.833 0 -19.5s2.83301 -12 5.5 -16l3 -5l109 -146v0z" />
    <glyph glyph-name="uni0E5A" unicode="&#xe5a;" horiz-adv-x="549" 
 />
    <glyph glyph-name="uni0E5B" unicode="&#xe5b;" horiz-adv-x="697" 
 />
    <glyph glyph-name="endash" unicode="&#x2013;" horiz-adv-x="360" 
d="M21 165v33h317v-33h-317z" />
    <glyph glyph-name="emdash" unicode="&#x2014;" horiz-adv-x="720" 
d="M22 165v33h673v-33h-673z" />
    <glyph glyph-name="quoteleft" unicode="&#x2018;" horiz-adv-x="247" 
d="M108 408c0.666992 0 1.33398 0.166016 2.00098 0.499023s1.66699 0.5 3 0.5c9.33301 0 17.666 -3.66699 24.999 -11s11 -15.666 11 -24.999c0 -11.333 -3.83301 -20.666 -11.5 -27.999s-16.167 -11 -25.5 -11c-11.333 0 -20.666 3.66699 -27.999 11
s-11 16.666 -11 27.999c0 24 4 44.667 12 62s16.833 31.833 26.5 43.5s18.667 20.5 27 26.5s13.166 9.33301 14.499 10l15 -17c-14.667 -9.33301 -28 -22 -40 -38s-18.667 -33.333 -20 -52z" />
    <glyph glyph-name="quoteright" unicode="&#x2019;" horiz-adv-x="160" 
d="M66 311l-6 11c9.33301 5.33301 17.833 13.5 25.5 24.5s11.5 21.833 11.5 32.5c0 1.33301 -0.666992 3 -2 5s-2.66602 3.33301 -3.99902 4c-1.33301 0 -2.33301 0.166992 -3 0.5s-1.33398 0.5 -2.00098 0.5l-13 -1c-8 0 -15.667 2.66699 -23 8
c-6.66699 4.66699 -10 12.334 -10 23.001c0 8 2.66699 15.667 8 23c6 8 15.333 12 28 12s24 -5 34 -15s15 -23.667 15 -41c0 -10.667 -2.33301 -20.834 -7 -30.501s-10.167 -18.5 -16.5 -26.5s-12.833 -14.5 -19.5 -19.5s-12 -8.5 -16 -10.5z" />
    <glyph glyph-name="quotesinglbase" unicode="&#x201a;" horiz-adv-x="126" 
d="M108 29c0 -24 -3.99805 -44.665 -11.998 -61.998s-16.833 -31.833 -26.5 -43.5s-18.834 -20.334 -27.501 -26.001s-13.334 -8.83398 -14.001 -9.50098l-15 17c14.667 9.33301 28 22 40 38s18.667 33.333 20 52c-5.33301 -2 -10 -3 -14 -3
c-11.333 0 -20.833 3.83301 -28.5 11.5s-11.5 16.5 -11.5 26.5c0 12 4.16699 22.167 12.5 30.5s18.5 12.5 30.5 12.5s22.667 -4.16699 32 -12.5s14 -18.833 14 -31.5z" />
    <glyph glyph-name="quotedblleft" unicode="&#x201c;" horiz-adv-x="299" 
d="M254 368c6.66699 -4.66699 10.001 -12.332 10.001 -22.999c0 -8 -2.66699 -15.667 -8 -23s-15 -11 -29 -11c-12.667 0 -23.667 4.66699 -33 14c-10 10 -15 23.667 -15 41c0 10.667 2.33301 21 7 31s10.167 18.833 16.5 26.5s12.833 14.167 19.5 19.5s12 9 16 11l6 -12
c-9.33301 -5.33301 -17.833 -13.5 -25.5 -24.5s-11.5 -21.833 -11.5 -32.5c0 -1.33301 0.666992 -2.83301 2 -4.5s2.66602 -2.83398 3.99902 -3.50098s3 -1 5 -1l13 1c8 0 15.667 -3 23 -9zM114.001 368.002c6.66699 -5.33301 10 -12.998 10 -22.998
c0 -8.66699 -3 -16.334 -9 -23.001c-4.66699 -7.33301 -14 -11 -28 -11c-12.667 0 -23.667 4.66699 -33 14c-10 10 -15 23.667 -15 41c0 10.667 2.33301 21 7 31s10.167 18.833 16.5 26.5s12.833 14.167 19.5 19.5s12 9 16 11l6 -12
c-9.33301 -5.33301 -17.833 -13.5 -25.5 -24.5s-11.5 -21.833 -11.5 -32.5c0 -1.33301 0.666992 -2.83301 2 -4.5s2.33301 -2.83398 3 -3.50098c1.33301 -0.666992 3.33301 -1 6 -1l13 1c8 0 15.667 -3 23 -9z" />
    <glyph glyph-name="quotedblright" unicode="&#x201d;" horiz-adv-x="300" 
d="M76 454c12 0 23 -4.99902 33 -14.999s15 -23.667 15 -41c0 -10.667 -2.33301 -20.834 -7 -30.501s-10.167 -18.5 -16.5 -26.5s-12.833 -14.5 -19.5 -19.5s-12 -8.5 -16 -10.5l-5 11c9.33301 5.33301 17.666 13.5 24.999 24.5s11 21.833 11 32.5
c0 1.33301 -0.666992 3 -2 5s-2.33301 3.33301 -3 4c-1.33301 0 -2.33301 0.166992 -3 0.5s-1.66699 0.5 -3 0.5l-13 -1c-7.33301 0 -14.666 2.66699 -21.999 8s-11 13 -11 23c0 8 3 15.667 9 23c6 8 15.333 12 28 12zM250 439.001
c9.33301 -10.667 13.999 -24.333 13.999 -41c0 -10.667 -2.33301 -20.834 -7 -30.501s-10.167 -18.5 -16.5 -26.5s-12.833 -14.5 -19.5 -19.5s-12 -8.5 -16 -10.5l-5 11c9.33301 5.33301 17.833 13.5 25.5 24.5s11.5 21.833 11.5 32.5c0 1.33301 -0.666992 3 -2 5
s-2.66602 3.33301 -3.99902 4c-1.33301 0 -2.33301 0.166992 -3 0.5s-1.66699 0.5 -3 0.5l-12 -1c-8 0 -15.667 2.66699 -23 8c-6.66699 4.66699 -10 12.334 -10 23.001c0 9.33301 2.66699 17 8 23c6 8 15.333 12 28 12s24 -5 34 -15z" />
    <glyph glyph-name="quotedblbase" unicode="&#x201e;" horiz-adv-x="268" 
d="M243 29c0 -24 -3.99805 -44.665 -11.998 -61.998s-16.833 -31.833 -26.5 -43.5s-18.834 -20.334 -27.501 -26.001s-13.334 -8.83398 -14.001 -9.50098l-15 17c14.667 9.33301 28 22 40 38s18.667 33.333 20 52c-5.33301 -2 -10 -3 -14 -3
c-11.333 0 -20.833 3.83301 -28.5 11.5s-11.5 16.5 -11.5 26.5c0 12 4.16699 22.167 12.5 30.5s18.5 12.5 30.5 12.5s22.667 -4.16699 32 -12.5s14 -18.833 14 -31.5zM108.002 29.002c0 -24 -3.99805 -44.665 -11.998 -61.998s-16.833 -31.833 -26.5 -43.5
s-18.834 -20.334 -27.501 -26.001s-13.334 -8.83398 -14.001 -9.50098l-15 17c14.667 9.33301 28 22 40 38s18.667 33.333 20 52c-5.33301 -2 -10 -3 -14 -3c-11.333 0 -20.833 3.83301 -28.5 11.5s-11.5 16.5 -11.5 26.5c0 12 4.16699 22.167 12.5 30.5
s18.5 12.5 30.5 12.5s22.667 -4.16699 32 -12.5s14 -18.833 14 -31.5z" />
    <glyph glyph-name="dagger" unicode="&#x2020;" horiz-adv-x="382" 
 />
    <glyph glyph-name="daggerdbl" unicode="&#x2021;" horiz-adv-x="382" 
 />
    <glyph glyph-name="bullet" unicode="&#x2022;" horiz-adv-x="349" 
d="M175 117c-16.667 0 -32.334 3.16699 -47.001 9.5s-27.334 14.833 -38.001 25.5s-19 23.167 -25 37.5s-9 29.833 -9 46.5s3 32.167 9 46.5s14.333 26.833 25 37.5s23.334 19 38.001 25s30.334 9 47.001 9s32.167 -3 46.5 -9s26.833 -14.333 37.5 -25s19 -23.167 25 -37.5
s9 -29.833 9 -46.5s-3 -32.167 -9 -46.5s-14.333 -26.833 -25 -37.5s-23.167 -19.167 -37.5 -25.5s-29.833 -9.5 -46.5 -9.5z" />
    <glyph glyph-name="ellipsis" unicode="&#x2026;" horiz-adv-x="720" 
d="M84 26c0 11.333 3.66699 20.5 11 27.5s15.666 10.5 24.999 10.5c11.333 0 20.666 -3.5 27.999 -10.5s11 -16.167 11 -27.5c0 -10 -3.66699 -18.5 -11 -25.5s-16.666 -10.5 -27.999 -10.5c-9.33301 0 -17.666 3.5 -24.999 10.5s-11 15.5 -11 25.5zM320 26
c0 11.333 3.66699 20.5 11 27.5s15.666 10.5 24.999 10.5c11.333 0 20.666 -3.5 27.999 -10.5s11 -16.167 11 -27.5c0 -10 -3.66699 -18.5 -11 -25.5s-16.666 -10.5 -27.999 -10.5c-9.33301 0 -17.666 3.5 -24.999 10.5s-11 15.5 -11 25.5zM557 26
c0 11.333 3.66699 20.5 11 27.5s15.666 10.5 24.999 10.5c11.333 0 20.666 -3.5 27.999 -10.5s11 -16.167 11 -27.5c0 -10 -3.66699 -18.5 -11 -25.5s-16.666 -10.5 -27.999 -10.5c-9.33301 0 -17.666 3.5 -24.999 10.5s-11 15.5 -11 25.5z" />
    <glyph glyph-name="perthousand" unicode="&#x2030;" horiz-adv-x="832" 
 />
    <glyph glyph-name="minute" unicode="&#x2032;" horiz-adv-x="130" 
 />
    <glyph glyph-name="second" unicode="&#x2033;" horiz-adv-x="217" 
 />
    <glyph glyph-name="guilsinglleft" unicode="&#x2039;" horiz-adv-x="187" 
 />
    <glyph glyph-name="guilsinglright" unicode="&#x203a;" horiz-adv-x="187" 
 />
    <glyph glyph-name="fraction" unicode="&#x2044;" horiz-adv-x="106" 
 />
    <glyph glyph-name="Euro" unicode="&#x20ac;" horiz-adv-x="483" 
 />
    <glyph glyph-name="uni2113" unicode="&#x2113;" horiz-adv-x="213" 
 />
    <glyph glyph-name="trademark" unicode="&#x2122;" horiz-adv-x="570" 
 />
    <glyph glyph-name="Ohm" unicode="&#x2126;" horiz-adv-x="463" 
 />
    <glyph glyph-name="estimated" unicode="&#x212e;" horiz-adv-x="319" 
 />
    <glyph glyph-name="partialdiff" unicode="&#x2202;" horiz-adv-x="323" 
 />
    <glyph glyph-name="Delta" unicode="&#x2206;" horiz-adv-x="397" 
 />
    <glyph glyph-name="product" unicode="&#x220f;" horiz-adv-x="480" 
 />
    <glyph glyph-name="summation" unicode="&#x2211;" horiz-adv-x="518" 
 />
    <glyph glyph-name="minus" unicode="&#x2212;" horiz-adv-x="337" 
 />
    <glyph glyph-name="radical" unicode="&#x221a;" horiz-adv-x="352" 
 />
    <glyph glyph-name="infinity" unicode="&#x221e;" horiz-adv-x="630" 
 />
    <glyph glyph-name="integral" unicode="&#x222b;" horiz-adv-x="247" 
 />
    <glyph glyph-name="approxequal" unicode="&#x2248;" horiz-adv-x="389" 
 />
    <glyph glyph-name="notequal" unicode="&#x2260;" horiz-adv-x="350" 
 />
    <glyph glyph-name="lessequal" unicode="&#x2264;" horiz-adv-x="351" 
 />
    <glyph glyph-name="greaterequal" unicode="&#x2265;" horiz-adv-x="351" 
 />
    <glyph glyph-name="lozenge" unicode="&#x25ca;" horiz-adv-x="394" 
 />
    <glyph glyph-name="dottedcircle" unicode="&#x25cc;" horiz-adv-x="408" 
 />
    <glyph glyph-name="uni0E10.alt1" unicode="&#xf700;" horiz-adv-x="317" 
d="M363 514c10.667 -5.33301 16.332 -10.6689 16.999 -16.002c0 -4.66699 -1.33301 -8.66699 -4 -12c-2 -5.33301 -4.66699 -9 -8 -11c-2.66699 -2.66699 -6.33398 -4.66699 -11.001 -6s-9 0 -13 4c-4 2 -7 5 -9 9c-1.33301 2 -2.5 4 -3.5 6s-2.16699 3.66699 -3.5 5
c-2.66699 4 -6 7.33301 -10 10c-2.66699 2.66699 -7 4 -13 4c-11.333 0 -20 -4.33301 -26 -13c-2.66699 -4.66699 -5 -9.66699 -7 -15s-3.66699 -11 -5 -17c-2.66699 -11.333 -4 -24 -4 -38v-29l-1 -137v-223c0 -12 2 -20 6 -24c3.33301 -2.66699 11 -4 23 -4v-7h-89l1 98
c0 12.667 -3.66699 24.667 -11 36c-1.33301 2 -3 4.33301 -5 7s-4.33301 5.33398 -7 8.00098c-4 5.33301 -9.33301 11 -16 17c-3.33301 3.33301 -6.33301 6 -9 8s-5.66699 4 -9 6c-6 4 -11.667 6 -17 6c-6 0 -10.667 -2.33301 -14 -7c-4.66699 -6 -7.66699 -10.667 -9 -14
c-1.33301 -2.66699 -2.83301 -5 -4.5 -7s-3.16699 -4 -4.5 -6c-3.33301 -3.33301 -7.33301 -4.33301 -12 -3c-3.33301 1.33301 -7 4 -11 8c-3.33301 4 -5.33301 8.33301 -6 13c-2 4.66699 -3 9 -3 13c0 2.66699 -0.166992 4.83398 -0.5 6.50098s-0.5 3.16699 -0.5 4.5
c2 10 7 16.667 15 20c8 4 15.667 6 23 6c14 0 25.667 -2.33301 35 -7c5.33301 -2.66699 10.333 -5.66699 15 -9s9.33398 -7 14.001 -11c6.66699 -6.66699 14 -15.667 22 -27c6 -9.33301 11 -18.333 15 -27l1 118v11v17c0 12.667 -3 24.667 -9 36
c-5.33301 8.66699 -13 17 -23 25c-9.33301 6.66699 -20 11.334 -32 14.001c-6 2 -12 3.33301 -18 4s-12 1 -18 1c-7.33301 0 -14.333 -1 -21 -3l-23 -10l-11.5 -6l-10.5 -6c-3.33301 -2.66699 -6.5 -5 -9.5 -7s-5.83301 -4 -8.5 -6l-8 5l8.5 8.5
c2.33301 2.33301 4.83301 5.16602 7.5 8.49902l8.5 7l8.5 7c13.333 10.667 27.666 18.667 42.999 24c14.667 5.33301 30.334 8 47.001 8c26.667 0 50 -4.66699 70 -14c0.666992 24.667 4.33398 46.667 11.001 66c8 20.667 18.333 37 31 49c6 6 12.5 10.833 19.5 14.5
s14.167 6.5 21.5 8.5c13.333 4 27 5.33301 41 4c12.667 -0.666992 24 -3.66699 34 -9z" />
    <glyph glyph-name="uni0E34.alt1" unicode="&#xf701;" 
d="M-137 448h-298v11l64 33h234v-44z" />
    <glyph glyph-name="uni0E35.alt1" unicode="&#xf702;" 
d="M-185 494v42l38 46h8v-132h-298v11l64 33h188v0z" />
    <glyph glyph-name="uni0E36.alt1" unicode="&#xf703;" 
d="M-200 450l-236 -0.00195312v11l63 33h166c4.66699 0 9.66699 1.83301 15 5.5s8 9.16699 8 16.5c0 6 -2.16699 11.5 -6.5 16.5s-9.83301 7.5 -16.5 7.5c-8 0 -14.167 -3 -18.5 -9s-5.83301 -12.667 -4.5 -20l-9 -5c-8 8.66699 -10.333 19.834 -7 33.501
s12.333 23.167 27 28.5c10 3.33301 19.667 4.33301 29 3s17.833 -4.66602 25.5 -9.99902s13.667 -12.333 18 -21s6.5 -18 6.5 -28c0 -18 -6.5 -32.833 -19.5 -44.5s-26.5 -17.5 -40.5 -17.5z" />
    <glyph glyph-name="uni0E37.alt1" unicode="&#xf704;" 
d="M-148 582h7v-132v0h-298v11l64 33v0h118v42l38 46h8v-88h25v42l38 46v0z" />
    <glyph glyph-name="uni0E48.alt1" unicode="&#xf705;" 
d="M-198 451l-4 98h55l-4 -98h-47v0z" />
    <glyph glyph-name="uni0E49.alt1" unicode="&#xf706;" 
d="M-148 550c-0.666992 -18.667 -4.66699 -35.334 -12 -50.001c-6 -12.667 -15.833 -24.167 -29.5 -34.5s-33.5 -15.5 -59.5 -15.5h-92v7c12 0 20 2 24 6c4.66699 2.66699 7 11.334 7 26.001v22c0 13.333 -2.33301 22 -7 26c-3.33301 3.33301 -11.333 5 -24 5v8h83v-80
c10 0 19 2.66699 27 8c7.33301 4.66699 13.833 12.5 19.5 23.5s8.5 27.167 8.5 48.5h55z" />
    <glyph glyph-name="uni0E4A.alt1" unicode="&#xf707;" 
d="M-298 550l17.001 -15.998l16 16c8.66699 -2 16.667 -5 24 -9c6 -3.33301 11.667 -8.33301 17 -15s8 -15.334 8 -26.001v-25c4 0.666992 7.66699 3 11 7c2.66699 3.33301 5.16699 8.33301 7.5 15s3.5 16 3.5 28v25h52v-5c-2 0 -3.66699 -0.666992 -5 -2
c-3.33301 -2 -5 -5.33301 -5 -10c0 -25.333 -7.83301 -45.5 -23.5 -60.5s-40.5 -22.5 -74.5 -22.5v49c0 5.33301 -0.833008 9.5 -2.5 12.5s-3.16699 5.5 -4.5 7.5c-2 2.66699 -4 4.33398 -6 5.00098l-18 -19l-17 17c-3.33301 -0.666992 -6.33301 -2.33398 -9 -5.00098
c-2 -2 -3.83301 -4.5 -5.5 -7.5s-2.5 -6.5 -2.5 -10.5c0 -11.333 4.66699 -19.333 14 -24s18 -3.66699 26 3l7 -6c-2 -4.66699 -4.66699 -8.33398 -8 -11.001c-3.33301 -3.33301 -7.33301 -6 -12 -8s-10.667 -3 -18 -3c-12 0 -22 4.83301 -30 14.5s-12 21.167 -12 34.5
c0 12 2.5 21.333 7.5 28s10.833 11.667 17.5 15c7.33301 4 15.666 6.66699 24.999 8z" />
    <glyph glyph-name="uni0E4B.alt1" unicode="&#xf708;" 
d="M-136 535v-46l-47 4l5 -45h-46l4 45l-47 -4v46l47 -4l-4 48h46l-5 -48l47 4v0z" />
    <glyph glyph-name="uni0E4C.alt1" unicode="&#xf709;" 
d="M11 559l-0.999023 -10.9951l-64 -33h-105h-49c-12 -0.666992 -19.333 -4.33398 -22 -11.001s-1.33398 -11.334 3.99902 -14.001c8.66699 -4.66699 15.834 -10.334 21.501 -17.001s9 -13.167 10 -19.5s-1 -12 -6 -17s-13.833 -7.83301 -26.5 -8.5
c-6.66699 3.33301 -12.334 8 -17.001 14c-4.66699 5.33301 -8.66699 11.666 -12 18.999s-5 16.666 -5 27.999c0 20 8.33301 37 25 51s42 21 76 21z" />
    <glyph glyph-name="uni0E48.alt2" unicode="&#xf70a;" 
d="M-97 450l-4 98h55l-4 -98h-47v0z" />
    <glyph glyph-name="uni0E49.alt2" unicode="&#xf70b;" 
d="M2 548c-0.666992 -18.667 -4.66699 -35.335 -12 -50.002c-6 -12.667 -16 -24 -30 -34s-34 -15 -60 -15h-91v7c12 0 20 2 24 6c4.66699 2.66699 7 11.334 7 26.001v22c0 13.333 -2.33301 22 -7 26c-3.33301 3.33301 -11.333 5 -24 5v7h82v-79c10.667 0 20 2.66699 28 8
c7.33301 4.66699 13.833 12.334 19.5 23.001s8.5 26.667 8.5 48h55z" />
    <glyph glyph-name="uni0E4A.alt2" unicode="&#xf70c;" 
d="M-158 549l16.002 -16.9971l17 17c8.66699 -2 16.667 -5 24 -9c6 -3.33301 11.667 -8.33301 17 -15s8 -15.334 8 -26.001v-25c4 0.666992 7.66699 3 11 7c2.66699 3.33301 5.16699 8.33301 7.5 15s3.5 16 3.5 28v25h52v-5c-2 0 -3.66699 -0.666992 -5 -2
c-3.33301 -2 -5 -5.33301 -5 -10c0 -25.333 -7.83301 -45.5 -23.5 -60.5s-40.5 -22.5 -74.5 -22.5v49c0 5.33301 -0.833008 9.33301 -2.5 12l-4.5 7c-2 2 -4 3.66699 -6 5l-19 -18l-17 17c-2.66699 -0.666992 -5.33398 -2.33398 -8.00098 -5.00098
c-2 -2 -3.83301 -4.5 -5.5 -7.5s-2.5 -6.5 -2.5 -10.5c0 -11.333 4.66699 -19.333 14 -24s18 -3.66699 26 3l7 -6c-2 -4.66699 -4.66699 -8.33398 -8 -11.001c-3.33301 -3.33301 -7.33301 -6 -12 -8s-10.667 -3 -18 -3c-12 0 -22 4.83301 -30 14.5s-12 21.167 -12 34.5
c0 12 2.5 21.333 7.5 28s10.833 11.667 17.5 15c7.33301 4 15.666 6.66699 24.999 8z" />
    <glyph glyph-name="uni0E4B.alt2" unicode="&#xf70d;" 
d="M-8 535v-46l-47 4l4 -45h-45l4 45l-47 -4v46l47 -4l-4 48h45l-4 -48l47 4v0z" />
    <glyph glyph-name="uni0E4C.alt2" unicode="&#xf70e;" 
d="M72 561l0.000976562 -10.9971l-65 -33h-105h-49c-12 -0.666992 -19.333 -4.33398 -22 -11.001s-1.33398 -11.667 3.99902 -15c8.66699 -4 15.834 -9.33301 21.501 -16s9 -13.167 10 -19.5s-1 -12 -6 -17s-13.833 -7.83301 -26.5 -8.5
c-6.66699 3.33301 -12.334 8 -17.001 14c-4.66699 5.33301 -8.66699 11.666 -12 18.999s-5 16.666 -5 27.999c0 20 8.33301 36.833 25 50.5s42 20.5 76 20.5z" />
    <glyph glyph-name="uni0E0D.alt1" unicode="&#xf70f;" horiz-adv-x="609" 
d="M284 253c0 35.333 -8.8291 60.9961 -26.4961 76.9961s-42.5 24 -74.5 24c-17.333 0 -31.5 -1 -42.5 -3s-19.5 -4 -25.5 -6c-7.33301 -2.66699 -12.333 -5.33398 -15 -8.00098c3.33301 -3.33301 5.66602 -7.16602 6.99902 -11.499l4 -12.5
c1.33301 -4.66699 2 -9.66699 2 -15v-209c0 -3.33301 0.333008 -7.83301 1 -13.5s2 -11.5 4 -17.5s5 -11.333 9 -16s9.33301 -8 16 -10c9.33301 -2.66699 20.166 -2.83398 32.499 -0.500977s23.166 6.16602 32.499 11.499v-17c-6.66699 -7.33301 -14.667 -14 -24 -20
c-8 -5.33301 -17.667 -9.66602 -29 -12.999s-24.333 -3.66602 -39 -0.999023c-15.333 2 -27.166 7 -35.499 15s-14.5 17 -18.5 27s-6.5 19.833 -7.5 29.5s-1.5 17.5 -1.5 23.5v115c0 29.333 0.333008 62 1 98c0 10 -2 16.667 -6 20c-4 2 -10.333 3 -19 3v6
c13.333 11.333 28.666 21.333 45.999 30c15.333 7.33301 34 14.333 56 21s47.667 10 77 10c19.333 0 39.333 -3.33301 60 -10s36.334 -15.667 47.001 -27c11.333 -12.667 18.666 -26.5 21.999 -41.5s5 -31.833 5 -50.5v-135c0 -5.33301 1 -13.666 3 -24.999
s6 -22.666 12 -33.999s14.667 -21.166 26 -29.499s26.333 -12.5 45 -12.5c18 0 32.667 4.33301 44 13s20.166 18.834 26.499 30.501s10.5 23 12.5 34s3 18.833 3 23.5v257h60l-2 -253c0 -15.333 -3 -31.166 -9 -47.499s-15 -31.333 -27 -45s-27 -25 -45 -34
s-39.333 -13.5 -64 -13.5c-28.667 0 -52.167 4.5 -70.5 13.5s-32.833 20.333 -43.5 34s-18.167 28.667 -22.5 45s-6.5 32.166 -6.5 47.499v123z" />
    <glyph glyph-name="uni0E31.alt1" unicode="&#xf710;" 
d="M-261 520c0 11.333 1.66602 20.665 4.99902 27.998s7.33301 13.666 12 18.999c4.66699 6 10.334 10.667 17.001 14c12.667 -1.33301 21.5 -4.33301 26.5 -9s7 -10.167 6 -16.5s-4.33301 -12.666 -10 -18.999s-12.834 -11.833 -21.501 -16.5
c-5.33301 -3.33301 -6.66602 -8.16602 -3.99902 -14.499s10 -10.166 22 -11.499c15.333 -1.33301 35.333 -2 60 -2h72c27.333 0 56 0.333008 86 1v-11l-64 -33h-106c-34 0 -59.333 7 -76 21s-25 30.667 -25 50z" />
    <glyph glyph-name="uni0E4D.alt1" unicode="&#xf711;" 
d="M-137 483c0 -15.333 -7.66699 -28.333 -23 -39s-33.666 -16 -54.999 -16s-39.5 5.33301 -54.5 16s-22.5 23.667 -22.5 39s7.5 28.333 22.5 39s33.167 16 54.5 16s39.666 -5.33301 54.999 -16s23 -23.667 23 -39zM-215 511c-7.33301 0 -13.833 -2.83301 -19.5 -8.5
s-8.5 -12.167 -8.5 -19.5c0 -8 2.83301 -14.667 8.5 -20s12.167 -8 19.5 -8c8 0 14.833 2.66699 20.5 8s8.5 12 8.5 20c0 7.33301 -2.83301 13.833 -8.5 19.5s-12.5 8.5 -20.5 8.5z" />
    <glyph glyph-name="uni0E47.alt1" unicode="&#xf712;" 
d="M-187 558c7.33301 0 12.333 3.33496 15 10.002c1.33301 2.66699 2 6.33398 2 11.001h35c0 -17.333 -4.33301 -29.833 -13 -37.5s-18.667 -11.5 -30 -11.5h-61c-2 0 -5.16699 -0.333008 -9.5 -1s-8.5 -1.83398 -12.5 -3.50098s-7.66699 -4.33398 -11 -8.00098
s-5 -8.5 -5 -14.5s0.833008 -10.667 2.5 -14s3.83398 -6 6.50098 -8c2.66699 -2.66699 5.66699 -4.33398 9 -5.00098l31 31l30 -30c4 -0.666992 7.66699 -0.333984 11 0.999023c2.66699 1.33301 5.16699 2.83301 7.5 4.5s3.5 4.5 3.5 8.5
c0 5.33301 -3.33301 8.66602 -10 9.99902s-12.667 2 -18 2v13c2 0.666992 4.33301 1.33398 7 2.00098c2 0.666992 4.16699 1.33398 6.5 2.00098s5.16602 1 8.49902 1c9.33301 0 18.833 -2.5 28.5 -7.5s14.5 -12.5 14.5 -22.5c0 -11.333 -3.5 -20 -10.5 -26
s-14.833 -10.333 -23.5 -13c-10 -3.33301 -21 -5 -33 -5l-22 23l-23 -23c-12 1.33301 -22.667 4 -32 8c-8 3.33301 -15.333 8.83301 -22 16.5s-10 18.5 -10 32.5c0 10.667 2.5 19.5 7.5 26.5s11.333 12.5 19 16.5s16.167 6.83301 25.5 8.5s18.333 2.5 27 2.5h49z" />
    <glyph glyph-name="uni0E48.alt3" unicode="&#xf713;" 
d="M-182 623l-4 98h55l-5 -98h-46v0z" />
    <glyph glyph-name="uni0E49.alt3" unicode="&#xf714;" 
d="M-27 721c-0.666992 -18.667 -4.66602 -35.334 -11.999 -50.001c-6.66699 -12.667 -16.834 -24 -30.501 -34s-33.5 -15 -59.5 -15h-92v7c11.333 0 19.666 1.66699 24.999 5c4 4 6 12.667 6 26v23c0 13.333 -2 22 -6 26c-5.33301 3.33301 -13.666 5 -24.999 5v7h83v-79
c10 0 19 2.66699 27 8c7.33301 4.66699 13.833 12.334 19.5 23.001s8.5 26.667 8.5 48h56z" />
    <glyph glyph-name="uni0E4A.alt3" unicode="&#xf715;" 
d="M-219 722l16.002 -16.9961l17 17c8.66699 -2 16.667 -5 24 -9c6 -3.33301 11.667 -8.33301 17 -15s8 -15.334 8 -26.001v-25c4 0.666992 7.66699 3 11 7c2.66699 3.33301 5.16699 8.33301 7.5 15s3.5 16 3.5 28v25h52v-6c-2 -0.666992 -3.66699 -1.33398 -5 -2.00098
c-3.33301 -2 -5 -5 -5 -9c0 -26 -7.83301 -46.333 -23.5 -61s-40.5 -22 -74.5 -22v49c0 5.33301 -0.833008 9.33301 -2.5 12l-4.5 7c-2 2 -4 3.66699 -6 5l-19 -18l-17 17c-2.66699 -0.666992 -5.33398 -2.33398 -8.00098 -5.00098c-2 -2 -3.83301 -4.5 -5.5 -7.5
s-2.5 -6.5 -2.5 -10.5c0 -11.333 4.66699 -19.333 14 -24s18 -3.66699 26 3l7 -7c-2 -4.66699 -4.66699 -8.33398 -8 -11.001s-7.33301 -5 -12 -7s-10.667 -3 -18 -3c-12 0 -22 4.83301 -30 14.5s-12 21.167 -12 34.5c0 12 2.5 21.333 7.5 28s10.833 11.667 17.5 15
c7.33301 4 15.666 6.66699 24.999 8z" />
    <glyph glyph-name="uni0E4B.alt3" unicode="&#xf716;" 
d="M-96 707v-46l-47 4l4 -45h-45l4 45l-47 -4v46l47 -4l-4 48h45l-4 -48l47 4v0z" />
    <glyph glyph-name="uni0E4C.alt3" unicode="&#xf717;" 
d="M-21 702l-0.999023 -10.9971l-64 -33h-105h-49c-12 -0.666992 -19.333 -4.33398 -22 -11.001s-1.33398 -11.667 3.99902 -15c8.66699 -4 15.834 -9.33301 21.501 -16s9 -13.167 10 -19.5s-1 -12 -6 -17s-13.833 -7.83301 -26.5 -8.5
c-6.66699 3.33301 -12.334 8 -17.001 14c-4.66699 5.33301 -8.66699 11.666 -12 18.999s-5 16.666 -5 27.999c0 20 8.16699 36.833 24.5 50.5s41.833 20.5 76.5 20.5z" />
    <glyph glyph-name="uni0E38.alt1" unicode="&#xf718;" 
d="M-123 -378v110c0 12.667 -2 20.667 -6 24c-4.66699 3.33301 -12 5 -22 5v6h83v-145h-55z" />
    <glyph glyph-name="uni0E39.alt1" unicode="&#xf719;" 
d="M-194 -267c0 12 -2.00293 19.667 -6.00293 23c-3.33301 3.33301 -10.666 5 -21.999 5v7h83v-90c0 -7.33301 2.33301 -13.333 7 -18s10.334 -7 17.001 -7s12.334 2.33301 17.001 7s7 10.667 7 18v90h55v-66c0 -22 -7.66699 -40.667 -23 -56s-34 -23 -56 -23
s-40.667 7.66699 -56 23s-23 34 -23 56v31z" />
    <glyph glyph-name="uni0E3A.alt1" unicode="&#xf71a;" 
d="M-34 -259c0 -19.333 -9.66699 -29 -29 -29s-29 9.66699 -29 29s9.66699 29 29 29s29 -9.66699 29 -29z" />
    <glyph glyph-name="uni0E0E.alt1" unicode="&#xf71b;" horiz-adv-x="426" 
 />
    <glyph glyph-name="uni0E0F.alt1" unicode="&#xf71c;" horiz-adv-x="426" 
 />
    <glyph glyph-name="uni0E2C.alt1" unicode="&#xf71d;" horiz-adv-x="449" 
 />
    <glyph glyph-name="fi" unicode="&#xfb01;" horiz-adv-x="374" 
 />
    <glyph glyph-name="uni0E33.alt2" unicode="&#xfb02;" horiz-adv-x="313" 
d="M-103 482c0 -15.333 -7.66699 -28.166 -23 -38.499s-33.666 -15.5 -54.999 -15.5s-39.5 5.16699 -54.5 15.5s-22.5 23.166 -22.5 38.499s7.5 28.333 22.5 39s33.167 16 54.5 16s39.666 -5.33301 54.999 -16s23 -23.667 23 -39zM-181 511
c-7.33301 0 -13.833 -2.83301 -19.5 -8.5s-8.5 -12.5 -8.5 -20.5c0 -7.33301 2.83301 -13.833 8.5 -19.5s12.167 -8.5 19.5 -8.5c8 0 14.667 2.83301 20 8.5s8 12.167 8 19.5c0 8 -2.66699 14.833 -8 20.5s-12 8.5 -20 8.5zM263 265l0.000976562 -231
c0 -12.667 2 -20.334 6 -23.001c4.66699 -3.33301 12 -5 22 -5v-6h-88l2 257v11v17c0 13.333 -3 25 -9 35c-6.66699 10.667 -14.334 19 -23.001 25c-10.667 7.33301 -21.667 12.333 -33 15c-13.333 3.33301 -25.333 5 -36 5c-3.33301 0 -6.66602 -0.333008 -9.99902 -1
s-7 -1.66699 -11 -3l-11 -4.5l-11 -4.5c-8.66699 -4 -16 -8.33301 -22 -13c-3.33301 -2 -6.5 -4.16699 -9.5 -6.5s-6.16699 -4.16602 -9.5 -5.49902l-7 4c2.66699 3.33301 5.33398 6.33301 8.00098 9l8 8c3.33301 2.66699 6.16602 5.16699 8.49902 7.5
s5.16602 4.5 8.49902 6.5c13.333 10.667 27.666 19 42.999 25c14.667 5.33301 30.334 8 47.001 8c40 0 71 -10.333 93 -31c22.667 -21.333 34 -52.333 34 -93v-6z" />
    <glyph glyph-name="uni0E33.alt1" horiz-adv-x="315" 
d="M-137 483c0 -15.333 -7.66699 -28.333 -23 -39s-33.666 -16 -54.999 -16s-39.5 5.33301 -54.5 16s-22.5 23.667 -22.5 39s7.5 28.333 22.5 39s33.167 16 54.5 16s39.666 -5.33301 54.999 -16s23 -23.667 23 -39zM-215 511c-7.33301 0 -13.833 -2.83301 -19.5 -8.5
s-8.5 -12.167 -8.5 -19.5c0 -8 2.83301 -14.667 8.5 -20s12.167 -8 19.5 -8c8 0 14.833 2.66699 20.5 8s8.5 12 8.5 20c0 7.33301 -2.83301 13.833 -8.5 19.5s-12.5 8.5 -20.5 8.5zM262 265v-230.002c0 -13.333 2 -21.333 6 -24c4.66699 -3.33301 12.334 -5 23.001 -5v-6
h-89l2 257v11v17c0 13.333 -3 25 -9 35c-6 10.667 -13.667 19.334 -23 26.001s-20 11.334 -32 14.001c-13.333 3.33301 -25.333 5 -36 5c-8 0 -15 -1.33301 -21 -4c-6.66699 -2 -14.334 -5 -23.001 -9c-3.33301 -2 -7 -4 -11 -6s-7.66699 -4 -11 -6
c-3.33301 -2.66699 -6.5 -5 -9.5 -7s-5.83301 -4 -8.5 -6l-8 5l8.5 8.5c2.33301 2.33301 5.16602 4.83301 8.49902 7.5c2.66699 3.33301 5.33398 6 8.00098 8l9 7c14 10 28 18 42 24c14.667 5.33301 30.334 8 47.001 8c41.333 0 72.666 -10.333 93.999 -31
c22 -20.667 33 -51.667 33 -93v-6z" />
    <glyph glyph-name="uni0E4E.alt1" 
 />
    <glyph glyph-name="fl.002" horiz-adv-x="374" 
 />
    </font>
</defs>
</svg>
